<svg id="图层_1" data-name="图层 1" xmlns="http://www.w3.org/2000/svg" viewBox="0 0 348.62 109.32"><defs><style>.cls-1,.cls-3{fill:#fff;}.cls-2{fill:#e40b7b;}.cls-3{font-size:62px;font-family:UnicaOne-Regular, Unica One;}</style></defs><path class="cls-1" d="M-118.36-139.45A34.52,34.52,0,0,1-93-129a33.89,33.89,0,0,1,10.31,25q0,8.36-3.55,13.68a11.6,11.6,0,0,1-10.3,5.4,10.16,10.16,0,0,1-8.11-3.54,3.43,3.43,0,0,0-4.73-.34h0a14.61,14.61,0,0,1-10.3,3.72,16.69,16.69,0,0,1-12.67-5.24c-3.38-3.55-5.07-7.94-5.07-13.51a18.5,18.5,0,0,1,5.07-13.35,16.67,16.67,0,0,1,12.33-5.4,14.75,14.75,0,0,1,11.65,5.4l.17.17h0a.59.59,0,0,0,.34-.17h0v-.5a3.39,3.39,0,0,1,3.38-3.38h0a3.39,3.39,0,0,1,3.38,3.38h0v20.6a8.31,8.31,0,0,0,1.35,4.39c.84,1.36,2.19,1.86,4,1.86q6.58,0,6.59-13.17a27.76,27.76,0,0,0-8.45-20.44,28,28,0,0,0-20.6-8.28,28.31,28.31,0,0,0-20.61,8.28A27.8,27.8,0,0,0-147.25-104a27.83,27.83,0,0,0,8.45,20.44,28,28,0,0,0,20.61,8.27,30.54,30.54,0,0,0,8.78-1.35,3.38,3.38,0,0,1,4.22,1.86h0a3.57,3.57,0,0,1-1.69,4.39.16.16,0,0,0-.16.17,34.78,34.78,0,0,1-11,1.69c-10.14,0-18.75-3.38-25.68-10.31S-154-94-154.17-104a34.08,34.08,0,0,1,10.47-25C-136.94-136.08-128.5-139.45-118.36-139.45ZM-126.81-95a11.33,11.33,0,0,0,15.71,0,11.59,11.59,0,0,0,3.21-8.62,11.58,11.58,0,0,0-3.21-8.61,11.33,11.33,0,0,0-15.71,0,11.62,11.62,0,0,0-3.21,8.61A11,11,0,0,0-126.81-95Z" transform="translate(173.11 158.64)"/><circle class="cls-2" cx="74.51" cy="80.5" r="4.22"/><path class="cls-1" d="M-118-63.8a1,1,0,0,1,.87-1h0a1,1,0,0,1,1,.87h0a1,1,0,0,1-.87,1h0A.82.82,0,0,1-118-63.8Zm-6.25.58h0a1,1,0,0,1-.87-1h0a1,1,0,0,1,1-.87h0a1,1,0,0,1,.88,1h0c0,.58-.29.87-1,.87ZM-111-64.38a.9.9,0,0,1,.72-1.17h0a.91.91,0,0,1,1.17.73h0a.9.9,0,0,1-.73,1.16H-110C-110.6-63.66-111-63.95-111-64.38Zm-20.21-.44a1,1,0,0,1-.58-1.16h0a1,1,0,0,1,1.16-.58h0a1,1,0,0,1,.58,1.16h0a.91.91,0,0,1-.87.73h0c0-.15-.14-.15-.29-.15Zm26.9-1.45a1.07,1.07,0,0,1,.58-1.31h0a1.06,1.06,0,0,1,1.3.58h0a1.07,1.07,0,0,1-.58,1.31h-.29A1.21,1.21,0,0,1-104.34-66.27Zm-33.44-1.31a1.18,1.18,0,0,1-.44-1.31h0a1.18,1.18,0,0,1,1.31-.44h0a1.19,1.19,0,0,1,.44,1.31h0a.72.72,0,0,1-.87.44h0c-.15.14-.3,0-.44,0Zm39.83-1.75a.94.94,0,0,1,.29-1.3h0a.94.94,0,0,1,1.31.29h0A1,1,0,0,1-96.64-69h0a.56.56,0,0,1-.44.14h0a.87.87,0,0,1-.87-.44Zm-45.94-2.18h0a.92.92,0,0,1-.14-1.3h0a.92.92,0,0,1,1.31-.15h0a.93.93,0,0,1,.14,1.31h0a.78.78,0,0,1-.73.43h0c-.14-.14-.29-.14-.58-.29Zm51.61-1.89a1.07,1.07,0,0,1,0-1.3h0a1.09,1.09,0,0,1,1.31,0h0a1.07,1.07,0,0,1,0,1.3h0a1.1,1.1,0,0,1-.58.29h0A1.11,1.11,0,0,1-92.28-73.4Zm-56.84-3h0a1.09,1.09,0,0,1,0-1.31h0a1.09,1.09,0,0,1,1.31,0h0a1.09,1.09,0,0,1,0,1.31h0a1.1,1.1,0,0,1-.58.29h0a.81.81,0,0,1-.73-.29Zm61.78-2a.93.93,0,0,1-.14-1.31h0a.92.92,0,0,1,1.31-.15h0A.93.93,0,0,1-86-78.63h0a.79.79,0,0,1-.72.44h0A.78.78,0,0,1-87.34-78.48Zm-66-3.64a1,1,0,0,1,.29-1.31h0a1,1,0,0,1,1.31.29h0a.94.94,0,0,1-.29,1.31h0a.51.51,0,0,1-.43.15h0A.9.9,0,0,1-153.34-82.12Zm69.93-2a1.18,1.18,0,0,1-.44-1.31h0a1.18,1.18,0,0,1,1.31-.44h0a1.18,1.18,0,0,1,.44,1.31h0a.72.72,0,0,1-.88.44h-.43Zm-73.27-4.36h0a1.08,1.08,0,0,1,.58-1.31h0a1.07,1.07,0,0,1,1.31.58h0a1.08,1.08,0,0,1-.58,1.31h-.29A1.23,1.23,0,0,1-156.68-88.51Zm76.18-2a1,1,0,0,1-.59-1.16h0a1,1,0,0,1,1.17-.58h0a1,1,0,0,1,.58,1.16h0a.94.94,0,0,1-.87.73h0a.45.45,0,0,0-.29-.15Zm-78.21-4.8a.89.89,0,0,1,.72-1.16h0a.91.91,0,0,1,1.17.73h0a.9.9,0,0,1-.73,1.16h-.15A1,1,0,0,1-158.71-95.35Zm80-2a1,1,0,0,1-.87-1h0a1,1,0,0,1,1-.87h0a1,1,0,0,1,.87,1h0c0,.58-.44.87-1,.87Zm-80.83-5.09h0a1,1,0,0,1,.88-1h0a1,1,0,0,1,1,.87h0a1,1,0,0,1-.87,1h0A1,1,0,0,1-159.59-102.47Zm80.39-2.91a1,1,0,0,1,.88-1h0a1,1,0,0,1,1,.88h0a1,1,0,0,1-.87,1h0A.82.82,0,0,1-79.2-105.38Zm-79.22-3.2a1,1,0,0,1-.88-1h0a1,1,0,0,1,1-.88h0a1,1,0,0,1,.87,1h0a1,1,0,0,1-1,.87Zm78.35-3.49h0a.9.9,0,0,1,.73-1.16h0a.9.9,0,0,1,1.16.73h0a.89.89,0,0,1-.72,1.16H-79c-.58,0-1-.29-1-.73Zm-76.9-3.48a1,1,0,0,1-.58-1.17h0a1,1,0,0,1,1.16-.58h0a1,1,0,0,1,.58,1.16h0a.91.91,0,0,1-.87.73h0C-156.82-115.41-156.82-115.41-157-115.55Zm74.87-3.06a1.08,1.08,0,0,1,.58-1.31h0a1.08,1.08,0,0,1,1.31.59h0a1.07,1.07,0,0,1-.58,1.3h-.3A1,1,0,0,1-82.1-118.61Zm-72.25-3.34a1.18,1.18,0,0,1-.44-1.31h0a1.17,1.17,0,0,1,1.31-.43h0a1.16,1.16,0,0,1,.43,1.3h0a1,1,0,0,1-.87.58h0C-154.06-121.81-154.21-121.95-154.35-121.95Zm69.19-2.76h0a1,1,0,0,1,.3-1.31h0a.94.94,0,0,1,1.3.29h0a.94.94,0,0,1-.29,1.31h0a.53.53,0,0,1-.43.14h0A.89.89,0,0,1-85.16-124.71Zm-65.56-3.2a.91.91,0,0,1-.14-1.31h0a.9.9,0,0,1,1.3-.14h0a.91.91,0,0,1,.15,1.3h0a.81.81,0,0,1-.73.44h0C-150.28-127.77-150.57-127.77-150.72-127.91Zm61.49-2.33h0a1.09,1.09,0,0,1,0-1.31h0a1.09,1.09,0,0,1,1.31,0h0a1.09,1.09,0,0,1,0,1.31h0a1,1,0,0,1-.58.29h0a.53.53,0,0,1-.73-.29Zm-56.84-2.9a1.09,1.09,0,0,1,0-1.31h0a1.09,1.09,0,0,1,1.31,0h0a1.09,1.09,0,0,1,0,1.31h0a1.1,1.1,0,0,1-.58.29h0A1.16,1.16,0,0,1-146.07-133.14Zm51.76-1.75a.92.92,0,0,1-.15-1.31h0a.93.93,0,0,1,1.31-.14h0A.93.93,0,0,1-93-135h0a.78.78,0,0,1-.72.43h0A1,1,0,0,1-94.31-134.89Zm-46.23-2.62a.94.94,0,0,1,.29-1.3h0a1,1,0,0,1,1.31.29h0a1,1,0,0,1-.29,1.31h0a.57.57,0,0,1-.44.14h0A.85.85,0,0,1-140.54-137.51Zm40.56-1a1.17,1.17,0,0,1-.44-1.31h0a1.18,1.18,0,0,1,1.31-.44h0a1.17,1.17,0,0,1,.43,1.31h0a.71.71,0,0,1-.87.44H-100Zm-34.46-2.33a1.08,1.08,0,0,1,.58-1.31h0a1.08,1.08,0,0,1,1.31.58h0a1.07,1.07,0,0,1-.58,1.31h-.29A1.23,1.23,0,0,1-134.44-140.85Zm28.21-.44a1,1,0,0,1-.59-1.16h0a1,1,0,0,1,1.17-.58h0a1,1,0,0,1,.58,1.16h0a.93.93,0,0,1-.87.73h0A.48.48,0,0,1-106.23-141.29ZM-127.75-143a.89.89,0,0,1,.73-1.16h0a.89.89,0,0,1,1.16.72h0a.9.9,0,0,1-.73,1.17h-.14A1.09,1.09,0,0,1-127.75-143Zm14.83.29a1,1,0,0,1-.87-1h0a1,1,0,0,1,1-.87h0a1,1,0,0,1,.88,1h0a1,1,0,0,1-1,.87Zm-7.85-1.31a1,1,0,0,1,.87-1h0a1,1,0,0,1,1,.87h0a1,1,0,0,1-.87,1h0a1,1,0,0,1-1-.87Z" transform="translate(173.11 158.64)"/><path class="cls-1" d="M-120-58.84h0a1.13,1.13,0,0,1-1-1.17h0a1.12,1.12,0,0,1,1.16-1h0a1,1,0,0,1,1,1h0c-.15.73-.58,1.17-1.17,1.17Zm6.69-1.31a.94.94,0,0,1,.87-1.17h0a.94.94,0,0,1,1.17.88h0a.93.93,0,0,1-.88,1.16h-.14a1,1,0,0,1-1-.87Zm-14.54.29h0a1.28,1.28,0,0,1-.87-1.31h0a1.28,1.28,0,0,1,1.31-.87h0a1.26,1.26,0,0,1,.87,1.31h0a1.25,1.25,0,0,1-1,.87h-.3Zm22.1-1.89a1.05,1.05,0,0,1,.73-1.31h0a1,1,0,0,1,1.31.73h0a1.05,1.05,0,0,1-.73,1.31h-.29a1.11,1.11,0,0,1-1-.73Zm-29.65-.44A.92.92,0,0,1-136-63.5h0c.29-.58.88-.87,1.31-.58h0a.92.92,0,0,1,.58,1.31h0a1.08,1.08,0,0,1-1,.73h0a.43.43,0,0,1-.29-.15Zm36.77-2.32A1,1,0,0,1-98.24-66h0a1,1,0,0,1,1.45.44h0a1,1,0,0,1-.43,1.45h0a.53.53,0,0,1-.44.15h0C-98.09-64.08-98.53-64.22-98.68-64.51Zm-43.75-1.17a1.12,1.12,0,0,1-.29-1.45h0a1.12,1.12,0,0,1,1.45-.29h0A1.12,1.12,0,0,1-141-66h0a1,1,0,0,1-.87.44h0c-.29,0-.44-.15-.58-.15Zm50.3-2.9A1.12,1.12,0,0,1-92-70h0a1.11,1.11,0,0,1,1.46.15h0a1.09,1.09,0,0,1-.15,1.45h0a1.1,1.1,0,0,1-.58.29h0a1.25,1.25,0,0,1-.87-.43Zm-56.55-1.89a1.12,1.12,0,0,1-.15-1.46h0a1.12,1.12,0,0,1,1.45-.14h0a1.11,1.11,0,0,1,.15,1.45h0c-.15.29-.44.29-.73.29h0a.63.63,0,0,1-.72-.14Zm62.36-3.2a1.13,1.13,0,0,1-.14-1.46h0A1.12,1.12,0,0,1-85-75.27h0a1.11,1.11,0,0,1,.15,1.45h0c-.15.29-.44.29-.73.29h0a1.14,1.14,0,0,1-.73-.14Zm-67.74-2.62a1.1,1.1,0,0,1,.14-1.45h0a1.12,1.12,0,0,1,1.46.14h0a1.11,1.11,0,0,1-.15,1.46h0a1.1,1.1,0,0,1-.58.29h0A.87.87,0,0,1-154.06-76.29Zm72.54-3.49a1.12,1.12,0,0,1-.29-1.45h0a1.12,1.12,0,0,1,1.45-.29h0a1.12,1.12,0,0,1,.29,1.45h0a1,1,0,0,1-.87.44h0c-.29,0-.44,0-.58-.15Zm-76.9-3h0a1,1,0,0,1,.43-1.45h0a1,1,0,0,1,1.46.43h0a1,1,0,0,1-.44,1.46h0a.56.56,0,0,1-.44.14h0A1.21,1.21,0,0,1-158.42-82.83Zm80.53-3.78c-.58-.29-.87-.87-.58-1.31h0a.92.92,0,0,1,1.31-.58h0c.58.29.87.87.58,1.31h0a1.09,1.09,0,0,1-1,.72h0A.47.47,0,0,1-77.89-86.61Zm-83.59-3.49a1.05,1.05,0,0,1,.73-1.31h0a1.05,1.05,0,0,1,1.31.73h0a1.05,1.05,0,0,1-.73,1.31h-.29A1.09,1.09,0,0,1-161.48-90.1Zm86.06-3.78a1.27,1.27,0,0,1-.87-1.31h0A1.28,1.28,0,0,1-75-96.06h0a1.28,1.28,0,0,1,.87,1.31h0a1.25,1.25,0,0,1-1,.87h-.3Zm-87.8-3.92a.93.93,0,0,1,.87-1.17h0a.93.93,0,0,1,1.16.87h0a.93.93,0,0,1-.87,1.17h-.14C-162.78-96.93-163.22-97.22-163.22-97.8Zm88.82-3.64a1.12,1.12,0,0,1-1-1.16h0a1,1,0,0,1,1.17-1h0a1.12,1.12,0,0,1,1,1.16h0a1.12,1.12,0,0,1-1.16,1Zm-88.24-3.2a1.12,1.12,0,0,1-1-1.16h0a1.13,1.13,0,0,1,1.17-1h0a1,1,0,0,1,1,1h0c-.14.73-.58,1.16-1.16,1.16ZM-75.71-110h0a.93.93,0,0,1,.88-1.16h0a.93.93,0,0,1,1.16.87h0a.94.94,0,0,1-.87,1.17h-.15a1,1,0,0,1-1-.88Zm-86.2-2.18a1.27,1.27,0,0,1-.88-1.3h0a1.27,1.27,0,0,1,1.31-.88h0a1.29,1.29,0,0,1,.88,1.31h0a1.26,1.26,0,0,1-1,.87h-.29Zm84.46-5.23a1,1,0,0,1,.73-1.31h0a1,1,0,0,1,1.3.73h0a1,1,0,0,1-.72,1.31h-.29c-.44.14-.88-.29-1-.73Zm-82.43-2.18a1.08,1.08,0,0,1-.58-1.31h0a.92.92,0,0,1,1.31-.58h0c.58.29.87.87.58,1.31h0a1.09,1.09,0,0,1-1,.72h0C-159.59-119.61-159.73-119.61-159.88-119.61Zm79.52-4.65h0a1,1,0,0,1,.44-1.46h0a1,1,0,0,1,1.45.44h0a1,1,0,0,1-.43,1.45h0a.54.54,0,0,1-.44.15h0A1.23,1.23,0,0,1-80.36-124.26Zm-76.17-2.33a1.11,1.11,0,0,1-.29-1.45h0a1.12,1.12,0,0,1,1.45-.29h0a1.12,1.12,0,0,1,.29,1.45h0a1,1,0,0,1-.87.44h0A1.06,1.06,0,0,1-156.53-126.59Zm72.1-4.07a1.09,1.09,0,0,1,.15-1.45h0a1.1,1.1,0,0,1,1.45.14h0a1.11,1.11,0,0,1-.15,1.46h0a1.1,1.1,0,0,1-.58.29h0a.89.89,0,0,1-.87-.44Zm-67.6-2.18a1.12,1.12,0,0,1-.14-1.45h0a1.11,1.11,0,0,1,1.45-.15h0a1.12,1.12,0,0,1,.15,1.46h0c-.15.29-.44.29-.73.29h0C-151.59-132.55-151.74-132.69-152-132.84Zm62.37-3.2a1.11,1.11,0,0,1-.15-1.45h0a1.12,1.12,0,0,1,1.46-.15h0a1.13,1.13,0,0,1,.14,1.46h0c-.14.29-.43.29-.73.29h0A1.52,1.52,0,0,1-89.66-136Zm-56.84-2.18a1.1,1.1,0,0,1,.14-1.45h0a1.12,1.12,0,0,1,1.46.14h0a1.11,1.11,0,0,1-.15,1.46h0a1.14,1.14,0,0,1-.58.29h0A1.26,1.26,0,0,1-146.5-138.22Zm50.88-2.47h0a1.12,1.12,0,0,1-.29-1.45h0a1.12,1.12,0,0,1,1.45-.29h0a1.12,1.12,0,0,1,.29,1.45h0a1,1,0,0,1-.87.44h0C-95.19-140.4-95.48-140.54-95.62-140.69Zm-44.49-1.89a1,1,0,0,1,.44-1.45h0a1.13,1.13,0,0,1,1.45.43h0a1,1,0,0,1-.43,1.46h0a.56.56,0,0,1-.44.14h0A1.23,1.23,0,0,1-140.11-142.58Zm37.8-1.45h0c-.58-.29-.87-.88-.58-1.31h0c.29-.58.87-.87,1.31-.58h0a1,1,0,0,1,.58,1.31h0a1.1,1.1,0,0,1-1,.72h0C-102-144-102.16-144-102.31-144Zm-30.82-1.75a1.05,1.05,0,0,1,.73-1.31h0a1.05,1.05,0,0,1,1.31.73h0a1.05,1.05,0,0,1-.73,1.31h-.29a1.09,1.09,0,0,1-1-.73Zm23.7-.43h0a1.29,1.29,0,0,1-.88-1.31h0a1.28,1.28,0,0,1,1.31-.87h0a1.27,1.27,0,0,1,.88,1.3h0a1.27,1.27,0,0,1-1,.88h-.29Zm-16.14-1.46a.93.93,0,0,1,.87-1.16h0a.94.94,0,0,1,1.17.87h0a.93.93,0,0,1-.88,1.16h-.14c-.58,0-1-.29-1-.87Zm8.58.58a1,1,0,0,1-1-1h0a1,1,0,0,1,1.16-1h0a1.12,1.12,0,0,1,1,1.16h0a1.14,1.14,0,0,1-1.16.87Z" transform="translate(173.11 158.64)"/><path class="cls-1" d="M-116.27-55.44a1.4,1.4,0,0,1,1-1.31h0a1.4,1.4,0,0,1,1.31,1h0a1.41,1.41,0,0,1-1,1.31h-.14C-115.68-54.28-116.12-54.72-116.27-55.44Zm-7.41,1a1.1,1.1,0,0,1-1-1.31h0a1.09,1.09,0,0,1,1.31-1h0a1.09,1.09,0,0,1,1,1.31h0a1.18,1.18,0,0,1-1.31,1Zm15.85-2a1.28,1.28,0,0,1,.87-1.45h0a1.28,1.28,0,0,1,1.45.87h0a1.28,1.28,0,0,1-.87,1.45h-.29a1.25,1.25,0,0,1-1.16-.87Zm-24.28.29a1.08,1.08,0,0,1-.73-1.45h0a1.09,1.09,0,0,1,1.46-.73h0a1.08,1.08,0,0,1,.72,1.45h0a1.26,1.26,0,0,1-1.16.88h0c-.15,0-.29,0-.29-.15Zm32.27-2.91a1.23,1.23,0,0,1,.58-1.6h0a1.22,1.22,0,0,1,1.6.59h0a1.23,1.23,0,0,1-.58,1.6h0c-.14,0-.29.14-.44.14h0a1.48,1.48,0,0,1-1.16-.73Zm-40.41-.14h0a1.22,1.22,0,0,1-.58-1.6h0a1.22,1.22,0,0,1,1.6-.58h0a1.22,1.22,0,0,1,.58,1.6h0a1,1,0,0,1-1,.58h0C-140-59.08-140.11-59.08-140.25-59.22Zm48-3.78A1.3,1.3,0,0,1-92-64.6h0a1.28,1.28,0,0,1,1.6.29h0a1.28,1.28,0,0,1-.29,1.6h0a.91.91,0,0,1-.58.14h0A.88.88,0,0,1-92.28-63Zm-55.39-.73a1.18,1.18,0,0,1-.29-1.6h0a1.19,1.19,0,0,1,1.6-.29h0a1.19,1.19,0,0,1,.29,1.6h0a1.26,1.26,0,0,1-.87.44h0A.65.65,0,0,1-147.67-63.73Zm62.08-4.36a1.13,1.13,0,0,1,0-1.6h0a1.15,1.15,0,0,1,1.6,0h0a1.15,1.15,0,0,1,0,1.6h0a1.22,1.22,0,0,1-.87.29h0A2.29,2.29,0,0,1-85.59-68.09Zm-68.62-1.31a1.15,1.15,0,0,1,0-1.6h0a1.15,1.15,0,0,1,1.6,0h0a1.13,1.13,0,0,1,0,1.6h0a1.53,1.53,0,0,1-.87.29h0A.53.53,0,0,1-154.21-69.4Zm74.29-4.94a1.19,1.19,0,0,1-.29-1.6h0a1.18,1.18,0,0,1,1.6-.29h0a1.19,1.19,0,0,1,.29,1.6h0a1.32,1.32,0,0,1-1,.43h0a1.12,1.12,0,0,1-.58-.14Zm-79.81-1.75h0a1.27,1.27,0,0,1,.29-1.59h0a1.28,1.28,0,0,1,1.6.29h0a1.3,1.3,0,0,1-.29,1.6h0a.91.91,0,0,1-.58.14h0c-.44.15-.73-.14-1-.44Zm84.31-5.52a1.22,1.22,0,0,1-.58-1.6h0a1.22,1.22,0,0,1,1.6-.58h0a1.22,1.22,0,0,1,.58,1.6h0a1,1,0,0,1-1,.58h0C-75-81.46-75.12-81.46-75.42-81.61Zm-88.53-2h0a1.22,1.22,0,0,1,.58-1.6h0a1.22,1.22,0,0,1,1.6.58h0a1.22,1.22,0,0,1-.58,1.6h0c-.14,0-.29.14-.44.14h0A1.49,1.49,0,0,1-163.95-83.64Zm91.88-5.67a1.1,1.1,0,0,1-.73-1.46h0a1.08,1.08,0,0,1,1.45-.72h0A1.08,1.08,0,0,1-70.62-90h0a1.25,1.25,0,0,1-1.16.87h0a.47.47,0,0,0-.29-.14Zm-94.64-2.62a1.28,1.28,0,0,1,.87-1.45h0a1.3,1.3,0,0,1,1.46.87h0a1.28,1.28,0,0,1-.88,1.45h-.29A1.11,1.11,0,0,1-166.71-91.93Zm96.38-5.67a1.09,1.09,0,0,1-1-1.31h0a1.1,1.1,0,0,1,1.31-1h0a1.09,1.09,0,0,1,1,1.31h0a1.18,1.18,0,0,1-1.31,1ZM-168-100.36a1.4,1.4,0,0,1,1-1.31h0a1.12,1.12,0,0,1,1.16,1h0a1.4,1.4,0,0,1-1,1.31H-167a1.09,1.09,0,0,1-1-1Zm96.82-6.83h0a1.39,1.39,0,0,1,1-1.31h0a1.4,1.4,0,0,1,1.31,1h0a1.39,1.39,0,0,1-1,1.31H-70A1,1,0,0,1-71.2-107.19Zm-95.66-.59a1.08,1.08,0,0,1-1-1.3h0a1.08,1.08,0,0,1,1.31-1h0a1.08,1.08,0,0,1,1,1.31h0a1.26,1.26,0,0,1-1.31,1Zm94.35-7.56h0a1.29,1.29,0,0,1,.87-1.45h0a1.3,1.3,0,0,1,1.46.87h0a1.31,1.31,0,0,1-.87,1.46h-.3A1.1,1.1,0,0,1-72.51-115.34Zm-92.89-.87a1.08,1.08,0,0,1-.73-1.45h0a1.09,1.09,0,0,1,1.46-.73h0a1.09,1.09,0,0,1,.72,1.46h0a1.26,1.26,0,0,1-1.16.87h0C-165.26-116.06-165.4-116.06-165.4-116.21Zm90.28-7h0a1.22,1.22,0,0,1,.58-1.6h0a1.22,1.22,0,0,1,1.6.59h0a1.22,1.22,0,0,1-.59,1.6h0c-.14,0-.29.14-.43.14h0A1.14,1.14,0,0,1-75.12-123.19Zm-87.52-.87a1.22,1.22,0,0,1-.58-1.6h0a1.22,1.22,0,0,1,1.6-.58h0a1.22,1.22,0,0,1,.58,1.6h0a1.09,1.09,0,0,1-1,.73h0A.84.84,0,0,0-162.64-124.06Zm83.44-6.25a1.29,1.29,0,0,1,.3-1.6h0a1.28,1.28,0,0,1,1.59.29h0a1.27,1.27,0,0,1-.29,1.6h0a.84.84,0,0,1-.58.15h0A1.35,1.35,0,0,1-79.2-130.31Zm-79.22-1.16a1.17,1.17,0,0,1-.29-1.6h0a1.17,1.17,0,0,1,1.59-.29h0a1.18,1.18,0,0,1,.3,1.6h0a1.35,1.35,0,0,1-1,.43h0A.88.88,0,0,1-158.42-131.47Zm74-5.24a1.14,1.14,0,0,1,0-1.59h0a1.13,1.13,0,0,1,1.6,0h0a1.12,1.12,0,0,1,0,1.59h0a1.22,1.22,0,0,1-.87.29h0A2.29,2.29,0,0,1-84.43-136.71ZM-153-138a1.15,1.15,0,0,1,0-1.6h0a1.13,1.13,0,0,1,1.6,0h0a1.13,1.13,0,0,1,0,1.6h0a1.23,1.23,0,0,1-.87.29h0C-152.46-137.58-152.75-137.72-153-138Zm62.52-4.22h0a1.18,1.18,0,0,1-.3-1.6h0a1.19,1.19,0,0,1,1.6-.29h0a1.17,1.17,0,0,1,.29,1.6h0a1.26,1.26,0,0,1-.87.44h0A.63.63,0,0,1-90.53-142.23Zm-56-1.31a1.14,1.14,0,0,1,.29-1.6h0a1.3,1.3,0,0,1,1.6.29h0a1.3,1.3,0,0,1-.29,1.6h0a.88.88,0,0,1-.59.15h0A.75.75,0,0,1-146.5-143.54Zm48.84-2.91h0a1.21,1.21,0,0,1-.58-1.59h0a1.22,1.22,0,0,1,1.6-.59h0a1.22,1.22,0,0,1,.58,1.6h0a1,1,0,0,1-1,.58h0C-97.37-146.3-97.51-146.45-97.66-146.45Zm-41.57-1.3a1.21,1.21,0,0,1,.58-1.6h0a1.22,1.22,0,0,1,1.6.58h0a1.22,1.22,0,0,1-.59,1.6h0c-.14,0-.29.14-.43.14h0A1.15,1.15,0,0,1-139.23-147.75Zm33.87-1.6a1.1,1.1,0,0,1-.73-1.46h0a1.08,1.08,0,0,1,1.45-.72h0a1.08,1.08,0,0,1,.73,1.45h0a1.25,1.25,0,0,1-1.16.87h0C-105.22-149.35-105.22-149.35-105.36-149.35Zm-25.88-1.31a1.31,1.31,0,0,1,.87-1.46h0a1.31,1.31,0,0,1,1.46.88h0a1.28,1.28,0,0,1-.88,1.45h-.29c-.58,0-1.16-.44-1.16-.87Zm17.74-.29a1.09,1.09,0,0,1-1-1.31h0a1.09,1.09,0,0,1,1.31-1h0a1.08,1.08,0,0,1,1,1.31h0a1.17,1.17,0,0,1-1.3,1Zm-9.45-1.31a1.4,1.4,0,0,1,1-1.31h0a1.39,1.39,0,0,1,1.31,1h0a1.4,1.4,0,0,1-1,1.31h-.15a1,1,0,0,1-1.16-1Z" transform="translate(173.11 158.64)"/><path class="cls-1" d="M-119.75-50.63a1.3,1.3,0,0,1,1.3-1.31h0a1.3,1.3,0,0,1,1.31,1.31h0a1.3,1.3,0,0,1-1.31,1.31h0C-119.17-49.47-119.75-49.9-119.75-50.63Zm-8.15.44h0a1.2,1.2,0,0,1-1-1.46h0a1.19,1.19,0,0,1,1.45-1h0a1.21,1.21,0,0,1,1,1.46h0a1.28,1.28,0,0,1-1.31,1h-.15Zm17.45-1a1.2,1.2,0,0,1,1-1.46h0a1.2,1.2,0,0,1,1.45,1h0a1.2,1.2,0,0,1-1,1.46h-.29A1.23,1.23,0,0,1-110.45-51.21Zm9-2.18a1.19,1.19,0,0,1,.73-1.6h0a1.18,1.18,0,0,1,1.6.72h0a1.19,1.19,0,0,1-.73,1.6h0c-.14,0-.29.15-.43.15h0C-100.71-52.67-101.29-53-101.44-53.39Zm-35.76.72a1.17,1.17,0,0,1-.73-1.6h0a1.18,1.18,0,0,1,1.6-.72h0a1.18,1.18,0,0,1,.73,1.6h0a1.46,1.46,0,0,1-1.16.87h0A.53.53,0,0,0-137.2-52.67Zm44.34-4.5a1.35,1.35,0,0,1,.44-1.75h0a1.34,1.34,0,0,1,1.74.44h0a1.33,1.33,0,0,1-.44,1.74h0a.84.84,0,0,1-.58.15h0C-92.28-56.59-92.72-56.74-92.86-57.17Zm-52.92.43a1.21,1.21,0,0,1-.43-1.74h0a1.22,1.22,0,0,1,1.74-.44h0a1.23,1.23,0,0,1,.44,1.75h0a1.19,1.19,0,0,1-1.16.58h0A.88.88,0,0,1-145.78-56.74Zm60.62-5.52A1.2,1.2,0,0,1-85-64h0a1.19,1.19,0,0,1,1.74.15h0a1.18,1.18,0,0,1-.14,1.74h0a2,2,0,0,1-.87.3h0a1.3,1.3,0,0,1-.88-.44Zm-68.47.14a1.19,1.19,0,0,1-.14-1.74h0A1.2,1.2,0,0,1-152-64h0a1.21,1.21,0,0,1,.15,1.75h0a1.32,1.32,0,0,1-1,.44h0a2.37,2.37,0,0,1-.73-.3Zm75.16-6.68a1.2,1.2,0,0,1-.14-1.75h0a1.19,1.19,0,0,1,1.74-.14h0a1.2,1.2,0,0,1,.15,1.74h0a1.34,1.34,0,0,1-1,.44h0a.94.94,0,0,1-.73-.29Zm-81.84-.15a1.18,1.18,0,0,1,.14-1.74h0a1.19,1.19,0,0,1,1.75.14h0a1.2,1.2,0,0,1-.15,1.75h0a2.13,2.13,0,0,1-.87.29h0A1.26,1.26,0,0,1-160.31-68.95Zm87.37-7.27A1.2,1.2,0,0,1-73.38-78h0a1.22,1.22,0,0,1,1.74-.44h0a1.22,1.22,0,0,1,.44,1.75h0a1.19,1.19,0,0,1-1.16.58h0a1.06,1.06,0,0,1-.58-.15Zm-92.9-.43a1.36,1.36,0,0,1,.44-1.75h0a1.34,1.34,0,0,1,1.74.44h0a1.34,1.34,0,0,1-.43,1.74h0a.86.86,0,0,1-.58.15h0A1.8,1.8,0,0,1-165.84-76.65Zm97.11-7.85a1.18,1.18,0,0,1-.73-1.6h0a1.18,1.18,0,0,1,1.6-.73h0a1.18,1.18,0,0,1,.73,1.6h0a1.43,1.43,0,0,1-1.16.87h0A.56.56,0,0,0-68.73-84.5Zm-101-.88A1.17,1.17,0,0,1-169-87h0a1.18,1.18,0,0,1,1.6.72h0a1.18,1.18,0,0,1-.72,1.6h0c-.15,0-.29.15-.44.15h0a1.1,1.1,0,0,1-1.16-.88Zm103.65-8.14a1.19,1.19,0,0,1-1-1.45h0a1.2,1.2,0,0,1,1.45-1h0a1.2,1.2,0,0,1,1,1.46h0a1.26,1.26,0,0,1-1.31,1h-.14Zm-106.12-1a1.2,1.2,0,0,1,1-1.46h0a1.21,1.21,0,0,1,1.46,1h0a1.19,1.19,0,0,1-1,1.45h-.29A1.22,1.22,0,0,1-172.23-94.53ZM-66.4-104a1.3,1.3,0,0,1,1.31-1.31h0a1.3,1.3,0,0,1,1.3,1.31h0a1.31,1.31,0,0,1-1.3,1.31h0A1.31,1.31,0,0,1-66.4-104Zm-106.71,0a1.3,1.3,0,0,1,1.31-1.31h0a1.3,1.3,0,0,1,1.31,1.31h0a1.31,1.31,0,0,1-1.31,1.31h0A1.31,1.31,0,0,1-173.11-104Zm106-9h0a1.2,1.2,0,0,1,1-1.45h0a1.19,1.19,0,0,1,1.45,1h0a1.19,1.19,0,0,1-1,1.45H-66a1.12,1.12,0,0,1-1.16-1Zm-104.09,1a1.19,1.19,0,0,1-1-1.45h0a1.19,1.19,0,0,1,1.45-1h0a1.2,1.2,0,0,1,1,1.45h0a1.27,1.27,0,0,1-1.31,1h-.15Zm101.62-9.88a1.18,1.18,0,0,1,.73-1.6h0a1.19,1.19,0,0,1,1.6.72h0a1.19,1.19,0,0,1-.73,1.6h0c-.15,0-.29.15-.44.15h0a1.37,1.37,0,0,1-1.16-.87ZM-169-121a1.18,1.18,0,0,1-.72-1.6h0a1.17,1.17,0,0,1,1.6-.73h0a1.18,1.18,0,0,1,.72,1.6h0a1.42,1.42,0,0,1-1.16.87h0A.56.56,0,0,0-169-121Zm95.66-9a1.34,1.34,0,0,1,.44-1.75h0a1.34,1.34,0,0,1,1.74.44h0a1.33,1.33,0,0,1-.44,1.74h0a.84.84,0,0,1-.58.15h0A1.34,1.34,0,0,1-73.38-130Zm-91.88.43a1.21,1.21,0,0,1-.43-1.74h0a1.21,1.21,0,0,1,1.74-.44h0a1.23,1.23,0,0,1,.44,1.75h0a1.19,1.19,0,0,1-1.16.58h0A.88.88,0,0,1-165.26-129.57Zm86.65-7.85a1.18,1.18,0,0,1,.14-1.74h0a1.19,1.19,0,0,1,1.75.14h0a1.2,1.2,0,0,1-.15,1.75h0a2.13,2.13,0,0,1-.87.29h0a1.26,1.26,0,0,1-.87-.44Zm-81.56.15a1.2,1.2,0,0,1-.14-1.75h0a1.19,1.19,0,0,1,1.74-.14h0a1.2,1.2,0,0,1,.15,1.74h0a1.34,1.34,0,0,1-1,.44h0A2.56,2.56,0,0,1-160.17-137.27ZM-85-143.82a1.2,1.2,0,0,1-.15-1.74h0a1.2,1.2,0,0,1,1.75-.14h0a1.19,1.19,0,0,1,.14,1.74h0a1.32,1.32,0,0,1-1,.44h0A2.37,2.37,0,0,1-85-143.82Zm-68.76-.29a1.18,1.18,0,0,1,.14-1.74h0a1.18,1.18,0,0,1,1.75.15h0A1.19,1.19,0,0,1-152-144h0a2.13,2.13,0,0,1-.87.29h0A1.26,1.26,0,0,1-153.77-144.11ZM-92.42-149a1.2,1.2,0,0,1-.44-1.74h0a1.21,1.21,0,0,1,1.74-.44h0a1.21,1.21,0,0,1,.44,1.75h0a1.19,1.19,0,0,1-1.16.58h0c-.15,0-.44-.15-.58-.15Zm-53.79-.58a1.34,1.34,0,0,1,.43-1.74h0a1.34,1.34,0,0,1,1.75.43h0a1.36,1.36,0,0,1-.44,1.75h0a.88.88,0,0,1-.58.14h0A.91.91,0,0,1-146.21-149.63Zm45.5-3.34a1.18,1.18,0,0,1-.73-1.6h0a1.18,1.18,0,0,1,1.6-.73h0a1.18,1.18,0,0,1,.73,1.6h0a1.44,1.44,0,0,1-1.16.87h0A.55.55,0,0,1-100.71-153Zm-37.22-.73a1.19,1.19,0,0,1,.73-1.6h0a1.19,1.19,0,0,1,1.6.73h0a1.19,1.19,0,0,1-.73,1.6h0c-.14,0-.29.14-.43.14h0A1.45,1.45,0,0,1-137.93-153.7Zm28.5-1.6a1.19,1.19,0,0,1-1-1.45h0a1.19,1.19,0,0,1,1.45-1h0a1.19,1.19,0,0,1,1,1.45h0a1.27,1.27,0,0,1-1.31,1h-.14Zm-19.48-1a1.19,1.19,0,0,1,1-1.45h0a1.2,1.2,0,0,1,1.46,1h0a1.2,1.2,0,0,1-1,1.45h-.29A1.12,1.12,0,0,1-128.91-156.32Zm9.16-1a1.3,1.3,0,0,1,1.3-1.31h0a1.3,1.3,0,0,1,1.31,1.31h0a1.3,1.3,0,0,1-1.31,1.3h0A1.3,1.3,0,0,1-119.75-157.33Z" transform="translate(173.11 158.64)"/><text class="cls-3" transform="translate(142.04 76.07)">aochain</text></svg>