<?xml version="1.0" encoding="UTF-8"?>
<svg width="645px" height="704px" viewBox="0 0 645 704" version="1.1" xmlns="http://www.w3.org/2000/svg" xmlns:xlink="http://www.w3.org/1999/xlink">
    <title>画板</title>
    <g id="画板" stroke="none" stroke-width="1" fill="none" fill-rule="evenodd">
        <g id="编组-2" transform="translate(4.000000, 39.000000)">
            <path d="M262.464753,64.9674336 C265.203998,78.5620116 272.472493,90.5167739 282.631105,99.1896893 C293.270458,108.273037 307.078221,113.757645 322.168033,113.757645 C337.16885,113.757645 350.902687,108.337513 361.516208,99.3509369 C371.653566,90.7675329 378.942701,78.9295078 381.779747,65.4540772 C445.364201,79.3823262 500.927913,114.714887 540.529049,163.509645 C579.906682,212.029011 603.5,273.860861 603.5,341.199241 C603.5,419.154244 571.880254,489.729173 520.758284,540.815404 C469.635681,591.902268 399.010421,623.5 321,623.5 C242.989579,623.5 172.364319,591.902268 121.241716,540.815404 C70.1197461,489.729173 38.5,419.154244 38.5,341.199241 C38.5,273.447716 62.3837312,211.27051 102.197266,162.617373 C142.219996,113.708594 198.338984,78.4645362 262.464753,64.9674336 Z" id="形状结合" stroke="#E6007A" stroke-width="5"></path>
            <circle id="椭圆形" stroke-opacity="0.346575544" stroke="#172026" stroke-width="3" fill="#FFFFFF" cx="58.5" cy="246.5" r="57"></circle>
            <circle id="椭圆形备份-2" stroke-opacity="0.346575544" stroke="#172026" stroke-width="3" fill="#FFFFFF" cx="116.5" cy="537.5" r="57"></circle>
            <circle id="椭圆形备份-3" stroke-opacity="0.346575544" stroke="#172026" stroke-width="3" fill="#FFFFFF" cx="521.5" cy="537.5" r="57"></circle>
            <circle id="椭圆形备份" stroke-opacity="0.346575544" stroke="#172026" stroke-width="3" fill="#FFFFFF" cx="579.5" cy="246.5" r="57"></circle>
            <text id="#DeFi" font-family="MuktaMahee-Bold, Mukta Mahee" font-size="12" font-weight="bold" fill="#172026">
                <tspan x="32.964" y="271">#</tspan>
                <tspan x="40.008" y="271" font-size="18">DeFi</tspan>
            </text>
            <text id="DGame" font-family="MuktaMahee-Bold, Mukta Mahee" font-size="18" font-weight="bold" fill="#172026">
                <tspan x="89.024" y="568">DGame</tspan>
            </text>
            <text id="ERC-20" font-family="MuktaMahee-Bold, Mukta Mahee" font-size="18" font-weight="bold" fill="#172026">
                <tspan x="498.002" y="568">ERC</tspan>
                <tspan x="527.846" y="568" letter-spacing="1.7"> </tspan>
                <tspan x="533.686" y="568" font-size="12">20</tspan>
            </text>
            <text id="NFT" font-family="MuktaMahee-Bold, Mukta Mahee" font-size="18" font-weight="bold" fill="#172026">
                <tspan x="564.925" y="277">NFT</tspan>
            </text>
            <g id="编组" transform="translate(270.000000, 0.000000)">
                <path d="M43.4847795,59.9682725 C47.6506815,64.0026474 54.2200521,64.0026474 58.3859541,59.9682725 C60.46863,57.8707301 61.4299073,55.1275769 61.4299073,51.7382587 C61.4299073,48.3500488 60.46863,45.6063414 58.3859541,43.508799 C54.2200521,39.4744241 47.6506815,39.4744241 43.4847795,43.508799 C41.4015533,45.6063414 40.440276,48.3500488 40.440276,51.7382587 C40.2801548,55.1275769 41.4015533,57.8707301 43.4847795,59.9682725 M51.4963412,17.5280899 C60.9489935,17.5280899 68.9605553,20.9168539 75.5299258,27.5331179 C82.0987461,34.1493818 85.3033708,42.0563132 85.3033708,51.4157303 C85.3033708,56.7407726 84.1819722,61.09823 81.9386249,64.4864399 C79.6958278,67.8757581 76.4912032,69.6507722 72.1651799,69.6507722 C68.9605553,69.6507722 66.3969656,68.5208147 64.4744108,66.261454 C63.3524621,64.9707865 61.2697862,64.8095224 59.9882664,65.9389256 C57.4241265,68.3595506 54.0593806,69.4889539 50.2142712,69.4889539 C45.4073342,69.4889539 41.4015533,67.8757581 38.1974789,64.4864399 C34.9928542,61.09823 33.3905419,56.902591 33.3905419,51.5769945 C33.3905419,46.4132163 34.9928542,42.2175773 38.1974789,38.8288133 C41.4015533,35.4400492 45.4073342,33.6650351 49.8934786,33.6650351 C54.3801732,33.6650351 58.0651615,35.4400492 60.9489935,38.8288133 L61.109665,38.9906316 C61.2697862,38.9906316 61.4299073,38.8288133 61.4299073,38.8288133 L61.4299073,38.3450208 C61.4299073,36.5700067 62.8720985,35.1175209 64.634532,35.1175209 C66.3969656,35.1175209 67.8391567,36.5700067 67.8391567,38.3450208 L67.8391567,58.0319943 C67.8391567,59.4839259 68.3195203,60.9369658 69.1206764,62.2276333 C69.9218326,63.5183007 71.2033523,64.0026474 72.9663361,64.0026474 C77.1316879,64.0026474 79.214914,59.8070084 79.214914,51.4157303 C79.214914,43.6700631 76.4912032,37.2150633 71.2033523,31.890021 C65.916602,26.5649787 59.3472314,23.9830897 51.6564624,23.9830897 C43.9656933,23.9830897 37.5564439,26.5649787 32.1084719,31.890021 C26.8211713,37.2150633 24.0974604,43.6700631 24.0974604,51.4157303 C24.0974604,59.1613976 26.8211713,65.6163973 32.1084719,70.9414396 C37.3963227,76.2664819 43.9656933,78.848371 51.6564624,78.848371 C54.5402944,78.848371 57.2640053,78.3645785 59.9877162,77.5577036 C61.5900285,77.0733569 63.3524621,77.7189677 63.993497,79.3327177 C64.634532,80.9464676 63.8333759,82.7214817 62.3911847,83.5283567 C62.3911847,83.5283567 62.2310635,83.5283567 62.2310635,83.6896208 C58.8663176,84.8190241 55.3414506,85.3033708 51.8165835,85.3033708 C42.2027095,85.3033708 34.0315769,82.0758709 27.4622063,75.4601611 C20.8928358,68.8438972 17.6882111,60.9369658 17.5280899,51.4157303 C17.5280899,42.0563132 20.8928358,34.1493818 27.4622063,27.5331179 C33.8709054,20.7555898 41.8824671,17.5280899 51.4963412,17.5280899" id="Fill-1" fill="#172026"></path>
                <path d="M70.6966292,72.4494382 C72.955618,72.4494382 74.7865169,74.2803371 74.7865169,76.5393258 C74.7865169,78.7977528 72.955618,80.6292135 70.6966292,80.6292135 C68.4382022,80.6292135 66.6067416,78.7977528 66.6067416,76.5393258 C66.6067416,74.2803371 68.4382022,72.4494382 70.6966292,72.4494382" id="Fill-3" fill="#E40B7B"></path>
                <path d="M49.7867051,13.8234317 C49.7867051,13.2695901 50.2017669,12.8539326 50.6168286,12.8539326 C51.1698764,12.8539326 51.5849382,13.2695901 51.5849382,13.6846949 C51.5849382,14.2385365 51.1698764,14.654194 50.7548146,14.654194 C50.2017669,14.654194 49.7867051,14.2385365 49.7867051,13.8234317 L49.7867051,13.8234317 Z M57.2561615,15.0698515 C56.7031138,15.0698515 56.4260379,14.51601 56.4260379,14.1003524 C56.4260379,13.5465109 56.9796376,13.2690374 57.3946994,13.2690374 C57.9477472,13.2690374 58.224823,13.8234317 58.224823,14.2385365 C58.224823,14.654194 57.8097612,15.0698515 57.2561615,15.0698515 L57.2561615,15.0698515 Z M43.1473722,14.7929308 C43.0088343,14.2385365 43.2853582,13.8234317 43.8389579,13.6846949 C44.3920056,13.5465109 44.8070674,13.8234317 44.9456053,14.3772732 C45.0835913,14.9316675 44.8070674,15.3467723 44.2540197,15.4855091 L44.1154817,15.4855091 C43.7004199,15.4855091 43.2853582,15.2085883 43.1473722,14.7929308 L43.1473722,14.7929308 Z M63.6195225,16.4550082 C63.2044607,16.3168241 62.9279368,15.7624298 63.0659228,15.3467723 C63.2044607,14.9316675 63.7575084,14.654194 64.1725702,14.7929308 C64.587632,14.9316675 64.8641559,15.4855091 64.725618,15.9011666 C64.587632,16.3168241 64.3105562,16.5937449 63.8954944,16.5937449 C63.7575084,16.5937449 63.6195225,16.4550082 63.6195225,16.4550082 L63.6195225,16.4550082 Z M36.7840112,16.8706657 C36.6460253,16.4550082 36.7840112,15.9011666 37.337611,15.6242458 C37.7526727,15.4855091 38.3057205,15.6242458 38.5822444,16.1780874 C38.7207823,16.5937449 38.5822444,17.1481392 38.0291966,17.42506 L37.7526727,17.42506 C37.337611,17.42506 36.9225492,17.1481392 36.7840112,16.8706657 L36.7840112,16.8706657 Z M69.5672697,19.0871374 C69.1522079,18.8102166 69.01367,18.256375 69.1522079,17.8407175 C69.4287318,17.42506 69.9823315,17.2863232 70.3968413,17.42506 C70.8119031,17.7019808 70.950441,18.256375 70.8119031,18.6714798 C70.6739171,18.9484006 70.3968413,19.2258741 69.9823315,19.0871374 L69.5672697,19.0871374 Z M30.974802,20.0566365 C30.6982781,19.6409789 30.836264,19.0871374 31.2513258,18.8102166 C31.6658357,18.5332958 32.2194354,18.6714798 32.4959593,19.0871374 C32.7730351,19.5027949 32.6344972,20.0566365 32.2194354,20.33411 C32.0808975,20.472294 31.9429115,20.472294 31.8043736,20.472294 C31.3893118,20.472294 31.1127879,20.33411 30.974802,20.0566365 L30.974802,20.0566365 Z M74.9619691,22.5505817 C74.5469073,22.2731081 74.5469073,21.7192666 74.8234312,21.3036091 C75.0999551,20.8879515 75.6535548,20.8879515 76.0686166,21.1648723 C76.4836784,21.4423458 76.4836784,21.9961874 76.2066025,22.4118449 C76.0686166,22.6887657 75.7915407,22.8275024 75.5150169,22.8275024 C75.3770309,22.8275024 75.0999551,22.6887657 74.9619691,22.5505817 L74.9619691,22.5505817 Z M25.7180885,24.2126591 C25.4415646,23.7970015 25.4415646,23.24316 25.7180885,22.9662392 C26.1331503,22.6887657 26.686198,22.6887657 26.9632739,22.9662392 C27.2397978,23.381344 27.2397978,23.9351855 26.9632739,24.2126591 C26.824736,24.3508431 26.5482121,24.4895798 26.4096742,24.4895798 C26.1331503,24.4895798 25.8566264,24.3508431 25.7180885,24.2126591 L25.7180885,24.2126591 Z M79.8030688,26.9829723 L79.8030688,26.9829723 C79.526545,26.5673148 79.526545,26.0134732 79.8030688,25.7365524 C80.2181306,25.4590789 80.7717303,25.4590789 81.0482542,25.7365524 C81.3247781,26.1516572 81.3247781,26.7060515 81.0482542,26.9829723 C80.9097163,27.121709 80.6331924,27.2598931 80.4946545,27.2598931 C80.2181306,27.3986298 79.9416067,27.2598931 79.8030688,26.9829723 L79.8030688,26.9829723 Z M21.2920506,29.199444 C20.8769888,28.9225232 20.8769888,28.3681289 21.1535126,27.9524714 C21.4300365,27.5373666 21.9830843,27.5373666 22.3981461,27.8142874 C22.8132079,28.0912081 22.8132079,28.6450497 22.536684,29.0607072 C22.3981461,29.337628 22.1216222,29.4763648 21.8450983,29.4763648 C21.7065604,29.337628 21.4300365,29.337628 21.2920506,29.199444 L21.2920506,29.199444 Z M83.676059,32.2472307 L83.676059,32.2472307 C83.3995351,31.8315732 83.538073,31.2771789 83.9531348,31.0002581 C84.3676447,30.7233374 84.9212444,30.8615214 85.1977683,31.2771789 C85.4748441,31.6928364 85.3363062,32.2472307 84.9212444,32.5241515 C84.7827065,32.6623355 84.6447205,32.6623355 84.5061826,32.6623355 C84.0911208,32.6623355 83.8145969,32.5241515 83.676059,32.2472307 L83.676059,32.2472307 Z M17.8335702,34.8788072 C17.4185084,34.6018864 17.2805225,34.0474921 17.4185084,33.6318346 C17.6955843,33.2167298 18.248632,33.0779931 18.6636938,33.2167298 C19.0787556,33.4936506 19.2167416,34.0474921 19.0787556,34.4631497 C18.9402177,34.7400705 18.6636938,35.017544 18.248632,35.017544 C18.1100941,35.017544 17.9721081,34.8788072 17.8335702,34.8788072 L17.8335702,34.8788072 Z M86.5814916,38.064778 C86.4429537,37.6491205 86.5814916,37.0952789 87.1345393,36.8183581 C87.5490492,36.6796214 88.1026489,36.8183581 88.3791728,37.3721997 C88.5177107,37.7878572 88.3791728,38.3416988 87.826125,38.6191723 L87.5490492,38.6191723 C87.1345393,38.6191723 86.7194775,38.4804355 86.5814916,38.064778 L86.5814916,38.064778 Z M15.3437514,40.973828 C14.9286896,40.835644 14.6521657,40.2812497 14.7907036,39.8655921 C14.9286896,39.4499346 15.4822893,39.1730138 15.8973511,39.3117506 C16.3124129,39.4499346 16.5889368,40.0043289 16.4503989,40.4199864 C16.3124129,40.835644 16.0353371,41.1125647 15.6208272,41.1125647 C15.4822893,41.1125647 15.4822893,41.1125647 15.3437514,40.973828 L15.3437514,40.973828 Z M88.5177107,44.2985355 L88.5177107,44.2985355 C88.3791728,43.7441412 88.6556967,43.3284837 89.2092964,43.1902997 C89.7623441,43.0515629 90.1774059,43.3284837 90.3159438,43.882878 C90.4544817,44.4367195 90.1774059,44.8523771 89.6243582,44.9911138 L89.4858202,44.9911138 C88.9327725,44.9911138 88.5177107,44.714193 88.5177107,44.2985355 L88.5177107,44.2985355 Z M13.9605801,47.6226903 C13.4075323,47.6226903 13.1304565,47.0688487 13.1304565,46.6531912 C13.1304565,46.0993497 13.6840562,45.8224289 14.099118,45.8224289 C14.6521657,45.8224289 14.9286896,46.3762704 14.9286896,46.791928 C14.9286896,47.2070328 14.5141798,47.6226903 13.9605801,47.6226903 C14.099118,47.6226903 13.9605801,47.6226903 13.9605801,47.6226903 L13.9605801,47.6226903 Z M89.3478343,50.6704771 C89.3478343,50.1166355 89.7623441,49.700978 90.1774059,49.700978 C90.7310056,49.700978 91.1460674,50.1166355 91.1460674,50.532293 C91.1460674,51.0861346 90.7310056,51.5017921 90.3159438,51.5017921 C89.7623441,51.6399761 89.3478343,51.2248713 89.3478343,50.6704771 L89.3478343,50.6704771 Z M12.8539326,53.4407903 L12.8539326,53.4407903 C12.8539326,52.8869487 13.2689944,52.4712912 13.6840562,52.4712912 C14.2371039,52.4712912 14.6521657,52.8869487 14.6521657,53.3026063 C14.6521657,53.8564478 14.2371039,54.2721054 13.8220421,54.2721054 C13.2689944,54.2721054 12.8539326,53.8564478 12.8539326,53.4407903 L12.8539326,53.4407903 Z M89.7623441,58.2893912 C89.2092964,58.2893912 88.9327725,57.7349969 88.9327725,57.3193394 C88.9327725,56.7654978 89.4858202,56.488577 89.900882,56.488577 C90.4544817,56.488577 90.7310056,57.0424186 90.7310056,57.4580761 C90.7310056,58.0124704 90.3159438,58.2893912 89.7623441,58.2893912 L89.7623441,58.2893912 Z M13.6840562,60.2289421 C13.5455183,59.6745478 13.8220421,59.2588903 14.3756418,59.1207063 C14.9286896,58.9819695 15.3437514,59.2588903 15.4822893,59.8132846 C15.6208272,60.3671261 15.3437514,60.7827837 14.7907036,60.9209677 L14.6521657,60.9209677 C14.099118,60.9209677 13.8220421,60.6440469 13.6840562,60.2289421 L13.6840562,60.2289421 Z M88.1026489,64.8000695 C87.6875871,64.6613327 87.4110632,64.1074912 87.5490492,63.6918337 C87.6875871,63.2761761 88.2411868,62.9992553 88.6556967,63.1374394 C89.0707584,63.2761761 89.3478343,63.8300177 89.2092964,64.2456752 C89.0707584,64.6613327 88.7942346,64.9382535 88.3791728,64.9382535 C88.2411868,64.8000695 88.1026489,64.8000695 88.1026489,64.8000695 L88.1026489,64.8000695 Z M15.6208272,66.7390677 L15.6208272,66.7390677 C15.4822893,66.3234101 15.6208272,65.7695686 16.173875,65.4926478 C16.5889368,65.3539111 17.1419846,65.4926478 17.4185084,66.0464894 C17.5570463,66.4621469 17.4185084,67.0159884 16.8654607,67.293462 L16.5889368,67.293462 C16.173875,67.293462 15.7588132,67.0159884 15.6208272,66.7390677 L15.6208272,66.7390677 Z M85.3363062,70.8945375 C84.9212444,70.6176168 84.7827065,70.0637752 84.9212444,69.6481177 C85.1977683,69.2324601 85.751368,69.0942761 86.1664298,69.2324601 C86.5809396,69.5099336 86.7194775,70.0637752 86.5809396,70.4794327 C86.4429537,70.7563535 86.1664298,71.0332743 85.751368,70.8945375 L85.3363062,70.8945375 Z M18.8022317,72.8340884 C18.5251559,72.4184309 18.6636938,71.8645894 19.0787556,71.5876686 C19.4938174,71.3101951 20.0468652,71.4489318 20.323389,71.8645894 C20.6004649,72.2802469 20.461927,72.8340884 20.0468652,73.111562 C19.9088792,73.249746 19.7703413,73.249746 19.6318034,73.249746 C19.2167416,73.249746 18.9402177,73.111562 18.8022317,72.8340884 L18.8022317,72.8340884 Z M81.601302,76.29698 C81.1867921,76.0200592 81.1867921,75.4662177 81.463316,75.0505601 C81.7398399,74.6349026 82.2934396,74.6349026 82.7079494,74.9123761 C83.1230112,75.1887441 83.1230112,75.7431384 82.8464874,76.158796 C82.7079494,76.4357167 82.4314256,76.5744535 82.1549017,76.5744535 C81.8783778,76.5744535 81.7398399,76.4357167 81.601302,76.29698 L81.601302,76.29698 Z M22.8132079,78.2365309 L22.8132079,78.2365309 C22.536684,77.8208734 22.536684,77.2670318 22.8132079,76.990111 C23.2282697,76.7126375 23.7818694,76.7126375 24.0583933,76.990111 C24.3349171,77.4057686 24.3349171,77.9596101 24.0583933,78.2365309 C23.9198553,78.3752677 23.6433315,78.5140044 23.5047935,78.5140044 C23.2282697,78.5140044 23.0897318,78.5140044 22.8132079,78.2365309 L22.8132079,78.2365309 Z M76.8987402,81.1455809 C76.6216643,80.7299234 76.6216643,80.1760818 76.8987402,79.8986083 C77.31325,79.6222403 77.8662978,79.6222403 78.1433736,79.8986083 C78.4198975,80.3142658 78.4198975,80.8686601 78.1433736,81.1455809 C78.0048357,81.2843176 77.7283118,81.4225017 77.5903258,81.4225017 C77.31325,81.4225017 77.0367261,81.2843176 76.8987402,81.1455809 L76.8987402,81.1455809 Z M27.7928455,82.946395 L27.7928455,82.946395 C27.3783357,82.6694743 27.3783357,82.11508 27.6548595,81.6999752 C27.9313834,81.2843176 28.4849831,81.2843176 28.899493,81.5612384 C29.3145548,81.8381592 29.3145548,82.3925535 29.0380309,82.808211 C28.899493,83.0851318 28.6229691,83.2233158 28.3464452,83.2233158 C28.2079073,83.0851318 28.0699213,83.0851318 27.7928455,82.946395 L27.7928455,82.946395 Z M71.5034888,85.02413 C71.2269649,84.6084724 71.3655028,84.0546309 71.7805646,83.7777101 C72.1956264,83.5007893 72.7486742,83.6389734 73.025198,84.0546309 C73.3017219,84.4702884 73.163736,85.02413 72.7486742,85.3010508 C72.6101362,85.4397875 72.4721503,85.4397875 72.3336124,85.4397875 C71.9185506,85.4397875 71.6420267,85.3010508 71.5034888,85.02413 L71.5034888,85.02413 Z M33.6026067,86.6867601 C33.187545,86.4092866 33.049559,85.855445 33.187545,85.4397875 C33.4646208,85.02413 34.0176685,84.8853932 34.4327303,85.02413 C34.8477921,85.3010508 34.98633,85.855445 34.8477921,86.2711026 C34.7092542,86.5480233 34.4327303,86.8249441 34.0176685,86.6867601 C33.8796826,86.8249441 33.7411447,86.6867601 33.6026067,86.6867601 L33.6026067,86.6867601 Z M65.4172037,87.93318 C65.2792177,87.5175224 65.4172037,86.9636809 65.9708034,86.6867601 C66.3858652,86.5480233 66.9389129,86.6867601 67.2154368,87.2406017 C67.3539747,87.6562592 67.2154368,88.2106535 66.662389,88.4875743 L66.3858652,88.4875743 C65.9708034,88.4875743 65.5557416,88.2106535 65.4172037,87.93318 L65.4172037,87.93318 Z M39.8274298,89.3183366 C39.412368,89.1795998 39.1358441,88.6257583 39.274382,88.2106535 C39.412368,87.7949959 39.9659677,87.5175224 40.3804775,87.6562592 C40.7955393,87.7949959 41.0720632,88.3488375 40.9340772,88.764495 C40.7955393,89.1795998 40.5190154,89.4570733 40.1039537,89.4570733 C40.1039537,89.3183366 39.9659677,89.3183366 39.8274298,89.3183366 L39.8274298,89.3183366 Z M59.0543947,89.7339941 C58.9164087,89.1795998 59.1929326,88.764495 59.7459803,88.6257583 C60.2995801,88.4875743 60.7140899,88.764495 60.8526278,89.3183366 C60.9911657,89.8727309 60.7140899,90.2878357 60.1610421,90.4265724 L60.0225042,90.4265724 C59.4694565,90.4265724 59.0543947,90.1496517 59.0543947,89.7339941 L59.0543947,89.7339941 Z M46.4667626,90.84223 L46.4667626,90.84223 C45.9137149,90.84223 45.6366391,90.2878357 45.6366391,89.8727309 C45.6366391,89.3183366 46.1902388,89.0414158 46.6053006,89.0414158 C47.1583483,89.0414158 47.4354242,89.5952574 47.4354242,90.0109149 C47.4354242,90.5653092 47.1583483,90.84223 46.4667626,90.84223 C46.6053006,90.84223 46.6053006,90.84223 46.4667626,90.84223 L46.4667626,90.84223 Z M52.4150618,90.2878357 C52.4150618,89.7339941 52.8301236,89.3183366 53.2451854,89.3183366 C53.7982331,89.3183366 54.2132949,89.7339941 54.2132949,90.1496517 C54.2132949,90.7034932 53.7982331,91.1191507 53.3831714,91.1191507 C52.8301236,91.2578875 52.4150618,90.84223 52.4150618,90.2878357 L52.4150618,90.2878357 Z" id="Fill-5" fill="#172026"></path>
                <path d="M53.3713594,11.2716307 C52.8230345,11.2716307 52.4115173,10.8594524 52.4115173,10.3102467 C52.4115173,9.76049292 52.8230345,9.34831461 53.508167,9.34831461 C54.0570391,9.34831461 54.4685564,9.89806839 54.4685564,10.4472741 C54.4685564,10.722425 54.0570391,11.2716307 53.3713594,11.2716307 L53.3713594,11.2716307 Z M45.2800106,10.722425 C45.1426557,10.1726712 45.554173,9.62346555 46.1024979,9.62346555 C46.65137,9.48589008 47.1996948,9.89806839 47.1996948,10.4472741 C47.3370497,10.9970278 46.9255324,11.5462335 46.3772075,11.5462335 L46.2398527,11.5462335 C45.6915278,11.5462335 45.2800106,11.2716307 45.2800106,10.722425 L45.2800106,10.722425 Z M60.5028661,12.0954392 L60.5028661,12.0954392 C59.953994,11.9584118 59.6798316,11.4086581 59.6798316,10.8594524 C59.8171864,10.3102467 60.3655113,10.0356439 60.9143834,10.0356439 C61.4627083,10.1726712 61.7374179,10.722425 61.7374179,11.2716307 C61.6000631,11.683809 61.1885458,12.0954392 60.7770285,12.0954392 L60.5028661,12.0954392 Z M38.1485039,12.5076175 C38.011149,11.9584118 38.2858587,11.4086581 38.8341836,11.2716307 C39.3830557,11.1346033 39.9313805,11.4086581 40.0681881,11.9584118 C40.205543,12.5076175 39.9313805,13.0573713 39.3830557,13.1943987 L39.108346,13.1943987 C38.6968287,13.1943987 38.2858587,12.9197958 38.1485039,12.5076175 L38.1485039,12.5076175 Z M67.2228555,14.1563308 L67.2228555,14.1563308 C66.6745307,13.8817279 66.399821,13.3319741 66.6745307,12.9197958 C66.9486931,12.3705901 67.497018,12.0954392 67.9085353,12.3705901 C68.4568601,12.5076175 68.594215,13.1949468 68.4568601,13.606577 C68.3200525,14.0187553 67.9085353,14.2939062 67.497018,14.2939062 C67.497018,14.1563308 67.3596632,14.1563308 67.2228555,14.1563308 L67.2228555,14.1563308 Z M31.565322,15.529893 C31.2911596,14.9806874 31.4285144,14.4309336 31.9768393,14.1563308 C32.5257114,13.8817279 33.0740363,14.1563308 33.3481987,14.5685091 C33.6229084,15.1177147 33.4855535,15.6674685 32.9372287,15.9420714 C32.7998738,16.0790987 32.662519,16.0790987 32.5257114,16.0790987 C32.1141941,16.0790987 31.7026769,15.8044959 31.565322,15.529893 L31.565322,15.529893 Z M73.5313277,17.3156337 L73.5313277,17.3156337 C73.1198104,17.0410308 72.9830028,16.3537016 73.2571653,15.9420714 C73.5313277,15.529893 74.2170074,15.3928657 74.6285247,15.6674685 C75.040042,15.9420714 75.1773968,16.6288525 74.9026871,17.0410308 C74.7658795,17.3156337 74.3543623,17.452661 74.0801998,17.452661 C73.942845,17.5902365 73.6686825,17.452661 73.5313277,17.3156337 L73.5313277,17.3156337 Z M25.5310123,19.651128 C25.2568499,19.2389497 25.2568499,18.5516205 25.6683671,18.2770176 C26.0798844,18.0024148 26.7655641,18.0024148 27.0397265,18.4145931 C27.313889,18.8267714 27.313889,19.5135526 26.9023717,19.7881554 C26.7655641,19.9257309 26.4914017,20.0627582 26.3540468,20.0627582 C26.0798844,20.0627582 25.8051747,19.9257309 25.5310123,19.651128 L25.5310123,19.651128 Z M79.1541202,21.7109234 C78.7431501,21.2992932 78.7431501,20.7495394 79.0173126,20.3379092 C79.4288298,19.9257309 79.9771547,19.9257309 80.388672,20.2003337 C80.8001893,20.612512 80.8001893,21.1617177 80.5260268,21.573896 C80.388672,21.8484989 80.1145095,21.8484989 79.8403471,21.8484989 C79.7029923,21.8484989 79.4288298,21.8484989 79.1541202,21.7109234 L79.1541202,21.7109234 Z M20.3197371,24.7331989 C19.9082198,24.3210206 19.9082198,23.7718149 20.1829295,23.3596366 C20.5938995,22.9474583 21.1427716,22.9474583 21.5537417,23.2220611 C21.9652589,23.6342395 21.9652589,24.1839932 21.6910965,24.5961716 C21.5537417,24.8707744 21.2795792,24.8707744 21.0054168,24.8707744 C20.7312544,25.0083499 20.5938995,24.8707744 20.3197371,24.7331989 L20.3197371,24.7331989 Z M84.0917802,26.7935424 C83.8170705,26.381364 83.8170705,25.6945829 84.2285878,25.4199801 C84.640105,25.1453772 85.3257847,25.1453772 85.5999472,25.5575555 C85.8741096,25.9691857 85.8741096,26.656515 85.4631396,26.9311178 C85.3257847,27.0686933 85.0516223,27.2057207 84.9142675,27.2057207 C84.5027502,27.2057207 84.2285878,27.0681452 84.0917802,26.7935424 L84.0917802,26.7935424 Z M16.068304,30.6396264 C15.6567868,30.3650236 15.5199792,29.6782424 15.7941416,29.2666122 C16.068304,28.8544339 16.7539837,28.7168584 17.165501,28.9914613 C17.5770183,29.2666122 17.7138259,29.9528453 17.4396635,30.3650236 C17.3023086,30.6396264 16.8913386,30.7772019 16.6166289,30.7772019 C16.4798213,30.7772019 16.3424665,30.7772019 16.068304,30.6396264 L16.068304,30.6396264 Z M87.931696,32.8375453 L87.931696,32.8375453 C87.6569863,32.2883396 87.7943411,31.7385859 88.342666,31.463983 C88.8915381,31.1893802 89.439863,31.3264076 89.7145726,31.8761613 C89.9887351,32.425367 89.8513802,32.9751208 89.3030554,33.2497236 C89.1657005,33.3872991 89.0288929,33.3872991 88.8915381,33.3872991 C88.4800208,33.3872991 88.0685036,33.1126963 87.931696,32.8375453 L87.931696,32.8375453 Z M12.914068,37.2333832 C12.3651959,36.9587803 12.2283883,36.4090265 12.3651959,35.9968482 C12.5025507,35.4476426 13.1882304,35.1730397 13.5997477,35.4476426 C14.1480725,35.7222454 14.4227822,36.2719992 14.1480725,36.6836294 C14.0112649,37.0958077 13.5997477,37.3709586 13.1882304,37.3709586 C13.1882304,37.2333832 13.0508756,37.2333832 12.914068,37.2333832 L12.914068,37.2333832 Z M90.6744148,39.2937266 C90.5370599,38.7445209 90.8112224,38.1947671 91.3600945,38.0577398 C91.9084193,37.9201643 92.4572914,38.1947671 92.5940991,38.7445209 C92.7314539,39.2937266 92.4572914,39.8429323 91.9084193,39.9805077 L91.6342569,39.9805077 C91.2227396,40.1180832 90.8112224,39.7059049 90.6744148,39.2937266 L90.6744148,39.2937266 Z M10.9938364,44.2387701 C10.4455116,44.1011946 10.1713491,43.551989 10.1713491,43.0027833 C10.3081567,42.4530295 10.8570288,42.1784267 11.4053537,42.1784267 C11.9536786,42.3160021 12.2283883,42.8652078 12.2283883,43.4149616 C12.0910334,43.8271399 11.6795162,44.2387701 11.2685461,44.2387701 L10.9938364,44.2387701 Z M92.3199366,46.2991136 L92.3199366,46.2991136 C92.183129,45.7499079 92.5946463,45.2001541 93.1429712,45.2001541 C93.6918433,45.0631267 94.2401681,45.475305 94.2401681,46.0245107 C94.377523,46.5742645 93.9660057,47.1234702 93.4171336,47.1234702 L93.280326,47.1234702 C92.7314539,47.1234702 92.3199366,46.7112919 92.3199366,46.2991136 L92.3199366,46.2991136 Z M10.3081567,51.3817325 C9.75983188,51.3817325 9.34831461,50.8325269 9.34831461,50.2827731 C9.34831461,49.7335674 9.89663948,49.3213891 10.4455116,49.3213891 C10.9938364,49.3213891 11.4053537,49.7335674 11.4053537,50.2827731 C11.2685461,50.9695542 10.8570288,51.3817325 10.3081567,51.3817325 L10.3081567,51.3817325 Z M93.5544884,54.4040081 C93.0056163,54.4040081 92.5940991,53.8542543 92.5940991,53.3050486 C92.5940991,52.7558429 93.0056163,52.3436646 93.691296,52.3436646 C94.2401681,52.3436646 94.6516854,52.8928703 94.6516854,53.442076 C94.6516854,53.9918298 94.1028133,54.4040081 93.5544884,54.4040081 L93.5544884,54.4040081 Z M9.75983188,57.8379138 C9.62247704,57.2887081 10.0339943,56.7389544 10.5828664,56.7389544 C11.1311913,56.601927 11.6795162,57.0135572 11.6795162,57.563311 C11.816871,58.1125166 11.4053537,58.6622704 10.8570288,58.6622704 L10.719674,58.6622704 C10.1713491,58.6622704 9.75983188,58.3871195 9.75983188,57.8379138 L9.75983188,57.8379138 Z M92.5940991,61.5469705 C92.0457742,61.409395 91.7716117,60.8601893 91.7716117,60.3104356 C91.9084193,59.7612299 92.4572914,59.4860789 93.0056163,59.4860789 C93.5544884,59.6236544 93.8286509,60.1728601 93.8286509,60.7226139 C93.691296,61.1347922 93.280326,61.5469705 92.8688087,61.5469705 L92.5940991,61.5469705 Z M11.4053537,65.1184517 C11.2685461,64.5686979 11.5427086,64.0194923 12.0910334,63.8819168 C12.6399055,63.7443413 13.1882304,64.0194923 13.3255852,64.5686979 C13.4623928,65.1184517 13.1882304,65.6676574 12.6399055,65.8052329 L12.3651959,65.8052329 C11.9536786,65.8052329 11.5427086,65.5300819 11.4053537,65.1184517 L11.4053537,65.1184517 Z M90.2628975,68.414782 C89.7145726,68.1401791 89.4404102,67.5904254 89.7145726,67.1787952 C89.8513802,66.6295895 90.5370599,66.3544385 90.9485772,66.6295895 C91.4969021,66.9041923 91.7716117,67.453398 91.4969021,67.8655763 C91.3600945,68.2777546 90.9485772,68.5523574 90.5370599,68.5523574 C90.5370599,68.5523574 90.4002523,68.5523574 90.2628975,68.414782 L90.2628975,68.414782 Z M14.2854274,71.9862632 L14.2854274,71.9862632 C14.0112649,71.4370575 14.1480725,70.8873037 14.6969446,70.6127009 C15.2452695,70.3380981 15.7941416,70.4756735 16.068304,71.0248792 C16.3424665,71.574633 16.2051116,72.1238387 15.6567868,72.3984415 C15.5199792,72.536017 15.3826243,72.536017 15.2458167,72.536017 C14.8342995,72.5354689 14.4227822,72.260866 14.2854274,71.9862632 L14.2854274,71.9862632 Z M86.834499,74.8709633 C86.4229817,74.5963604 86.2856269,73.9095793 86.5597893,73.497401 C86.834499,73.0852226 87.5201787,72.9476472 87.931696,73.2227981 C88.342666,73.497401 88.4800208,74.1841821 88.2058584,74.5963604 C88.0685036,74.8709633 87.6569863,75.0085387 87.3828239,75.0085387 C87.1086614,75.0085387 86.9713066,75.0085387 86.834499,74.8709633 L86.834499,74.8709633 Z M18.3995056,78.1678416 C18.1253432,77.7556633 18.1253432,77.0688822 18.5368604,76.7937312 C18.9483777,76.5196765 19.6340574,76.5196765 19.9082198,76.9313067 C20.1829295,77.343485 20.1829295,78.0302662 19.7714122,78.304869 C19.6340574,78.4424445 19.359895,78.5800199 19.2225401,78.5800199 C18.8110229,78.5800199 18.5368604,78.4424445 18.3995056,78.1678416 L18.3995056,78.1678416 Z M82.3083563,80.6403634 C81.896839,80.2281851 81.896839,79.6789794 82.1715487,79.2668011 C82.5830659,78.8546228 83.1313908,78.8546228 83.5429081,79.1292256 C83.9544253,79.5414039 83.9544253,80.0911577 83.6802629,80.5027879 C83.5429081,80.7779389 83.2687456,80.7779389 82.994036,80.7779389 C82.7198735,80.7779389 82.4457111,80.7779389 82.3083563,80.6403634 L82.3083563,80.6403634 Z M23.4739732,83.6620908 C23.0624559,83.2504606 23.0624559,82.7007068 23.3371656,82.2885285 C23.7481356,81.8763502 24.2970077,81.8763502 24.708525,82.150953 C25.1200423,82.5631314 25.1200423,83.1128851 24.8453326,83.5250634 C24.708525,83.7996663 24.4343626,83.7996663 24.1596529,83.7996663 C23.8854905,83.9372418 23.611328,83.7996663 23.4739732,83.6620908 L23.4739732,83.6620908 Z M76.8229186,85.4483795 C76.5487562,85.0362012 76.5487562,84.3494201 76.9597262,84.0742691 C77.3712435,83.7996663 78.0569232,83.7996663 78.3316329,84.2118446 C78.6057953,84.6240229 78.6057953,85.3108041 78.194278,85.5854069 C78.0569232,85.7229824 77.7827608,85.8600097 77.6454059,85.8600097 C77.3712435,85.8600097 77.0970811,85.7229824 76.8229186,85.4483795 L76.8229186,85.4483795 Z M29.3714753,88.1955041 C28.959958,87.9203532 28.8226032,87.233572 29.0967656,86.8213937 C29.3714753,86.4092154 30.057155,86.272188 30.4681251,86.5467909 C30.8796423,86.8213937 31.0169972,87.508723 30.7428347,87.9203532 C30.6054799,88.1955041 30.1939626,88.3325315 29.9198002,88.3325315 C29.6456377,88.3325315 29.5082829,88.1955041 29.3714753,88.1955041 L29.3714753,88.1955041 Z M70.6512541,89.2944636 C70.3770916,88.7447098 70.5144465,88.1955041 71.0627713,87.9203532 C71.6116434,87.6457503 72.1599683,87.7833258 72.4341307,88.3325315 C72.7082932,88.8822853 72.5714856,89.4314909 72.0226135,89.7066419 C71.8858059,89.8436692 71.748451,89.8436692 71.6116434,89.8436692 C71.2001262,89.7066419 70.7886089,89.5690664 70.6512541,89.2944636 L70.6512541,89.2944636 Z M35.9541099,91.4918344 C35.4052378,91.354807 35.1310754,90.6674778 35.4052378,90.2558476 C35.6799475,89.7066419 36.2282724,89.4314909 36.6397896,89.7066419 C37.1886617,89.8436692 37.4628242,90.5304504 37.1886617,90.9426287 C37.0513069,91.354807 36.6397896,91.6294099 36.2282724,91.6294099 C36.2282724,91.6294099 36.0914647,91.6294099 35.9541099,91.4918344 L35.9541099,91.4918344 Z M63.9312646,91.9040127 C63.7939098,91.354807 64.0686195,90.8050532 64.6169443,90.6674778 C65.1658164,90.5304504 65.7141413,90.8050532 65.8514961,91.354807 C65.988851,91.9040127 65.7141413,92.4537665 65.1658164,92.5907938 L64.8911068,92.5907938 C64.4801367,92.5907938 64.0686195,92.316191 63.9312646,91.9040127 L63.9312646,91.9040127 Z M43.0856166,93.6897533 L43.0856166,93.6897533 C42.5372917,93.5527259 42.2625821,93.0029722 42.2625821,92.4537665 C42.3999369,91.9040127 42.9482618,91.6294099 43.4971339,91.6294099 C44.0454588,91.7669853 44.3196212,92.316191 44.3196212,92.8659448 C44.1828136,93.277575 43.7712963,93.6897533 43.3597791,93.6897533 L43.0856166,93.6897533 Z M56.7997579,93.4151505 C56.6629503,92.8659448 57.0744676,92.316191 57.6227925,92.316191 C58.1711173,92.1786155 58.7199894,92.5907938 58.7199894,93.1405476 C58.856797,93.6897533 58.4452798,94.2395071 57.8969549,94.2395071 L57.7601473,94.2395071 C57.2112752,94.2395071 56.7997579,93.8273288 56.7997579,93.4151505 L56.7997579,93.4151505 Z M50.4912858,94.6516854 L50.4912858,94.6516854 C49.9429609,94.6516854 49.5314436,94.1019316 49.5314436,93.5527259 C49.5314436,93.0029722 50.0797685,92.5907938 50.6286406,92.5907938 C51.1769655,92.5907938 51.5884827,93.0029722 51.5884827,93.5527259 C51.4511279,94.2395071 51.0401579,94.6516854 50.4912858,94.6516854 L50.4912858,94.6516854 Z" id="Fill-7" fill="#172026"></path>
                <path d="M47.1662478,5.922589 C47.1662478,5.3678535 47.5775498,4.81256436 48.1255878,4.6741573 C48.6741728,4.6741573 49.2222108,5.09048574 49.3594938,5.64522125 C49.3594938,6.19995675 48.9481918,6.75524588 48.4001538,6.89365294 L48.2628708,6.89365294 C47.7142858,7.03261363 47.1662478,6.61628519 47.1662478,5.922589 M56.0759679,7.17102069 C55.5279299,7.17102069 54.9793449,6.61628519 55.1166279,5.922589 C55.1166279,5.3678535 55.6646659,4.81256436 56.3499869,4.95152505 C56.898025,4.95152505 57.4466099,5.50626056 57.309327,6.19995675 C57.309327,6.75524588 56.7612889,7.17102069 56.0759679,7.17102069 C56.2132509,7.17102069 56.0759679,7.17102069 56.0759679,7.17102069 M39.3531507,7.44894207 C39.2158677,6.89365294 39.6271697,6.19995675 40.1757547,6.06099606 C40.7237927,5.922589 41.4091138,6.33891744 41.5463967,6.89365294 C41.6836797,7.44894207 41.2723777,8.14263826 40.7237927,8.28104533 L40.4497737,8.28104533 C39.9017357,8.28104533 39.3531507,7.86527051 39.3531507,7.44894207 M63.751782,8.69737377 C63.203744,8.55896671 62.792442,7.86527051 63.066461,7.30998138 C63.203744,6.75524588 63.889065,6.33891744 64.43765,6.61628519 C64.985688,6.75524588 65.39699,7.44894207 65.122971,8.00367757 C64.985688,8.42000602 64.574386,8.83633446 64.026348,8.83633446 C63.889065,8.69737377 63.889065,8.69737377 63.751782,8.69737377 M31.8140726,10.2237268 C31.5400536,9.66899134 31.8140726,8.97529515 32.3626576,8.69737377 C32.9106957,8.42000602 33.5960167,8.69737377 33.8700357,9.2526629 C34.1446016,9.8073984 33.8700357,10.5010946 33.3219977,10.7784623 C33.1852616,10.7784623 33.0479786,10.917423 32.9112426,10.917423 C32.3626576,10.917423 31.9513556,10.6400553 31.8140726,10.2237268 M71.0168411,11.4721585 L71.0168411,11.4721585 C70.4682561,11.1947908 70.1942371,10.5016482 70.4682561,9.94635909 C70.7428221,9.39162359 71.4281431,9.11370221 71.9761811,9.39162359 C72.5247661,9.66899134 72.7987851,10.3626875 72.5247661,10.917423 C72.3874831,11.3337515 71.9761811,11.4721585 71.5648791,11.4721585 C71.2908601,11.6111192 71.1535771,11.4721585 71.0168411,11.4721585 M24.9608625,14.2474969 C24.6862966,13.6927614 24.6862966,12.9985116 25.2348815,12.7211439 C25.7829196,12.4437761 26.4682406,12.5821832 26.7428066,12.9985116 C27.0168256,13.5538007 26.8795426,14.2474969 26.4682406,14.5248647 C26.3315046,14.6638254 26.0574855,14.6638254 25.9202026,14.6638254 C25.5089006,14.8027861 25.0975986,14.6638254 24.9608625,14.2474969 M77.7333152,15.4959286 L77.7333152,15.4959286 C77.1852771,15.0801538 77.1852771,14.3864576 77.4592961,13.9701292 C77.8705981,13.4148401 78.5559192,13.4148401 78.9672212,13.6922078 C79.5152592,14.1085362 79.5152592,14.8027861 79.2412402,15.2185609 C78.9672212,15.4959286 78.6926552,15.6348893 78.4186362,15.6348893 C78.1446172,15.7732964 77.8705981,15.6348893 77.7333152,15.4959286 M18.7924265,19.5196987 C18.3811245,19.1033703 18.3811245,18.4096741 18.7924265,17.9933456 C19.2037285,17.5775708 19.8890495,17.5775708 20.3003515,17.9933456 C20.7116535,18.4096741 20.7116535,19.1033703 20.3003515,19.5196987 C20.1630685,19.6586594 19.8890495,19.7976201 19.4777475,19.7976201 C19.3404645,19.9360272 19.0669924,19.7976201 18.7924265,19.5196987 M83.4904492,20.768684 C83.0791472,20.3523556 83.0791472,19.6586594 83.4904492,19.242331 C83.9017512,18.8260025 84.5865253,18.8260025 84.9978273,19.242331 C85.4091293,19.6586594 85.4091293,20.3523556 84.9978273,20.768684 C84.8610912,20.9070911 84.5870722,21.0460518 84.1757702,21.0460518 C84.0384872,21.0460518 83.7644682,20.9070911 83.4904492,20.768684 M13.7211604,25.7635181 C13.1725754,25.3471896 13.1725754,24.6534934 13.4465944,24.237165 C13.8578964,23.6824295 14.5432174,23.6824295 14.9545194,23.9597973 C15.5025575,24.3761257 15.5025575,25.0698219 15.2285384,25.4855967 C14.9545194,25.7635181 14.6799535,25.9019251 14.2691984,25.9019251 C14.1319154,25.9019251 13.8578964,25.9019251 13.7211604,25.7635181 M88.4249793,26.8735427 C88.1509603,26.3182536 88.2876963,25.6245574 88.6989983,25.3471896 C89.2470363,25.0698219 89.9329043,25.2082289 90.2069233,25.6245574 C90.4809423,26.1798465 90.3436593,26.8735427 89.9329043,27.1509105 C89.7956213,27.2898712 89.5216023,27.2898712 89.3843193,27.2898712 C88.9730173,27.2898712 88.6989983,27.1509105 88.4249793,26.8735427 M9.74597035,32.8394407 C9.19738537,32.5620729 8.92336635,31.8683767 9.19738537,31.3130876 C9.47195133,30.7583521 10.1567254,30.4809844 10.7053104,30.7583521 C11.2533484,31.0357199 11.5273674,31.7294161 11.2533484,32.2847052 C11.1166124,32.7010336 10.7053104,32.9784014 10.2940084,32.9784014 C10.1567254,32.8394407 9.88270638,32.8394407 9.74597035,32.8394407 M92.2628863,33.6720976 L92.2628863,33.6720976 C91.9888673,33.1173621 92.2628863,32.4231122 92.8114713,32.1457445 C93.3595093,31.8683767 94.0448304,32.1457445 94.3188494,32.7010336 C94.5928684,33.2557691 94.3188494,33.9494653 93.7708113,34.2268331 C93.6335284,34.2268331 93.4967923,34.3657938 93.3595093,34.3657938 C92.8114713,34.3657938 92.4001693,34.088426 92.2628863,33.6720976 M7.14142233,40.3316917 C6.59283736,40.1932847 6.18153536,39.4990349 6.45610132,38.9442994 C6.59283736,38.3895639 7.27815837,37.9732354 7.82674335,38.2506032 C8.37478138,38.3895639 8.78608337,39.08326 8.51206436,39.6379955 C8.37478138,40.054324 7.96402633,40.4706524 7.41544135,40.4706524 C7.27815837,40.4706524 7.14142233,40.4706524 7.14142233,40.3316917 M94.7301514,41.1643486 L94.7301514,41.1643486 C94.5928684,40.6090595 95.0041704,39.9153633 95.5527554,39.7769562 C96.1007934,39.6379955 96.7861144,40.054324 96.9233974,40.6090595 C97.0606804,41.1643486 96.6493784,41.8580448 96.1007934,41.9970055 L95.8267744,41.9970055 C95.2787363,41.9970055 94.8674343,41.7190841 94.7301514,41.1643486 M5.77078031,48.3792319 C5.22219534,48.3792319 4.6741573,47.8244964 4.81144028,47.1302466 C4.81144028,46.5755111 5.35947832,46.020222 6.04479933,46.1591827 C6.59283736,46.1591827 7.14142233,46.7144718 7.00413935,47.408168 C6.86740332,47.9629035 6.45610132,48.3792319 5.77078031,48.3792319 M95.9640574,48.9339674 L95.9640574,48.9339674 C95.9640574,48.3792319 96.3753594,47.8244964 96.9233974,47.6855357 C97.4719824,47.6855357 98.0200204,48.1018642 98.1573034,48.6565997 C98.1573034,49.2113352 97.7460014,49.7666243 97.1974164,49.905585 L97.0606804,49.905585 C96.5120954,50.0439921 95.9640574,49.4892566 95.9640574,48.9339674 M4.6741573,55.4551545 C4.6741573,54.900419 5.0854593,54.3451299 5.63349733,54.2067228 C6.18153536,54.2067228 6.73012034,54.6224977 6.73012034,55.1777868 C6.73012034,55.7325223 6.31881834,56.2878114 5.77078031,56.4267721 L5.63349733,56.4267721 C5.22219534,56.4267721 4.6741573,56.0104437 4.6741573,55.4551545 M96.7861144,58.0915322 C96.2380764,58.0915322 95.6894914,57.5367967 95.8267744,56.8425469 C95.8267744,56.2878114 96.3748124,55.7325223 97.0606804,55.871483 C97.6087184,55.871483 98.1573034,56.4267721 98.0200204,57.1204683 C98.0200204,57.6752038 97.4719824,58.0915322 96.7861144,58.0915322 M5.90751635,63.5026947 C5.77078031,62.9474056 6.18153536,62.254263 6.73012034,62.1153023 C7.27815837,61.9763416 7.96402633,62.3926701 8.10076236,62.9474056 C8.23804534,63.5026947 7.82674335,64.1963909 7.27815837,64.334798 L7.00413935,64.334798 C6.45610132,64.334798 6.04479933,64.0574302 5.90751635,63.5026947 M95.1414534,66.0001117 C94.5928684,65.861151 94.1815664,65.1674549 94.4561324,64.6127194 C94.5928684,64.0574302 95.2787363,63.6411018 95.8267744,63.9190232 C96.3753594,64.0574302 96.7861144,64.7511264 96.5120954,65.3064155 C96.3753594,65.722744 95.9640574,66.1390724 95.4154724,66.1390724 C95.2787363,66.0001117 95.1414534,66.0001117 95.1414534,66.0001117 M8.51206436,71.4112742 L8.51206436,71.4112742 C8.23804534,70.8559851 8.51206436,70.1622889 9.06064933,69.8849211 C9.60868737,69.6075534 10.2940084,69.8849211 10.5680274,70.4402103 C10.8420464,70.9949458 10.5680274,71.688642 10.0199894,71.9660097 C9.88270638,71.9660097 9.74597035,72.1049704 9.60868737,72.1049704 C9.19738537,72.1049704 8.78608337,71.8276027 8.51206436,71.4112742 M91.9888673,73.3534021 C91.4402823,73.0760344 91.1662633,72.3823382 91.4402823,71.8276027 C91.7148483,71.2723135 92.4001693,70.9949458 92.9482073,71.2723135 C93.4967923,71.5502349 93.7708113,72.2433775 93.4967923,72.7986666 C93.3595093,73.214995 92.9482073,73.3534021 92.5369054,73.3534021 C92.4001693,73.4923628 92.2628863,73.4923628 91.9888673,73.3534021 M12.4872544,78.6261575 L12.4872544,78.6261575 C12.2132354,78.0708684 12.3499714,77.3771722 12.7612734,77.0998044 C13.3098584,76.8218831 13.9951794,76.9608438 14.2691984,77.3771722 C14.5432174,77.9319077 14.4064814,78.6261575 13.9951794,78.9035253 C13.8578964,79.042486 13.5838774,79.042486 13.4465944,79.042486 C13.0352924,79.180893 12.7612734,78.9035253 12.4872544,78.6261575 M87.7396583,80.2909177 C87.1910733,79.8745892 87.1910733,79.180893 87.4656393,78.7645646 C87.8769412,78.2098291 88.5622623,78.2098291 88.9730173,78.4871968 C89.5216023,78.9035253 89.5216023,79.5972215 89.2470363,80.0135499 C88.9730173,80.2909177 88.6989983,80.4298783 88.2876963,80.4298783 C88.1509603,80.4298783 88.0136773,80.4298783 87.7396583,80.2909177 M17.6958035,85.0083839 C17.2845015,84.5920555 17.2845015,83.8983593 17.6958035,83.4820309 C18.1071055,83.0657024 18.7924265,83.0657024 19.2037285,83.4820309 C19.6150305,83.8983593 19.6150305,84.5920555 19.2037285,85.0083839 C18.9297095,85.1473446 18.7924265,85.2857517 18.3811245,85.2857517 C18.1071055,85.4247124 17.8330865,85.2857517 17.6958035,85.0083839 M82.3938262,86.2568156 C81.9825242,85.8410408 81.9825242,85.1473446 82.3938262,84.7310162 C82.8051282,84.3146877 83.4904492,84.3146877 83.9017512,84.7310162 C84.3125063,85.1473446 84.3125063,85.8410408 83.9017512,86.2568156 C83.7644682,86.3957763 83.4904492,86.5341834 83.0791472,86.5341834 C82.9418642,86.5341834 82.6678452,86.3957763 82.3938262,86.2568156 M23.8642395,90.4195464 C23.3162015,90.003218 23.3162015,89.3095218 23.5902205,88.8931933 C24.0009756,88.3384578 24.6862966,88.3384578 25.0975986,88.6158256 C25.6461835,89.032154 25.6461835,89.7258502 25.3716176,90.1421787 C25.0975986,90.4195464 24.8235796,90.5585071 24.5495605,90.5585071 C24.2749946,90.6969142 24.0009756,90.5585071 23.8642395,90.4195464 M76.0886541,91.1132426 C75.8140882,90.5585071 75.9513711,89.8648109 76.3626731,89.5868895 C76.9107112,89.3095218 77.5960322,89.4484825 77.8705981,89.8648109 C78.1446172,90.4195464 78.0073342,91.1132426 77.5960322,91.3906104 C77.4592961,91.529571 77.1852771,91.529571 77.0479942,91.529571 C76.6366922,91.6679781 76.2253902,91.3906104 76.0886541,91.1132426 M30.8547326,94.7206843 L30.8547326,94.7206843 C30.3066946,94.4433165 30.0321286,93.7496203 30.3066946,93.1943312 C30.5807136,92.6395957 31.2660346,92.3616743 31.8146196,92.6395957 C32.3626576,92.9169634 32.6366766,93.6106596 32.3626576,94.1659488 C32.2253746,94.5817236 31.8146196,94.7206843 31.4033176,94.7206843 C31.1287516,94.8596449 30.9920156,94.8596449 30.8547326,94.7206843 M68.960878,94.8596449 C68.686859,94.3043558 68.960878,93.6106596 69.5089161,93.3332919 C70.0575011,93.0553705 70.7422751,93.3332919 71.0168411,93.8880274 C71.2908601,94.4433165 71.0168411,95.1370127 70.4682561,95.4143804 C70.3315201,95.4143804 70.1942371,95.5527875 70.0575011,95.5527875 C69.6461991,95.5527875 69.2348971,95.2759734 68.960878,94.8596449 M38.5305467,97.6344297 C37.9825087,97.495469 37.5712067,96.8017728 37.8452257,96.2464837 C37.9825087,95.6917482 38.6678297,95.2759734 39.2158677,95.5527875 C39.7644527,95.6917482 40.1757547,96.3854444 39.9017357,96.9407335 C39.7644527,97.3565083 39.3531507,97.7728368 38.8051127,97.7728368 C38.6678297,97.7728368 38.5305467,97.7728368 38.5305467,97.6344297 M61.4218,97.3565083 C61.284517,96.8017728 61.695819,96.1080766 62.244404,95.9691159 C62.792442,95.8307089 63.477763,96.2464837 63.615046,96.8017728 C63.751782,97.3565083 63.341027,98.0507582 62.792442,98.1891652 L62.518423,98.1891652 C61.969838,98.1891652 61.558536,97.7728368 61.4218,97.3565083 M46.4809268,99.2991898 C45.9328888,99.2991898 45.3843038,98.7444543 45.5215868,98.0507582 C45.5215868,97.495469 46.0696248,96.9407335 46.7549458,97.0791406 C47.3029838,97.0791406 47.8515688,97.6344297 47.7142858,98.3281259 C47.7142858,98.8828614 47.1662478,99.2991898 46.4809268,99.2991898 M53.4714199,98.3281259 C53.4714199,97.7728368 53.8827219,97.2181013 54.4313069,97.0791406 C54.9793449,97.0791406 55.5279299,97.495469 55.6646659,98.0507582 C55.6646659,98.6054937 55.2539109,99.1607828 54.7053259,99.2991898 L54.5680429,99.2991898 C54.0200049,99.4381505 53.6087029,99.0218221 53.4714199,98.3281259" id="Fill-9" fill="#172026"></path>
                <path d="M50.7553287,1.24439539 C50.7553287,0.552941988 51.3082707,0 51.9997241,0 C52.6911775,0 53.2446713,0.552941988 53.2446713,1.24439539 C53.2446713,1.9358488 52.6911775,2.48934262 51.9997241,2.48934262 C51.3082707,2.48934262 50.7553287,1.9358488 50.7553287,1.24439539 L50.7553287,1.24439539 Z M42.0423536,2.21231979 C41.904394,1.52086639 42.3188246,0.967924398 43.0108298,0.829412982 C43.7022832,0.691453404 44.2552252,1.10643581 44.3937366,1.79733738 C44.5322481,2.48934262 44.1172656,3.04228461 43.4252604,3.18079603 L43.1487894,3.18079603 C42.5958474,3.18079603 42.0423536,2.76581362 42.0423536,2.21231979 L42.0423536,2.21231979 Z M60.5741878,3.18079603 C59.8832862,3.04228461 59.4683038,2.48934262 59.6062634,1.79733738 C59.7447748,1.10643581 60.2977168,0.691453404 60.9891702,0.82996482 C61.6806236,0.967924398 62.095606,1.52086639 61.9576464,2.21231979 C61.819135,2.76581362 61.4041526,3.18079603 60.7126992,3.18079603 L60.5741878,3.18079603 Z M33.4678899,4.70221425 C33.1914189,4.01020901 33.6064013,3.3187556 34.1593433,3.18079603 C34.8507967,2.90377319 35.542802,3.3187556 35.6807615,3.87224943 C35.9577844,4.56370284 35.542802,5.25515624 34.9893081,5.39366766 C34.8507967,5.39366766 34.7128371,5.53162723 34.5743257,5.53162723 C34.1593433,5.53162723 33.6064013,5.11664482 33.4678899,4.70221425 L33.4678899,4.70221425 Z M68.8727323,5.39366766 C68.180727,5.11664482 67.9042561,4.42519142 68.180727,3.87224943 C68.4577499,3.18079603 69.1492033,2.90377319 69.7021453,3.18079603 C70.3935987,3.45726702 70.6700697,4.14872042 70.3935987,4.70221425 C70.2550873,5.11664482 69.7021453,5.53162723 69.2877147,5.53162723 C69.1492033,5.53162723 69.0106919,5.53162723 68.8727323,5.39366766 L68.8727323,5.39366766 Z M25.5848796,8.57446368 C25.3084086,8.02096986 25.4469201,7.19100504 25.999862,6.91453404 C26.5533559,6.63806305 27.3827688,6.77657446 27.6592398,7.32951645 C27.9362627,7.88301028 27.7977513,8.71242326 27.2448093,8.98944609 C27.1062979,9.12740567 26.8298269,9.12740567 26.6913154,9.12740567 C26.1383735,9.26591709 25.723391,8.98944609 25.5848796,8.57446368 L25.5848796,8.57446368 Z M76.7551907,9.12740567 C76.2022487,8.85093468 75.9257777,8.02096986 76.3407602,7.46802787 C76.6172312,6.91453404 77.447196,6.63806305 78.000138,7.05304546 C78.5536318,7.32951645 78.8295509,8.15948127 78.4151204,8.71242326 C78.1386494,9.12740567 77.8621784,9.26591709 77.3086846,9.26591709 C77.1701731,9.26591709 76.8937021,9.12740567 76.7551907,9.12740567 L76.7551907,9.12740567 Z M18.3933228,13.8296199 C17.9783403,13.2766779 17.9783403,12.5846727 18.5318342,12.1702421 C19.0847762,11.7552597 19.7762296,11.7552597 20.191212,12.3082017 C20.6061944,12.8616955 20.6061944,13.5531489 20.0532524,13.9681313 C19.7762296,14.1060909 19.4997586,14.2446023 19.2232876,14.2446023 C18.9468166,14.2446023 18.6697938,14.1060909 18.3933228,13.8296199 L18.3933228,13.8296199 Z M83.8082362,14.1060909 C83.2552942,13.6911085 83.2552942,12.8616955 83.6702766,12.4467131 C84.085259,11.8932193 84.914672,11.8932193 85.3296544,12.3082017 C85.8831482,12.7231841 85.8831482,13.5531489 85.4681658,13.9681313 C85.1916948,14.2446023 84.9152238,14.3831137 84.5002414,14.3831137 C84.36173,14.3831137 84.085259,14.2446023 83.8082362,14.1060909 L83.8082362,14.1060909 Z M12.3087535,20.3297234 C11.7552597,19.914741 11.7552597,19.0847762 12.1702421,18.6703456 C12.5852245,18.1168518 13.4146375,18.1168518 13.8296199,18.5318342 C14.3825619,18.9468166 14.3825619,19.7767814 13.9681313,20.191212 C13.6911085,20.467683 13.4146375,20.6061944 13.0002069,20.6061944 C12.8616955,20.6061944 12.5852245,20.467683 12.3087535,20.3297234 L12.3087535,20.3297234 Z M89.8939091,20.191212 C89.4789267,19.63827 89.4789267,18.9468166 90.0318687,18.5318342 C90.5853625,18.1168518 91.2768159,18.1168518 91.6917983,18.6703456 C92.1067807,19.2232876 92.1067807,19.914741 91.5532869,20.3297234 C91.2768159,20.467683 91.0003449,20.6061944 90.7233221,20.6061944 C90.4468511,20.6061944 90.1703801,20.467683 89.8939091,20.191212 L89.8939091,20.191212 Z M7.46802787,27.6592398 C6.91508588,27.3827688 6.63806305,26.552804 7.05304546,25.999862 C7.32951645,25.4463682 8.15948127,25.1698972 8.71242326,25.5848796 C9.26591709,25.8613506 9.54238808,26.6913154 9.12740567,27.2448093 C8.85093468,27.6592398 8.57446368,27.7977513 8.02152169,27.7977513 C7.88301028,27.7977513 7.60653928,27.7977513 7.46802787,27.6592398 L7.46802787,27.6592398 Z M94.8725943,27.2448093 C94.5955715,26.6913154 94.7340625,25.8613506 95.2875767,25.5848796 C95.8405187,25.3084086 96.6704835,25.4463682 96.9469545,25.999862 C97.2234255,26.552804 97.085466,27.3827688 96.5319721,27.6592398 C96.3940126,27.7977513 96.1175416,27.7977513 95.9790301,27.7977513 C95.5640477,27.7977513 95.1490653,27.6592398 94.8725943,27.2448093 L94.8725943,27.2448093 Z M3.87224943,35.819273 C3.18079603,35.5422501 2.90432503,34.8507967 3.18079603,34.2978547 C3.45726702,33.6064013 4.14872042,33.3299303 4.70166241,33.6064013 C5.39366766,33.8828723 5.67013865,34.5743257 5.39366766,35.1272677 C5.25515624,35.5422501 4.70166241,35.9572325 4.28723184,35.9572325 C4.14872042,35.819273 4.01020901,35.819273 3.87224943,35.819273 L3.87224943,35.819273 Z M98.4683728,34.9893081 C98.1913499,34.2978547 98.6063323,33.6064013 99.1598262,33.4678899 C99.8512796,33.1914189 100.542733,33.6064013 100.681244,34.1593433 C100.957715,34.8507967 100.542733,35.5422501 99.9892392,35.6807615 C99.8512796,35.6807615 99.7127682,35.819273 99.5748086,35.819273 C99.1598262,35.819273 98.7448438,35.5422501 98.4683728,34.9893081 L98.4683728,34.9893081 Z M1.79788922,44.3931848 C1.10643581,44.2552252 0.691453404,43.7017314 0.829412982,43.0108298 C0.967924398,42.3193764 1.52086639,41.904394 2.21287163,42.0423536 C2.90432503,42.180865 3.31930744,42.733807 3.18079603,43.4258122 C3.04228461,43.9787542 2.62785404,44.3931848 1.9358488,44.3931848 L1.79788922,44.3931848 Z M100.819204,43.4258122 L100.819204,43.4258122 C100.681244,42.733807 101.096227,42.180865 101.78768,42.0423536 C102.478582,41.904394 103.032076,42.3193764 103.170035,43.0108298 C103.308547,43.7017314 102.893564,44.2552252 102.202663,44.3931848 L101.92564,44.3931848 C101.372698,44.3931848 100.819204,43.9787542 100.819204,43.4258122 L100.819204,43.4258122 Z M0,52.0002759 C0,51.3082707 0.552941988,50.7553287 1.24439539,50.7553287 C1.9358488,50.7553287 2.48934262,51.3082707 2.48934262,52.0002759 C2.48934262,52.6917293 1.9358488,53.2446713 1.24439539,53.2446713 C0.552941988,53.2446713 0,52.6917293 0,52.0002759 L0,52.0002759 Z M101.510657,52.0002759 C101.510657,51.3082707 102.064151,50.7553287 102.755605,50.7553287 C103.447058,50.7553287 104,51.3082707 104,52.0002759 C104,52.6917293 103.447058,53.2446713 102.755605,53.2446713 C102.064151,53.2446713 101.510657,52.6917293 101.510657,52.0002759 L101.510657,52.0002759 Z M0.829412982,60.9891702 C0.691453404,60.2977168 1.10643581,59.7447748 1.79788922,59.6062634 C2.48934262,59.4677519 3.04228461,59.8827344 3.18079603,60.5747396 C3.31930744,61.266193 2.90432503,61.819135 2.21287163,61.9576464 L1.9358488,61.9576464 C1.38290681,61.9576464 0.967924398,61.542664 0.829412982,60.9891702 L0.829412982,60.9891702 Z M101.78768,61.9576464 C101.096227,61.819135 100.681244,61.266193 100.819204,60.5747396 C100.957715,59.8827344 101.510657,59.4683038 102.202663,59.6062634 C102.893564,59.7447748 103.308547,60.2977168 103.170035,60.9891702 C103.032076,61.542664 102.617093,61.9576464 101.92564,61.9576464 L101.78768,61.9576464 Z M3.18079603,69.7021453 C2.90432503,69.0106919 3.31930744,68.3192385 3.87224943,68.180727 C4.56370284,67.9042561 5.25515624,68.3192385 5.39366766,68.8721805 C5.67013865,69.5636339 5.25515624,70.2556391 4.70166241,70.3935987 C4.56370284,70.3935987 4.42519142,70.5321101 4.28723184,70.5321101 C3.73373801,70.5321101 3.31930744,70.2556391 3.18079603,69.7021453 L3.18079603,69.7021453 Z M99.2977857,70.5321101 C98.6063323,70.2556391 98.3298614,69.5636339 98.6063323,69.0106919 C98.8828033,68.3192385 99.5748086,68.0422156 100.127751,68.3192385 C100.819204,68.5957095 101.096227,69.2871629 100.819204,69.8406567 C100.681244,70.2556391 100.127751,70.6700697 99.7127682,70.6700697 C99.5748086,70.5321101 99.4362972,70.5321101 99.2977857,70.5321101 L99.2977857,70.5321101 Z M6.91508588,78.000138 C6.63806305,77.4466441 6.77657446,76.6166793 7.32951645,76.3402083 C7.88301028,76.0637373 8.71242326,76.2022487 8.98889425,76.7551907 C9.26591709,77.3086846 9.12740567,78.1380975 8.57446368,78.4151204 C8.43595227,78.5530799 8.15948127,78.5530799 8.02152169,78.5530799 C7.60653928,78.5530799 7.19155687,78.276609 6.91508588,78.000138 L6.91508588,78.000138 Z M95.2875767,78.4151204 C94.7340829,78.1380975 94.4576119,77.3086846 94.8725943,76.7551907 C95.1490653,76.2022487 95.9790301,75.9257777 96.5319721,76.3402083 C97.085466,76.6166793 97.361937,77.4466441 96.9469545,78.000138 C96.6704835,78.4151204 96.3940126,78.5530799 95.8405187,78.5530799 C95.7020073,78.5530799 95.5640477,78.5530799 95.2875767,78.4151204 L95.2875767,78.4151204 Z M12.1702421,85.3302062 C11.7552597,84.7767124 11.7552597,84.085259 12.3087535,83.6702766 C12.8616955,83.2552942 13.5531489,83.2552942 13.9681313,83.808788 C14.3825619,84.36173 14.3825619,85.0531834 13.8296199,85.4681658 C13.5531489,85.6066772 13.2761261,85.7446368 13.0002069,85.7446368 C12.7231841,85.7446368 12.4467131,85.6066772 12.1702421,85.3302062 L12.1702421,85.3302062 Z M90.0318687,85.4681658 C89.4789267,85.0531834 89.4789267,84.2237704 89.8939091,83.808788 C90.3083397,83.2552942 91.1383045,83.2552942 91.5532869,83.6702766 C92.1067807,84.085259 92.1067807,84.9152238 91.6917983,85.3302062 C91.4153273,85.6066772 91.1383045,85.7446368 90.7233221,85.7446368 C90.5853625,85.7446368 90.3083397,85.7446368 90.0318687,85.4681658 L90.0318687,85.4681658 Z M18.5318342,91.8297579 C17.9783403,91.4147755 17.9783403,90.5848107 18.3933228,90.1703801 C18.8083052,89.6174381 19.63827,89.6174381 20.0532524,90.0318687 C20.6061944,90.4468511 20.6061944,91.2768159 20.191212,91.6912465 C19.914741,91.9682693 19.63827,92.1062289 19.2232876,92.1062289 C19.0847762,92.1062289 18.8083052,91.9682693 18.5318342,91.8297579 L18.5318342,91.8297579 Z M83.6702766,91.6912465 C83.2552942,91.1383045 83.2552942,90.4468511 83.8082362,90.0318687 C84.36173,89.6174381 85.0531834,89.6174381 85.4681658,90.1703801 C85.8831482,90.7233221 85.8831482,91.4147755 85.3296544,91.8297579 C85.0531834,91.9682693 84.7767124,92.1062289 84.5002414,92.1062289 C84.2232186,92.1062289 83.9467476,91.9682693 83.6702766,91.6912465 L83.6702766,91.6912465 Z M25.999862,96.9469545 C25.4469201,96.6704835 25.1698972,95.8405187 25.5848796,95.2870249 C25.8619025,94.7340829 26.6913154,94.4576119 27.2448093,94.8725943 C27.7977513,95.1490653 28.0742223,95.9784783 27.6592398,96.5319721 C27.3827688,96.9469545 27.1062979,97.0849141 26.5533559,97.0849141 C26.4148445,97.0849141 26.1383735,97.0849141 25.999862,96.9469545 L25.999862,96.9469545 Z M76.3402083,96.5319721 C76.0637373,95.9784783 76.2022487,95.1490653 76.7551907,94.8725943 C77.3086846,94.5961233 78.1386494,94.7340829 78.4151204,95.2870249 C78.6915914,95.8405187 78.5536318,96.6704835 78.000138,96.9469545 C77.8616265,97.0849141 77.5851555,97.0849141 77.447196,97.0849141 C76.8937021,97.0849141 76.4787197,96.9469545 76.3402083,96.5319721 L76.3402083,96.5319721 Z M34.1593433,100.819204 C33.4678899,100.542733 33.1914189,99.8512796 33.4678899,99.2977857 C33.7443609,98.6063323 34.4363661,98.3298614 34.9893081,98.6063323 C35.6807615,98.8833552 35.9577844,99.5748086 35.6807615,100.127751 C35.542802,100.542733 34.9893081,100.957715 34.5743257,100.957715 C34.4363661,100.819204 34.2978547,100.819204 34.1593433,100.819204 L34.1593433,100.819204 Z M68.180727,100.127751 C67.9042561,99.4362972 68.3192385,98.7448438 68.8727323,98.6063323 C69.5636339,98.3298614 70.2550873,98.7448438 70.3935987,99.2977857 C70.6700697,99.9892392 70.2550873,100.680693 69.7021453,100.819204 C69.5636339,100.819204 69.4256743,100.957715 69.2877147,100.957715 C68.8727323,100.819204 68.3192385,100.542733 68.180727,100.127751 L68.180727,100.127751 Z M59.6068152,102.202111 C59.4683038,101.510657 59.8832862,100.957715 60.5741878,100.819204 C61.266193,100.680693 61.819135,101.095675 61.9576464,101.787128 C62.095606,102.478582 61.6806236,103.032076 60.9891702,103.170587 L60.7126992,103.170587 C60.1597572,103.170587 59.7447748,102.755605 59.6068152,102.202111 L59.6068152,102.202111 Z M43.0108298,103.170587 L43.0108298,103.170587 C42.3188246,103.032076 41.904394,102.478582 42.0423536,101.787128 C42.180865,101.095675 42.733807,100.680693 43.4252604,100.819204 C44.1172656,100.957715 44.5316962,101.510657 44.3937366,102.202111 C44.2552252,102.755605 43.8402428,103.170587 43.1487894,103.170587 L43.0108298,103.170587 Z M50.7553287,102.755605 C50.7553287,102.064151 51.3082707,101.510657 51.9997241,101.510657 C52.6911775,101.510657 53.2446713,102.064151 53.2446713,102.755605 C53.2446713,103.447058 52.6911775,104 51.9997241,104 C51.3082707,103.86204 50.7553287,103.447058 50.7553287,102.755605 L50.7553287,102.755605 Z" id="Fill-11" fill="#172026"></path>
            </g>
            <g id="游戏" transform="translate(92.000000, 508.000000)" fill="#E6007A" fill-rule="nonzero">
                <path d="M34.563066,0 L14.436934,0 C6.47628288,0 0,6.50457373 0,14.5 C0,22.4954263 6.47628288,29 14.436934,29 L34.563066,29 C42.5237171,29 49,22.4954263 49,14.5 C49,6.50457373 42.5237171,0 34.563066,0 Z M34.563066,26.363154 L14.436934,26.363154 C7.923674,26.363154 2.62537732,21.0417124 2.62537732,14.5 C2.62537732,7.9582876 7.923674,2.63684596 14.436934,2.63684596 L34.563066,2.63684596 C41.076326,2.63684596 46.3746227,7.9582876 46.3746227,14.5 C46.3746227,21.0417124 41.076326,26.363154 34.563066,26.363154 Z M19.6876887,13.1842298 L15.7522639,13.1842298 L15.7522639,9.23161361 C15.7522639,8.50475668 15.165912,7.9158434 14.4422165,7.9158434 C13.7185209,7.9158434 13.132169,8.50475668 13.132169,9.23161361 L13.132169,13.1842298 L9.19674429,13.1842298 C8.47304873,13.1842298 7.88669685,13.7731431 7.88669685,14.5 C7.88669685,15.2268569 8.47304873,15.8157702 9.19674429,15.8157702 L13.132169,15.8157702 L13.132169,19.7683864 C13.132169,20.4952433 13.7185209,21.0841566 14.4422165,21.0841566 C15.165912,21.0841566 15.7522639,20.4952433 15.7522639,19.7683864 L15.7522639,15.8157702 L19.6876887,15.8157702 C20.4113842,15.8157702 20.9977712,15.2268569 20.9977712,14.5 C21.0030185,13.7731431 20.4113842,13.1842298 19.6876887,13.1842298 Z M34.563066,7.90523235 C33.5963777,7.90523235 32.8145752,8.69045005 32.8145752,9.66136114 C32.8145752,10.6322722 33.5963777,11.4174899 34.563066,11.4174899 C35.5297542,11.4174899 36.3115567,10.6322722 36.3115567,9.66136114 C36.3115567,8.69575558 35.5297542,7.90523235 34.563066,7.90523235 Z M34.563066,17.571899 C33.5963777,17.571899 32.8145752,18.3571167 32.8145752,19.3280278 C32.8145752,20.2989389 33.5963777,21.0841566 34.563066,21.0841566 C35.5297542,21.0841566 36.3115567,20.2989389 36.3115567,19.3280278 C36.3115567,18.3624222 35.5297542,17.571899 34.563066,17.571899 Z M29.7507546,12.7385657 C28.7840664,12.7385657 28.0022639,13.5237834 28.0022639,14.4946945 C28.0022639,15.4656056 28.7840664,16.2508233 29.7507546,16.2508233 C30.7174429,16.2508233 31.4992454,15.4656056 31.4992454,14.4946945 C31.4992454,13.5290889 30.7174429,12.7385657 29.7507546,12.7385657 Z M39.3753773,12.7385657 C38.4086891,12.7385657 37.6268866,13.5237834 37.6268866,14.4946945 C37.6268866,15.4656056 38.4086891,16.2508233 39.3753773,16.2508233 C40.3420655,16.2508233 41.123868,15.4656056 41.123868,14.4946945 C41.123868,13.5290889 40.3420655,12.7385657 39.3753773,12.7385657 Z" id="形状"></path>
            </g>
            <g id="ethereum" transform="translate(522.000000, 523.000000) scale(-1, 1) translate(-522.000000, -523.000000) translate(506.000000, 500.000000)" fill="#E6007A" fill-rule="nonzero">
                <path d="M5.91391277,22.1739332 L16,27.00685 L26.0860872,22.1739332 L16,7.6751828 L5.91391277,22.1739332 Z M16,31.7673794 L9.15745627,28.4886606 L16,38.3248172 L22.8425437,28.4886606 L16,31.7673794 Z M32,23 L16,46 L0,23 L16,0 L32,23 Z" id="形状"></path>
            </g>
            <g id="资产" transform="translate(562.000000, 216.000000)" fill-rule="nonzero">
                <path d="M18.4998792,17.9514792 C18.3138724,17.9514792 18.1301674,17.9112154 17.9619534,17.8335079 L0.721521785,9.86719401 C0.276618595,9.66179127 -0.0051892655,9.22143932 7.24268006e-05,8.73997621 C0.00548306639,8.25851309 0.296984498,7.82424897 0.746335494,7.6283421 L17.9867671,0.106805925 C18.3134494,-0.035601975 18.6865305,-0.035601975 19.0132128,0.106805925 L36.2534229,7.6283421 C36.7029039,7.82419481 36.9945164,8.25852551 36.9999276,8.74008282 C37.0051898,9.22164014 36.7232714,9.66206044 36.2782366,9.86741087 L19.0380265,17.8332911 C18.8697529,17.9110773 18.6859742,17.9514792 18.4998792,17.9514792 L18.4998792,17.9514792 Z M4.27785792,8.78550152 L18.4998792,15.356328 L32.7219004,8.78550152 L18.4998792,2.5809498 L4.27785792,8.78550152 Z M18.851259,36 C18.6651791,36 18.4813981,35.9597537 18.3131117,35.8820286 L1.07290162,27.9157147 L2.14941777,25.6881395 L18.8514806,33.4057161 L35.5537649,25.6881395 L36.629838,27.9157147 L19.3896279,35.8820286 C19.2212763,35.9597918 19.0374145,36 18.851259,36 L18.851259,36 Z" id="形状" fill="#172026"></path>
                <polygon id="路径" fill="#E6007A" points="17.921875 26.7096774 0 18.4879728 1.08469217 16.2589302 17.921875 23.9824546 34.7590578 16.2580645 35.84375 18.4871071"></polygon>
            </g>
            <g id="金融界" transform="translate(40.000000, 216.000000)" fill-rule="nonzero">
                <path d="M18.5,0 C8.28273213,0 0,8.28273213 0,18.5 C0,28.7172679 8.28273213,37 18.5,37 C28.7172679,37 37,28.7172679 37,18.5 C36.9884841,8.28750596 28.712494,0.0115158556 18.5,0 Z M34.6458031,16.4935648 L27.5753523,16.4935648 C27.2409974,11.4456959 25.3729158,6.62034775 22.2210881,2.66323316 C28.8419921,4.23050619 33.7943893,9.74317148 34.6458031,16.4935648 Z M14.7789119,2.66323316 C11.626977,6.62028622 9.75888188,11.4456692 9.42464767,16.4935648 L2.35419689,16.4935648 C3.20555784,9.74314732 8.15797822,4.23045621 14.7789119,2.66323316 Z M2.23399482,18.7223834 L9.3726943,18.7223834 C9.46588918,24.5078495 11.5836064,30.0777191 15.3576839,34.4636788 C7.81806315,32.9684774 2.34850521,26.4079801 2.23399482,18.7223834 L2.23399482,18.7223834 Z M17.3855907,25.6316062 L17.3855907,33.3805181 C9.65896114,24.7400502 9.65896114,11.6733177 17.3855907,3.03284974 L17.3855907,11.3670518 L19.6144093,11.3670518 L19.6144093,3.03246632 C23.3563505,7.20140993 25.4209667,12.60893 25.4097354,18.2109016 C25.4285521,23.8116238 23.3627856,29.2190132 19.6144093,33.3805181 L19.6144093,25.6316062 L17.3855907,25.6316062 Z M21.6415492,34.4632953 C25.4156126,30.0773273 27.5333278,24.507463 27.6265389,18.722 L34.7652383,18.722 C34.6509827,26.4075056 29.1817714,32.9681303 21.6423161,34.4636788 L21.6415492,34.4632953 Z" id="形状" fill="#E6007A"></path>
                <path d="M21.9687332,20.0670911 C21.9740512,21.4117176 20.7159543,22.5281898 19.0952453,22.6170939 L19.0952453,23.125 L17.920894,23.125 L17.920894,22.6170939 C17.1219513,22.6240896 16.3605184,22.3369872 15.8424819,21.8334175 C15.2970776,21.3058334 15.0083988,20.6290849 15.0326645,19.9349657 L15.0326645,19.758333 L16.9761421,19.758333 C16.967096,19.8094801 16.9625861,19.8611069 16.9626486,19.9127993 C16.9626486,20.7813013 17.2820637,21.2633176 17.920894,21.3588481 L17.920894,19.2293078 C16.058377,18.7952895 15.1271186,17.9821743 15.1271186,16.7899622 C15.1238091,16.1703546 15.4256789,15.5763916 15.9630796,15.1451143 C16.4618787,14.6863715 17.1617897,14.4120635 17.9065572,14.3834297 L17.9065572,13.875 L19.0806976,13.875 L19.0806976,14.3827316 C19.8206907,14.4204286 20.5113062,14.7028297 20.9971883,15.166408 C21.5131393,15.6363661 21.7889084,16.2536152 21.7665255,16.8884017 L21.7665255,16.9655476 L19.8095544,16.9655476 L19.8095544,16.8433709 C19.8095544,16.1517342 19.5666022,15.7469802 19.0806976,15.6291087 L19.0806976,17.7052404 C19.8508415,17.8564608 20.561594,18.1679583 21.1456162,18.6102209 C21.6532874,18.9796378 21.9516417,19.5077187 21.9687332,20.0670911 L21.9687332,20.0670911 Z M17.9063463,17.5505996 L17.9063463,15.6411519 C17.4505154,15.8296534 17.1744469,16.2250681 17.2046873,16.6461427 L17.2046873,16.679305 C17.2141046,17.0247742 17.4479909,17.3152057 17.9063463,17.5505996 L17.9063463,17.5505996 Z M19.8768108,20.3212187 C19.8768108,19.9093085 19.6113695,19.6002596 19.0804868,19.3940718 L19.0804868,21.369844 C19.6113695,21.2227665 19.8768108,20.8732247 19.8768108,20.3212187 Z" id="形状" fill="#172026"></path>
            </g>
        </g>
    </g>
</svg>