<?xml version="1.0" encoding="UTF-8"?>
<svg width="546px" height="536px" viewBox="0 0 546 536" version="1.1" xmlns="http://www.w3.org/2000/svg" xmlns:xlink="http://www.w3.org/1999/xlink">
    <title>编组 2</title>
    <g id="页面-1" stroke="none" stroke-width="1" fill="none" fill-rule="evenodd">
        <g id="编组-2">
            <path d="M224.606225,55.7672141 C227.021442,67.3470522 233.248353,77.5268661 241.916611,84.932647 C251.088366,92.7685936 262.991579,97.5 276,97.5 C288.931783,97.5 300.771333,92.8241538 309.920899,85.0715945 C318.570521,77.7426454 324.814506,67.663008 327.311629,56.1850098 C381.520418,68.1535672 428.887503,98.3392444 462.667908,139.991217 C496.330803,181.498298 516.5,234.393841 516.5,292 C516.5,358.688384 489.469192,419.063384 445.766288,462.766288 C402.063384,506.469192 341.688384,533.5 275,533.5 C208.311616,533.5 147.936616,506.469192 104.233712,462.766288 C60.5308082,419.063384 33.5,358.688384 33.5,292 C33.5,234.040368 53.9174927,180.84935 87.9531636,139.227885 C122.093242,97.4787421 169.933829,67.3684237 224.606225,55.7672141 Z" id="形状结合" stroke="#E6007A" stroke-width="5"></path>
            <circle id="椭圆形" stroke-opacity="0.346575544" stroke="#172026" stroke-width="3" fill="#FFFFFF" cx="50" cy="211" r="48.5"></circle>
            <circle id="椭圆形备份-2" stroke-opacity="0.346575544" stroke="#172026" stroke-width="3" fill="#FFFFFF" cx="100" cy="460" r="48.5"></circle>
            <circle id="椭圆形备份-3" stroke-opacity="0.346575544" stroke="#172026" stroke-width="3" fill="#FFFFFF" cx="446" cy="460" r="48.5"></circle>
            <circle id="椭圆形备份" stroke-opacity="0.346575544" stroke="#172026" stroke-width="3" fill="#FFFFFF" cx="496" cy="211" r="48.5"></circle>
            <text id="#DeFi" font-family="MuktaMahee-Bold, Mukta Mahee" font-size="18" font-weight="bold" fill="#172026">
                <tspan x="26.703" y="238">#DeFi</tspan>
            </text>
            <text id="DGAME" font-family="MuktaMahee-Bold, Mukta Mahee" font-size="18" font-weight="bold" fill="#172026">
                <tspan x="71.088" y="487">DGAME</tspan>
            </text>
            <text id="Erc20" font-family="MuktaMahee-Bold, Mukta Mahee" font-size="18" font-weight="bold" fill="#172026">
                <tspan x="424.954" y="487">Erc20</tspan>
            </text>
            <text id="NFT" font-family="MuktaMahee-Bold, Mukta Mahee" font-size="18" font-weight="bold" fill="#172026">
                <tspan x="481.425" y="238">NFT</tspan>
            </text>
            <g id="编组" transform="translate(231.000000, 0.000000)">
                <path d="M37.2129363,51.3190025 C40.7779871,54.7714963 46.3998522,54.7714963 49.964903,51.3190025 C51.747193,49.5239902 52.5698246,47.1764841 52.5698246,44.2760098 C52.5698246,41.3764841 51.747193,39.0285037 49.964903,37.2334914 C46.3998522,33.7809975 40.7779871,33.7809975 37.2129363,37.2334914 C35.4301754,39.0285037 34.6075439,41.3764841 34.6075439,44.2760098 C34.4705171,47.1764841 35.4301754,49.5239902 37.2129363,51.3190025 M44.0689843,15 C52.1582733,15 59.0143213,17.9 64.6361865,23.5619951 C70.2575808,29.2239902 73,35.9904988 73,44 C73,48.5570074 72.0403416,52.2859853 70.120554,55.185511 C68.2012373,58.0859853 65.4588181,59.6049877 61.7567405,59.6049877 C59.0143213,59.6049877 56.8204801,58.6380049 55.175217,56.7045135 C54.2150877,55.6 52.4327978,55.4619951 51.3361126,56.4285037 C49.1418006,58.5 46.2623546,59.4665086 42.9718282,59.4665086 C38.8581994,59.4665086 35.4301754,58.0859853 32.6882271,55.185511 C29.9458079,52.2859853 28.5745983,48.6954865 28.5745983,44.1380049 C28.5745983,39.7190025 29.9458079,36.1285037 32.6882271,33.2285037 C35.4301754,30.3285037 38.8581994,28.8095012 42.6973038,28.8095012 C46.536879,28.8095012 49.6903786,30.3285037 52.1582733,33.2285037 L52.295771,33.3669828 C52.4327978,33.3669828 52.5698246,33.2285037 52.5698246,33.2285037 L52.5698246,32.814489 C52.5698246,31.2954865 53.8040074,30.0524939 55.3122438,30.0524939 C56.8204801,30.0524939 58.054663,31.2954865 58.054663,32.814489 L58.054663,49.6619951 C58.054663,50.9045135 58.4657433,52.1479804 59.1513481,53.2524939 C59.8369529,54.3570074 60.9336381,54.7714963 62.4423453,54.7714963 C66.0069252,54.7714963 67.7896861,51.1809975 67.7896861,44 C67.7896861,37.3714963 65.4588181,31.8475061 60.9336381,27.2904988 C56.4093998,22.7334914 50.7875346,20.5239902 44.2060111,20.5239902 C37.6244875,20.5239902 32.1396491,22.7334914 27.4774423,27.2904988 C22.9527331,31.8475061 20.6218652,37.3714963 20.6218652,44 C20.6218652,50.6285037 22.9527331,56.1524939 27.4774423,60.7095012 C32.0026223,65.2665086 37.6244875,67.4760098 44.2060111,67.4760098 C46.6739058,67.4760098 49.0047738,67.0619951 51.3356417,66.3714963 C52.7068513,65.9570074 54.2150877,66.5095012 54.7636657,67.8904988 C55.3122438,69.2714963 54.626639,70.7904988 53.3924561,71.4809975 C53.3924561,71.4809975 53.2554294,71.4809975 53.2554294,71.6190025 C50.3759834,72.585511 47.3595106,73 44.3430378,73 C36.1157802,73 29.1231763,70.2380049 23.5013112,64.5764841 C17.879446,58.914489 15.1370268,52.1479804 15,44 C15,35.9904988 17.879446,29.2239902 23.5013112,23.5619951 C28.9856787,17.7619951 35.8417267,15 44.0689843,15" id="Fill-1" fill="#172026"></path>
                <path d="M60.5,62 C62.4331731,62 64,63.5668269 64,65.5 C64,67.4326923 62.4331731,69 60.5,69 C58.5673077,69 57,67.4326923 57,65.5 C57,63.5668269 58.5673077,62 60.5,62" id="Fill-3" fill="#E40B7B"></path>
                <path d="M42.6059303,11.8296675 C42.6059303,11.3557069 42.9611274,11 43.3163245,11 C43.7896058,11 44.1448029,11.3557069 44.1448029,11.7109408 C44.1448029,12.1849014 43.7896058,12.5406083 43.4344087,12.5406083 C42.9611274,12.5406083 42.6059303,12.1849014 42.6059303,11.8296675 L42.6059303,11.8296675 Z M48.9980613,12.8963153 C48.52478,12.8963153 48.2876671,12.4223547 48.2876671,12.0666478 C48.2876671,11.5926872 48.7614207,11.3552339 49.1166178,11.3552339 C49.589899,11.3552339 49.827012,11.8296675 49.827012,12.1849014 C49.827012,12.5406083 49.4718149,12.8963153 48.9980613,12.8963153 L48.9980613,12.8963153 Z M36.9241935,12.659335 C36.805637,12.1849014 37.0422776,11.8296675 37.5160312,11.7109408 C37.9893125,11.5926872 38.3445096,11.8296675 38.4630661,12.303628 C38.5811502,12.7780616 38.3445096,13.1332955 37.8712284,13.2520222 L37.7526719,13.2520222 C37.3974748,13.2520222 37.0422776,13.0150419 36.9241935,12.659335 L36.9241935,12.659335 Z M54.4436298,14.0816897 C54.0884327,13.963436 53.8517921,13.4890025 53.9698762,13.1332955 C54.0884327,12.7780616 54.5617139,12.5406083 54.9169111,12.659335 C55.2721082,12.7780616 55.5087488,13.2520222 55.3901923,13.6077291 C55.2721082,13.963436 55.0349952,14.2004163 54.6797981,14.2004163 C54.5617139,14.2004163 54.4436298,14.0816897 54.4436298,14.0816897 L54.4436298,14.0816897 Z M31.478625,14.4373966 C31.3605409,14.0816897 31.478625,13.6077291 31.9523786,13.3707488 C32.3075757,13.2520222 32.780857,13.3707488 33.0174976,13.8447094 C33.1360541,14.2004163 33.0174976,14.6748499 32.5442163,14.9118302 L32.3075757,14.9118302 C31.9523786,14.9118302 31.5971815,14.6748499 31.478625,14.4373966 L31.478625,14.4373966 Z M59.5335288,16.3341849 C59.1783317,16.0972046 59.0597753,15.623244 59.1783317,15.2675371 C59.4149724,14.9118302 59.888726,14.7931035 60.2434507,14.9118302 C60.5986478,15.1488105 60.7172043,15.623244 60.5986478,15.9784779 C60.4805637,16.2154582 60.2434507,16.4529115 59.888726,16.3341849 L59.5335288,16.3341849 Z M26.5072824,17.1638524 C26.2706418,16.8081454 26.388726,16.3341849 26.7439231,16.0972046 C27.0986478,15.8602243 27.5724014,15.9784779 27.8090421,16.3341849 C28.046155,16.6898918 27.9275986,17.1638524 27.5724014,17.4013056 C27.453845,17.5195593 27.3357608,17.5195593 27.2172043,17.5195593 C26.8620072,17.5195593 26.6253666,17.4013056 26.5072824,17.1638524 L26.5072824,17.1638524 Z M64.1501466,19.2980939 C63.7949495,19.0606406 63.7949495,18.5866801 64.0315902,18.2309731 C64.2682308,17.8752662 64.7419844,17.8752662 65.0971815,18.1122465 C65.4523786,18.3496998 65.4523786,18.8236603 65.2152656,19.1793673 C65.0971815,19.4163476 64.8600685,19.5350742 64.6234279,19.5350742 C64.5053437,19.5350742 64.2682308,19.4163476 64.1501466,19.2980939 L64.1501466,19.2980939 Z M22.0087488,20.7204486 C21.7721082,20.3647417 21.7721082,19.8907811 22.0087488,19.6538008 C22.3639459,19.4163476 22.8372272,19.4163476 23.0743401,19.6538008 C23.3109808,20.0090348 23.3109808,20.4829953 23.0743401,20.7204486 C22.9557837,20.8387022 22.719143,20.9574289 22.6005865,20.9574289 C22.3639459,20.9574289 22.1273053,20.8387022 22.0087488,20.7204486 L22.0087488,20.7204486 Z M68.2930108,23.0911974 L68.2930108,23.0911974 C68.0563702,22.7354905 68.0563702,22.26153 68.2930108,22.0245497 C68.6482079,21.7870964 69.1219615,21.7870964 69.3586022,22.0245497 C69.5952428,22.3797836 69.5952428,22.8542172 69.3586022,23.0911974 C69.2400457,23.2099241 69.0034051,23.3281777 68.8848486,23.3281777 C68.6482079,23.4469044 68.4115673,23.3281777 68.2930108,23.0911974 L68.2930108,23.0911974 Z M18.2210817,24.9879857 C17.8658846,24.7510054 17.8658846,24.2765719 18.1025252,23.9208649 C18.3391659,23.565631 18.8124471,23.565631 19.1676442,23.8026113 C19.5228414,24.0395916 19.5228414,24.5135521 19.2862007,24.8692591 C19.1676442,25.1062393 18.9310036,25.224966 18.694363,25.224966 C18.5758065,25.1062393 18.3391659,25.1062393 18.2210817,24.9879857 L18.2210817,24.9879857 Z M71.6073966,27.5961878 L71.6073966,27.5961878 C71.370756,27.2404809 71.4893125,26.7660473 71.8445096,26.5290671 C72.1992344,26.2920868 72.672988,26.4103404 72.9096286,26.7660473 C73.1467416,27.1217543 73.0281851,27.5961878 72.672988,27.8331681 C72.5544315,27.9514217 72.4363474,27.9514217 72.3177909,27.9514217 C71.9625938,27.9514217 71.7259531,27.8331681 71.6073966,27.5961878 L71.6073966,27.5961878 Z M15.2614207,29.84821 C14.9062236,29.6112297 14.7881394,29.1367962 14.9062236,28.7810892 C15.1433365,28.4258553 15.6166178,28.3071287 15.9718149,28.4258553 C16.327012,28.6628356 16.4450962,29.1367962 16.327012,29.4925031 C16.2084555,29.7294834 15.9718149,29.9669367 15.6166178,29.9669367 C15.4980613,29.9669367 15.3799772,29.84821 15.2614207,29.84821 L15.2614207,29.84821 Z M74.0937764,32.5746658 C73.97522,32.2189588 74.0937764,31.7449983 74.5670577,31.508018 C74.9217825,31.3892914 75.3955361,31.508018 75.6321767,31.9819786 C75.7507332,32.3376855 75.6321767,32.8116461 75.1588954,33.0490994 L74.9217825,33.0490994 C74.5670577,33.0490994 74.2118606,32.9303727 74.0937764,32.5746658 L74.0937764,32.5746658 Z M13.1307103,35.0641413 C12.7755132,34.9458876 12.5388726,34.471454 12.6574291,34.1157471 C12.7755132,33.7600402 13.2492668,33.5230599 13.6044639,33.6417866 C13.959661,33.7600402 14.1963017,34.2344738 14.0777452,34.5901807 C13.959661,34.9458876 13.7225481,35.1828679 13.3678233,35.1828679 C13.2492668,35.1828679 13.2492668,35.1828679 13.1307103,35.0641413 L13.1307103,35.0641413 Z M75.7507332,37.9093237 L75.7507332,37.9093237 C75.6321767,37.4348901 75.8688173,37.0791832 76.3425709,36.9609295 C76.8158522,36.8422029 77.1710493,37.0791832 77.2896058,37.5536167 C77.4081623,38.0275773 77.1710493,38.3832842 76.697768,38.5020109 L76.5792116,38.5020109 C76.1059303,38.5020109 75.7507332,38.2650306 75.7507332,37.9093237 L75.7507332,37.9093237 Z M11.9470349,40.754033 C11.4737536,40.754033 11.2366406,40.2800725 11.2366406,39.9243656 C11.2366406,39.450405 11.7103942,39.2134247 12.0655913,39.2134247 C12.5388726,39.2134247 12.7755132,39.6873853 12.7755132,40.0430922 C12.7755132,40.3983261 12.4207884,40.754033 11.9470349,40.754033 C12.0655913,40.754033 11.9470349,40.754033 11.9470349,40.754033 L11.9470349,40.754033 Z M76.4611274,43.3622352 C76.4611274,42.8882746 76.8158522,42.5325677 77.1710493,42.5325677 C77.6448029,42.5325677 78,42.8882746 78,43.2439815 C78,43.7179421 77.6448029,44.073649 77.2896058,44.073649 C76.8158522,44.1919027 76.4611274,43.8366687 76.4611274,43.3622352 L76.4611274,43.3622352 Z M11,45.732984 L11,45.732984 C11,45.2590234 11.3551971,44.9033165 11.7103942,44.9033165 C12.1836755,44.9033165 12.5388726,45.2590234 12.5388726,45.6147304 C12.5388726,46.0886909 12.1836755,46.4443979 11.8284784,46.4443979 C11.3551971,46.4443979 11,46.0886909 11,45.732984 L11,45.732984 Z M76.8158522,49.8822675 C76.3425709,49.8822675 76.1059303,49.4078339 76.1059303,49.052127 C76.1059303,48.5781664 76.5792116,48.3411861 76.9344087,48.3411861 C77.4081623,48.3411861 77.6448029,48.8151467 77.6448029,49.1708536 C77.6448029,49.6452872 77.2896058,49.8822675 76.8158522,49.8822675 L76.8158522,49.8822675 Z M11.7103942,51.5420755 C11.5918377,51.0676419 11.8284784,50.711935 12.302232,50.5936813 C12.7755132,50.4749547 13.1307103,50.711935 13.2492668,51.1863685 C13.3678233,51.6603291 13.1307103,52.016036 12.6574291,52.1342896 L12.5388726,52.1342896 C12.0655913,52.1342896 11.8284784,51.8973094 11.7103942,51.5420755 L11.7103942,51.5420755 Z M75.3955361,55.4539056 C75.040339,55.335179 74.8036983,54.8612184 74.9217825,54.5055115 C75.040339,54.1498046 75.5140925,53.9128243 75.8688173,54.0310779 C76.2240144,54.1498046 76.4611274,54.6237651 76.3425709,54.9794721 C76.2240144,55.335179 75.9873738,55.5721593 75.6321767,55.5721593 C75.5140925,55.4539056 75.3955361,55.4539056 75.3955361,55.4539056 L75.3955361,55.4539056 Z M13.3678233,57.1132406 L13.3678233,57.1132406 C13.2492668,56.7575337 13.3678233,56.2835731 13.8411046,56.0465928 C14.1963017,55.9278662 14.6695829,56.0465928 14.9062236,56.5205534 C15.02478,56.8762603 14.9062236,57.3502209 14.4329423,57.5876742 L14.1963017,57.5876742 C13.8411046,57.5876742 13.4859075,57.3502209 13.3678233,57.1132406 L13.3678233,57.1132406 Z M73.0281851,60.6693638 C72.672988,60.4323836 72.5544315,59.958423 72.672988,59.6027161 C72.9096286,59.2470092 73.3833822,59.1287555 73.7385793,59.2470092 C74.0933041,59.4844624 74.2118606,59.958423 74.0933041,60.3141299 C73.97522,60.5511102 73.7385793,60.7880905 73.3833822,60.6693638 L73.0281851,60.6693638 Z M16.0903714,62.3291718 C15.8532584,61.9734649 15.9718149,61.4995043 16.327012,61.2625241 C16.6822091,61.0250708 17.1554904,61.1437974 17.392131,61.4995043 C17.629244,61.8552113 17.5106875,62.3291718 17.1554904,62.5666251 C17.0374062,62.6848788 16.9188498,62.6848788 16.8002933,62.6848788 C16.4450962,62.6848788 16.2084555,62.5666251 16.0903714,62.3291718 L16.0903714,62.3291718 Z M69.8318834,65.2926079 C69.4771586,65.0556276 69.4771586,64.581667 69.7137993,64.2259601 C69.9504399,63.8702532 70.4241935,63.8702532 70.7789183,64.1077065 C71.1341154,64.3442137 71.1341154,64.8186473 70.8974748,65.1743542 C70.7789183,65.4113345 70.5422776,65.5300612 70.305637,65.5300612 C70.0689964,65.5300612 69.9504399,65.4113345 69.8318834,65.2926079 L69.8318834,65.2926079 Z M19.5228414,66.9524159 L19.5228414,66.9524159 C19.2862007,66.5967089 19.2862007,66.1227484 19.5228414,65.8857681 C19.8780385,65.6483148 20.3517921,65.6483148 20.5884327,65.8857681 C20.8250733,66.241475 20.8250733,66.7154356 20.5884327,66.9524159 C20.4698762,67.0711425 20.2332356,67.1898692 20.1146791,67.1898692 C19.8780385,67.1898692 19.759482,67.1898692 19.5228414,66.9524159 L19.5228414,66.9524159 Z M65.8075757,69.4418913 C65.5704627,69.0861844 65.5704627,68.6122239 65.8075757,68.3747706 C66.1623005,68.1382633 66.6355817,68.1382633 66.8726947,68.3747706 C67.1093353,68.7304775 67.1093353,69.2049111 66.8726947,69.4418913 C66.7541382,69.560618 66.5174976,69.6788716 66.3994135,69.6788716 C66.1623005,69.6788716 65.9256599,69.560618 65.8075757,69.4418913 L65.8075757,69.4418913 Z M23.784262,70.9829727 L23.784262,70.9829727 C23.4295373,70.7459924 23.4295373,70.2715588 23.6661779,69.9163249 C23.9028185,69.560618 24.3765721,69.560618 24.7312969,69.7975983 C25.086494,70.0345785 25.086494,70.5090121 24.8498534,70.864719 C24.7312969,71.1016993 24.4946563,71.219953 24.2580156,71.219953 C24.1394591,71.1016993 24.021375,71.1016993 23.784262,70.9829727 L23.784262,70.9829727 Z M61.1904856,72.7610343 C60.953845,72.4053274 61.0724014,71.9313668 61.4275986,71.6943865 C61.7827957,71.4574063 62.2560769,71.5756599 62.4927176,71.9313668 C62.7293582,72.2870737 62.611274,72.7610343 62.2560769,72.9980146 C62.1375204,73.1167412 62.0194363,73.1167412 61.9008798,73.1167412 C61.5456827,73.1167412 61.3090421,72.9980146 61.1904856,72.7610343 L61.1904856,72.7610343 Z M28.7560769,74.183862 C28.4008798,73.9464087 28.2827957,73.4724482 28.4008798,73.1167412 C28.6379928,72.7610343 29.111274,72.6423077 29.4664712,72.7610343 C29.8216683,72.9980146 29.9402247,73.4724482 29.8216683,73.8281551 C29.7031118,74.0651354 29.4664712,74.3021156 29.111274,74.183862 C28.9931899,74.3021156 28.8746334,74.183862 28.7560769,74.183862 L28.7560769,74.183862 Z M55.9820301,75.2505098 C55.8639459,74.8948029 55.9820301,74.4208423 56.4557837,74.183862 C56.8109808,74.0651354 57.284262,74.183862 57.5209027,74.6578226 C57.6394591,75.0135295 57.5209027,75.4879631 57.0476214,75.7249434 L56.8109808,75.7249434 C56.4557837,75.7249434 56.1005865,75.4879631 55.9820301,75.2505098 L55.9820301,75.2505098 Z M34.0830889,76.4358842 C33.7278918,76.3171575 33.4912512,75.843197 33.6098077,75.4879631 C33.7278918,75.1322561 34.2016454,74.8948029 34.5563702,75.0135295 C34.9115673,75.1322561 35.1482079,75.6062167 35.0301238,75.9619236 C34.9115673,76.3171575 34.6749267,76.5546108 34.3197296,76.5546108 C34.3197296,76.4358842 34.2016454,76.4358842 34.0830889,76.4358842 L34.0830889,76.4358842 Z M50.5369339,76.7915911 C50.4188498,76.3171575 50.6554904,75.9619236 51.1287716,75.843197 C51.6025252,75.7249434 51.95725,75.9619236 52.0758065,76.4358842 C52.194363,76.9103178 51.95725,77.2655517 51.4839688,77.3842783 L51.3654123,77.3842783 C50.892131,77.3842783 50.5369339,77.1472981 50.5369339,76.7915911 L50.5369339,76.7915911 Z M39.7648257,77.7399853 L39.7648257,77.7399853 C39.2915445,77.7399853 39.0544315,77.2655517 39.0544315,76.9103178 C39.0544315,76.4358842 39.5281851,76.1989039 39.8833822,76.1989039 C40.3566635,76.1989039 40.5937764,76.6728645 40.5937764,77.0285714 C40.5937764,77.503005 40.3566635,77.7399853 39.7648257,77.7399853 C39.8833822,77.7399853 39.8833822,77.7399853 39.7648257,77.7399853 L39.7648257,77.7399853 Z M44.8551971,77.2655517 C44.8551971,76.7915911 45.2103942,76.4358842 45.5655913,76.4358842 C46.0388726,76.4358842 46.3940697,76.7915911 46.3940697,77.1472981 C46.3940697,77.6212586 46.0388726,77.9769655 45.6836755,77.9769655 C45.2103942,78.0956922 44.8551971,77.7399853 44.8551971,77.2655517 L44.8551971,77.2655517 Z" id="Fill-5" fill="#172026"></path>
                <path d="M45.6735672,9.64591472 C45.2043276,9.64591472 44.8521638,9.29318521 44.8521638,8.82319189 C44.8521638,8.35272952 45.2043276,8 45.7906429,8 C46.2603508,8 46.6125146,8.47046237 46.6125146,8.94045569 C46.6125146,9.1759214 46.2603508,9.64591472 45.6735672,9.64591472 L45.6735672,9.64591472 Z M38.7492398,9.1759214 C38.6316958,8.70545903 38.9838596,8.23546571 39.4530991,8.23546571 C39.922807,8.11773286 40.3920465,8.47046237 40.3920465,8.94045569 C40.5095906,9.41091806 40.1574268,9.88091138 39.6881872,9.88091138 L39.5706432,9.88091138 C39.1014036,9.88091138 38.7492398,9.64591472 38.7492398,9.1759214 L38.7492398,9.1759214 Z M51.7764912,10.3509047 L51.7764912,10.3509047 C51.3067833,10.2336409 51.0721636,9.76317852 51.0721636,9.29318521 C51.1897076,8.82319189 51.6589472,8.58819523 52.128655,8.58819523 C52.5978946,8.70545903 52.8329826,9.1759214 52.8329826,9.64591472 C52.7154386,9.99864424 52.3632748,10.3509047 52.011111,10.3509047 L51.7764912,10.3509047 Z M32.6463158,10.7036342 C32.5287718,10.2336409 32.7638598,9.76317852 33.2330994,9.64591472 C33.7028073,9.52865092 34.1720468,9.76317852 34.2891225,10.2336409 C34.4066666,10.7036342 34.1720468,11.1740966 33.7028073,11.2913604 L33.4677192,11.2913604 C33.1155554,11.2913604 32.7638598,11.0563637 32.6463158,10.7036342 L32.6463158,10.7036342 Z M57.5272514,12.1145523 L57.5272514,12.1145523 C57.0580118,11.8795556 56.8229238,11.4090932 57.0580118,11.0563637 C57.2926316,10.5863704 57.7618712,10.3509047 58.114035,10.5863704 C58.5832745,10.7036342 58.7008186,11.2918294 58.5832745,11.6440899 C58.4661988,11.9968194 58.114035,12.2322851 57.7618712,12.2322851 C57.7618712,12.1145523 57.6443271,12.1145523 57.5272514,12.1145523 L57.5272514,12.1145523 Z M27.0126313,13.2900046 C26.7780116,12.8200113 26.8955556,12.3495489 27.3647952,12.1145523 C27.834503,11.8795556 28.3037426,12.1145523 28.5383624,12.4672818 C28.7734504,12.9372751 28.6559064,13.4077375 28.1866668,13.6427341 C28.0691228,13.7599979 27.9515788,13.7599979 27.834503,13.7599979 C27.4823392,13.7599979 27.1301754,13.5250013 27.0126313,13.2900046 L27.0126313,13.2900046 Z M62.9258478,14.8181865 L62.9258478,14.8181865 C62.5736839,14.5831898 62.4566082,13.9949946 62.691228,13.6427341 C62.9258478,13.2900046 63.5126313,13.1727408 63.8647952,13.4077375 C64.216959,13.6427341 64.334503,14.2304603 64.0994149,14.5831898 C63.9823392,14.8181865 63.6301754,14.9354503 63.3955556,14.9354503 C63.2780116,15.0531831 63.0433918,14.9354503 62.9258478,14.8181865 L62.9258478,14.8181865 Z M21.8486548,16.8168307 C21.614035,16.4641012 21.614035,15.875906 21.9661988,15.6409093 C22.3183626,15.4059127 22.9051462,15.4059127 23.139766,15.7586422 C23.3743858,16.1113717 23.3743858,16.6990979 23.0222219,16.9340945 C22.9051462,17.0518274 22.6705264,17.1690912 22.5529824,17.1690912 C22.3183626,17.1690912 22.0832745,17.0518274 21.8486548,16.8168307 L21.8486548,16.8168307 Z M67.7376605,18.5795402 C67.385965,18.2272797 67.385965,17.7568174 67.6205848,17.4045569 C67.9727486,17.0518274 68.4419882,17.0518274 68.794152,17.286824 C69.1463158,17.6395536 69.1463158,18.1095469 68.911696,18.4622764 C68.794152,18.6972731 68.5595322,18.6972731 68.3249124,18.6972731 C68.2073684,18.6972731 67.9727486,18.6972731 67.7376605,18.5795402 L67.7376605,18.5795402 Z M17.3890058,21.1659106 C17.036842,20.8131811 17.036842,20.3431878 17.27193,19.9904583 C17.6236256,19.6377287 18.0933334,19.6377287 18.4450289,19.8727254 C18.7971927,20.2254549 18.7971927,20.6959173 18.562573,21.0486468 C18.4450289,21.2836435 18.2104092,21.2836435 17.9757894,21.2836435 C17.7411696,21.4013763 17.6236256,21.2836435 17.3890058,21.1659106 L17.3890058,21.1659106 Z M71.963158,22.9290891 C71.72807,22.5763596 71.72807,21.9886334 72.0802338,21.7536368 C72.4323976,21.5186401 73.0191812,21.5186401 73.253801,21.8713696 C73.4884207,22.2236301 73.4884207,22.8118253 73.1367252,23.046822 C73.0191812,23.1645548 72.7845614,23.2818186 72.6670174,23.2818186 C72.3148535,23.2818186 72.0802338,23.1640858 71.963158,22.9290891 L71.963158,22.9290891 Z M13.7507602,26.2204495 C13.3985964,25.9854529 13.2815206,25.3977267 13.5161404,25.0454662 C13.7507602,24.6927367 14.3375438,24.5750039 14.6897076,24.8100005 C15.0418714,25.0454662 15.1589472,25.6327233 14.9243274,25.9854529 C14.8067833,26.2204495 14.4550878,26.3381824 14.2199997,26.3381824 C14.102924,26.3381824 13.98538,26.3381824 13.7507602,26.2204495 L13.7507602,26.2204495 Z M75.2492398,28.1013609 L75.2492398,28.1013609 C75.0141517,27.6313676 75.1316958,27.1609052 75.6009353,26.9259086 C76.0706432,26.6909119 76.5398827,26.8081757 76.7749708,27.2786381 C77.0095906,27.7486314 76.8920465,28.2190938 76.422807,28.4540904 C76.305263,28.5718233 76.1881872,28.5718233 76.0706432,28.5718233 C75.7184794,28.5718233 75.3663155,28.3368266 75.2492398,28.1013609 L75.2492398,28.1013609 Z M11.051462,31.8631837 C10.5817541,31.628187 10.4646784,31.1577246 10.5817541,30.8049951 C10.6992982,30.3350018 11.2860818,30.1000051 11.6382456,30.3350018 C12.1074851,30.5699985 12.3425732,31.0404608 12.1074851,31.3927213 C11.9904094,31.7454508 11.6382456,31.9809165 11.2860818,31.9809165 C11.2860818,31.8631837 11.1685377,31.8631837 11.051462,31.8631837 L11.051462,31.8631837 Z M77.5963742,33.6263622 C77.4788301,33.1563689 77.7134499,32.6859065 78.1831578,32.5686427 C78.6523973,32.4509098 79.1221052,32.6859065 79.2391809,33.1563689 C79.356725,33.6263622 79.1221052,34.0963555 78.6523973,34.2140884 L78.4177775,34.2140884 C78.0656137,34.3318212 77.7134499,33.9790917 77.5963742,33.6263622 L77.5963742,33.6263622 Z M9.40818696,37.8581783 C8.93894741,37.7404454 8.70432763,37.2704521 8.70432763,36.8004588 C8.82140337,36.3299964 9.29111123,36.0949997 9.76035078,36.0949997 C10.2295903,36.2127326 10.4646784,36.6827259 10.4646784,37.1531883 C10.3471344,37.5059178 9.99497055,37.8581783 9.64327504,37.8581783 L9.40818696,37.8581783 Z M79.0045611,39.6213568 L79.0045611,39.6213568 C78.8874854,39.1513635 79.2396492,38.6809011 79.7088888,38.6809011 C80.1785966,38.5636373 80.6478362,38.9163668 80.6478362,39.3863601 C80.7653802,39.8568225 80.4132164,40.3268158 79.9435086,40.3268158 L79.8264328,40.3268158 C79.356725,40.3268158 79.0045611,39.9740863 79.0045611,39.6213568 L79.0045611,39.6213568 Z M8.82140337,43.9709057 C8.35216382,43.9709057 8,43.5009124 8,43.03045 C8,42.5604567 8.46923955,42.2077272 8.93894741,42.2077272 C9.40818696,42.2077272 9.76035078,42.5604567 9.76035078,43.03045 C9.64327504,43.6181762 9.29111123,43.9709057 8.82140337,43.9709057 L8.82140337,43.9709057 Z M80.0610526,46.5572761 C79.5913447,46.5572761 79.2391809,46.0868138 79.2391809,45.6168204 C79.2391809,45.1468271 79.5913447,44.7940976 80.1781283,44.7940976 C80.6478362,44.7940976 81,45.2640909 81,45.7340843 C81,46.2045466 80.5302921,46.5572761 80.0610526,46.5572761 L80.0610526,46.5572761 Z M8.35216382,49.495907 C8.23461978,49.0259137 8.58678359,48.5554513 9.05649145,48.5554513 C9.525731,48.4381875 9.99497055,48.790448 9.99497055,49.2609104 C10.1125146,49.7309037 9.76035078,50.201366 9.29111123,50.201366 L9.17356719,50.201366 C8.70432763,50.201366 8.35216382,49.9659003 8.35216382,49.495907 L8.35216382,49.495907 Z M79.2391809,52.6700036 C78.7699414,52.5522707 78.5353216,52.0822774 78.5353216,51.6118151 C78.6523973,51.1418217 79.1221052,50.906356 79.5913447,50.906356 C80.0610526,51.0240889 80.2956724,51.4940822 80.2956724,51.9645446 C80.1781283,52.3172741 79.8264328,52.6700036 79.474269,52.6700036 L79.2391809,52.6700036 Z M9.76035078,55.7263673 C9.64327504,55.255905 9.87789482,54.7859116 10.3471344,54.6681788 C10.8168422,54.5504459 11.2860818,54.7859116 11.4036258,55.255905 C11.5207016,55.7263673 11.2860818,56.1963606 10.8168422,56.3140935 L10.5817541,56.3140935 C10.2295903,56.3140935 9.87789482,56.0786278 9.76035078,55.7263673 L9.76035078,55.7263673 Z M77.2442104,58.5472653 C76.7749708,58.3122687 76.540351,57.8418063 76.7749708,57.4895459 C76.8920465,57.0195525 77.4788301,56.7840868 77.830994,57.0195525 C78.3002335,57.2545492 78.5353216,57.7245425 78.3002335,58.077272 C78.1831578,58.4300015 77.830994,58.6649982 77.4788301,58.6649982 C77.4788301,58.6649982 77.3617544,58.6649982 77.2442104,58.5472653 L77.2442104,58.5472653 Z M12.2250292,61.6036291 L12.2250292,61.6036291 C11.9904094,61.1336358 12.1074851,60.6631734 12.577193,60.4281767 C13.0464326,60.1931801 13.5161404,60.3109129 13.7507602,60.7809062 C13.98538,61.2513686 13.8678359,61.7213619 13.3985964,61.9563586 C13.2815206,62.0740914 13.1639766,62.0740914 13.0469009,62.0740914 C12.694737,62.0736224 12.3425732,61.8386257 12.2250292,61.6036291 L12.2250292,61.6036291 Z M74.3102924,64.0722666 C73.9581286,63.83727 73.8405845,63.2495438 74.0752043,62.8968143 C74.3102924,62.5440848 74.897076,62.4263519 75.2492398,62.6618176 C75.6009353,62.8968143 75.7184794,63.4845405 75.4838596,63.83727 C75.3663155,64.0722666 75.0141517,64.1899995 74.779532,64.1899995 C74.5449122,64.1899995 74.4273681,64.1899995 74.3102924,64.0722666 L74.3102924,64.0722666 Z M15.7457307,66.8936337 C15.511111,66.5409042 15.511111,65.953178 15.8632748,65.7177123 C16.2154386,65.4831847 16.8022222,65.4831847 17.036842,65.8354452 C17.27193,66.1881747 17.27193,66.7759008 16.9197662,67.0108975 C16.8022222,67.1286304 16.5676024,67.2463632 16.4500584,67.2463632 C16.0978946,67.2463632 15.8632748,67.1286304 15.7457307,66.8936337 L15.7457307,66.8936337 Z M70.4369587,69.0095417 C70.0847949,68.6568122 70.0847949,68.1868189 70.319883,67.8340894 C70.6720468,67.4813599 71.1412864,67.4813599 71.4934502,67.7163565 C71.845614,68.069086 71.845614,68.5395484 71.6109942,68.8918089 C71.4934502,69.1272746 71.2588304,69.1272746 71.0237423,69.1272746 C70.7891225,69.1272746 70.5545028,69.1272746 70.4369587,69.0095417 L70.4369587,69.0095417 Z M20.088304,71.5954431 C19.7361402,71.2431826 19.7361402,70.7727203 19.9712282,70.4199907 C20.3229238,70.0672612 20.7926316,70.0672612 21.1447954,70.3022579 C21.4969592,70.6549874 21.4969592,71.1254498 21.2618712,71.4781793 C21.1447954,71.713176 20.9101756,71.713176 20.6750876,71.713176 C20.4404678,71.8309088 20.205848,71.713176 20.088304,71.5954431 L20.088304,71.5954431 Z M65.74269,73.124094 C65.5080702,72.7713645 65.5080702,72.1836383 65.8597657,71.9481726 C66.2119295,71.713176 66.7987131,71.713176 67.0338012,72.0659055 C67.268421,72.418635 67.268421,73.0063612 66.9162572,73.2413578 C66.7987131,73.3590907 66.5640934,73.4763545 66.4465493,73.4763545 C66.2119295,73.4763545 65.9773098,73.3590907 65.74269,73.124094 L65.74269,73.124094 Z M25.1352048,75.4749987 C24.783041,75.239533 24.665497,74.6518068 24.9001168,74.2990773 C25.1352048,73.9463478 25.7219884,73.829084 26.0736839,74.0640807 C26.4258478,74.2990773 26.5433918,74.8872725 26.308772,75.239533 C26.191228,75.4749987 25.8390642,75.5922625 25.6044444,75.5922625 C25.3698246,75.5922625 25.2522806,75.4749987 25.1352048,75.4749987 L25.1352048,75.4749987 Z M60.4611693,76.4154544 C60.2265496,75.944992 60.3440936,75.4749987 60.8133332,75.239533 C61.283041,75.0045363 61.7522806,75.1222692 61.9869003,75.5922625 C62.2215201,76.0627249 62.1044444,76.5327182 61.6347365,76.7681839 C61.5176608,76.8854477 61.4001168,76.8854477 61.283041,76.8854477 C60.9308772,76.7681839 60.5787134,76.6504511 60.4611693,76.4154544 L60.4611693,76.4154544 Z M30.768421,78.2958967 C30.2987131,78.1786329 30.0640934,77.5904377 30.2987131,77.2381772 C30.5338012,76.7681839 31.0030408,76.5327182 31.3552046,76.7681839 C31.8249124,76.8854477 32.0595322,77.4731739 31.8249124,77.8259034 C31.7073684,78.1786329 31.3552046,78.4136296 31.0030408,78.4136296 C31.0030408,78.4136296 30.885965,78.4136296 30.768421,78.2958967 L30.768421,78.2958967 Z M54.7104092,78.6486262 C54.5928651,78.1786329 54.8279532,77.7081706 55.2971927,77.5904377 C55.7669006,77.4731739 56.2361402,77.7081706 56.3536842,78.1786329 C56.4712282,78.6486262 56.2361402,79.1190886 55.7669006,79.2363524 L55.5318125,79.2363524 C55.180117,79.2363524 54.8279532,79.0013558 54.7104092,78.6486262 L54.7104092,78.6486262 Z M36.871345,80.1768081 L36.871345,80.1768081 C36.4021054,80.0595443 36.1670174,79.5890819 36.1670174,79.1190886 C36.2845614,78.6486262 36.753801,78.4136296 37.2235088,78.4136296 C37.6927484,78.5313624 37.9273681,79.0013558 37.9273681,79.4718181 C37.8102924,79.8240786 37.4581286,80.1768081 37.1059648,80.1768081 L36.871345,80.1768081 Z M48.6074851,79.9418115 C48.4904094,79.4718181 48.8425732,79.0013558 49.3118128,79.0013558 C49.7810523,78.8836229 50.2507602,79.2363524 50.2507602,79.7068148 C50.3678359,80.1768081 50.0156721,80.6472705 49.5464326,80.6472705 L49.4293568,80.6472705 C48.959649,80.6472705 48.6074851,80.294541 48.6074851,79.9418115 L48.6074851,79.9418115 Z M43.2088888,81 L43.2088888,81 C42.7396492,81 42.3874854,80.5295376 42.3874854,80.0595443 C42.3874854,79.5890819 42.856725,79.2363524 43.3264328,79.2363524 C43.7956724,79.2363524 44.1478362,79.5890819 44.1478362,80.0595443 C44.0302921,80.6472705 43.6785966,81 43.2088888,81 L43.2088888,81 Z" id="Fill-7" fill="#172026"></path>
                <path d="M40.3634236,5.06836943 C40.3634236,4.59364386 40.7154032,4.1184445 41.1843973,4 C41.6538594,4 42.1228535,4.35628107 42.2403361,4.83100664 C42.2403361,5.30573222 41.8883565,5.78093157 41.4193624,5.89937607 L41.3018798,5.89937607 C40.8324177,6.01829436 40.3634236,5.66201329 40.3634236,5.06836943 M47.9880879,6.13673886 C47.5190938,6.13673886 47.0496317,5.66201329 47.1671142,5.06836943 C47.1671142,4.59364386 47.6361083,4.1184445 48.222585,4.23736279 C48.6915791,4.23736279 49.1610412,4.71208836 49.0435586,5.30573222 C49.0435586,5.78093157 48.5745646,6.13673886 47.9880879,6.13673886 C48.1055705,6.13673886 47.9880879,6.13673886 47.9880879,6.13673886 M33.6772155,6.37457543 C33.559733,5.89937607 33.9117126,5.30573222 34.3811747,5.18681394 C34.8501688,5.06836943 35.4366454,5.4246505 35.554128,5.89937607 C35.6716105,6.37457543 35.3196309,6.96821928 34.8501688,7.08666379 L34.6156718,7.08666379 C34.1466777,7.08666379 33.6772155,6.7308565 33.6772155,6.37457543 M54.5568135,7.44294486 C54.0878194,7.32450035 53.7358398,6.7308565 53.9703368,6.25565714 C54.0878194,5.78093157 54.674296,5.4246505 55.1437582,5.66201329 C55.6127522,5.78093157 55.9647318,6.37457543 55.7302348,6.849301 C55.6127522,7.20558207 55.2607726,7.56186314 54.7917786,7.56186314 C54.674296,7.44294486 54.674296,7.44294486 54.5568135,7.44294486 M27.2255045,8.74915085 C26.9910074,8.27442528 27.2255045,7.68078142 27.6949666,7.44294486 C28.1639607,7.20558207 28.7504373,7.44294486 28.9849344,7.91814421 C29.2198995,8.39286978 28.9849344,8.98651364 28.5159403,9.22387643 C28.3989258,9.22387643 28.2814433,9.34279471 28.1644288,9.34279471 C27.6949666,9.34279471 27.342987,9.10543192 27.2255045,8.74915085 M60.7740275,9.81752029 L60.7740275,9.81752029 C60.3045653,9.5801575 60.0700683,8.98698742 60.3045653,8.51178807 C60.5395304,8.03706249 61.1260071,7.79922593 61.5950011,8.03706249 C62.0644633,8.27442528 62.2989603,8.86806914 62.0644633,9.34279471 C61.9469807,9.69907578 61.5950011,9.81752029 61.2430215,9.81752029 C61.0085245,9.93643857 60.891042,9.81752029 60.7740275,9.81752029 M21.3607381,12.1925695 C21.125773,11.7178439 21.125773,11.1237263 21.5952352,10.8863635 C22.0642293,10.6490007 22.6507059,10.7674452 22.885671,11.1237263 C23.120168,11.5989256 23.0026855,12.1925695 22.6507059,12.4299323 C22.5336914,12.5488506 22.2991944,12.5488506 22.1817118,12.5488506 C21.8297322,12.6677688 21.4777526,12.5488506 21.3607381,12.1925695 M66.5217793,13.2609389 L66.5217793,13.2609389 C66.0527852,12.9051316 66.0527852,12.3114878 66.2872823,11.9552067 C66.6392619,11.4800074 67.2257385,11.4800074 67.5777181,11.7173701 C68.0467122,12.0736512 68.0467122,12.6677688 67.8122151,13.0235761 C67.5777181,13.2609389 67.342753,13.3798572 67.108256,13.3798572 C66.8737589,13.4983017 66.6392619,13.3798572 66.5217793,13.2609389 M16.0819804,16.7043576 C15.7300008,16.3480765 15.7300008,15.7544326 16.0819804,15.3981516 C16.4339599,15.0423443 17.0204366,15.0423443 17.3724162,15.3981516 C17.7243958,15.7544326 17.7243958,16.3480765 17.3724162,16.7043576 C17.2549336,16.8232758 17.0204366,16.9421941 16.668457,16.9421941 C16.5509744,17.0606386 16.3169455,16.9421941 16.0819804,16.7043576 M71.4485575,17.7732008 C71.0965779,17.4169197 71.0965779,16.8232758 71.4485575,16.4669948 C71.8005371,16.1107137 72.3865457,16.1107137 72.7385253,16.4669948 C73.0905049,16.8232758 73.0905049,17.4169197 72.7385253,17.7732008 C72.6215108,17.8916453 72.3870137,18.0105636 72.0350341,18.0105636 C71.9175516,18.0105636 71.6830545,17.8916453 71.4485575,17.7732008 M11.7421469,22.047626 C11.2726847,21.691345 11.2726847,21.0977011 11.5071818,20.7414201 C11.8591614,20.2666945 12.445638,20.2666945 12.7976176,20.5040573 C13.2666117,20.8603383 13.2666117,21.4539822 13.0321146,21.8097895 C12.7976176,22.047626 12.5626525,22.1660706 12.2111409,22.1660706 C12.0936584,22.1660706 11.8591614,22.1660706 11.7421469,22.047626 M75.6713765,22.997551 C75.4368795,22.5223516 75.5538939,21.9287078 75.9058735,21.691345 C76.3748676,21.4539822 76.9618123,21.5724267 77.1963094,21.9287078 C77.4308064,22.4039071 77.3133239,22.997551 76.9618123,23.2349138 C76.8443298,23.353832 76.6098327,23.353832 76.4923502,23.353832 C76.1403706,23.353832 75.9058735,23.2349138 75.6713765,22.997551 M8.34030155,28.1029829 C7.8708394,27.8656201 7.63634236,27.2719763 7.8708394,26.7967769 C8.1058045,26.3220513 8.69181308,26.0846885 9.16127522,26.3220513 C9.63026931,26.5594141 9.86476635,27.153058 9.63026931,27.6282573 C9.51325482,27.9845384 9.16127522,28.2219012 8.80929563,28.2219012 C8.69181308,28.1029829 8.45731604,28.1029829 8.34030155,28.1029829 M78.9557393,28.815545 L78.9557393,28.815545 C78.7212422,28.3408195 78.9557393,27.7467018 79.4252014,27.509339 C79.8941955,27.2719763 80.4806721,27.509339 80.7151692,27.9845384 C80.9496662,28.459264 80.7151692,29.0529078 80.2461751,29.2902706 C80.1286925,29.2902706 80.011678,29.4091889 79.8941955,29.4091889 C79.4252014,29.4091889 79.0732218,29.1718261 78.9557393,28.815545 M6.1114095,34.5146208 C5.64194736,34.3961763 5.28996776,33.8020587 5.52493286,33.3273331 C5.64194736,32.8526075 6.22842399,32.4963265 6.69788613,32.7336892 C7.16688022,32.8526075 7.51885981,33.4462514 7.28436277,33.920977 C7.16688022,34.277258 6.81536868,34.6335391 6.34590654,34.6335391 C6.22842399,34.6335391 6.1114095,34.6335391 6.1114095,34.5146208 M81.0671488,35.227183 L81.0671488,35.227183 C80.9496662,34.7519836 81.3016458,34.1583397 81.771108,34.0398952 C82.240102,33.920977 82.8265787,34.277258 82.9440612,34.7519836 C83.0615438,35.227183 82.7095642,35.8208268 82.240102,35.9397451 L82.005605,35.9397451 C81.5366109,35.9397451 81.1846313,35.7019085 81.0671488,35.227183 M4.93845623,41.4014581 C4.46899408,41.4014581 4,40.9267325 4.11748255,40.3326149 C4.11748255,39.8578893 4.58647664,39.38269 5.17295327,39.5016082 C5.64194736,39.5016082 6.1114095,39.9768076 5.99392695,40.5704514 C5.87691246,41.045177 5.52493286,41.4014581 4.93845623,41.4014581 M82.1230875,41.8761837 L82.1230875,41.8761837 C82.1230875,41.4014581 82.4750671,40.9267325 82.9440612,40.8078142 C83.4135234,40.8078142 83.8825174,41.1640953 84,41.6388209 C84,42.1135465 83.6480204,42.5887458 83.1785583,42.7076641 L83.0615438,42.7076641 C82.5920816,42.8261086 82.1230875,42.351383 82.1230875,41.8761837 M4,47.4568149 C4,46.9820894 4.35197959,46.50689 4.82097368,46.3884455 C5.28996776,46.3884455 5.75942991,46.7442528 5.75942991,47.2194522 C5.75942991,47.6941777 5.40745031,48.1693771 4.93845623,48.2882954 L4.82097368,48.2882954 C4.46899408,48.2882954 4,47.9320143 4,47.4568149 M82.8265787,49.7129459 C82.3575846,49.7129459 81.8881224,49.2382203 82.005605,48.6441027 C82.005605,48.1693771 82.4745991,47.6941777 83.0615438,47.813096 C83.5305379,47.813096 84,48.2882954 83.8825174,48.8819392 C83.8825174,49.3566648 83.4135234,49.7129459 82.8265787,49.7129459 M5.05547072,54.3436522 C4.93845623,53.8684529 5.28996776,53.2752828 5.75942991,53.1563645 C6.22842399,53.0374462 6.81536868,53.3937273 6.93238318,53.8684529 C7.04986573,54.3436522 6.69788613,54.9372961 6.22842399,55.0557406 L5.99392695,55.0557406 C5.52493286,55.0557406 5.17295327,54.8183778 5.05547072,54.3436522 M81.4191284,56.4808649 C80.9496662,56.3619466 80.5976866,55.7683027 80.8326517,55.2935771 C80.9496662,54.8183778 81.5366109,54.4620967 82.005605,54.6999333 C82.4750671,54.8183778 82.8265787,55.4120216 82.5920816,55.887221 C82.4750671,56.2435021 82.1230875,56.5997831 81.6536254,56.5997831 C81.5366109,56.4808649 81.4191284,56.4808649 81.4191284,56.4808649 M7.28436277,61.1115712 L7.28436277,61.1115712 C7.04986573,60.6363719 7.28436277,60.042728 7.75382491,59.8053652 C8.222819,59.5680024 8.80929563,59.8053652 9.04379267,60.2805646 C9.27828972,60.7552901 9.04379267,61.348934 8.57479859,61.5862968 C8.45731604,61.5862968 8.34030155,61.7052151 8.222819,61.7052151 C7.8708394,61.7052151 7.51885981,61.4678523 7.28436277,61.1115712 M78.7212422,62.7735845 C78.2517801,62.5362217 78.017283,61.9425778 78.2517801,61.4678523 C78.4867452,60.9926529 79.0732218,60.7552901 79.5422159,60.9926529 C80.011678,61.2304895 80.2461751,61.8236596 80.011678,62.2988589 C79.8941955,62.65514 79.5422159,62.7735845 79.1902363,62.7735845 C79.0732218,62.8925028 78.9557393,62.8925028 78.7212422,62.7735845 M10.6862081,67.2858463 L10.6862081,67.2858463 C10.451711,66.810647 10.5687255,66.2170031 10.9207051,65.9796403 C11.3901673,65.7418038 11.9766439,65.8607221 12.2111409,66.2170031 C12.445638,66.6917287 12.3286235,67.2858463 11.9766439,67.5232091 C11.8591614,67.6421274 11.6246643,67.6421274 11.5071818,67.6421274 C11.1552022,67.7605719 10.9207051,67.5232091 10.6862081,67.2858463 M75.0848999,68.7104968 C74.6154377,68.3542158 74.6154377,67.7605719 74.8504028,67.4042908 C75.2023824,66.9295653 75.7888591,66.9295653 76.1403706,67.1669281 C76.6098327,67.5232091 76.6098327,68.116853 76.3748676,68.473134 C76.1403706,68.7104968 75.9058735,68.8294151 75.5538939,68.8294151 C75.4368795,68.8294151 75.3193969,68.8294151 75.0848999,68.7104968 M15.1435241,72.7475593 C14.7915445,72.3912783 14.7915445,71.7976344 15.1435241,71.4413533 C15.4955037,71.0850723 16.0819804,71.0850723 16.4339599,71.4413533 C16.7859395,71.7976344 16.7859395,72.3912783 16.4339599,72.7475593 C16.1994629,72.8664776 16.0819804,72.9849221 15.7300008,72.9849221 C15.4955037,73.1038404 15.2610067,72.9849221 15.1435241,72.7475593 M70.5101013,73.8159288 C70.1581217,73.4601215 70.1581217,72.8664776 70.5101013,72.5101965 C70.8620809,72.1539155 71.4485575,72.1539155 71.8005371,72.5101965 C72.1520486,72.8664776 72.1520486,73.4601215 71.8005371,73.8159288 C71.6830545,73.934847 71.4485575,74.0532915 71.0965779,74.0532915 C70.9790954,74.0532915 70.7445983,73.934847 70.5101013,73.8159288 M20.4222819,77.3782657 C19.9532878,77.0219846 19.9532878,76.4283408 20.1877849,76.0720597 C20.5392964,75.5973341 21.125773,75.5973341 21.4777526,75.8346969 C21.9472148,76.190978 21.9472148,76.7846218 21.7122497,77.1409029 C21.4777526,77.3782657 21.2432556,77.497184 21.0087585,77.497184 C20.7737934,77.6156285 20.5392964,77.497184 20.4222819,77.3782657 M65.114329,77.9719095 C64.8793639,77.497184 64.9968465,76.9035401 65.3488261,76.6657035 C65.8178201,76.4283408 66.4042968,76.547259 66.6392619,76.9035401 C66.8737589,77.3782657 66.7562764,77.9719095 66.4042968,78.2092723 C66.2872823,78.3281906 66.0527852,78.3281906 65.9353027,78.3281906 C65.5833231,78.4466351 65.2313435,78.2092723 65.114329,77.9719095 M26.4045308,81.0590471 L26.4045308,81.0590471 C25.9355367,80.8216843 25.7005716,80.2280405 25.9355367,79.7528411 C26.1700338,79.2781155 26.7565104,79.040279 27.2259725,79.2781155 C27.6949666,79.5154783 27.9294637,80.1091222 27.6949666,80.5843215 C27.5774841,80.9401288 27.2259725,81.0590471 26.8739929,81.0590471 C26.6390278,81.1779654 26.5220134,81.1779654 26.4045308,81.0590471 M59.0145976,81.1779654 C58.7801005,80.702766 59.0145976,80.1091222 59.4835916,79.8717594 C59.9530538,79.6339228 60.5390624,79.8717594 60.7740275,80.346485 C61.0085245,80.8216843 60.7740275,81.4153282 60.3045653,81.652691 C60.1875508,81.652691 60.0700683,81.7711355 59.9530538,81.7711355 C59.6010742,81.7711355 59.2490946,81.5342465 59.0145976,81.1779654 M32.9732563,83.5525408 C32.5042623,83.4336225 32.1522827,82.8399787 32.3867797,82.3647793 C32.5042623,81.8900537 33.0907389,81.5342465 33.559733,81.7711355 C34.0291951,81.8900537 34.3811747,82.4836976 34.1466777,82.958897 C34.0291951,83.3147042 33.6772155,83.6709853 33.2082214,83.6709853 C33.0907389,83.6709853 32.9732563,83.6709853 32.9732563,83.5525408 M52.5628865,83.3147042 C52.445404,82.8399787 52.7973836,82.2463348 53.2668457,82.1274165 C53.7358398,82.008972 54.3223164,82.3647793 54.439799,82.8399787 C54.5568135,83.3147042 54.2053019,83.9088219 53.7358398,84.0272664 L53.5013427,84.0272664 C53.0318806,84.0272664 52.679901,83.6709853 52.5628865,83.3147042 M39.776947,84.9771913 C39.3079529,84.9771913 38.8384907,84.5024657 38.9559733,83.9088219 C38.9559733,83.4336225 39.4249674,82.958897 40.011444,83.0773415 C40.4804381,83.0773415 40.9499002,83.5525408 40.8324177,84.1461847 C40.8324177,84.6209102 40.3634236,84.9771913 39.776947,84.9771913 M45.7591959,84.1461847 C45.7591959,83.6709853 46.1111755,83.1962597 46.5806376,83.0773415 C47.0496317,83.0773415 47.5190938,83.4336225 47.6361083,83.9088219 C47.6361083,84.3835475 47.2845968,84.8587468 46.8151347,84.9771913 L46.6976521,84.9771913 C46.228658,85.0961096 45.8766784,84.7398285 45.7591959,84.1461847" id="Fill-9" fill="#172026"></path>
                <path d="M43.4348486,1.06491529 C43.4348486,0.47319074 43.9080393,0 44.4997639,0 C45.0914884,0 45.5651514,0.47319074 45.5651514,1.06491529 C45.5651514,1.65663984 45.0914884,2.13030282 44.4997639,2.13030282 C43.9080393,2.13030282 43.4348486,1.65663984 43.4348486,1.06491529 L43.4348486,1.06491529 Z M35.9785526,1.89323521 C35.860491,1.30151066 36.215148,0.828319918 36.8073448,0.70978611 C37.3990693,0.591724548 37.87226,0.946853726 37.9907939,1.53810603 C38.1093277,2.13030282 37.7541985,2.60349356 37.1620017,2.72202737 L36.9254063,2.72202737 C36.4522156,2.72202737 35.9785526,2.36689819 35.9785526,1.89323521 L35.9785526,1.89323521 Z M51.8375261,2.72202737 C51.2462738,2.60349356 50.8911446,2.13030282 51.0092061,1.53810603 C51.12774,0.946853726 51.6009307,0.591724548 52.1926552,0.710258356 C52.7843798,0.828319918 53.139509,1.30151066 53.0214474,1.89323521 C52.9029136,2.36689819 52.5477844,2.72202737 51.9560599,2.72202737 L51.8375261,2.72202737 Z M28.6407904,4.02401027 C28.404195,3.43181348 28.7593242,2.84008893 29.232515,2.72202737 C29.8242395,2.48495975 30.4164363,2.84008893 30.5344979,3.31375192 C30.7715655,3.90547646 30.4164363,4.49720101 29.9427733,4.61573482 C29.8242395,4.61573482 29.7061779,4.73379638 29.5876441,4.73379638 C29.232515,4.73379638 28.7593242,4.3786672 28.6407904,4.02401027 L28.6407904,4.02401027 Z M58.9391651,4.61573482 C58.3469683,4.3786672 58.110373,3.78694266 58.3469683,3.31375192 C58.584036,2.72202737 59.1757605,2.48495975 59.6489512,2.72202737 C60.2406758,2.95862274 60.4772712,3.55034729 60.2406758,4.02401027 C60.122142,4.3786672 59.6489512,4.73379638 59.2942943,4.73379638 C59.1757605,4.73379638 59.0572267,4.73379638 58.9391651,4.61573482 L58.9391651,4.61573482 Z M21.8947528,7.33776219 C21.6581574,6.8640992 21.7766912,6.15384085 22.2498819,5.91724548 C22.7235449,5.68065011 23.433331,5.79918392 23.6699264,6.27237466 C23.906994,6.74603764 23.7884602,7.45582375 23.3152695,7.69289137 C23.1967357,7.81095293 22.9601403,7.81095293 22.8416065,7.81095293 C22.3684157,7.92948674 22.0132866,7.69289137 21.8947528,7.33776219 L21.8947528,7.33776219 Z M65.6847305,7.81095293 C65.2115398,7.57435756 64.9749444,6.8640992 65.3300736,6.39090846 C65.566669,5.91724548 66.2769273,5.68065011 66.7501181,6.03577929 C67.223781,6.27237466 67.4599042,6.98263301 67.1052472,7.45582375 C66.8686519,7.81095293 66.6320565,7.92948674 66.1583935,7.92948674 C66.0398597,7.92948674 65.8032643,7.81095293 65.6847305,7.81095293 L65.6847305,7.81095293 Z M15.7404397,11.8349632 C15.3853105,11.3617725 15.3853105,10.7695757 15.8589735,10.4149187 C16.3321642,10.0597896 16.9238888,10.0597896 17.2790179,10.5329803 C17.6341471,11.0066433 17.6341471,11.5983678 17.1609564,11.953497 C16.9238888,12.0715586 16.6872934,12.1900924 16.450698,12.1900924 C16.2141027,12.1900924 15.977035,12.0715586 15.7404397,11.8349632 L15.7404397,11.8349632 Z M71.7205098,12.0715586 C71.2473191,11.7164294 71.2473191,11.0066433 71.6024483,10.6515141 C71.9575774,10.1778511 72.6673635,10.1778511 73.0224927,10.5329803 C73.4961557,10.8881095 73.4961557,11.5983678 73.1410265,11.953497 C72.9044312,12.1900924 72.6678358,12.3086262 72.3127066,12.3086262 C72.1941728,12.3086262 71.9575774,12.1900924 71.7205098,12.0715586 L71.7205098,12.0715586 Z M10.5334525,17.3975517 C10.0597896,17.0424226 10.0597896,16.3321642 10.4149187,15.9775073 C10.7700479,15.5038443 11.479834,15.5038443 11.8349632,15.8589735 C12.3081539,16.2141027 12.3081539,16.924361 11.953497,17.2790179 C11.7164294,17.5156133 11.479834,17.6341471 11.1251771,17.6341471 C11.0066433,17.6341471 10.7700479,17.5156133 10.5334525,17.3975517 L10.5334525,17.3975517 Z M76.9284414,17.2790179 C76.5733123,16.8058272 76.5733123,16.2141027 77.046503,15.8589735 C77.520166,15.5038443 78.1118905,15.5038443 78.4670197,15.9775073 C78.8221489,16.450698 78.8221489,17.0424226 78.3484859,17.3975517 C78.1118905,17.5156133 77.8752952,17.6341471 77.6382275,17.6341471 C77.4016322,17.6341471 77.1650368,17.5156133 76.9284414,17.2790179 L76.9284414,17.2790179 Z M6.39090846,23.6699264 C5.91771772,23.433331 5.68065011,22.7230727 6.03577929,22.2498819 C6.27237466,21.776219 6.98263301,21.5396236 7.45582375,21.8947528 C7.92948674,22.1313481 8.16608211,22.8416065 7.81095293,23.3152695 C7.57435756,23.6699264 7.33776219,23.7884602 6.86457145,23.7884602 C6.74603764,23.7884602 6.50944227,23.7884602 6.39090846,23.6699264 L6.39090846,23.6699264 Z M81.1890471,23.3152695 C80.9519795,22.8416065 81.0704958,22.1313481 81.5441762,21.8947528 C82.017367,21.6581574 82.7276253,21.776219 82.9642207,22.2498819 C83.2008161,22.7230727 83.0827545,23.433331 82.6090915,23.6699264 C82.49103,23.7884602 82.2544346,23.7884602 82.1359008,23.7884602 C81.7807716,23.7884602 81.4256424,23.6699264 81.1890471,23.3152695 L81.1890471,23.3152695 Z M3.31375192,30.6530317 C2.72202737,30.415964 2.485432,29.8242395 2.72202737,29.3510488 C2.95862274,28.7593242 3.55034729,28.5227288 4.02353803,28.7593242 C4.61573482,28.9959196 4.85233019,29.5876441 4.61573482,30.0608349 C4.49720101,30.415964 4.02353803,30.7710932 3.66888109,30.7710932 C3.55034729,30.6530317 3.43181348,30.6530317 3.31375192,30.6530317 L3.31375192,30.6530317 Z M84.2662036,29.9427733 C84.029136,29.3510488 84.3842652,28.7593242 84.8579282,28.6407904 C85.4496527,28.404195 86.0413773,28.7593242 86.1599111,29.232515 C86.3965064,29.8242395 86.0413773,30.415964 85.5677143,30.5344979 C85.4496527,30.5344979 85.3311189,30.6530317 85.2130573,30.6530317 C84.8579282,30.6530317 84.502799,30.415964 84.2662036,29.9427733 L84.2662036,29.9427733 Z M1.53857827,37.9903216 C0.946853726,37.87226 0.591724548,37.3985971 0.70978611,36.8073448 C0.828319918,36.2156202 1.30151066,35.860491 1.89370745,35.9785526 C2.485432,36.0970864 2.84056118,36.5702771 2.72202737,37.1624739 C2.60349356,37.6356647 2.24883663,37.9903216 1.65663984,37.9903216 L1.53857827,37.9903216 Z M86.2779726,37.1624739 L86.2779726,37.1624739 C86.1599111,36.5702771 86.5150402,36.0970864 87.1067648,35.9785526 C87.6980171,35.860491 88.1716801,36.2156202 88.2897416,36.8073448 C88.4082755,37.3985971 88.0531463,37.87226 87.461894,37.9903216 L87.2248264,37.9903216 C86.7516356,37.9903216 86.2779726,37.6356647 86.2779726,37.1624739 L86.2779726,37.1624739 Z M0,44.5002361 C0,43.9080393 0.47319074,43.4348486 1.06491529,43.4348486 C1.65663984,43.4348486 2.13030282,43.9080393 2.13030282,44.5002361 C2.13030282,45.0919607 1.65663984,45.5651514 1.06491529,45.5651514 C0.47319074,45.5651514 0,45.0919607 0,44.5002361 L0,44.5002361 Z M86.8696972,44.5002361 C86.8696972,43.9080393 87.3433602,43.4348486 87.9350847,43.4348486 C88.5268093,43.4348486 89,43.9080393 89,44.5002361 C89,45.0919607 88.5268093,45.5651514 87.9350847,45.5651514 C87.3433602,45.5651514 86.8696972,45.0919607 86.8696972,44.5002361 L86.8696972,44.5002361 Z M0.70978611,52.1926552 C0.591724548,51.6009307 0.946853726,51.12774 1.53857827,51.0092061 C2.13030282,50.8906723 2.60349356,51.2458015 2.72202737,51.8379983 C2.84056118,52.4297229 2.485432,52.9029136 1.89370745,53.0214474 L1.65663984,53.0214474 C1.1834491,53.0214474 0.828319918,52.6663182 0.70978611,52.1926552 L0.70978611,52.1926552 Z M87.1067648,53.0214474 C86.5150402,52.9029136 86.1599111,52.4297229 86.2779726,51.8379983 C86.3965064,51.2458015 86.8696972,50.8911446 87.461894,51.0092061 C88.0531463,51.12774 88.4082755,51.6009307 88.2897416,52.1926552 C88.1716801,52.6663182 87.8165509,53.0214474 87.2248264,53.0214474 L87.1067648,53.0214474 Z M2.72202737,59.6489512 C2.485432,59.0572267 2.84056118,58.4655021 3.31375192,58.3469683 C3.90547646,58.110373 4.49720101,58.4655021 4.61573482,58.9386929 C4.85233019,59.5304174 4.49720101,60.1226142 4.02353803,60.2406758 C3.90547646,60.2406758 3.78694266,60.3592096 3.66888109,60.3592096 C3.19521811,60.3592096 2.84056118,60.1226142 2.72202737,59.6489512 L2.72202737,59.6489512 Z M84.9759897,60.3592096 C84.3842652,60.1226142 84.1476698,59.5304174 84.3842652,59.0572267 C84.6208605,58.4655021 85.2130573,58.2284345 85.6862481,58.4655021 C86.2779726,58.7020975 86.5150402,59.2938221 86.2779726,59.767485 C86.1599111,60.1226142 85.6862481,60.4772712 85.3311189,60.4772712 C85.2130573,60.3592096 85.0945235,60.3592096 84.9759897,60.3592096 L84.9759897,60.3592096 Z M5.91771772,66.7501181 C5.68065011,66.2764551 5.79918392,65.5661967 6.27237466,65.3296013 C6.74603764,65.093006 7.45582375,65.2115398 7.69241912,65.6847305 C7.92948674,66.1583935 7.81095293,66.8681796 7.33776219,67.1052472 C7.21922838,67.2233088 6.98263301,67.2233088 6.86457145,67.2233088 C6.50944227,67.2233088 6.15431309,66.9867134 5.91771772,66.7501181 L5.91771772,66.7501181 Z M81.5441762,67.1052472 C81.0705133,66.8681796 80.8339179,66.1583935 81.1890471,65.6847305 C81.4256424,65.2115398 82.1359008,64.9749444 82.6090915,65.3296013 C83.0827545,65.5661967 83.3193499,66.2764551 82.9642207,66.7501181 C82.7276253,67.1052472 82.49103,67.2233088 82.017367,67.2233088 C81.8988332,67.2233088 81.7807716,67.2233088 81.5441762,67.1052472 L81.5441762,67.1052472 Z M10.4149187,73.022965 C10.0597896,72.549302 10.0597896,71.9575774 10.5334525,71.6024483 C11.0066433,71.2473191 11.5983678,71.2473191 11.953497,71.7209821 C12.3081539,72.1941728 12.3081539,72.7858973 11.8349632,73.1410265 C11.5983678,73.2595603 11.3613002,73.3776219 11.1251771,73.3776219 C10.8881095,73.3776219 10.6515141,73.2595603 10.4149187,73.022965 L10.4149187,73.022965 Z M77.046503,73.1410265 C76.5733123,72.7858973 76.5733123,72.0761112 76.9284414,71.7209821 C77.2830984,71.2473191 77.9933567,71.2473191 78.3484859,71.6024483 C78.8221489,71.9575774 78.8221489,72.6678358 78.4670197,73.022965 C78.2304243,73.2595603 77.9933567,73.3776219 77.6382275,73.3776219 C77.520166,73.3776219 77.2830984,73.3776219 77.046503,73.1410265 L77.046503,73.1410265 Z M15.8589735,78.5850813 C15.3853105,78.2299521 15.3853105,77.5196937 15.7404397,77.1650368 C16.0955688,76.6918461 16.8058272,76.6918461 17.1609564,77.046503 C17.6341471,77.4016322 17.6341471,78.1118905 17.2790179,78.4665475 C17.0424226,78.7036151 16.8058272,78.8216766 16.450698,78.8216766 C16.3321642,78.8216766 16.0955688,78.7036151 15.8589735,78.5850813 L15.8589735,78.5850813 Z M71.6024483,78.4665475 C71.2473191,77.9933567 71.2473191,77.4016322 71.7205098,77.046503 C72.1941728,76.6918461 72.7858973,76.6918461 73.1410265,77.1650368 C73.4961557,77.6382275 73.4961557,78.2299521 73.0224927,78.5850813 C72.7858973,78.7036151 72.549302,78.8216766 72.3127066,78.8216766 C72.075639,78.8216766 71.8390436,78.7036151 71.6024483,78.4665475 L71.6024483,78.4665475 Z M22.2498819,82.9642207 C21.7766912,82.7276253 21.5396236,82.017367 21.8947528,81.543704 C22.1318204,81.0705133 22.8416065,80.8339179 23.3152695,81.1890471 C23.7884602,81.4256424 24.0250556,82.1354286 23.6699264,82.6090915 C23.433331,82.9642207 23.1967357,83.0822823 22.7235449,83.0822823 C22.6050111,83.0822823 22.3684157,83.0822823 22.2498819,82.9642207 L22.2498819,82.9642207 Z M65.3296013,82.6090915 C65.093006,82.1354286 65.2115398,81.4256424 65.6847305,81.1890471 C66.1583935,80.9524517 66.8686519,81.0705133 67.1052472,81.543704 C67.3418426,82.017367 67.223781,82.7276253 66.7501181,82.9642207 C66.6315843,83.0822823 66.3949889,83.0822823 66.2769273,83.0822823 C65.8032643,83.0822823 65.4481352,82.9642207 65.3296013,82.6090915 L65.3296013,82.6090915 Z M29.232515,86.2779726 C28.6407904,86.0413773 28.404195,85.4496527 28.6407904,84.9759897 C28.8773858,84.3842652 29.4695826,84.1476698 29.9427733,84.3842652 C30.5344979,84.6213328 30.7715655,85.2130573 30.5344979,85.6862481 C30.4164363,86.0413773 29.9427733,86.3965064 29.5876441,86.3965064 C29.4695826,86.2779726 29.3510488,86.2779726 29.232515,86.2779726 L29.232515,86.2779726 Z M58.3469683,85.6862481 C58.110373,85.0945235 58.4655021,84.502799 58.9391651,84.3842652 C59.5304174,84.1476698 60.122142,84.502799 60.2406758,84.9759897 C60.4772712,85.5677143 60.122142,86.1594388 59.6489512,86.2779726 C59.5304174,86.2779726 59.4123559,86.3965064 59.2942943,86.3965064 C58.9391651,86.2779726 58.4655021,86.0413773 58.3469683,85.6862481 L58.3469683,85.6862481 Z M51.0096784,87.4614217 C50.8911446,86.8696972 51.2462738,86.3965064 51.8375261,86.2779726 C52.4297229,86.1594388 52.9029136,86.514568 53.0214474,87.1062925 C53.139509,87.6980171 52.7843798,88.1716801 52.1926552,88.2902139 L51.9560599,88.2902139 C51.4828691,88.2902139 51.12774,87.9350847 51.0096784,87.4614217 L51.0096784,87.4614217 Z M36.8073448,88.2902139 L36.8073448,88.2902139 C36.215148,88.1716801 35.860491,87.6980171 35.9785526,87.1062925 C36.0970864,86.514568 36.5702771,86.1594388 37.1620017,86.2779726 C37.7541985,86.3965064 38.1088554,86.8696972 37.9907939,87.4614217 C37.87226,87.9350847 37.5171309,88.2902139 36.9254063,88.2902139 L36.8073448,88.2902139 Z M43.4348486,87.9350847 C43.4348486,87.3433602 43.9080393,86.8696972 44.4997639,86.8696972 C45.0914884,86.8696972 45.5651514,87.3433602 45.5651514,87.9350847 C45.5651514,88.5268093 45.0914884,89 44.4997639,89 C43.9080393,88.8819384 43.4348486,88.5268093 43.4348486,87.9350847 L43.4348486,87.9350847 Z" id="Fill-11" fill="#172026"></path>
            </g>
            <g id="游戏" transform="translate(79.000000, 435.000000)" fill="#E6007A" fill-rule="nonzero">
                <path d="M29.6254851,0 L12.3745149,0 C5.55109961,0 0,5.60739115 0,12.5 C0,19.3926089 5.55109961,25 12.3745149,25 L29.6254851,25 C36.4489004,25 42,19.3926089 42,12.5 C42,5.60739115 36.4489004,0 29.6254851,0 Z M29.6254851,22.7268569 L12.3745149,22.7268569 C6.79172057,22.7268569 2.25032342,18.1394072 2.25032342,12.5 C2.25032342,6.86059276 6.79172057,2.27314307 12.3745149,2.27314307 L29.6254851,2.27314307 C35.2082794,2.27314307 39.7496766,6.86059276 39.7496766,12.5 C39.7496766,18.1394072 35.2082794,22.7268569 29.6254851,22.7268569 Z M16.8751617,11.3657153 L13.5019405,11.3657153 L13.5019405,7.9582876 C13.5019405,7.33168679 12.9993532,6.82400293 12.3790427,6.82400293 C11.7587322,6.82400293 11.2561449,7.33168679 11.2561449,7.9582876 L11.2561449,11.3657153 L7.88292367,11.3657153 C7.2626132,11.3657153 6.76002587,11.8733992 6.76002587,12.5 C6.76002587,13.1266008 7.2626132,13.6342847 7.88292367,13.6342847 L11.2561449,13.6342847 L11.2561449,17.0417124 C11.2561449,17.6683132 11.7587322,18.1759971 12.3790427,18.1759971 C12.9993532,18.1759971 13.5019405,17.6683132 13.5019405,17.0417124 L13.5019405,13.6342847 L16.8751617,13.6342847 C17.4954722,13.6342847 17.9980896,13.1266008 17.9980896,12.5 C18.0025873,11.8733992 17.4954722,11.3657153 16.8751617,11.3657153 Z M29.6254851,6.81485547 C28.7968952,6.81485547 28.1267788,7.49176729 28.1267788,8.3287596 C28.1267788,9.16575192 28.7968952,9.84266374 29.6254851,9.84266374 C30.454075,9.84266374 31.1241915,9.16575192 31.1241915,8.3287596 C31.1241915,7.49634102 30.454075,6.81485547 29.6254851,6.81485547 Z M29.6254851,15.1481888 C28.7968952,15.1481888 28.1267788,15.8251006 28.1267788,16.6620929 C28.1267788,17.4990853 28.7968952,18.1759971 29.6254851,18.1759971 C30.454075,18.1759971 31.1241915,17.4990853 31.1241915,16.6620929 C31.1241915,15.8296744 30.454075,15.1481888 29.6254851,15.1481888 Z M25.5006468,10.9815221 C24.6720569,10.9815221 24.0019405,11.658434 24.0019405,12.4954263 C24.0019405,13.3324186 24.6720569,14.0093304 25.5006468,14.0093304 C26.3292367,14.0093304 26.9993532,13.3324186 26.9993532,12.4954263 C26.9993532,11.6630077 26.3292367,10.9815221 25.5006468,10.9815221 Z M33.7503234,10.9815221 C32.9217335,10.9815221 32.2516171,11.658434 32.2516171,12.4954263 C32.2516171,13.3324186 32.9217335,14.0093304 33.7503234,14.0093304 C34.5789133,14.0093304 35.2490298,13.3324186 35.2490298,12.4954263 C35.2490298,11.6630077 34.5789133,10.9815221 33.7503234,10.9815221 Z" id="形状"></path>
            </g>
            <g id="ethereum" transform="translate(446.500000, 447.500000) scale(-1, 1) translate(-446.500000, -447.500000) translate(433.000000, 428.000000)" fill="#E6007A" fill-rule="nonzero">
                <path d="M4.9898639,18.799639 L13.5,22.8971119 L22.0101361,18.799639 L13.5,6.5072202 L4.9898639,18.799639 Z M13.5,26.933213 L7.72660373,24.1534296 L13.5,32.4927798 L19.2733963,24.1534296 L13.5,26.933213 Z M27,19.5 L13.5,39 L0,19.5 L13.5,0 L27,19.5 Z" id="形状"></path>
            </g>
            <g id="资产" transform="translate(481.000000, 185.000000)" fill-rule="nonzero">
                <path d="M15.9998955,15.4582182 C15.8390248,15.4582182 15.6801448,15.4235466 15.5346624,15.3566318 L0.624018841,8.4967504 C0.239237704,8.31987582 -0.00448801341,7.94068386 6.26393951e-05,7.52609062 C0.00474211147,7.11149738 0.256851457,6.73754773 0.645479346,6.56885014 L15.5561229,0.0919717688 C15.8386589,-0.0306572563 16.1613237,-0.0306572563 16.4438597,0.0919717688 L31.3543117,6.56885014 C31.743052,6.73750108 31.9952575,7.11150808 31.9999374,7.52618243 C32.0044885,7.94085678 31.7606671,8.3201076 31.3757722,8.49693714 L16.4653202,15.3564451 C16.3197863,15.4234277 16.1608426,15.4582182 15.9998955,15.4582182 L15.9998955,15.4582182 Z M3.69976901,7.56529297 L15.9998955,13.2235047 L28.300022,7.56529297 L15.9998955,2.22248455 L3.69976901,7.56529297 Z M16.3037916,31 C16.1428576,31 15.9839119,30.9653435 15.8383669,30.8984135 L0.927914915,24.0385321 L1.85895591,22.1203423 L16.3039832,28.7660333 L30.7492021,22.1203423 L31.6798599,24.0385321 L16.7694079,30.8984135 C16.6238065,30.9653763 16.4647909,31 16.3037916,31 L16.3037916,31 Z" id="形状" fill="#172026"></path>
                <polygon id="路径" fill="#E6007A" points="15.5 23 0 15.9201988 0.93811215 14.0007454 15.5 20.6515581 30.0618879 14 31 15.9194534"></polygon>
            </g>
            <g id="金融界" transform="translate(34.000000, 185.000000)" fill-rule="nonzero">
                <path d="M16,0 C7.163444,0 0,7.163444 0,16 C0,24.836556 7.163444,32 16,32 C24.836556,32 32,24.836556 32,16 C31.9900403,7.16757272 24.8324273,0.00995965894 16,0 Z M29.9639378,14.2647047 L23.8489534,14.2647047 C23.5597816,9.89898022 21.9441434,5.72570616 19.2182383,2.30333679 C24.9444256,3.65881617 29.2275799,8.42652669 29.9639378,14.2647047 Z M12.7817617,2.30333679 C10.0557639,5.72565295 8.44011406,9.89895712 8.15104663,14.2647047 L2.03606218,14.2647047 C2.77237435,8.42650579 7.05554873,3.65877294 12.7817617,2.30333679 Z M1.93210363,16.1923316 L8.10611399,16.1923316 C8.18671497,21.195978 10.0182542,26.0131625 13.2823212,29.8064249 C6.76156813,28.5132777 2.03113964,22.8393341 1.93210363,16.1923316 L1.93210363,16.1923316 Z M15.0361865,22.1678756 L15.0361865,28.8696373 C8.35369612,21.3968002 8.35369612,10.0958423 15.0361865,2.62300518 L15.0361865,9.83096373 L16.9638135,9.83096373 L16.9638135,2.62267358 C20.2000869,6.22824643 21.9857009,10.9050205 21.9759874,15.7499689 C21.9922613,20.5938368 20.2056524,25.2704979 16.9638135,28.8696373 L16.9638135,22.1678756 L15.0361865,22.1678756 Z M18.7170155,29.8060933 C21.9810704,26.0128236 23.8126078,21.1956437 23.8932228,16.192 L30.0672332,16.192 C29.9684175,22.8389238 25.2382888,28.5129776 18.7176788,29.8064249 L18.7170155,29.8060933 Z" id="形状" fill="#E6007A"></path>
                <path d="M18.9999855,17.355322 C19.0045848,18.5182423 17.916501,19.4838399 16.5148067,19.5607299 L16.5148067,20 L15.4991515,20 L15.4991515,19.5607299 C14.8081741,19.5667802 14.1496375,19.3184754 13.701606,18.8829556 C13.2299049,18.4266668 12.9802368,17.8413707 13.0012233,17.2410514 L13.0012233,17.088288 L14.6820688,17.088288 C14.6742452,17.1325233 14.6703448,17.1771735 14.6703988,17.2218805 C14.6703988,17.9730173 14.9466497,18.3898963 15.4991515,18.4725173 L15.4991515,16.6307527 C13.8883261,16.2553855 13.0829134,15.5521508 13.0829134,14.5210484 C13.0800511,13.9851716 13.3411277,13.4714739 13.8059067,13.0984773 C14.2373005,12.7017267 14.842629,12.4644873 15.4867522,12.439723 L15.4867522,12 L16.502225,12 L16.502225,12.4391192 C17.142219,12.471722 17.7395081,12.7159608 18.1597305,13.1168934 C18.6059583,13.5233436 18.8444613,14.0571807 18.8251031,14.6061853 L18.8251031,14.672906 L17.1325876,14.672906 L17.1325876,14.5672397 C17.1325876,13.9690674 16.9224667,13.6190099 16.502225,13.517067 L16.502225,15.3126403 C17.1682954,15.4434255 17.7830002,15.7128288 18.2881005,16.0953262 C18.7271675,16.4148219 18.9852036,16.8715405 18.9999855,17.355322 L18.9999855,17.355322 Z M15.4865698,15.1788969 L15.4865698,13.5274827 C15.0923376,13.6905111 14.8535757,14.0324913 14.8797295,14.396664 L14.8797295,14.4253448 C14.8878742,14.724129 15.0901543,14.9753131 15.4865698,15.1788969 L15.4865698,15.1788969 Z M17.1907553,17.575108 C17.1907553,17.2188614 16.9611844,16.9515759 16.5020426,16.7732513 L16.5020426,18.4820273 C16.9611844,18.3548251 17.1907553,18.0525187 17.1907553,17.575108 Z" id="形状" fill="#172026"></path>
            </g>
        </g>
    </g>
</svg>