<?xml version="1.0" encoding="UTF-8"?>
<svg width="136px" height="145px" viewBox="0 0 136 145" version="1.1" xmlns="http://www.w3.org/2000/svg" xmlns:xlink="http://www.w3.org/1999/xlink">
    <title>home-icon-token-2</title>
    <g id="页面-1" stroke="none" stroke-width="1" fill="none" fill-rule="evenodd">
        <g id="画板" transform="translate(-6.000000, -1.000000)" fill-rule="nonzero">
            <g id="home-icon-token-2" transform="translate(6.000000, 1.000000)">
                <circle id="椭圆形" fill="#E6007A" cx="49.5" cy="95.5" r="2.5"></circle>
                <circle id="椭圆形" fill="#E6007A" cx="49.5" cy="116.5" r="2.5"></circle>
                <circle id="椭圆形" fill="#E6007A" cx="49.5" cy="126.5" r="2.5"></circle>
                <circle id="椭圆形" fill="#E6007A" cx="49.5" cy="137.5" r="2.5"></circle>
                <circle id="椭圆形" fill="#E6007A" cx="49.5" cy="106.5" r="2.5"></circle>
                <circle id="椭圆形" fill="#E6007A" cx="39.5" cy="132.5" r="2.5"></circle>
                <circle id="椭圆形" fill="#E6007A" cx="21.5" cy="121.5" r="2.5"></circle>
                <circle id="椭圆形" fill="#E6007A" cx="30.5" cy="126.5" r="2.5"></circle>
                <circle id="椭圆形" fill="#000000" cx="86.5" cy="137.5" r="2.5"></circle>
                <circle id="椭圆形" fill="#000000" cx="77.5" cy="132.5" r="2.5"></circle>
                <circle id="椭圆形" fill="#000000" cx="58.5" cy="121.5" r="2.5"></circle>
                <circle id="椭圆形" fill="#000000" cx="68.5" cy="126.5" r="2.5"></circle>
                <circle id="椭圆形" fill="#E6007A" cx="49.5" cy="75.5" r="2.5"></circle>
                <circle id="椭圆形" fill="#E6007A" cx="49.5" cy="85.5" r="2.5"></circle>
                <circle id="椭圆形" fill="#E6007A" cx="39.5" cy="69.5" r="2.5"></circle>
                <circle id="椭圆形" fill="#E6007A" cx="30.5" cy="64.5" r="2.5"></circle>
                <circle id="椭圆形" fill="#E6007A" cx="21.5" cy="59.5" r="2.5"></circle>
                <circle id="椭圆形" fill="#000000" cx="49.5" cy="43.5" r="2.5"></circle>
                <circle id="椭圆形" fill="#000000" cx="49.5" cy="54.5" r="2.5"></circle>
                <circle id="椭圆形" fill="#000000" cx="49.5" cy="64.5" r="2.5"></circle>
                <circle id="椭圆形" fill="#E6007A" cx="114.5" cy="132.5" r="2.5"></circle>
                <circle id="椭圆形" fill="#000000" cx="96.5" cy="101.5" r="2.5"></circle>
                <circle id="椭圆形" fill="#000000" cx="96.5" cy="111.5" r="2.5"></circle>
                <circle id="椭圆形" fill="#000000" cx="96.5" cy="121.5" r="2.5"></circle>
                <circle id="椭圆形" fill="#E6007A" cx="105.5" cy="126.5" r="2.5"></circle>
                <circle id="椭圆形" fill="#E6007A" cx="114.5" cy="101.5" r="2.5"></circle>
                <circle id="椭圆形" fill="#000000" cx="96.5" cy="90.5" r="2.5"></circle>
                <circle id="椭圆形" fill="#E6007A" cx="105.5" cy="95.5" r="2.5"></circle>
                <circle id="椭圆形" fill="#E6007A" cx="11.5" cy="116.5" r="2.5"></circle>
                <circle id="椭圆形" fill="#E6007A" cx="2.5" cy="69.5" r="2.5"></circle>
                <circle id="椭圆形" fill="#E6007A" cx="2.5" cy="80.5" r="2.5"></circle>
                <circle id="椭圆形" fill="#E6007A" cx="2.5" cy="90.5" r="2.5"></circle>
                <circle id="椭圆形" fill="#E6007A" cx="2.5" cy="101.5" r="2.5"></circle>
                <circle id="椭圆形" fill="#E6007A" cx="2.5" cy="111.5" r="2.5"></circle>
                <circle id="椭圆形" fill="#E6007A" cx="11.5" cy="54.5" r="2.5"></circle>
                <circle id="椭圆形" fill="#E6007A" cx="2.5" cy="49.5" r="2.5"></circle>
                <circle id="椭圆形" fill="#E6007A" cx="2.5" cy="59.5" r="2.5"></circle>
                <circle id="椭圆形" fill="#000000" cx="96.5" cy="132.5" r="2.5"></circle>
                <circle id="椭圆形" fill="#000000" cx="96.5" cy="142.5" r="2.5"></circle>
                <circle id="椭圆形" fill="#000000" cx="96.5" cy="80.5" r="2.5"></circle>
                <circle id="椭圆形" fill="#000000" cx="96.5" cy="69.5" r="2.5"></circle>
                <circle id="椭圆形" fill="#E6007A" cx="124.5" cy="137.5" r="2.5"></circle>
                <circle id="椭圆形" fill="#E6007A" cx="124.5" cy="106.5" r="2.5"></circle>
                <circle id="椭圆形" fill="#E6007A" cx="133.5" cy="111.5" r="2.5"></circle>
                <circle id="椭圆形" fill="#E6007A" cx="133.5" cy="121.5" r="2.5"></circle>
                <circle id="椭圆形" fill="#E6007A" cx="133.5" cy="132.5" r="2.5"></circle>
                <circle id="椭圆形" fill="#E6007A" cx="133.5" cy="142.5" r="2.5"></circle>
                <circle id="椭圆形" fill="#000000" cx="49.5" cy="12.5" r="2.5"></circle>
                <circle id="椭圆形" fill="#000000" cx="49.5" cy="23.5" r="2.5"></circle>
                <circle id="椭圆形" fill="#000000" cx="49.5" cy="33.5" r="2.5"></circle>
                <circle id="椭圆形" fill="#000000" cx="96.5" cy="38.5" r="2.5"></circle>
                <circle id="椭圆形" fill="#000000" cx="96.5" cy="59.5" r="2.5"></circle>
                <circle id="椭圆形" fill="#000000" cx="96.5" cy="49.5" r="2.5"></circle>
                <circle id="椭圆形" fill="#000000" cx="86.5" cy="23.5" r="2.5"></circle>
                <circle id="椭圆形" fill="#000000" cx="77.5" cy="18.5" r="2.5"></circle>
                <circle id="椭圆形" fill="#000000" cx="68.5" cy="12.5" r="2.5"></circle>
                <circle id="椭圆形" fill="#000000" cx="58.5" cy="7.5" r="2.5"></circle>
                <circle id="椭圆形" fill="#000000" cx="49.5" cy="2.5" r="2.5"></circle>
                <circle id="椭圆形" fill="#000000" cx="96.5" cy="28.5" r="2.5"></circle>
            </g>
        </g>
    </g>
</svg>