<?xml version="1.0" encoding="UTF-8"?>
<svg width="148px" height="144px" viewBox="0 0 148 144" version="1.1" xmlns="http://www.w3.org/2000/svg" xmlns:xlink="http://www.w3.org/1999/xlink">
    <title>未命名3</title>
    <g id="页面-1" stroke="none" stroke-width="1" fill="none" fill-rule="evenodd">
        <g id="home-icon-token-3" fill-rule="nonzero">
            <circle id="椭圆形" fill="#000000" cx="100.5" cy="57.3" r="2.5"></circle>
            <circle id="椭圆形" fill="#000000" cx="109.3" cy="62.2" r="2.5"></circle>
            <circle id="椭圆形" fill="#000000" cx="109.3" cy="72" r="2.5"></circle>
            <circle id="椭圆形" fill="#000000" cx="109.3" cy="81.8" r="2.5"></circle>
            <circle id="椭圆形" fill="#000000" cx="109.3" cy="91.6" r="2.5"></circle>
            <circle id="椭圆形" fill="#000000" cx="109.3" cy="101.4" r="2.5"></circle>
            <circle id="椭圆形" fill="#000000" cx="100.5" cy="106.3" r="2.5"></circle>
            <circle id="椭圆形" fill="#000000" cx="74" cy="42.6" r="2.5"></circle>
            <circle id="椭圆形" fill="#000000" cx="82.8" cy="47.5" r="2.5"></circle>
            <circle id="椭圆形" fill="#000000" cx="91.7" cy="52.4" r="2.5"></circle>
            <circle id="椭圆形" fill="#000000" cx="91.7" cy="111.2" r="2.5"></circle>
            <circle id="椭圆形" fill="#000000" cx="82.8" cy="116.2" r="2.5"></circle>
            <circle id="椭圆形" fill="#000000" cx="74" cy="121.1" r="2.5"></circle>
            <circle id="椭圆形" fill="#000000" cx="65.2" cy="47.5" r="2.5"></circle>
            <circle id="椭圆形" fill="#000000" cx="65.2" cy="116.2" r="2.5"></circle>
            <circle id="椭圆形" fill="#000000" cx="56.3" cy="52.4" r="2.5"></circle>
            <circle id="椭圆形" fill="#000000" cx="47.5" cy="106.3" r="2.5"></circle>
            <circle id="椭圆形" fill="#000000" cx="56.3" cy="111.2" r="2.5"></circle>
            <circle id="椭圆形" fill="#000000" cx="38.7" cy="62.2" r="2.5"></circle>
            <circle id="椭圆形" fill="#000000" cx="38.7" cy="72" r="2.5"></circle>
            <circle id="椭圆形" fill="#000000" cx="38.7" cy="81.8" r="2.5"></circle>
            <circle id="椭圆形" fill="#000000" cx="38.7" cy="91.6" r="2.5"></circle>
            <circle id="椭圆形" fill="#000000" cx="38.7" cy="101.4" r="2.5"></circle>
            <circle id="椭圆形" fill="#E6007A" cx="74" cy="91.6" r="2.5"></circle>
            <circle id="椭圆形" fill="#E6007A" cx="74" cy="101.4" r="2.5"></circle>
            <circle id="椭圆形" fill="#000000" cx="74" cy="111.2" r="2.5"></circle>
            <circle id="椭圆形" fill="#E6007A" cx="65.2" cy="126" r="2.5"></circle>
            <circle id="椭圆形" fill="#E6007A" cx="56.3" cy="130.9" r="2.5"></circle>
            <circle id="椭圆形" fill="#E6007A" cx="47.5" cy="135.8" r="2.5"></circle>
            <circle id="椭圆形" fill="#E6007A" cx="38.7" cy="140.7" r="2.5"></circle>
            <circle id="椭圆形" fill="#E6007A" cx="29.8" cy="67.1" r="2.5"></circle>
            <circle id="椭圆形" fill="#E6007A" cx="29.8" cy="135.8" r="2.5"></circle>
            <circle id="椭圆形" fill="#E6007A" cx="21" cy="72" r="2.5"></circle>
            <circle id="椭圆形" fill="#E6007A" cx="12.2" cy="76.9" r="2.5"></circle>
            <circle id="椭圆形" fill="#E6007A" cx="12.2" cy="126" r="2.5"></circle>
            <circle id="椭圆形" fill="#E6007A" cx="21" cy="130.9" r="2.5"></circle>
            <circle id="椭圆形" fill="#E6007A" cx="3.3" cy="81.8" r="2.5"></circle>
            <circle id="椭圆形" fill="#E6007A" cx="3.3" cy="91.6" r="2.5"></circle>
            <circle id="椭圆形" fill="#E6007A" cx="3.3" cy="101.4" r="2.5"></circle>
            <circle id="椭圆形" fill="#E6007A" cx="3.3" cy="111.2" r="2.5"></circle>
            <circle id="椭圆形" fill="#E6007A" cx="3.3" cy="121.1" r="2.5"></circle>
            <circle id="椭圆形" fill="#E6007A" cx="135.8" cy="76.9" r="2.5"></circle>
            <circle id="椭圆形" fill="#E6007A" cx="144.7" cy="81.8" r="2.5"></circle>
            <circle id="椭圆形" fill="#E6007A" cx="144.7" cy="91.6" r="2.5"></circle>
            <circle id="椭圆形" fill="#E6007A" cx="144.7" cy="101.4" r="2.5"></circle>
            <circle id="椭圆形" fill="#E6007A" cx="144.7" cy="111.2" r="2.5"></circle>
            <circle id="椭圆形" fill="#E6007A" cx="144.7" cy="121.1" r="2.5"></circle>
            <circle id="椭圆形" fill="#E6007A" cx="135.8" cy="126" r="2.5"></circle>
            <circle id="椭圆形" fill="#E6007A" cx="118.2" cy="67.1" r="2.5"></circle>
            <circle id="椭圆形" fill="#E6007A" cx="127" cy="72" r="2.5"></circle>
            <circle id="椭圆形" fill="#E6007A" cx="127" cy="130.9" r="2.5"></circle>
            <circle id="椭圆形" fill="#E6007A" cx="118.2" cy="135.8" r="2.5"></circle>
            <circle id="椭圆形" fill="#E6007A" cx="109.3" cy="140.7" r="2.5"></circle>
            <circle id="椭圆形" fill="#E6007A" cx="100.5" cy="135.8" r="2.5"></circle>
            <circle id="椭圆形" fill="#E6007A" cx="82.8" cy="126" r="2.5"></circle>
            <circle id="椭圆形" fill="#E6007A" cx="91.7" cy="130.9" r="2.5"></circle>
            <circle id="椭圆形" fill="#E6007A" cx="100.5" cy="18" r="2.5"></circle>
            <circle id="椭圆形" fill="#E6007A" cx="109.3" cy="22.9" r="2.5"></circle>
            <circle id="椭圆形" fill="#E6007A" cx="109.3" cy="32.7" r="2.5"></circle>
            <circle id="椭圆形" fill="#E6007A" cx="109.3" cy="42.6" r="2.5"></circle>
            <circle id="椭圆形" fill="#E6007A" cx="109.3" cy="52.4" r="2.5"></circle>
            <circle id="椭圆形" fill="#E6007A" cx="74" cy="3.3" r="2.5"></circle>
            <circle id="椭圆形" fill="#E6007A" cx="82.8" cy="8.2" r="2.5"></circle>
            <circle id="椭圆形" fill="#E6007A" cx="91.7" cy="13.1" r="2.5"></circle>
            <circle id="椭圆形" fill="#E6007A" cx="65.2" cy="8.2" r="2.5"></circle>
            <circle id="椭圆形" fill="#E6007A" cx="56.3" cy="13.1" r="2.5"></circle>
            <circle id="椭圆形" fill="#E6007A" cx="47.5" cy="18" r="2.5"></circle>
            <circle id="椭圆形" fill="#E6007A" cx="38.7" cy="22.9" r="2.5"></circle>
            <circle id="椭圆形" fill="#E6007A" cx="38.7" cy="32.7" r="2.5"></circle>
            <circle id="椭圆形" fill="#E6007A" cx="38.7" cy="42.6" r="2.5"></circle>
            <circle id="椭圆形" fill="#E6007A" cx="38.7" cy="52.4" r="2.5"></circle>
            <circle id="椭圆形" fill="#E6007A" cx="100.5" cy="67.1" r="2.5"></circle>
            <circle id="椭圆形" fill="#E6007A" cx="91.7" cy="72" r="2.5"></circle>
            <circle id="椭圆形" fill="#E6007A" cx="82.8" cy="76.9" r="2.5"></circle>
            <circle id="椭圆形" fill="#E6007A" cx="65.2" cy="76.9" r="2.5"></circle>
            <circle id="椭圆形" fill="#E6007A" cx="56.3" cy="72" r="2.5"></circle>
            <circle id="椭圆形" fill="#E6007A" cx="74" cy="81.8" r="2.5"></circle>
            <circle id="椭圆形" fill="#000000" cx="47.5" cy="57.3" r="2.5"></circle>
            <circle id="椭圆形" fill="#E6007A" cx="47.5" cy="67.1" r="2.5"></circle>
        </g>
    </g>
</svg>