<?xml version="1.0" encoding="UTF-8"?>
<svg width="140px" height="147px" viewBox="0 0 140 147" version="1.1" xmlns="http://www.w3.org/2000/svg" xmlns:xlink="http://www.w3.org/1999/xlink">
    <title>home-icon-token-1</title>
    <g id="页面-1" stroke="none" stroke-width="1" fill="none" fill-rule="evenodd">
        <g id="画板" transform="translate(-4.000000, -1.000000)" fill-rule="nonzero">
            <g id="home-icon-token-1" transform="translate(4.000000, 1.000000)">
                <circle id="椭圆形" fill="#E6007A" cx="103.5" cy="96.5" r="2.5"></circle>
                <circle id="椭圆形" fill="#E6007A" cx="95.5" cy="101.5" r="2.5"></circle>
                <circle id="椭圆形" fill="#E6007A" cx="86.5" cy="106.5" r="2.5"></circle>
                <circle id="椭圆形" fill="#E6007A" cx="78.5" cy="111.5" r="2.5"></circle>
                <circle id="椭圆形" fill="#E6007A" cx="70.5" cy="115.5" r="2.5"></circle>
                <circle id="椭圆形" fill="#E6007A" cx="61.5" cy="111.5" r="2.5"></circle>
                <circle id="椭圆形" fill="#E6007A" cx="53.5" cy="106.5" r="2.5"></circle>
                <circle id="椭圆形" fill="#E6007A" cx="44.5" cy="101.5" r="2.5"></circle>
                <circle id="椭圆形" fill="#E6007A" cx="137.5" cy="78.5" r="2.5"></circle>
                <circle id="椭圆形" fill="#E6007A" cx="129.5" cy="73.5" r="2.5"></circle>
                <circle id="椭圆形" fill="#E6007A" cx="120.5" cy="68.5" r="2.5"></circle>
                <circle id="椭圆形" fill="#E6007A" cx="112.5" cy="63.5" r="2.5"></circle>
                <circle id="椭圆形" fill="#E6007A" cx="36.5" cy="96.5" r="2.5"></circle>
                <circle id="椭圆形" fill="#E6007A" cx="70.5" cy="59.5" r="2.5"></circle>
                <circle id="椭圆形" fill="#E6007A" cx="70.5" cy="78.5" r="2.5"></circle>
                <circle id="椭圆形" fill="#E6007A" cx="70.5" cy="87.5" r="2.5"></circle>
                <circle id="椭圆形" fill="#E6007A" cx="70.5" cy="96.5" r="2.5"></circle>
                <circle id="椭圆形" fill="#E6007A" cx="61.5" cy="92.5" r="2.5"></circle>
                <circle id="椭圆形" fill="#E6007A" cx="53.5" cy="87.5" r="2.5"></circle>
                <circle id="椭圆形" fill="#E6007A" cx="36.5" cy="78.5" r="2.5"></circle>
                <circle id="椭圆形" fill="#000000" cx="44.5" cy="35.5" r="2.5"></circle>
                <circle id="椭圆形" fill="#E6007A" cx="70.5" cy="68.5" r="2.5"></circle>
                <circle id="椭圆形" fill="#E6007A" cx="44.5" cy="82.5" r="2.5"></circle>
                <circle id="椭圆形" fill="#E6007A" cx="27.5" cy="63.5" r="2.5"></circle>
                <circle id="椭圆形" fill="#E6007A" cx="27.5" cy="54.5" r="2.5"></circle>
                <circle id="椭圆形" fill="#E6007A" cx="27.5" cy="45.5" r="2.5"></circle>
                <circle id="椭圆形" fill="#E6007A" cx="27.5" cy="35.5" r="2.5"></circle>
                <circle id="椭圆形" fill="#E6007A" cx="27.5" cy="73.5" r="2.5"></circle>
                <circle id="椭圆形" fill="#E6007A" cx="112.5" cy="92.5" r="2.5"></circle>
                <circle id="椭圆形" fill="#E6007A" cx="120.5" cy="87.5" r="2.5"></circle>
                <circle id="椭圆形" fill="#E6007A" cx="129.5" cy="82.5" r="2.5"></circle>
                <circle id="椭圆形" fill="#E6007A" cx="137.5" cy="87.5" r="2.5"></circle>
                <circle id="椭圆形" fill="#E6007A" cx="137.5" cy="96.5" r="2.5"></circle>
                <circle id="椭圆形" fill="#E6007A" cx="27.5" cy="92.5" r="2.5"></circle>
                <circle id="椭圆形" fill="#E6007A" cx="19.5" cy="87.5" r="2.5"></circle>
                <circle id="椭圆形" fill="#E6007A" cx="10.5" cy="82.5" r="2.5"></circle>
                <circle id="椭圆形" fill="#E6007A" cx="2.5" cy="87.5" r="2.5"></circle>
                <circle id="椭圆形" fill="#000000" cx="70.5" cy="49.5" r="2.5"></circle>
                <circle id="椭圆形" fill="#000000" cx="61.5" cy="45.5" r="2.5"></circle>
                <circle id="椭圆形" fill="#000000" cx="53.5" cy="40.5" r="2.5"></circle>
                <circle id="椭圆形" fill="#000000" cx="36.5" cy="31.5" r="2.5"></circle>
                <circle id="椭圆形" fill="#000000" cx="27.5" cy="26.5" r="2.5"></circle>
                <circle id="椭圆形" fill="#E6007A" cx="78.5" cy="92.5" r="2.5"></circle>
                <circle id="椭圆形" fill="#E6007A" cx="86.5" cy="87.5" r="2.5"></circle>
                <circle id="椭圆形" fill="#E6007A" cx="103.5" cy="78.5" r="2.5"></circle>
                <circle id="椭圆形" fill="#000000" cx="95.5" cy="35.5" r="2.5"></circle>
                <circle id="椭圆形" fill="#E6007A" cx="95.5" cy="82.5" r="2.5"></circle>
                <circle id="椭圆形" fill="#E6007A" cx="112.5" cy="54.5" r="2.5"></circle>
                <circle id="椭圆形" fill="#E6007A" cx="112.5" cy="45.5" r="2.5"></circle>
                <circle id="椭圆形" fill="#E6007A" cx="112.5" cy="35.5" r="2.5"></circle>
                <circle id="椭圆形" fill="#E6007A" cx="112.5" cy="73.5" r="2.5"></circle>
                <circle id="椭圆形" fill="#000000" cx="78.5" cy="45.5" r="2.5"></circle>
                <circle id="椭圆形" fill="#000000" cx="86.5" cy="40.5" r="2.5"></circle>
                <circle id="椭圆形" fill="#000000" cx="103.5" cy="31.5" r="2.5"></circle>
                <circle id="椭圆形" fill="#000000" cx="112.5" cy="26.5" r="2.5"></circle>
                <circle id="椭圆形" fill="#000000" cx="53.5" cy="12.5" r="2.5"></circle>
                <circle id="椭圆形" fill="#000000" cx="36.5" cy="21.5" r="2.5"></circle>
                <circle id="椭圆形" fill="#000000" cx="44.5" cy="17.5" r="2.5"></circle>
                <circle id="椭圆形" fill="#000000" cx="61.5" cy="7.5" r="2.5"></circle>
                <circle id="椭圆形" fill="#000000" cx="70.5" cy="2.5" r="2.5"></circle>
                <circle id="椭圆形" fill="#000000" cx="103.5" cy="21.5" r="2.5"></circle>
                <circle id="椭圆形" fill="#000000" cx="95.5" cy="17.5" r="2.5"></circle>
                <circle id="椭圆形" fill="#000000" cx="86.5" cy="12.5" r="2.5"></circle>
                <circle id="椭圆形" fill="#000000" cx="78.5" cy="7.5" r="2.5"></circle>
                <circle id="椭圆形" fill="#E6007A" cx="95.5" cy="129.5" r="2.5"></circle>
                <circle id="椭圆形" fill="#E6007A" cx="86.5" cy="134.5" r="2.5"></circle>
                <circle id="椭圆形" fill="#E6007A" cx="78.5" cy="139.5" r="2.5"></circle>
                <circle id="椭圆形" fill="#E6007A" cx="70.5" cy="144.5" r="2.5"></circle>
                <circle id="椭圆形" fill="#E6007A" cx="61.5" cy="139.5" r="2.5"></circle>
                <circle id="椭圆形" fill="#E6007A" cx="44.5" cy="129.5" r="2.5"></circle>
                <circle id="椭圆形" fill="#E6007A" cx="53.5" cy="134.5" r="2.5"></circle>
                <circle id="椭圆形" fill="#E6007A" cx="112.5" cy="120.5" r="2.5"></circle>
                <circle id="椭圆形" fill="#E6007A" cx="103.5" cy="125.5" r="2.5"></circle>
                <circle id="椭圆形" fill="#E6007A" cx="36.5" cy="125.5" r="2.5"></circle>
                <circle id="椭圆形" fill="#E6007A" cx="120.5" cy="115.5" r="2.5"></circle>
                <circle id="椭圆形" fill="#E6007A" cx="129.5" cy="110.5" r="2.5"></circle>
                <circle id="椭圆形" fill="#E6007A" cx="137.5" cy="106.5" r="2.5"></circle>
                <circle id="椭圆形" fill="#E6007A" cx="19.5" cy="115.5" r="2.5"></circle>
                <circle id="椭圆形" fill="#E6007A" cx="27.5" cy="120.5" r="2.5"></circle>
                <circle id="椭圆形" fill="#E6007A" cx="10.5" cy="111.5" r="2.5"></circle>
                <circle id="椭圆形" fill="#E6007A" cx="2.5" cy="96.5" r="2.5"></circle>
                <circle id="椭圆形" fill="#E6007A" cx="2.5" cy="106.5" r="2.5"></circle>
                <circle id="椭圆形" fill="#E6007A" cx="2.5" cy="78.5" r="2.5"></circle>
                <circle id="椭圆形" fill="#E6007A" cx="10.5" cy="73.5" r="2.5"></circle>
                <circle id="椭圆形" fill="#E6007A" cx="19.5" cy="68.5" r="2.5"></circle>
            </g>
        </g>
    </g>
</svg>