<?xml version="1.0" encoding="UTF-8"?>
<svg width="342px" height="99px" viewBox="0 0 342 99" version="1.1" xmlns="http://www.w3.org/2000/svg" xmlns:xlink="http://www.w3.org/1999/xlink">
    <title>logo-ao</title>
    <defs>
        <path d="M123.784,65.24 L128.936,53.97 L143.196,53.97 L148.394,65.24 L151.936,65.24 L136.526,30.878 L135.698,30.878 L120.104,65.24 L123.784,65.24 Z M141.724,50.612 L130.454,50.612 L136.112,38.192 L141.724,50.612 Z M173.073,66.068 C176.216333,66.068 179.129667,65.3013333 181.813,63.768 C184.496333,62.2346667 186.604667,60.1263333 188.138,57.443 C189.671333,54.7596667 190.438,51.8463333 190.438,48.703 C190.438,45.5596667 189.663667,42.6463333 188.115,39.963 C186.566333,37.2796667 184.435,35.179 181.721,33.661 C179.007,32.143 176.078333,31.384 172.935,31.384 C169.791667,31.384 166.886,32.1506667 164.218,33.684 C161.55,35.2173333 159.449333,37.3333333 157.916,40.032 C156.382667,42.7306667 155.616,45.6746667 155.616,48.864 C155.616,51.9613333 156.390333,54.844 157.939,57.512 C159.487667,60.18 161.611333,62.273 164.31,63.791 C167.008667,65.309 169.929667,66.068 173.073,66.068 Z M173.05,62.848 C169.186,62.848 165.889333,61.4833333 163.16,58.754 C160.430667,56.0246667 159.066,52.6896667 159.066,48.749 C159.066,44.8083333 160.392333,41.4656667 163.045,38.721 C165.697667,35.9763333 169.002,34.604 172.958,34.604 C176.822,34.604 180.126333,35.9686667 182.871,38.698 C185.615667,41.4273333 186.988,44.77 186.988,48.726 C186.988,52.8046667 185.631,56.178 182.917,58.846 C180.203,61.514 176.914,62.848 173.05,62.848 Z" id="path-1"></path>
        <path d="M213.392,66.068 C216.397333,66.068 219.142,65.5083333 221.626,64.389 C224.11,63.2696667 226.164667,61.6366667 227.79,59.49 L227.79,59.49 L225.214,57.512 C222.116667,61.1306667 218.237333,62.94 213.576,62.94 C209.405333,62.94 205.932333,61.5983333 203.157,58.915 C200.381667,56.2316667 198.994,52.889 198.994,48.887 C198.994,44.885 200.412333,41.504 203.249,38.744 C206.085667,35.984 209.466667,34.604 213.392,34.604 C218.206667,34.604 222.147333,36.5053333 225.214,40.308 L225.214,40.308 L227.79,38.33 C226.195333,36.0913333 224.140667,34.374 221.626,33.178 C219.111333,31.982 216.274667,31.384 213.116,31.384 C209.957333,31.384 207.005667,32.1353333 204.261,33.638 C201.516333,35.1406667 199.369667,37.2183333 197.821,39.871 C196.272333,42.5236667 195.498,45.414 195.498,48.542 C195.498,53.602 197.169333,57.788 200.512,61.1 C203.854667,64.412 208.148,66.068 213.392,66.068 Z M237.726,65.24 L237.726,49.278 L254.516,49.278 L254.516,65.24 L257.828,65.24 L257.828,32.212 L254.516,32.212 L254.516,46.058 L237.726,46.058 L237.726,32.212 L234.368,32.212 L234.368,65.24 L237.726,65.24 Z M266.614,65.24 L271.766,53.97 L286.026,53.97 L291.224,65.24 L294.766,65.24 L279.356,30.878 L278.528,30.878 L262.934,65.24 L266.614,65.24 Z M284.554,50.612 L273.284,50.612 L278.942,38.192 L284.554,50.612 Z M302.724,65.24 L302.724,32.212 L299.412,32.212 L299.412,65.24 L302.724,65.24 Z M313.718,65.24 L313.718,40.262 L335.522,65.24 L336.258,65.24 L336.258,32.212 L332.992,32.212 L332.992,57.512 L311.05,32.212 L310.314,32.212 L310.314,65.24 L313.718,65.24 Z" id="path-2"></path>
    </defs>
    <g id="页面-1" stroke="none" stroke-width="1" fill="none" fill-rule="evenodd">
        <g id="logo-ao" fill-rule="nonzero">
            <g id="ao-chain">
                <path d="M49.561971,18.0048828 C58.2304106,17.8526548 66.5762073,21.2656126 72.6200996,27.4343505 C78.7634244,33.3373036 82.1588631,41.5082677 81.9942836,49.9928855 C81.9942836,55.0219349 80.9183588,59.1366117 78.7665092,62.3369158 C76.7499238,65.5089719 73.1773147,67.3677953 69.4014176,67.2095594 C66.5807931,67.3187891 63.8646443,66.1421805 62.0275444,64.0152708 C60.9075639,62.7876053 59.0122691,62.6524009 57.7268761,63.7084747 L57.7268761,63.7084747 C55.1617796,65.9900686 51.803943,67.1936109 48.3617845,67.0651848 C44.016624,67.1994319 39.8221035,65.4778287 36.8418125,62.3369158 C33.7686077,59.1336039 32.2320052,55.1723251 32.2320052,50.1462835 C32.0821385,45.680411 33.7425985,41.3413293 36.8418125,38.1000258 C39.7224913,34.9841386 43.7916867,33.2155154 48.0526455,33.2273823 C52.1480015,33.1611041 56.0493608,34.9557545 58.6452007,38.1000258 L58.7997701,38.2534239 L58.7997701,38.2534239 C58.917047,38.2375379 59.0257371,38.1836047 59.1089091,38.1000258 L59.1089091,38.1000258 L59.1089091,37.6488551 C59.1139024,35.9664911 60.4869023,34.6038966 62.1821139,34.5989412 L62.1821139,34.5989412 C63.8773255,34.6038966 65.2503255,35.9664911 65.2553187,37.6488551 L65.2553187,37.6488551 L65.2553187,56.237088 C65.2813648,57.6457335 65.706769,59.018601 66.4827822,60.1983667 C67.2465373,61.425551 68.4740007,61.8767217 70.119711,61.8767217 C74.1082096,61.8767217 76.1054897,57.915443 76.1115512,49.9928855 C76.235567,43.0541512 73.4534169,36.3753146 68.4285391,31.5490273 C63.4893075,26.6035186 56.7124197,23.9002482 49.6983558,24.0776405 C42.687198,23.9308003 35.9191849,26.6292207 30.9590802,31.5490273 C25.9445783,36.3808939 23.1698701,43.0576685 23.2942527,49.9928855 C23.1778996,56.9301777 25.9588389,63.6061076 30.9772648,68.4367437 C35.9202229,73.3812568 42.7006913,76.0813782 49.7165404,75.8991071 C52.4231616,75.8813491 55.1126249,75.4709552 57.6995992,74.6809462 C59.2242646,74.1531215 60.9004936,74.8863341 61.536559,76.3593012 L61.536559,76.3593012 C62.0972645,77.8753063 61.4402505,79.5690531 59.9999566,80.3205799 C59.9597454,80.3205019 59.9212951,80.3369451 59.8937357,80.366005 C59.8661763,80.3950649 59.8519662,80.4341494 59.8544795,80.473978 C56.6247196,81.5117815 53.247644,82.0266909 49.8529253,81.9989349 C40.6333108,81.9989349 32.8048215,78.949021 26.5038424,72.6957951 C20.2028632,66.4425692 17.1569354,59.0162995 17.0023659,49.9928855 C16.8965746,41.490624 20.3427223,33.3243624 26.522027,27.4343505 C32.6684367,21.0457734 40.3423565,18.0048828 49.561971,18.0048828 Z M41.8789589,58.1139581 C45.8673149,61.9217909 52.1746408,61.9217909 56.1629967,58.1139581 C58.1753105,56.0317563 59.2314852,53.2170437 59.0816321,50.3357752 C59.2300333,47.457416 58.173887,44.646044 56.1629967,42.5666157 C52.1746408,38.7587829 45.8673149,38.7587829 41.8789589,42.5666157 C39.871804,44.6483707 38.8162807,47.4580841 38.9603235,50.3357752 C38.7417675,53.2271129 39.8080399,56.0687361 41.8789589,58.1139581 L41.8789589,58.1139581 Z" id="形状" fill="#FFFFFF"></path>
                <circle id="椭圆形" fill="#E40B7B" cx="68" cy="73" r="4"></circle>
                <path d="M49.8786065,86.1864312 C49.8747036,85.7249271 50.2146731,85.3330117 50.6709417,85.2730306 L50.6709417,85.2730306 C51.1310965,85.2691163 51.5218661,85.6100827 51.5816718,86.0676892 L51.5816718,86.0676892 C51.5855747,86.5291933 51.2456051,86.9211087 50.7893366,86.9810898 L50.7893366,86.9810898 C50.5566628,87.0345317 50.3125355,86.9732037 50.1324519,86.8160715 C49.9523682,86.6589393 49.8580281,86.4249373 49.8786065,86.1864312 L49.8786065,86.1864312 Z M44.1865431,86.7162036 L44.1865431,86.7162036 C43.7302746,86.6562225 43.390305,86.2643071 43.3942079,85.802803 L43.3942079,85.802803 C43.4540136,85.3451965 43.8447832,85.0042302 44.304938,85.0081444 L44.304938,85.0081444 C44.7648249,85.0638833 45.1097265,85.4569661 45.1063805,85.9215451 L45.1063805,85.9215451 C45.1063805,86.4513174 44.8422688,86.7162036 44.1956504,86.7162036 L44.1865431,86.7162036 Z M56.2537174,85.6566589 C56.1786715,85.4269407 56.2082418,85.1757385 56.3345636,84.9698636 C56.4608855,84.7639886 56.6711533,84.624311 56.9094431,84.5879802 L56.9094431,84.5879802 C57.1397818,84.5160157 57.3899538,84.5482882 57.5946369,84.6763709 C57.7993199,84.8044536 57.9381939,85.015631 57.9749973,85.2547626 L57.9749973,85.2547626 C58.0468717,85.4846701 58.0145595,85.7346277 57.8866035,85.9385512 C57.7586475,86.1424748 57.5479313,86.2798317 57.3101644,86.3143073 L57.1644475,86.3143073 C56.6180094,86.3143073 56.2537174,86.0494211 56.2537174,85.6566589 Z M37.8478614,85.2547626 C37.4363455,85.0794926 37.2125345,84.630558 37.3196379,84.1952179 L37.3196379,84.1952179 C37.4943955,83.7824954 37.9420176,83.5580281 38.3760849,83.6654455 L38.3760849,83.6654455 C38.7876007,83.8407156 39.0114118,84.2896502 38.9043083,84.7249903 L38.9043083,84.7249903 C38.8278582,85.1055518 38.498933,85.3823558 38.1119731,85.3917727 L38.1119731,85.3917727 C38.1119731,85.2547626 37.9844709,85.2547626 37.8478614,85.2547626 L37.8478614,85.2547626 Z M62.346502,83.9303317 C62.1910771,83.4546657 62.4191111,82.9381132 62.8747255,82.7337769 L62.8747255,82.7337769 C63.3464879,82.5787962 63.8585414,82.8079207 64.0586746,83.2635493 L64.0586746,83.2635493 C64.2140995,83.7392153 63.9860655,84.2557678 63.5304512,84.4601041 L63.2663394,84.4601041 C62.8798317,84.4623256 62.5204166,84.2612948 62.3191801,83.9303317 L62.346502,83.9303317 Z M31.8916863,82.7337769 C31.5148593,82.4632894 31.3533451,81.9810076 31.490965,81.5372221 L31.490965,81.5372221 C31.7606617,81.1592901 32.2415335,80.9973024 32.6840215,81.1353258 L32.6840215,81.1353258 C33.0584777,81.4075665 33.2194174,81.8881328 33.0847428,82.3318806 L33.0847428,82.3318806 C32.9649952,82.6520859 32.6205361,82.8268059 32.2924076,82.7337769 L32.2924076,82.7337769 C32.155798,82.861653 32.0191885,82.7337769 31.8916863,82.7337769 L31.8916863,82.7337769 Z M68.1660676,81.1353258 C68.0436415,80.9428619 68.002682,80.7094223 68.0522423,80.4866042 C68.1018025,80.2637861 68.2378015,80.0699376 68.4301793,79.947905 L68.4301793,79.947905 C68.6228073,79.8221923 68.8577436,79.7794357 69.0821306,79.8292548 C69.3065176,79.8790739 69.5015095,80.0172845 69.6232358,80.2127912 L69.6232358,80.2127912 C69.8664868,80.6335283 69.7383574,81.1716436 69.3318021,81.436748 L69.3318021,81.436748 C69.2227815,81.5351891 69.0767754,81.5817818 68.9310809,81.5646241 L68.9310809,81.5646241 C68.6099032,81.6055985 68.2961798,81.4464685 68.1387457,81.1627279 L68.1660676,81.1353258 Z M26.3271252,79.1441125 L26.3271252,79.1441125 C26.1522561,79.0042621 26.0403954,78.8000969 26.0164476,78.5770722 C25.9924998,78.3540474 26.0584528,78.1306769 26.199623,77.9566917 L26.199623,77.9566917 C26.3378958,77.7772155 26.5426354,77.6614192 26.7673156,77.6356171 C26.9919957,77.6098149 27.2175345,77.6761982 27.3926794,77.8196816 L27.3926794,77.8196816 C27.5681289,77.9611715 27.6801929,78.1668961 27.7041168,78.3914111 C27.7280406,78.6159262 27.6618555,78.8407561 27.5201817,79.0162364 L27.5201817,79.0162364 C27.3949577,79.2669763 27.1347193,79.4207169 26.8553487,79.4089987 L26.8553487,79.4089987 C26.7278464,79.2811226 26.5912369,79.2811226 26.3271252,79.1441125 Z M73.3299074,77.4177853 C73.0626885,77.0673448 73.0626885,76.5808051 73.3299074,76.2303645 L73.3299074,76.2303645 C73.6832365,75.9639549 74.1696349,75.9639549 74.5229639,76.2303645 L74.5229639,76.2303645 C74.7901828,76.5808051 74.7901828,77.0673448 74.5229639,77.4177853 L74.5229639,77.4177853 C74.3774284,77.5573082 74.1933537,77.6496154 73.9947404,77.6826715 L73.9947404,77.6826715 C73.7389137,77.6853993 73.4915708,77.5907417 73.3025855,77.4177853 L73.3299074,77.4177853 Z M21.5640066,74.6775835 L21.5640066,74.6775835 C21.2983759,74.3232184 21.2983759,73.8353938 21.5640066,73.4810287 L21.5640066,73.4810287 C21.9173356,73.2146191 22.403734,73.2146191 22.757063,73.4810287 L22.757063,73.4810287 C23.0226938,73.8353938 23.0226938,74.3232184 22.757063,74.6775835 L22.757063,74.6775835 C22.6115275,74.8171064 22.4274529,74.9094136 22.2288396,74.9424697 L22.2288396,74.9424697 C21.9765123,74.9750597 21.7252484,74.8749498 21.5640066,74.6775835 L21.5640066,74.6775835 Z M77.8289143,72.8507823 C77.6534648,72.7092924 77.5414008,72.5035678 77.5174769,72.2790528 C77.4935531,72.0545377 77.5597382,71.8297078 77.7014121,71.6542275 L77.7014121,71.6542275 C77.839685,71.4747513 78.0444245,71.358955 78.2691047,71.3331528 C78.4937848,71.3073506 78.7193236,71.3737339 78.8944685,71.5172174 L78.8944685,71.5172174 C79.2154132,71.8048261 79.2702603,72.2881106 79.0219708,72.6407001 L79.0219708,72.6407001 C78.8990094,72.8903235 78.6438249,73.0467269 78.3662451,73.0425964 L78.3662451,73.0425964 C78.147389,73.046265 77.9390675,72.9485386 77.8015924,72.7777102 L77.8289143,72.8507823 Z M17.7207254,69.526004 C17.4893235,69.1183108 17.6034864,68.6010972 17.9848371,68.3294492 L17.9848371,68.3294492 C18.3913384,68.0973688 18.9070398,68.2118665 19.1778936,68.5943354 L19.1778936,68.5943354 C19.3032388,68.7875283 19.3458705,69.0231534 19.296197,69.2481984 C19.2465235,69.4732433 19.108717,69.668807 18.9137819,69.7908902 L18.9137819,69.7908902 C18.8119521,69.8957239 18.666918,69.9464655 18.5221679,69.9279003 L18.5221679,69.9279003 C18.1730095,69.9638767 17.8397641,69.7728924 17.6934035,69.452932 L17.7207254,69.526004 Z M81.4080837,67.6992028 C81.0312567,67.4287153 80.8697425,66.9464335 81.0073625,66.502648 L81.0073625,66.502648 C81.2770591,66.124716 81.7579309,65.9627283 82.2004189,66.1007517 L82.2004189,66.1007517 C82.577246,66.3712392 82.7387601,66.853521 82.6011402,67.2973065 L82.6011402,67.2973065 C82.4811472,67.62199 82.1306808,67.797737 81.7996977,67.6992028 L81.4080837,67.6992028 Z M14.6788868,63.7167761 L14.6788868,63.7167761 C14.5278901,63.2413419 14.7546436,62.7276899 15.2071102,62.5202213 L15.2071102,62.5202213 C15.6813855,62.3643407 16.1964279,62.5930434 16.4001667,63.0499937 L16.4001667,63.0499937 C16.5511634,63.5254279 16.3244098,64.0390799 15.8719432,64.2465485 L15.6078315,64.2465485 C15.1980643,64.2279051 14.8312262,63.9861332 14.6515649,63.6163021 L14.6788868,63.7167761 Z M84.0583084,61.8899749 C83.6432058,61.7179897 83.4150912,61.2681781 83.5209776,60.8304302 L83.5209776,60.8304302 C83.6962993,60.4135163 84.1495408,60.1881737 84.5865319,60.3006578 L84.5865319,60.3006578 C84.9980478,60.4759279 85.2218588,60.9248625 85.1147554,61.3602025 L85.1147554,61.3602025 C85.0294971,61.7354442 84.705686,62.0079445 84.3224201,62.026985 L84.3224201,62.026985 C84.2545893,61.9497646 84.1603432,61.9008737 84.0583084,61.8899749 L84.0583084,61.8899749 Z M12.8301046,57.505652 C12.754903,57.2770482 12.7845896,57.0267733 12.9111675,56.8222442 C13.0377454,56.6177152 13.2481961,56.4799678 13.4858303,56.4461072 L13.4858303,56.4461072 C13.716169,56.3741428 13.966341,56.4064152 14.171024,56.534498 C14.3757071,56.6625807 14.514581,56.873758 14.5513845,57.1128897 L14.5513845,57.1128897 C14.6232589,57.3427972 14.5909467,57.5927548 14.4629907,57.7966783 C14.3350347,58.0006019 14.1243185,58.1379588 13.8865515,58.1724344 L13.749942,58.1724344 C13.2729322,58.1949889 12.8595576,57.8441848 12.8027827,57.3686419 L12.8301046,57.505652 Z M85.6885153,55.6788507 C85.2322468,55.6188696 84.8922773,55.2269543 84.8961801,54.7654501 L84.8961801,54.7654501 C84.9559859,54.3078437 85.3467554,53.9668773 85.8069103,53.9707916 L85.8069103,53.9707916 C86.2631788,54.0307727 86.6031483,54.4226881 86.5992455,54.8841922 L86.5992455,54.8841922 C86.5992455,55.4139646 86.1985242,55.6788507 85.6885153,55.6788507 Z M12.0741986,51.0296416 L12.0741986,51.0296416 C12.0708527,50.5650626 12.4157542,50.1719798 12.8756411,50.116241 L12.8756411,50.116241 C13.3357959,50.1123267 13.7265655,50.4532931 13.7863712,50.9108995 L13.7863712,50.9108995 C13.7902741,51.3724037 13.4503046,51.764319 12.994036,51.8243001 L12.994036,51.8243001 C12.7305095,51.8485772 12.4694862,51.7566923 12.278896,51.5725578 C12.0883058,51.3884234 11.986999,51.1302513 12.0013402,50.8652295 L12.0741986,51.0296416 Z M85.2877941,48.3716458 C85.2844482,47.9070668 85.6293497,47.513984 86.0892366,47.4582452 L86.0892366,47.4582452 C86.5524573,47.4548895 86.9443909,47.8008023 86.9999667,48.2620377 L86.9999667,48.2620377 C87.0038696,48.7235419 86.6639001,49.1154573 86.2076315,49.1754384 L86.2076315,49.1754384 C85.9291247,49.2985478 85.6039901,49.2398297 85.3857951,49.0270179 C85.1676001,48.8142061 85.1000048,48.4898834 85.2149357,48.2072337 L85.2877941,48.3716458 Z M13.1397528,45.4487639 C12.6798659,45.393025 12.3349644,44.9999422 12.3383103,44.5353632 L12.3383103,44.5353632 C12.3938862,44.0741278 12.7858197,43.728215 13.2490404,43.7315707 L13.2490404,43.7315707 C13.705309,43.7915518 14.0452785,44.1834672 14.0413757,44.6449713 L14.0413757,44.6449713 C13.9815699,45.1025778 13.5908004,45.4435441 13.1306455,45.4396298 L13.1397528,45.4487639 Z M84.4954589,42.2609957 L84.4954589,42.2609957 C84.4235845,42.0310882 84.4558967,41.7811306 84.5838527,41.5772071 C84.7118087,41.3732835 84.9225249,41.2359266 85.1602919,41.201451 L85.1602919,41.201451 C85.3895272,41.1293659 85.638754,41.1617728 85.8420813,41.290104 C86.0454087,41.4184352 86.182364,41.6297693 86.2167388,41.8682334 L86.2167388,41.8682334 C86.2919404,42.0968372 86.2622538,42.3471121 86.1356759,42.5516412 C86.009098,42.7561702 85.7986473,42.8939176 85.5610131,42.9277782 L85.3970817,42.9277782 C84.8688582,42.9277782 84.4863516,42.662892 84.4863516,42.2609957 L84.4954589,42.2609957 Z M14.4603115,39.0823616 C14.0446165,38.9065258 13.8199327,38.4519553 13.932088,38.0136829 L13.932088,38.0136829 C14.1068457,37.6009603 14.5544677,37.376493 14.988535,37.4839105 L14.988535,37.4839105 C15.4000509,37.6591805 15.6238619,38.1081151 15.5167585,38.5434552 L15.5167585,38.5434552 C15.4403083,38.9240167 15.1113831,39.2008207 14.7244233,39.2102377 L14.7244233,39.2102377 C14.5240626,39.0458255 14.5240626,39.0458255 14.3601312,38.9179495 L14.4603115,39.0823616 Z M82.6466767,36.2873557 C82.49568,35.8119215 82.7224336,35.2982694 83.1749002,35.0908009 L83.1749002,35.0908009 C83.6513285,34.9406179 84.1643524,35.172352 84.3679566,35.6297072 L84.3679566,35.6297072 C84.5180129,36.1026122 84.2908641,36.6132316 83.8397332,36.817128 L83.5665141,36.817128 C83.108004,36.8715565 82.6814283,36.5732554 82.5738183,36.1229436 L82.6466767,36.2873557 Z M16.8464245,33.2365976 C16.4695974,32.9661101 16.3080833,32.4838284 16.4457032,32.0400428 L16.4457032,32.0400428 C16.7160662,31.6630566 17.198228,31.5043257 17.6387597,31.6472806 L17.6387597,31.6472806 C18.0131404,31.9153638 18.1715223,32.3955968 18.0303736,32.8347014 L18.0303736,32.8347014 C17.886683,33.1467407 17.5804983,33.3514624 17.2380384,33.3644737 L17.2380384,33.3644737 C17.0376778,33.2000616 16.9010683,33.0721855 16.7735661,33.0721855 L16.8464245,33.2365976 Z M79.8598425,30.7156119 L79.8598425,30.7156119 C79.630289,30.3056794 79.7485082,29.7879421 80.1330615,29.5190571 L80.1330615,29.5190571 C80.3249628,29.3962721 80.5577199,29.3551925 80.7798865,29.4048981 C81.0020532,29.4546037 81.1953349,29.5910014 81.3170107,29.7839433 L81.3170107,29.7839433 C81.4423559,29.9771362 81.4849875,30.2127613 81.4353141,30.4378063 C81.3856406,30.6628512 81.2478341,30.8584149 81.052899,30.9804981 L81.052899,30.9804981 C80.9479532,31.0796407 80.8043138,31.1265441 80.661285,31.1083742 L80.661285,31.1083742 C80.2741021,31.1580107 79.9066352,30.9238314 79.7869841,30.5511998 L79.8598425,30.7156119 Z M20.1523749,27.79273 C19.9725757,27.6542393 19.8571922,27.4479234 19.8331013,27.2218404 C19.8090104,26.9957574 19.8783154,26.7696459 20.0248726,26.5961752 L20.0248726,26.5961752 C20.1612755,26.4163882 20.3654402,26.300825 20.5894014,26.2766354 C20.8133626,26.2524458 21.0373792,26.3217619 21.2088218,26.4682991 L21.2088218,26.4682991 C21.3872126,26.605307 21.5024919,26.8090873 21.5282466,27.0329491 C21.5540013,27.256811 21.4880239,27.4815668 21.3454313,27.6557199 L21.3454313,27.6557199 C21.2176981,27.9052496 20.960253,28.060877 20.6805983,28.0576162 L20.6805983,28.0576162 C20.4802377,27.756194 20.216126,27.756194 20.0795165,27.6283179 L20.1523749,27.79273 Z M76.1531708,25.6645065 L76.1531708,25.6645065 C75.8875401,25.3101415 75.8875401,24.8223168 76.1531708,24.4679517 L76.1531708,24.4679517 C76.5064999,24.2015421 76.9928983,24.2015421 77.3462273,24.4679517 L77.3462273,24.4679517 C77.611858,24.8223168 77.611858,25.3101415 77.3462273,25.6645065 L77.3462273,25.6645065 C77.2043775,25.8091963 77.0185271,25.9023939 76.8180038,25.9293927 L76.8180038,25.9293927 C76.6956877,25.9896324 76.5536821,25.9952125 76.4270415,25.9447557 C76.3004009,25.8942989 76.2009255,25.7925066 76.1531708,25.6645065 L76.1531708,25.6645065 Z M24.38727,23.0156448 C24.1216393,22.6612797 24.1216393,22.173455 24.38727,21.81909 L24.38727,21.81909 C24.740599,21.5526804 25.2269974,21.5526804 25.5803265,21.81909 L25.5803265,21.81909 C25.8459572,22.173455 25.8459572,22.6612797 25.5803265,23.0156448 L25.5803265,23.0156448 C25.4347909,23.1551677 25.2507163,23.2474749 25.052103,23.2805309 L25.052103,23.2805309 C24.756979,23.2477626 24.4892289,23.0919459 24.3144116,22.8512327 L24.38727,23.0156448 Z M71.5266618,21.4171937 C71.3477103,21.2785153 71.2322525,21.0731754 71.2065258,20.8478365 C71.1807991,20.6224975 71.2469883,20.3962973 71.3900522,20.2206389 L71.3900522,20.2206389 C71.5311285,20.0446749 71.7362516,19.9322823 71.9601102,19.9082883 C72.1839688,19.8842944 72.4081414,19.9506735 72.5831087,20.0927628 L72.5831087,20.0927628 C72.8488459,20.3875142 72.875328,20.8276459 72.6468598,21.1523075 L72.6468598,21.1523075 C72.5230216,21.3999631 72.267261,21.5531569 71.9911341,21.5450698 L71.9911341,21.5450698 C71.7837977,21.5126352 71.5939899,21.4093868 71.4538033,21.2527816 L71.5266618,21.4171937 Z M29.4236076,19.0240841 C29.3011816,18.8316201 29.2602221,18.5981805 29.3097823,18.3753624 C29.3593426,18.1525443 29.4953415,17.9586959 29.6877194,17.8366633 L29.6877194,17.8366633 C30.0942207,17.6045829 30.6099221,17.7190805 30.8807758,18.1015495 L30.8807758,18.1015495 C31.1121777,18.5092427 30.9980148,19.0264563 30.6166641,19.2981043 L30.6166641,19.2981043 C30.5070548,19.3955107 30.3615217,19.4419525 30.2159428,19.4259804 L30.2159428,19.4259804 C29.8257598,19.4860685 29.4529926,19.2420754 29.3507492,18.859672 L29.4236076,19.0240841 Z M66.3628219,18.1106835 C65.9835711,17.8419997 65.8214627,17.3579436 65.9621006,16.9141287 L65.9621006,16.9141287 C66.2317973,16.5361967 66.7126691,16.3742089 67.1551571,16.5122324 L67.1551571,16.5122324 C67.5310411,16.7833881 67.689308,17.2669638 67.5467711,17.7087872 L67.5467711,17.7087872 C67.4306007,18.0321865 67.0830097,18.2084952 66.7544358,18.1106835 L66.2717489,18.1106835 L66.3628219,18.1106835 Z M34.9790615,15.98246 C34.8280648,15.5070258 35.0548183,14.9933738 35.5072849,14.7859052 L35.5072849,14.7859052 C35.9813291,14.6344658 36.4934794,14.8618843 36.7003414,15.3156776 L36.7003414,15.3156776 C36.8557663,15.7913436 36.6277323,16.3078962 36.1721179,16.5122324 L35.9080062,16.5122324 C35.4646831,16.4973958 35.0718442,16.2216023 34.906203,15.8089139 L34.9790615,15.98246 Z M60.6707585,15.5805638 C60.255656,15.4085786 60.0275414,14.958767 60.1334278,14.5210191 L60.1334278,14.5210191 C60.3087495,14.1041051 60.7619909,13.8787625 61.198982,13.9912467 L61.198982,13.9912467 C61.6104979,14.1665168 61.8343089,14.6154514 61.7272055,15.0507914 L61.7272055,15.0507914 C61.6447814,15.4277614 61.319341,15.7016328 60.9348703,15.7175739 L60.9348703,15.7175739 C60.7731768,15.6859994 60.64291,15.5659437 60.5979001,15.4070177 L60.6707585,15.5805638 Z M40.9989876,13.8451026 C40.923727,13.615125 40.9545627,13.3634733 41.0831052,13.158615 C41.2116477,12.9537567 41.4245256,12.8170019 41.6638206,12.7855579 L41.6638206,12.7855579 C41.8917561,12.7101358 42.1412993,12.7399094 42.3452303,12.8668585 C42.5491613,12.9938075 42.686506,13.2048754 42.7202676,13.4432063 L42.7202676,13.4432063 C42.7953422,13.6742882 42.764615,13.9268438 42.636339,14.1330397 C42.5080629,14.3392357 42.2953875,14.4779351 42.0554346,14.5118851 L41.9279324,14.5118851 C41.5090212,14.5084749 41.1373344,14.2416838 40.9989876,13.8451026 Z M54.5051155,14.1099888 C54.048847,14.0500077 53.7088775,13.6580923 53.7127803,13.1965882 L53.7127803,13.1965882 C53.7725861,12.7389817 54.1633556,12.3980153 54.6235105,12.4019296 L54.6235105,12.4019296 C55.0833974,12.4576684 55.4282989,12.8507512 55.424953,13.3153302 L55.424953,13.3153302 C55.3651472,13.7729367 54.9743777,14.1139031 54.5142228,14.1099888 L54.5051155,14.1099888 Z M47.355884,12.913434 C47.3519811,12.4519298 47.6919506,12.0600145 48.1482192,12.0000334 L48.1482192,12.0000334 C48.6083741,11.9961191 48.9991436,12.3370855 49.0589493,12.7946919 L49.0589493,12.7946919 C49.0628522,13.256196 48.7228827,13.6481114 48.2666141,13.7080925 L48.2666141,13.7080925 C47.8064593,13.7120068 47.4156897,13.3710404 47.355884,12.913434 Z" id="形状" fill="#FFFFFF"></path>
                <path d="M48.53526,91 L48.53526,91 C48.0015456,90.9385529 47.6057709,90.474629 47.6283002,89.9368693 L47.6283002,89.9368693 C47.6852012,89.4035494 48.1454768,89.0060168 48.6803735,89.0282106 L48.6803735,89.0282106 C49.1812736,89.0282106 49.5873333,89.435031 49.5873333,89.9368693 L49.5873333,89.9368693 C49.4512893,90.6001902 49.0612966,91 48.5261904,91 L48.53526,91 Z M54.6028208,89.8096571 C54.5398254,89.5605966 54.5920828,89.2963565 54.7451087,89.0901776 C54.8981345,88.8839987 55.1356698,88.7577875 55.3918758,88.7465264 L55.3918758,88.7465264 C55.641963,88.6831459 55.9072458,88.7366217 56.1134058,88.8919727 C56.3195657,89.0473237 56.4444302,89.2878416 56.4530187,89.5461461 L56.4530187,89.5461461 C56.5166816,89.7957608 56.4632101,90.0608371 56.3077903,90.2660924 C56.1523704,90.4713478 55.9119813,90.5943589 55.6548941,90.6001902 L55.5279198,90.6001902 C55.0696699,90.6040841 54.6805181,90.2648879 54.62096,89.8096571 L54.6028208,89.8096571 Z M41.4156258,90.0731681 L41.4156258,90.0731681 C40.9116521,89.9041194 40.5866184,89.413784 40.6265708,88.8828252 L40.6265708,88.8828252 C40.7953034,88.3779075 41.2847221,88.0522649 41.8146881,88.0922922 L41.8146881,88.0922922 C42.3229021,88.2557608 42.6504739,88.749925 42.6037431,89.2826351 L42.6037431,89.2826351 C42.4772413,89.6982611 42.1251457,90.0051582 41.6967834,90.0731681 L41.4246954,90.0731681 L41.4156258,90.0731681 Z M61.4594366,88.3558032 C61.3870125,88.1099456 61.4163831,87.8452321 61.5409303,87.6213109 C61.6654775,87.3973897 61.874723,87.2330996 62.1215173,87.1654603 L62.1215173,87.1654603 C62.3668899,87.0786618 62.6376549,87.1016359 62.8649627,87.2285409 C63.0922705,87.3554459 63.2542213,87.5740551 63.3096346,87.8287811 L63.3096346,87.8287811 C63.3820587,88.0746387 63.3526881,88.3393522 63.2281409,88.5632734 C63.1035936,88.7871946 62.8943482,88.9514847 62.6475539,89.019124 L62.3845356,89.019124 C61.9757802,89.0031609 61.6173059,88.7409844 61.4775758,88.3558032 L61.4594366,88.3558032 Z M34.5680796,87.9559934 C34.3209611,87.8949615 34.1151585,87.7242681 34.0091739,87.4924349 C33.9031893,87.2606017 33.9086132,86.9929822 34.0239037,86.7656505 L34.0239037,86.7656505 C34.2869221,86.2386284 34.8220283,85.9751174 35.212021,86.2386284 L35.212021,86.2386284 C35.4558633,86.3040179 35.6570518,86.4764857 35.7592447,86.7077328 C35.8614375,86.93898 35.853648,87.2041457 35.7380577,87.4289713 L35.7380577,87.4289713 C35.6047999,87.8189776 35.242468,88.0839753 34.8310979,88.0922922 L34.8310979,88.0922922 C34.728949,88.0832701 34.634457,88.0343033 34.5680796,87.9559934 Z M67.9169902,85.8479052 C67.7593961,85.628137 67.7077701,85.3494324 67.7761631,85.0876464 C67.8445562,84.8258604 68.025851,84.6082359 68.2707045,84.4940037 L68.2707045,84.4940037 C68.4936482,84.352382 68.7671163,84.3151039 69.0197228,84.3919005 C69.2723293,84.468697 69.4790038,84.6519465 69.5857961,84.8938135 L69.5857961,84.8938135 C69.7276971,85.1160008 69.7662242,85.3890007 69.691369,85.6418924 C69.6165137,85.8947841 69.4356647,86.1026057 69.1958034,86.2113687 L69.1958034,86.2113687 C69.0908277,86.3159417 68.9436138,86.3662222 68.7967411,86.3476675 L68.7967411,86.3476675 C68.4067484,86.2386284 68.0076861,86.1114162 67.8716422,85.8479052 L67.9169902,85.8479052 Z M28.2375004,84.7847745 C27.8317804,84.474228 27.719189,83.9102161 27.9744821,83.4672194 L27.9744821,83.4672194 C28.2844479,83.0607394 28.8474053,82.947937 29.2895738,83.2037084 L29.2895738,83.2037084 C29.6589985,83.5287503 29.7430382,84.0722043 29.4891049,84.4940037 L29.4891049,84.4940037 C29.3131345,84.7554006 29.0144901,84.9067221 28.7000499,84.8938135 L28.7000499,84.8938135 C28.4370316,84.8938135 28.3009876,84.7575147 28.1740133,84.7575147 L28.2375004,84.7847745 Z M73.8575766,82.1496643 C73.5711124,81.7573916 73.6015043,81.2169235 73.9301334,80.8593689 L73.9301334,80.8593689 C74.3428039,80.5642519 74.9101399,80.622649 75.2542947,80.9956677 L75.2542947,80.9956677 C75.5518611,81.4051025 75.4931727,81.9734861 75.1182507,82.3132228 L75.1182507,82.3132228 C74.9733177,82.4520214 74.7900051,82.5438494 74.592214,82.5767339 L74.592214,82.5767339 C74.2874068,82.5582735 74.0029212,82.4174022 73.803159,82.1860106 L73.8575766,82.1496643 Z M22.5690019,80.4322993 C22.200477,80.085608 22.1424937,79.5201802 22.4329579,79.1056576 L22.4329579,79.1056576 C22.7801612,78.7444174 23.3382768,78.6904295 23.7480496,78.9784454 L23.7480496,78.9784454 C24.1152226,79.3220798 24.1732787,79.8843398 23.8840936,80.2960005 L23.8840936,80.2960005 C23.7480496,80.5595115 23.4850313,80.5595115 23.2220129,80.5595115 L23.2220129,80.5595115 C22.9996029,80.6615155 22.737055,80.6103689 22.5690019,80.4322993 L22.5690019,80.4322993 Z M79.1270129,77.5245915 C78.765073,77.1737076 78.711249,76.6113492 79.0000385,76.1979498 L79.0000385,76.1979498 C79.3419681,75.8564594 79.8765722,75.8032787 80.2788518,76.0707376 L80.2788518,76.0707376 C80.6460247,76.414372 80.7040808,76.976632 80.4148957,77.3882927 L80.4148957,77.3882927 C80.2788518,77.6518037 80.0158334,77.6518037 79.7528151,77.6518037 L79.7528151,77.6518037 C79.5241337,77.684698 79.2910442,77.6399122 79.0907345,77.5245915 L79.1270129,77.5245915 Z M17.6895584,75.1439057 C17.3939673,74.7355423 17.44842,74.1705121 17.8165327,73.8263506 L17.8165327,73.8263506 C18.2281048,73.53304 18.7922564,73.587238 19.140694,73.9535628 L19.140694,73.9535628 C19.4352592,74.3670063 19.3769713,74.935405 19.00465,75.2802045 L19.00465,75.2802045 C18.859717,75.4190031 18.6764044,75.5108311 18.4786134,75.5437155 L18.4786134,75.5437155 C18.1434991,75.6048534 17.8070545,75.4436437 17.6442104,75.1439057 L17.6895584,75.1439057 Z M83.4804197,71.9726868 C83.0746997,71.6621404 82.9621082,71.0981284 83.2174014,70.6551317 L83.2174014,70.6551317 C83.5273672,70.2486517 84.0903246,70.1358493 84.5324931,70.3916207 L84.5324931,70.3916207 C84.9382131,70.7021671 85.0508045,71.2661791 84.7955114,71.7091758 L84.7955114,71.7091758 C84.619541,71.9705727 84.3208966,72.1218942 84.0064564,72.1089856 L84.0064564,72.1089856 C83.7434381,72.1089856 83.6073941,72.1089856 83.4804197,71.9726868 L83.4804197,71.9726868 Z M13.7352138,69.2467107 L13.7352138,69.2467107 C13.5933129,69.0245235 13.5547857,68.7515236 13.6296409,68.4986319 C13.7044962,68.2457402 13.8853452,68.0379185 14.1252065,67.9291556 L14.1252065,67.9291556 C14.3476115,67.7836678 14.6224958,67.7431696 14.8772904,67.8183524 C15.132085,67.8935352 15.3411774,68.0768415 15.4493677,68.3198789 L15.4493677,68.3198789 C15.5940527,68.5438807 15.6331595,68.820272 15.5563143,69.0757359 C15.4794692,69.3311997 15.2944389,69.5399163 15.0503055,69.6465206 L15.0503055,69.6465206 C14.9417361,69.7444505 14.7963345,69.7908014 14.6512432,69.7737328 L14.6512432,69.7737328 C14.2504945,69.7730914 13.8819599,69.5536463 13.6898658,69.2012778 L13.7352138,69.2467107 Z M86.7726837,65.8119808 C86.246647,65.5484698 85.9836287,65.0214478 86.246647,64.6216379 L86.246647,64.6216379 C86.3119142,64.377339 86.4840595,64.1757735 86.7148743,64.0733893 C86.9456891,63.971005 87.2103591,63.9788091 87.4347643,64.0946159 L87.4347643,64.0946159 C87.960801,64.3581269 88.2238193,64.885149 87.960801,65.2849588 L87.960801,65.2849588 C87.8223254,65.6697449 87.4619984,65.9296663 87.0538412,65.9391931 L87.0538412,65.9391931 C86.9244868,65.934298 86.8043606,65.8707793 86.7273357,65.7665479 L86.7726837,65.8119808 Z M10.9599169,62.640762 C10.8874928,62.3949044 10.9168634,62.1301909 11.0414106,61.9062697 C11.1659578,61.6823485 11.3752033,61.5180584 11.6219975,61.4504191 L11.6219975,61.4504191 C11.8673955,61.3778593 12.131614,61.4072849 12.3551165,61.5320654 C12.578619,61.6568459 12.742602,61.8664834 12.8101148,62.1137399 L12.8101148,62.1137399 C12.882539,62.3595975 12.8531684,62.624311 12.7286211,62.8482322 C12.6040739,63.0721534 12.3948285,63.2364435 12.1480342,63.3040828 L11.8850159,63.3040828 C11.438957,63.3143056 11.0413462,63.0239155 10.9145689,62.595329 L10.9599169,62.640762 Z M89.0128743,59.2060321 C88.5068014,59.0397368 88.1805195,58.5475184 88.2238193,58.0156892 L88.2238193,58.0156892 C88.3698606,57.5163782 88.8291366,57.1749867 89.3484494,57.1797232 L89.3484494,57.1797232 C89.8524231,57.3487719 90.1774569,57.8391073 90.1375044,58.3700661 L90.1375044,58.3700661 C90.0110026,58.7856922 89.658907,59.0925892 89.2305446,59.1605992 L88.9584567,59.1605992 L89.0128743,59.2060321 Z M9.38180692,55.64409 C9.31519337,55.394721 9.36600122,55.1285247 9.5197491,54.921373 C9.67349698,54.7142213 9.91331952,54.5888377 10.1708619,54.5809593 L10.1708619,54.5809593 C10.4185043,54.5174811 10.681519,54.5699404 10.8860143,54.7235992 C11.0905096,54.877258 11.2144205,55.1155365 11.2229352,55.3714924 L11.2229352,55.3714924 C11.2895488,55.6208613 11.2387409,55.8870576 11.0849931,56.0942093 C10.9312452,56.301361 10.6914226,56.4267447 10.4338802,56.4346231 L10.3069059,56.4346231 C9.73552123,56.3891901 9.33645893,56.1256791 9.33645893,55.5986571 L9.38180692,55.64409 Z M89.9379733,52.3365723 C89.4056505,52.2795648 89.0088612,51.8184269 89.0310135,51.2825282 L89.0310135,51.2825282 C89.0270809,51.0122189 89.143487,50.7541915 89.3486065,50.5785473 C89.553726,50.4029031 89.8262564,50.3278833 90.0921564,50.3738695 L90.0921564,50.3738695 C90.6244792,50.4308771 91.0212685,50.8920149 90.9991162,51.4279136 L90.9991162,51.4279136 C90.9422152,51.9612335 90.4819396,52.3587661 89.9470429,52.3365723 L89.9379733,52.3365723 Z M9.90784358,49.4288645 C9.37552085,49.3718569 8.9787315,48.9107191 9.00088382,48.3748204 L9.00088382,48.3748204 C9.06221607,47.8401063 9.52527252,47.4435901 10.0620267,47.4661617 L10.0620267,47.4661617 C10.5629268,47.4661617 10.9689865,47.872982 10.9689865,48.3748204 L10.9689865,48.3748204 C10.8420121,49.0381412 10.4429498,49.4288645 9.91691318,49.4288645 L9.90784358,49.4288645 Z M88.704508,44.5130209 L88.704508,44.5130209 C88.6408451,44.2634062 88.6943166,43.9983299 88.8497365,43.7930746 C89.0051563,43.5878192 89.2455454,43.4648081 89.5026326,43.4589768 L89.5026326,43.4589768 C89.7502749,43.3954986 90.0132896,43.4479579 90.2177849,43.6016167 C90.4222803,43.7552755 90.5461912,43.993554 90.5547059,44.2495099 L90.5547059,44.2495099 C90.6177013,44.4985704 90.5654439,44.7628105 90.412418,44.9689894 C90.2593922,45.1751683 90.0218569,45.3013795 89.7656509,45.3126406 L89.6296069,45.3126406 C89.1683039,45.3159789 88.7779929,44.9718618 88.7226472,44.5130209 L88.704508,44.5130209 Z M10.5245762,42.5321449 C10.0184027,42.3699962 9.68865346,41.8819542 9.72645163,41.3508886 L9.72645163,41.3508886 C9.8890778,40.8402529 10.3812361,40.5090235 10.9145689,40.551269 L10.9145689,40.551269 C11.4200843,40.7197224 11.7481819,41.2090553 11.7126935,41.7416119 L11.7126935,41.7416119 C11.5843194,42.156018 11.2331492,42.4621084 10.8057338,42.5321449 L10.5427154,42.5321449 L10.5245762,42.5321449 Z M87.126398,37.7798599 C87.0397618,37.5340277 87.062693,37.2627555 87.1893607,37.0350219 C87.3160284,36.8072883 87.5342289,36.6450341 87.7884786,36.5895171 L87.7884786,36.5895171 C88.0327255,36.5058144 88.3010007,36.5303515 88.5260821,36.6569801 C88.7511634,36.7836087 88.911722,37.0003293 88.9675263,37.2528379 L88.9675263,37.2528379 C89.0543133,37.4973891 89.0325749,37.7674501 88.9077939,37.9949074 C88.783013,38.2223647 88.5671013,38.3855046 88.3145153,38.4431808 L88.0514969,38.4431808 C87.6524346,38.570393 87.2533724,38.1796698 87.1445372,37.7798599 L87.126398,37.7798599 Z M12.3657045,35.798984 C11.9151111,35.5925925 11.6892963,35.0816071 11.8396679,34.6086411 L11.8396679,34.6086411 C11.9049351,34.3643421 12.0770804,34.1627766 12.3078952,34.0603924 C12.53871,33.9580082 12.8033799,33.9658122 13.0277852,34.081619 L13.0277852,34.081619 C13.5538218,34.3451301 13.8168402,34.8721521 13.5538218,35.2719619 L13.5538218,35.2719619 C13.4153462,35.6567481 13.0550193,35.9166695 12.6468621,35.9261962 L12.6468621,35.9261962 C12.6287229,35.7808108 12.5017485,35.7808108 12.3657045,35.7808108 L12.3657045,35.798984 Z M84.4871451,31.573721 L84.4871451,31.573721 C84.3424601,31.3497191 84.3033534,31.0733278 84.3801985,30.817864 C84.4570437,30.5624002 84.642074,30.3536836 84.8862074,30.2470793 L84.8862074,30.2470793 C85.1091511,30.1054576 85.3826192,30.0681795 85.6352257,30.1449761 C85.8878322,30.2217727 86.0945067,30.4050221 86.201299,30.6468892 L86.201299,30.6468892 C86.3432,30.8690764 86.3817271,31.1420763 86.3068719,31.394968 C86.2320166,31.6478597 86.0511676,31.8556813 85.8113063,31.9644443 L85.8113063,31.9644443 C85.7056118,32.0678513 85.558975,32.1179348 85.412244,32.1007431 L85.412244,32.1007431 C85.0311467,32.0893345 84.6822583,31.8837216 84.4871451,31.5555479 L84.4871451,31.573721 Z M15.4040198,29.4565463 C14.994618,29.1483118 14.8814222,28.5812724 15.1410014,28.1389911 L15.1410014,28.1389911 C15.4509672,27.7325111 16.0139246,27.6197087 16.4560931,27.8754801 L16.4560931,27.8754801 C16.8618131,28.1860266 16.9744046,28.7500385 16.7191114,29.1930352 L16.7191114,29.1930352 C16.543141,29.4544321 16.2444966,29.6057536 15.9300564,29.5928451 L15.9300564,29.5928451 C15.7434637,29.5935905 15.560687,29.5399176 15.4040198,29.4383731 L15.4040198,29.4565463 Z M80.7958188,25.7583053 C80.4982524,25.3488706 80.5569407,24.7804869 80.9318628,24.4407502 L80.9318628,24.4407502 C81.3394626,24.1446055 81.9034364,24.1991601 82.2469544,24.5679625 L82.2469544,24.5679625 C82.5415197,24.981406 82.4832317,25.5498047 82.1109105,25.8946042 L82.1109105,25.8946042 C81.9659775,26.0334027 81.7826649,26.1252307 81.5848738,26.1581152 L81.5848738,26.1581152 C81.2659089,26.1938618 80.9561097,26.0368882 80.7958188,25.7583053 L80.7958188,25.7583053 Z M19.4853387,23.7774294 C19.1247739,23.4295758 19.0708869,22.8704147 19.3583643,22.4598743 L19.3583643,22.4598743 C19.7013562,22.0920135 20.262565,22.0338487 20.673456,22.3235755 L20.673456,22.3235755 C21.0419809,22.6702668 21.0999642,23.2356946 20.8095,23.6502172 L20.8095,23.6502172 C20.673456,23.9137282 20.4104377,23.9137282 20.1474193,23.9137282 L20.1474193,23.9137282 C19.884401,24.0227672 19.748357,23.895555 19.5125475,23.7592562 L19.4853387,23.7774294 Z M76.0524193,20.8697215 C75.6852463,20.5260871 75.6271902,19.9638271 75.9163753,19.5521664 L75.9163753,19.5521664 C76.2624184,19.1829512 76.826789,19.1248593 77.2405365,19.4158676 L77.2405365,19.4158676 C77.6024764,19.7667515 77.6563004,20.3291099 77.3675109,20.7425093 L77.3675109,20.7425093 C77.2405365,21.0060203 76.9775182,21.0060203 76.7054303,21.0060203 L76.7054303,21.0060203 C76.4814068,21.0205005 76.257243,20.9799507 76.0524193,20.8878947 L76.0524193,20.8697215 Z M24.5008262,18.8888456 C24.2052352,18.4804822 24.2596878,17.915452 24.6278006,17.5712905 L24.6278006,17.5712905 C25.0393726,17.2779799 25.6035242,17.3321779 25.9519618,17.6985027 L25.9519618,17.6985027 C26.246527,18.1119462 26.1882391,18.6803449 25.8159179,19.0251444 L25.8159179,19.0251444 C25.6697303,19.1621467 25.4869907,19.2536877 25.2898812,19.2886554 L25.2898812,19.2886554 C24.9811828,19.2622508 24.6964152,19.111402 24.5008262,18.8706724 L24.5008262,18.8888456 Z M70.6469391,16.6444586 L70.6469391,16.6444586 C70.241219,16.3339121 70.1286276,15.7699002 70.3839207,15.3269035 L70.3839207,15.3269035 C70.6938865,14.9204235 71.2568439,14.8076211 71.6990124,15.0633925 L71.6990124,15.0633925 C72.1047324,15.3739389 72.2173239,15.9379508 71.9620307,16.3809476 L71.9620307,16.3809476 C71.7860603,16.6423445 71.4874159,16.7936659 71.1729757,16.7807574 L71.1729757,16.7807574 C71.0369318,16.8897964 70.7739134,16.7625842 70.6469391,16.6262854 L70.6469391,16.6444586 Z M30.2962991,14.9270936 C30.1549422,14.7037323 30.1177338,14.4297519 30.1943868,14.1766722 C30.2710398,13.9235926 30.4539466,13.7165309 30.6953614,13.6095385 L30.6953614,13.6095385 C31.1689297,13.3833535 31.7365223,13.5519894 32.0104531,14.0002618 L32.0104531,14.0002618 C32.1556689,14.2230834 32.1960914,14.4984826 32.1210491,14.7537545 C32.0460069,15.0090264 31.8630433,15.2185105 31.6204604,15.3269035 L31.6204604,15.3269035 C31.511891,15.4248335 31.3664894,15.4711843 31.2213981,15.4541157 L31.2213981,15.4541157 C30.8403008,15.4427072 30.4914123,15.2370942 30.2962991,14.9089205 L30.2962991,14.9270936 Z M64.5793782,13.6095385 L64.5793782,13.6095385 C64.0533416,13.3460275 63.7903232,12.8099189 64.0533416,12.4191956 L64.0533416,12.4191956 C64.3163599,11.8921736 64.8423966,11.6286626 65.2414589,11.8921736 L65.2414589,11.8921736 C65.4708322,11.9774842 65.6560724,12.1520225 65.7551248,12.3761634 C65.8541772,12.6003043 65.8586384,12.8550321 65.7674955,13.0825165 L65.7674955,13.0825165 C65.6269047,13.4656984 65.2678453,13.7247054 64.8605358,13.7367507 L64.8605358,13.7367507 C64.8605358,13.6186251 64.7154222,13.6186251 64.5793782,13.6186251 L64.5793782,13.6095385 Z M36.6268783,12.0193858 C36.5544541,11.7735282 36.5838247,11.5088147 36.708372,11.2848935 C36.8329192,11.0609723 37.0421646,10.8966822 37.2889589,10.8290429 L37.2889589,10.8290429 C37.5343568,10.7564831 37.7985753,10.7859087 38.0220779,10.9106893 C38.2455804,11.0354698 38.4095633,11.2451072 38.4770762,11.4923638 L38.4770762,11.4923638 C38.5495003,11.7382214 38.5201297,12.0029348 38.3955825,12.226856 C38.2710353,12.4507772 38.0617898,12.6150673 37.8149956,12.6827067 L37.5519772,12.6827067 C37.141493,12.6717729 36.7804931,12.4077493 36.6450175,12.0193858 L36.6268783,12.0193858 Z M58.1218247,11.6286626 L58.1218247,11.6286626 C57.6163093,11.4602091 57.2882117,10.9708763 57.3237001,10.4383197 L57.3237001,10.4383197 C57.4924327,9.93340193 57.9818514,9.6077593 58.5118174,9.6477866 L58.5118174,9.6477866 C59.0179909,9.80993535 59.3477402,10.2979774 59.309942,10.8290429 L59.309942,10.8290429 C59.1825945,11.2457862 58.8317618,11.5550974 58.4029822,11.6286626 L58.1399639,11.6286626 L58.1218247,11.6286626 Z M43.4834941,10.3020209 C43.4201346,10.0539146 43.4724958,9.79040725 43.6258673,9.58552885 C43.7792388,9.38065046 44.0170718,9.25650746 44.2725491,9.24797677 L44.2725491,9.24797677 C44.5211439,9.18486334 44.78489,9.23721867 44.9906833,9.39053117 C45.1964767,9.54384368 45.322452,9.78182396 45.333692,10.0385098 L45.333692,10.0385098 C45.3973549,10.2881246 45.3438834,10.5532008 45.1884635,10.7584562 C45.0330437,10.9637115 44.7926546,11.0867226 44.5355674,11.0925539 L44.408593,11.0925539 C43.8825564,11.0925539 43.5016333,10.8290429 43.5016333,10.3020209 L43.4834941,10.3020209 Z M51.2652089,10.8290429 C50.7643088,10.8290429 50.3582491,10.4222226 50.3582491,9.92038421 L50.3582491,9.92038421 C50.3547934,9.65195032 50.4699922,9.39572427 50.6729435,9.22043857 C50.8758947,9.04515287 51.1458238,8.96875019 51.4103224,9.01172551 L51.4103224,9.01172551 C51.9426452,9.06873307 52.3394345,9.52987092 52.3172822,10.0657696 L52.3172822,10.0657696 C52.2005997,10.5475632 51.7595371,10.8789799 51.2652089,10.8563027 L51.2652089,10.8290429 Z" id="形状" fill="#FFFFFF"></path>
                <path d="M51.9656007,94.0625359 C51.9781093,93.5112133 52.3448591,93.0308816 52.8734994,92.8734621 L52.8734994,92.8734621 C53.4249489,92.8859678 53.9053911,93.2526333 54.0628468,93.781152 L54.0628468,93.781152 C54.0475219,94.331483 53.6818891,94.8103518 53.154948,94.9702259 L53.0278422,94.9702259 C52.501261,95.1154562 52.1017855,94.7160727 51.9656007,94.0625359 Z M45.2380712,94.9702259 C44.952654,94.9496247 44.6897879,94.807607 44.5161533,94.580198 C44.3425188,94.3527891 44.2747991,94.0618389 44.3301725,93.781152 L44.3301725,93.781152 C44.3478603,93.4946009 44.4891755,93.2298616 44.7174335,93.0556589 C44.9456914,92.8814563 45.2383803,92.8149709 45.5195198,92.8734621 L45.5195198,92.8734621 C45.8061369,92.8911459 46.0709371,93.0324285 46.2451798,93.260634 C46.4194226,93.4888395 46.4859232,93.7814611 46.4274185,94.0625359 L46.4274185,94.0625359 C46.3429892,94.6376183 45.8151937,95.040423 45.2380712,94.9702259 Z M59.6282659,93.154846 C59.5229664,92.5799535 59.8612104,92.0163433 60.4181378,91.8386956 L60.4181378,91.8386956 C60.9931625,91.7334203 61.5569024,92.0715865 61.7345909,92.6283858 L61.7345909,92.6283858 C61.8398904,93.2032783 61.5016465,93.7668885 60.9447191,93.9445362 L60.6814284,93.9445362 C60.1979289,93.9325591 59.7751465,93.6155452 59.6282659,93.154846 L59.6282659,93.154846 Z M37.584485,93.4180761 C37.3113111,93.3471877 37.0819358,93.1620563 36.9550256,92.9100324 C36.8281154,92.6580085 36.8159785,92.363534 36.921719,92.1019257 L36.921719,92.1019257 C36.9948269,91.8282013 37.1817993,91.5989441 37.4352622,91.4722418 C37.688725,91.3455395 37.9843565,91.3335504 38.2472511,91.439312 L38.2472511,91.439312 C38.5187666,91.5122821 38.7458884,91.6982668 38.8709293,91.9500273 C38.9959702,92.2017879 39.0068984,92.4950992 38.9009382,92.7554624 L38.9009382,92.7554624 C38.7548609,93.2180824 38.3327481,93.5382323 37.8477756,93.5542296 L37.8477756,93.5542296 C37.7115908,93.5542296 37.584485,93.5542296 37.584485,93.4180761 L37.584485,93.4180761 Z M66.8823767,90.7766984 C66.6405207,90.2297285 66.8727059,89.5893651 67.4089579,89.3243945 L67.4089579,89.3243945 C67.9582862,89.0787552 68.6032879,89.3165448 68.8615959,89.8599315 L68.8615959,89.8599315 C69.1034518,90.4069014 68.8712667,91.0472649 68.3350146,91.3122354 L68.3350146,91.3122354 C68.2079088,91.3122354 68.071724,91.439312 67.9355392,91.439312 L67.9355392,91.439312 C67.4971792,91.4040544 67.10382,91.1565663 66.8823767,90.7766984 Z M30.1941894,90.6496218 L30.1941894,90.6496218 C29.6541474,90.388054 29.4206616,89.7441034 29.6676082,89.1973179 L29.6676082,89.1973179 C29.9292361,88.6574001 30.5733349,88.423968 31.1202461,88.6708577 L31.1202461,88.6708577 C31.6602882,88.9324255 31.893774,89.5763761 31.6468274,90.1231616 L31.6468274,90.1231616 C31.486588,90.4734732 31.1226385,90.6845154 30.7389287,90.6496218 L30.7389287,90.6496218 C30.4211641,90.7585446 30.3212953,90.7585446 30.1941894,90.631468 L30.1941894,90.6496218 Z M73.773328,87.2185539 C73.4914261,86.7364558 73.5861474,86.1228027 74.0003026,85.7480962 L74.0003026,85.7480962 C74.4852298,85.4775832 75.093825,85.5878657 75.4529406,86.0113262 L75.4529406,86.0113262 C75.7235158,86.4961419 75.6132079,87.1045972 75.18965,87.4636301 L75.18965,87.4636301 C75.0333955,87.5639506 74.8478923,87.6087169 74.6630687,87.5907067 L74.6630687,87.5907067 C74.3037569,87.6905044 73.9231806,87.5285141 73.746091,87.2004001 L73.773328,87.2185539 Z M23.4848179,86.5559402 C23.0241887,86.2192003 22.9084131,85.580585 23.2215273,85.1036363 L23.2215273,85.1036363 C23.5609255,84.6472527 24.1961434,84.5321459 24.6741652,84.8404062 L24.6741652,84.8404062 C25.1306539,85.1797264 25.2457871,85.8147983 24.9374559,86.2927101 L24.9374559,86.2927101 C24.738435,86.5264086 24.4538114,86.6703231 24.147584,86.6920937 L24.147584,86.6920937 C23.9088075,86.7993502 23.6278945,86.7365289 23.457581,86.5377864 L23.4848179,86.5559402 Z M79.8471704,82.5984121 C79.6542331,82.4059869 79.5458026,82.1447214 79.5458026,81.8722602 C79.5458026,81.5997989 79.6542331,81.3385334 79.8471704,81.1461082 L79.8471704,81.1461082 C80.2520265,80.7541503 80.8949522,80.7541503 81.2998083,81.1461082 L81.2998083,81.1461082 C81.6918565,81.5508712 81.6918565,82.1936491 81.2998083,82.5984121 L81.2998083,82.5984121 C81.0807775,82.7855149 80.7974486,82.8799361 80.5099364,82.8616422 L80.5099364,82.8616422 C80.2648622,82.8101588 80.0311072,82.7148333 79.8199334,82.5802583 L79.8471704,82.5984121 Z M17.5471603,81.4093383 C17.1551122,81.0045753 17.1551122,80.3617974 17.5471603,79.9570344 L17.5471603,79.9570344 C17.9520164,79.5650765 18.5949421,79.5650765 18.9997982,79.9570344 L18.9997982,79.9570344 C19.1927355,80.1494596 19.301166,80.4107251 19.301166,80.6831864 C19.301166,80.9556476 19.1927355,81.2169131 18.9997982,81.4093383 L18.9997982,81.4093383 C18.7696218,81.5757616 18.4939445,81.6676329 18.2099264,81.6725684 L18.2099264,81.6725684 C18.0830698,81.7415856 17.9319143,81.7499869 17.7981875,81.695453 C17.6644607,81.6409191 17.5623058,81.5292176 17.5199233,81.3911845 L17.5471603,81.4093383 Z M84.9949561,76.92535 C84.5384675,76.5860299 84.4233342,75.950958 84.7316655,75.4730462 L84.7316655,75.4730462 C85.0684828,75.0125229 85.7072451,74.8967739 86.1843034,75.2098161 L86.1843034,75.2098161 C86.6407921,75.5491362 86.7559253,76.1842081 86.4475941,76.66212 L86.4475941,76.66212 C86.2152034,76.9167268 85.8843944,77.058942 85.5396953,77.0524266 L85.5396953,77.0524266 C85.3559042,77.0584504 85.173919,77.0145331 85.0131141,76.92535 L84.9949561,76.92535 Z M12.5355594,75.3368927 L12.5355594,75.3368927 C12.2663077,74.854854 12.3767195,74.2496322 12.79885,73.8936657 L12.79885,73.8936657 C13.2837772,73.6231527 13.8923724,73.7334352 14.2514879,74.1568958 L14.2514879,74.1568958 C14.5147594,74.6429024 14.4053342,75.2464887 13.9881973,75.6091996 L13.9881973,75.6091996 C13.8319428,75.7095201 13.6464397,75.7542864 13.4616161,75.7362762 L13.4616161,75.7362762 C13.0621406,75.8724297 12.79885,75.6091996 12.5537173,75.3368927 L12.5355594,75.3368927 Z M89.0805004,70.3264443 C88.5404583,70.0648765 88.3069725,69.4209259 88.5539191,68.8741404 L88.5539191,68.8741404 C88.815547,68.3342226 89.4596458,68.1007904 90.006557,68.3476802 L90.006557,68.3476802 C90.5465991,68.609248 90.7800849,69.2531986 90.5331383,69.7999841 L90.5331383,69.7999841 C90.3728989,70.1502957 90.0089494,70.3613379 89.6252396,70.3264443 L89.6252396,70.3264443 C89.4345809,70.4444439 89.325633,70.4444439 89.0532634,70.3082905 L89.0805004,70.3264443 Z M8.70422677,68.5110644 L8.70422677,68.5110644 C8.45728022,67.9642789 8.69076602,67.3203283 9.23080803,67.0587605 L9.23080803,67.0587605 C9.7777193,66.8118707 10.4218181,67.0453028 10.683446,67.5852207 L10.683446,67.5852207 C10.9303925,68.1320062 10.6969067,68.7759568 10.1568647,69.0375246 L10.1568647,69.0375246 C10.0297589,69.0375246 9.89357409,69.1646011 9.75738929,69.1646011 L9.75738929,69.1646011 C9.30238318,69.1287633 8.89612997,68.865954 8.67698981,68.4656799 L8.70422677,68.5110644 Z M92.1219611,63.3644625 C91.8498539,63.2888357 91.6224976,63.1015588 91.496193,62.8490075 C91.3698883,62.5964563 91.3564461,62.3022469 91.459195,62.0392352 L91.459195,62.0392352 C91.5321819,61.7677821 91.7182094,61.5407125 91.9700278,61.4157004 C92.2218462,61.2906883 92.5152251,61.2797626 92.7756481,61.3856984 L92.7756481,61.3856984 C93.0415345,61.4631096 93.2622807,61.6493188 93.383353,61.8983244 C93.5044252,62.14733 93.5145323,62.4359097 93.4111772,62.6927719 L93.4111772,62.6927719 C93.2642967,63.1534711 92.8415142,63.470485 92.3580147,63.4824622 L92.3580147,63.4824622 C92.2879568,63.410428 92.1947169,63.365426 92.0947241,63.3553856 L92.1219611,63.3644625 Z M6.19842631,60.9863149 C6.09312683,60.4114224 6.43137076,59.8478122 6.98829819,59.6701645 L6.98829819,59.6701645 C7.56490394,59.5682152 8.12909484,59.9043339 8.31383032,60.4598547 L8.31383032,60.4598547 C8.4181937,61.037339 8.07544254,61.6019696 7.51487945,61.7760051 L7.25158882,61.7760051 C6.72894908,61.8212101 6.25903215,61.4579965 6.17118935,60.9409304 L6.19842631,60.9863149 Z M93.7017048,55.839713 C93.4150877,55.8220292 93.1502875,55.6807466 92.9760448,55.4525411 C92.8018021,55.2243356 92.7353015,54.931714 92.7938061,54.6506392 L92.7938061,54.6506392 C92.814412,54.3652876 92.9564624,54.1024819 93.1839236,53.9288873 C93.4113849,53.7552927 93.702402,53.6875885 93.9831534,53.7429492 L93.9831534,53.7429492 C94.2697705,53.760633 94.5345707,53.9019157 94.7088134,54.1301211 C94.8830562,54.3583266 94.9495568,54.6509482 94.8910522,54.932023 L94.8910522,54.932023 C94.8066228,55.5071055 94.2788273,55.9099101 93.7017048,55.839713 L93.7017048,55.839713 Z M5,53.2891043 C5.01250854,52.7377817 5.37925835,52.2574499 5.90789872,52.1000305 L5.90789872,52.1000305 C6.44334919,52.0778603 6.90410135,52.4749691 6.96106123,53.0077204 L6.96106123,53.0077204 C6.94855269,53.559043 6.58180288,54.0393748 6.05316251,54.1967942 L5.90789872,54.1967942 C5.42336748,54.1582042 5.0385989,53.7735241 5,53.2891043 Z M92.902754,47.0895821 L92.902754,47.0895821 C92.9123849,46.5372546 93.2802841,46.0554174 93.8106527,45.9005082 L93.8106527,45.9005082 C94.3621021,45.9130139 94.8425443,46.2796794 95,46.8081982 L95,46.8081982 C94.9903691,47.3605256 94.6224698,47.8423628 94.0921013,47.997272 L93.9740744,47.997272 C93.7037756,48.0524927 93.4230263,47.9818421 93.211086,47.8052658 C92.9991457,47.6286895 92.8790104,47.3653465 92.884596,47.0895821 L92.902754,47.0895821 Z M6.05316251,46.554045 C5.76728966,46.5389289 5.50230073,46.3996649 5.32775737,46.1728107 C5.153214,45.9459565 5.0865495,45.6541702 5.1452638,45.3740481 L5.1452638,45.3740481 C5.15991988,45.0862735 5.30047149,44.8195192 5.52956513,44.6446787 C5.75865876,44.4698383 6.0530905,44.4046206 6.33461112,44.4663582 L6.33461112,44.4663582 C6.62245192,44.4810109 6.88926759,44.6215302 7.06414823,44.8505711 C7.23902887,45.0796121 7.30426156,45.3739761 7.24250984,45.655432 L7.24250984,45.655432 C7.12637567,46.2112009 6.62000952,46.597651 6.05316251,46.5631219 L6.05316251,46.554045 Z M91.7134066,39.6919091 L91.7134066,39.6919091 C91.612278,39.1177813 91.9489887,38.5567259 92.5032785,38.3757587 L92.5032785,38.3757587 C93.0798843,38.2738095 93.6440752,38.6099281 93.8288107,39.165449 L93.8288107,39.165449 C93.9267513,39.7411768 93.5920128,40.3027926 93.0389388,40.4906763 L92.7665692,40.4906763 C92.257631,40.5377252 91.7952994,40.1930149 91.6952487,39.6919091 L91.7134066,39.6919091 Z M7.37869464,38.9022189 C7.10552076,38.8313305 6.87614538,38.6461991 6.74923521,38.3941752 C6.62232505,38.1421513 6.61018809,37.8476768 6.71592858,37.5860685 L6.71592858,37.5860685 C6.78903655,37.3123442 6.97600897,37.0830869 7.2294718,36.9563846 C7.48293464,36.8296823 7.77856609,36.8176932 8.04146071,36.9234548 L8.04146071,36.9234548 C8.31358975,36.9986061 8.5406581,37.1863808 8.66552607,37.439527 C8.79039405,37.6926733 8.80117201,37.9870872 8.69514779,38.2486821 L8.69514779,38.2486821 C8.54593877,38.7077217 8.12454315,39.0236957 7.64198527,39.0383724 L7.64198527,39.0383724 C7.48764249,39.0383724 7.36053667,39.0383724 7.36053667,38.9022189 L7.37869464,38.9022189 Z M89.343791,32.5483894 L89.343791,32.5483894 C89.0968444,32.0016039 89.3303302,31.3576532 89.8703722,31.0960855 L89.8703722,31.0960855 C90.4197005,30.8504462 91.0647022,31.0882358 91.3230102,31.6316225 L91.3230102,31.6316225 C91.568706,32.1808245 91.3308616,32.8256778 90.7873499,33.0839264 L90.7873499,33.0839264 C90.6602441,33.0839264 90.5240593,33.211003 90.3969535,33.211003 L90.3969535,33.211003 C89.935747,33.2604617 89.4979492,32.9971016 89.325633,32.5665432 L89.343791,32.5483894 Z M9.88449511,31.7586991 C9.3444531,31.4971314 9.1109673,30.8531807 9.35791385,30.3063952 L9.35791385,30.3063952 C9.61954177,29.7664774 10.2636405,29.5330453 10.8105518,29.7799351 L10.8105518,29.7799351 C11.3505938,30.0415028 11.5840796,30.6854535 11.3371331,31.232239 L11.3371331,31.232239 C11.2015172,31.6201884 10.8401435,31.8839305 10.4292343,31.8948526 L10.4292343,31.8948526 C10.2641959,31.7835812 10.0621824,31.7412332 9.86633713,31.7768529 L9.88449511,31.7586991 Z M85.6395642,26.0856371 C85.3748025,25.5981488 85.4885157,24.9918174 85.9119338,24.6333332 L85.9119338,24.6333332 C86.3946937,24.3678576 86.9975612,24.4777894 87.3554928,24.8965633 L87.3554928,24.8965633 C87.6298518,25.3807434 87.5190801,25.991757 87.0922022,26.3488672 L87.0922022,26.3488672 C86.9393788,26.457414 86.75192,26.5058836 86.5656209,26.4850206 L86.5656209,26.4850206 C86.2104768,26.5008582 85.8659512,26.3617549 85.6214062,26.1037909 L85.6395642,26.0856371 Z M13.7158277,25.0327168 C13.2509449,24.6986513 13.134501,24.0563497 13.4525371,23.5804129 L13.4525371,23.5804129 C13.7860544,23.1211032 14.4218639,23.0051646 14.896096,23.3171828 L14.896096,23.3171828 C15.3598196,23.6511556 15.4796768,24.2902471 15.1684657,24.7694867 L15.1684657,24.7694867 C14.9340332,25.0212103 14.6045775,25.1628437 14.2605669,25.1597933 L14.2605669,25.1597933 C14.0659175,25.1943634 13.8653605,25.1555548 13.6976697,25.0508706 L13.7158277,25.0327168 Z M80.9003329,20.2764215 C80.5093949,19.8747316 80.5093949,19.2348844 80.9003329,18.8331945 L80.9003329,18.8331945 C81.0928024,18.6403016 81.3541279,18.5318961 81.6266519,18.5318961 C81.8991758,18.5318961 82.1605014,18.6403016 82.3529708,18.8331945 L82.3529708,18.8331945 C82.5453609,19.0240663 82.6535693,19.2838303 82.6535693,19.554808 C82.6535693,19.8257858 82.5453609,20.0855498 82.3529708,20.2764215 L82.3529708,20.2764215 C82.13394,20.4635243 81.8506111,20.5579455 81.563099,20.5396516 L81.563099,20.5396516 C81.3204067,20.4994155 81.086783,20.4164367 80.8730959,20.2945753 L80.9003329,20.2764215 Z M18.6184808,19.1236553 C18.2264327,18.7188923 18.2264327,18.0761144 18.6184808,17.6713514 L18.6184808,17.6713514 C18.8109502,17.4784585 19.0722758,17.370053 19.3447998,17.370053 C19.6173237,17.370053 19.8786493,17.4784585 20.0711187,17.6713514 L20.0711187,17.6713514 C20.264056,17.8637766 20.3724865,18.1250421 20.3724865,18.3975034 C20.3724865,18.6699646 20.264056,18.9312301 20.0711187,19.1236553 L20.0711187,19.1236553 C19.851613,19.3099162 19.5686337,19.4042209 19.2812468,19.3868854 L19.2812468,19.3868854 C19.1087461,19.5048851 18.8454555,19.3778085 18.6184808,19.1236553 Z M75.3803087,15.2932038 L75.3803087,15.2932038 C74.9165851,14.959231 74.7967279,14.3201395 75.1079391,13.8408999 L75.1079391,13.8408999 C75.4473373,13.3845163 76.0825552,13.2694095 76.560577,13.5776698 L76.560577,13.5776698 C77.0254598,13.9117352 77.1419037,14.5540369 76.8238676,15.0299737 L76.8238676,15.0299737 C76.6248468,15.2636722 76.3402232,15.4075867 76.0339958,15.4293573 L76.0339958,15.4293573 C75.7956459,15.5501589 75.5053963,15.4898612 75.3349137,15.2841269 L75.3803087,15.2932038 Z M24.5379804,14.10413 C24.3778777,13.8774034 24.3155846,13.5958805 24.3650929,13.3227942 C24.4146012,13.0497079 24.5717604,12.8079515 24.8012711,12.6518261 L24.8012711,12.6518261 C25.2873895,12.3886152 25.8911146,12.4980152 26.253909,12.9150562 L26.253909,12.9150562 C26.5171805,13.4010628 26.4077553,14.0046491 25.9906184,14.3673601 L25.9906184,14.3673601 C25.8339529,14.4750115 25.6440272,14.5232866 25.4549581,14.5035136 L25.4549581,14.5035136 C25.2779607,14.5857784 25.0741624,14.5881485 24.8952988,14.5100222 C24.7164351,14.4318958 24.5797066,14.2807861 24.5198225,14.0950531 L24.5379804,14.10413 Z M68.8797539,11.4627523 L68.8797539,11.4627523 C68.3409159,11.2048483 68.1069922,10.5637223 68.3531726,10.0195253 L68.3531726,10.0195253 C68.6114806,9.47613861 69.2564823,9.23834895 69.8058106,9.48398825 L69.8058106,9.48398825 C70.3458526,9.74555601 70.5793384,10.3895066 70.3323918,10.9362921 L70.3323918,10.9362921 C70.1721524,11.2866038 69.8082029,11.4976459 69.4244931,11.4627523 L69.4244931,11.4627523 C69.1248865,11.5898289 68.9977807,11.4536754 68.8615959,11.4536754 L68.8797539,11.4627523 Z M31.1384041,10.2827554 C30.8862178,9.73618059 31.1210558,9.08850068 31.6649854,8.8304515 L31.6649854,8.8304515 C32.2118966,8.58356174 32.8559954,8.81699385 33.1176233,9.35691166 L33.1176233,9.35691166 C33.3633191,9.90611363 33.1254748,10.5509669 32.5819631,10.8092156 L32.5819631,10.8092156 C32.4548573,10.8092156 32.3186725,10.9362921 32.1915666,10.9362921 L32.1915666,10.9362921 C31.7263932,10.9799481 31.2888375,10.7093191 31.1202461,10.2736785 L31.1384041,10.2827554 Z M61.8889337,8.8304515 C61.6168266,8.75482471 61.3894703,8.56754778 61.2631656,8.31499654 C61.136861,8.06244531 61.1234187,7.76823593 61.2261677,7.50522421 L61.2261677,7.50522421 C61.2991545,7.23377115 61.485182,7.00670154 61.7370005,6.88168941 C61.9888189,6.75667728 62.2821977,6.74575162 62.5426208,6.85168746 L62.5426208,6.85168746 C62.8157947,6.92257585 63.0451701,7.10770725 63.1720802,7.35973112 C63.2989904,7.61175499 63.3111274,7.90622955 63.2053869,8.16783786 L63.2053869,8.16783786 C63.0585063,8.62853703 62.6357238,8.94555095 62.1522244,8.95752809 L62.1522244,8.95752809 C61.9978816,8.8213746 61.9978816,8.8213746 61.8707757,8.8213746 L61.8889337,8.8304515 Z M38.3925149,7.6413777 C38.2945742,7.06564985 38.6293127,6.50403404 39.1823868,6.3161504 L39.1823868,6.3161504 C39.7607793,6.2192638 40.3234807,6.55834831 40.5079189,7.11491754 L40.5079189,7.11491754 C40.6122823,7.69240184 40.2695311,8.25703241 39.708968,8.43106794 L39.4456774,8.43106794 C38.9190961,8.43106794 38.3925149,8.03168437 38.3925149,7.6413777 L38.3925149,7.6413777 Z M54.4986382,7.37814762 C54.212021,7.36046387 53.9472209,7.2191812 53.7729781,6.99097572 C53.5987354,6.76277025 53.5322348,6.47014868 53.5907394,6.18907381 L53.5907394,6.18907381 C53.6084272,5.90252262 53.7497424,5.63778333 53.9780004,5.46358068 C54.2062583,5.28937803 54.4989472,5.2228927 54.7800868,5.28138388 L54.7800868,5.28138388 C55.0679276,5.29603659 55.3347432,5.43655588 55.5096239,5.66559683 C55.6845045,5.89463778 55.7497372,6.18900181 55.6879855,6.47045769 L55.6879855,6.47045769 C55.6080294,7.04421238 55.0829123,7.44805574 54.5077171,7.37814762 L54.4986382,7.37814762 Z M45.9189953,6.18907381 C45.9315038,5.63775121 46.2982536,5.15741945 46.826894,5 L46.826894,5 C47.3793485,5.0096287 47.8612965,5.37744333 48.0162413,5.90768993 L48.0162413,5.90768993 C48.0037328,6.45901253 47.6369829,6.93934429 47.1083426,7.09676374 L46.9721578,7.09676374 C46.7073853,7.13969324 46.4371768,7.06337202 46.2340154,6.8882732 C46.0308541,6.71317438 45.915536,6.45722151 45.9189953,6.18907381 L45.9189953,6.18907381 Z" id="形状" fill="#FFFFFF"></path>
                <path d="M48.8108316,97.8127632 C48.8083933,97.498734 48.9326031,97.1967363 49.1558803,96.9738284 C49.3791575,96.7509205 49.6830217,96.6255522 50.0000001,96.6255615 L50.0000001,96.6255615 C50.3185611,96.6231243 50.6247889,96.7474213 50.8500522,96.9705953 C51.0753155,97.1937693 51.2007762,97.4971569 51.1983162,97.8127632 L51.1983162,97.8127632 C51.2007762,98.1283695 51.0753155,98.431757 50.8500522,98.654931 C50.6247889,98.878105 50.3185611,99.002402 50.0000001,98.9999648 L50.0000001,98.9999648 C49.3413837,98.8640257 48.8108316,98.4743336 48.8108316,97.8127632 Z M41.3556594,98.2115179 L41.3556594,98.2115179 C41.0509195,98.1686266 40.7783569,98.0009462 40.6044226,97.7493576 C40.4304884,97.4977689 40.3711646,97.1853892 40.4409143,96.8883772 L40.4409143,96.8883772 C40.4818553,96.5871696 40.6491812,96.3170595 40.9017196,96.1445105 C41.1542579,95.9719615 41.4685623,95.9129935 41.7672947,95.9821164 L41.7672947,95.9821164 C42.0707517,96.0275841 42.3415305,96.1958401 42.5149607,96.4466997 C42.6883909,96.6975593 42.7489011,97.0084991 42.6820397,97.3052571 L42.6820397,97.3052571 C42.5581332,97.8558126 42.0524394,98.238258 41.4837237,98.2115179 L41.3465119,98.2115179 L41.3556594,98.2115179 Z M57.3179606,97.3052571 C57.2482108,97.0082451 57.3075346,96.6958654 57.4814689,96.4442767 C57.6554031,96.1926881 57.9279658,96.0250077 58.2327056,95.9821164 L58.2327056,95.9821164 C58.5311758,95.9158936 58.8439998,95.9760498 59.0957904,96.1480879 C59.347581,96.320126 59.5155019,96.5884429 59.5590859,96.8883772 L59.5590859,96.8883772 C59.6288357,97.1853892 59.5695119,97.4977689 59.3955776,97.7493576 C59.2216434,98.0009462 58.9490808,98.1686266 58.6443409,98.2115179 L58.3790648,98.2115179 C57.8498247,98.189275 57.4079239,97.804311 57.3179606,97.2871319 L57.3179606,97.3052571 Z M65.550666,95.3296086 C65.4304832,95.0506716 65.4344073,94.7344908 65.5614767,94.4585658 C65.688546,94.1826408 65.9270142,93.9724782 66.2184299,93.8795913 L66.2184299,93.8795913 C66.498486,93.7572278 66.8178105,93.7584137 67.0969328,93.8828538 C67.3760552,94.0072938 67.5887275,94.2432861 67.682022,94.5320991 L67.682022,94.5320991 C67.8022049,94.8110361 67.7982807,95.1272169 67.6712114,95.4031419 C67.5441421,95.6790668 67.3056738,95.8892294 67.0142581,95.9821164 L67.0142581,95.9821164 C66.8861938,95.9821164 66.7489821,96.1180555 66.6209178,96.1180555 L66.6209178,96.1180555 C66.2275774,95.9639911 65.6970253,95.6649251 65.5598135,95.3114834 L65.550666,95.3296086 Z M32.8393829,95.9821164 C32.5444035,95.8941669 32.3019786,95.6845586 32.1741116,95.4069018 C32.0462447,95.1292449 32.0453364,94.8104667 32.171619,94.5320991 L32.171619,94.5320991 C32.2649135,94.2432861 32.4775859,94.0072938 32.7567082,93.8828538 C33.0358306,93.7584137 33.355155,93.7572278 33.6352111,93.8795913 L33.6352111,93.8795913 C33.9283875,93.970054 34.1687978,94.1799434 34.2962573,94.4567157 C34.4237169,94.733488 34.42616,95.050943 34.302975,95.3296086 L34.302975,95.3296086 C34.1153073,95.7601589 33.7116155,96.0601196 33.2418708,96.1180555 L33.2418708,96.1180555 C33.1414727,96.009758 32.9965351,95.9529886 32.8485304,95.9639911 L32.8393829,95.9821164 Z M73.3991786,91.9039428 C73.1046423,91.3510561 73.2782145,90.667115 73.8016664,90.3179864 L73.8016664,90.3179864 C74.3569811,90.0272784 75.044241,90.1994564 75.3933228,90.7167411 L75.3933228,90.7167411 C75.691304,91.2663573 75.5167041,91.9504165 74.990835,92.2936349 L74.990835,92.2936349 C74.8368592,92.4020109 74.6479869,92.4504041 74.4602829,92.429574 L74.4602829,92.429574 C73.9388782,92.4114488 73.5363904,92.2755097 73.4083261,91.8858176 L73.3991786,91.9039428 Z M24.9908704,92.2936349 C24.7160289,92.1468183 24.5165665,91.8918199 24.4416555,91.5915031 C24.3667444,91.2911863 24.4233546,90.9734925 24.59753,90.7167411 L24.59753,90.7167411 C24.7461389,90.4450586 25.0027268,90.2473878 25.3051132,90.1716315 C25.6074996,90.0958752 25.9280873,90.1489473 26.1891864,90.3179864 L26.1891864,90.3179864 C26.4639723,90.4670578 26.663581,90.722884 26.7399723,91.0238949 C26.8163635,91.3249057 26.7626193,91.6438413 26.5916742,91.9039428 L26.5916742,91.9039428 C26.3738827,92.271489 25.9580345,92.4774846 25.53057,92.429574 L25.53057,92.429574 C25.3409063,92.4418856 25.1529633,92.3873098 25.0000178,92.2755097 L24.9908704,92.2936349 Z M80.4427155,87.2910753 C80.2372325,87.0644861 80.1370882,86.7629043 80.1666485,86.4597069 C80.1962087,86.1565096 80.3527637,85.8794926 80.5982222,85.6960563 L80.5982222,85.6960563 C80.8225923,85.4939367 81.121895,85.3937063 81.424028,85.4195106 C81.7261611,85.445315 82.0037337,85.5948148 82.1898786,85.8319954 L82.1898786,85.8319954 C82.3975825,86.0518688 82.5020846,86.3483148 82.4777065,86.6484903 C82.4533283,86.9486658 82.3023297,87.224745 82.0618143,87.4088892 L82.0618143,87.4088892 C81.8214761,87.5595707 81.5489872,87.6526609 81.2659861,87.6807674 L81.2659861,87.6807674 C80.9552936,87.6574624 80.6662445,87.5142783 80.4610104,87.2820127 L80.4427155,87.2910753 Z M17.8101217,87.4179518 C17.572036,87.2321807 17.4228979,86.9564863 17.3985923,86.6572051 C17.3742868,86.357924 17.4770145,86.0621524 17.6820574,85.841058 L17.6820574,85.841058 C17.8686417,85.5933644 18.1527908,85.4360241 18.4634996,85.4083542 C18.7742084,85.3806844 19.0821244,85.485299 19.3103036,85.6960563 L19.3103036,85.6960563 C19.5478732,85.8837189 19.6971287,86.1598854 19.7230771,86.459808 C19.7490254,86.7597306 19.6493845,87.0570333 19.4475153,87.2820127 L19.4475153,87.2820127 C19.2150355,87.5395737 18.8815029,87.6849668 18.5327703,87.6807674 L18.5327703,87.6807674 C18.2964087,87.627755 18.0706917,87.5358549 17.8650064,87.4088892 L17.8101217,87.4179518 Z M86.5623599,81.3641297 C86.323766,81.1766817 86.1744866,80.8994654 86.1502036,80.5987431 C86.1259206,80.2980208 86.2288162,80.0008176 86.4342956,79.7781733 L86.4342956,79.7781733 C86.6218059,79.5422958 86.9000813,79.3945409 87.2021643,79.3704609 C87.5042472,79.3463808 87.8027878,79.4481556 88.025952,79.6512968 L88.025952,79.6512968 C88.2629934,79.8372967 88.4120905,80.1119347 88.4380616,80.4104059 C88.4640328,80.7088771 88.3645775,81.0047434 88.1631638,81.2281906 L88.1631638,81.2281906 C87.9292688,81.483813 87.5966648,81.6288014 87.2484187,81.6269453 L87.2484187,81.6269453 C86.9977823,81.6400926 86.7538589,81.5440903 86.5806548,81.3641297 L86.5623599,81.3641297 Z M11.6996247,81.2281906 C11.4919208,81.0083172 11.3874187,80.7118712 11.4117969,80.4116957 C11.436175,80.1115201 11.5871736,79.835441 11.8276891,79.6512968 L11.8276891,79.6512968 C12.051201,79.4451113 12.3518582,79.3414314 12.6562865,79.3655598 C12.9607148,79.3896882 13.2409105,79.5394053 13.4284929,79.7781733 L13.4284929,79.7781733 C13.6329368,80.0020088 13.7342731,80.2999632 13.7082514,80.6007343 C13.6822297,80.9015055 13.5311915,81.1780284 13.2912811,81.3641297 L13.2912811,81.3641297 C13.0484131,81.5079438 12.7768436,81.5976274 12.4954529,81.6269453 L12.4954529,81.6269453 C12.1873729,81.5982422 11.9038823,81.4480141 11.7087722,81.2100653 L11.6996247,81.2281906 Z M91.6209001,74.6396746 C91.3268179,74.4968696 91.1124589,74.2314276 91.0363622,73.9158377 C90.9602655,73.6002479 91.0303805,73.2674785 91.2275597,73.0084051 L91.2275597,73.0084051 C91.3761686,72.7367226 91.6327565,72.5390518 91.9351429,72.4632955 C92.2375293,72.3875392 92.558117,72.4406113 92.8192161,72.6096504 L92.8192161,72.6096504 C93.0961267,72.7567198 93.297634,73.0126208 93.3742461,73.3145017 C93.4508581,73.6163825 93.3954767,73.9362736 93.2217039,74.1956068 L93.2217039,74.1956068 C93.0039124,74.563153 92.5880642,74.7691486 92.1605997,74.721238 L92.1605997,74.721238 C91.9742344,74.7274097 91.7900256,74.6802113 91.6300475,74.5852989 L91.6209001,74.6396746 Z M6.6410846,74.2499824 C6.35096006,73.6965775 6.52376025,73.0156785 7.04357242,72.664026 L7.04357242,72.664026 C7.59888706,72.3733181 8.28614698,72.545496 8.63522881,73.0627808 L8.63522881,73.0627808 C8.93044539,73.6107235 8.760746,74.2910451 8.24188844,74.6396746 L8.24188844,74.6396746 C8.08719909,74.7465219 7.89891636,74.7947641 7.71133631,74.7756137 L7.71133631,74.7756137 C7.30139781,74.7323592 6.92275159,74.5383242 6.65023205,74.2318572 L6.6410846,74.2499824 Z M95.4719768,67.1358351 C95.1788003,67.0453725 94.9383901,66.835483 94.8109305,66.5587107 C94.683471,66.2819384 94.6810279,65.9644835 94.8042129,65.6858179 L94.8042129,65.6858179 C94.8955224,65.3953607 95.1073768,65.1571802 95.3867402,65.0309029 C95.6661036,64.9046255 95.9865305,64.9022051 96.2678049,65.0242475 L96.2678049,65.0242475 C96.5609814,65.1147101 96.8013916,65.3245996 96.9288512,65.6013719 C97.0563107,65.8781442 97.0587538,66.1955991 96.9355688,66.4742648 L96.9355688,66.4742648 C96.7525565,66.9084277 96.3464064,67.210215 95.8744646,67.2627117 L95.8744646,67.2627117 C95.7702703,67.160942 95.627123,67.1081719 95.4811242,67.1177099 L95.4719768,67.1358351 Z M3.08272634,66.3383256 C2.94346668,66.0550634 2.93857383,65.7251146 3.06937413,65.4379215 C3.20017443,65.1507284 3.45311816,64.9360416 3.75963768,64.8520579 L3.75963768,64.8520579 C4.03969379,64.7296945 4.35901824,64.7308803 4.63814057,64.8553204 C4.9172629,64.9797604 5.12993526,65.2157527 5.22322976,65.5045657 L5.22322976,65.5045657 C5.34673877,65.7820243 5.34554181,66.098387 5.21993677,66.3749205 C5.09433172,66.651454 4.85613011,66.8621538 4.56461332,66.954583 L4.56461332,66.954583 C4.42740157,66.954583 4.29933726,67.0905221 4.1621255,67.0905221 L4.1621255,67.0905221 C3.65603798,67.1278238 3.20111986,66.7859144 3.10102124,66.2930126 L3.08272634,66.3383256 Z M97.8960511,58.9613627 C97.5920237,58.9208014 97.3193849,58.7550275 97.1452205,58.5048314 C96.9710561,58.2546354 96.9115361,57.9432462 96.9813061,57.6472846 L96.9813061,57.6472846 C97.0248901,57.3473504 97.192811,57.0790334 97.4446016,56.9069953 C97.6963922,56.7349572 98.0092163,56.674801 98.3076864,56.7410238 L98.3076864,56.7410238 C98.6124263,56.7839151 98.8849889,56.9515955 99.0589232,57.2031841 C99.2328574,57.4547728 99.2921812,57.7671525 99.2224315,58.0641645 L99.2224315,58.0641645 C99.1054216,58.6190584 98.595237,59.0049001 98.0241155,58.9704253 L97.8960511,58.9704253 L97.8960511,58.9613627 Z M0.823306055,58.0551019 C0.753556279,57.7580899 0.812880132,57.4457102 0.986814359,57.1941215 C1.16074859,56.9425329 1.43331125,56.7748525 1.73805111,56.7319612 L1.73805111,56.7319612 C2.0375873,56.6657199 2.35143806,56.7256689 2.60464616,56.8974905 C2.85785426,57.0693122 3.02768548,57.3375795 3.07357889,57.638222 L3.07357889,57.638222 C3.14334885,57.9341836 3.08382886,58.2455728 2.90966448,58.4957688 C2.7355001,58.7459649 2.46286127,58.9117388 2.15883383,58.9523001 L1.89355777,58.9523001 C1.35249488,58.9463649 0.893682259,58.5567445 0.805011154,58.0279141 L0.823306055,58.0551019 Z M97.6124802,49.4456244 C97.6100201,49.1300181 97.7354808,48.8266305 97.9607441,48.6034565 C98.1860075,48.3802825 98.4922352,48.2559855 98.8107962,48.2584227 L98.8107962,48.2584227 C99.1277746,48.2584134 99.4316389,48.3837817 99.6549161,48.6066896 C99.8781933,48.8295975 100.002403,49.1315952 99.9999648,49.4456244 L99.9999648,49.4456244 C100,50.0977748 99.4690328,50.6278478 98.8107962,50.632826 L98.8107962,50.632826 C98.1489845,50.632826 97.6124802,50.1012977 97.6124802,49.4456244 L97.6124802,49.4456244 Z M3.55067769e-05,49.4456244 C-0.00242453367,49.1300181 0.123036134,48.8266305 0.348299461,48.6034565 C0.573562787,48.3802825 0.879790574,48.2559855 1.19835153,48.2584227 L1.19835153,48.2584227 C1.51691248,48.2559855 1.82314027,48.3802825 2.04840359,48.6034565 C2.27366692,48.8266305 2.39912759,49.1300181 2.39666755,49.4456244 L2.39666755,49.4456244 C2.39666755,50.1012977 1.86016319,50.632826 1.19835153,50.632826 L1.19835153,50.632826 C0.536539864,50.632826 3.55067769e-05,50.1012977 3.55067769e-05,49.4456244 L3.55067769e-05,49.4456244 Z M96.9630112,41.2892772 L96.9630112,41.2892772 C96.8961685,40.9935753 96.9568878,40.6836527 97.1305365,40.4341975 C97.3041852,40.1847422 97.5750141,40.0183788 97.8777562,39.975199 L97.8777562,39.975199 C98.1764886,39.9060762 98.490793,39.9650441 98.7433313,40.1375931 C98.9958697,40.3101421 99.1631956,40.5802522 99.2041366,40.8814598 L99.2041366,40.8814598 C99.2739065,41.1774214 99.2143865,41.4888106 99.0402222,41.7390067 C98.8660578,41.9892027 98.593419,42.1549767 98.2893915,42.195538 L97.9783782,42.195538 C97.43889,42.2176732 96.9746633,41.8211897 96.9172739,41.2892772 L96.9630112,41.2892772 Z M1.74719856,42.195538 C1.44317112,42.1549767 1.17053229,41.9892027 0.996367915,41.7390067 C0.822203537,41.4888106 0.762683546,41.1774214 0.832453506,40.8814598 L0.832453506,40.8814598 C0.873394522,40.5802522 1.04072041,40.3101421 1.29325876,40.1375931 C1.54579711,39.9650441 1.86010151,39.9060762 2.15883383,39.975199 L2.15883383,39.975199 C2.46157598,40.0183788 2.73240486,40.1847422 2.90605355,40.4341975 C3.07970224,40.6836527 3.1404216,40.9935753 3.07357889,41.2892772 L3.07357889,41.2892772 C2.95307359,41.8419802 2.44517288,42.2260947 1.87526287,42.195538 L1.73805111,42.195538 L1.74719856,42.195538 Z M94.7035909,33.2416813 C94.5804059,32.9630157 94.582849,32.6455607 94.7103086,32.3687884 C94.8377681,32.0920161 95.0781784,31.8821267 95.3713548,31.791664 L95.3713548,31.791664 C95.6516932,31.6722479 95.9697524,31.6748933 96.2480275,31.7989557 C96.5263027,31.9230181 96.7392386,32.1571042 96.8349469,32.4441718 L96.8349469,32.4441718 C96.9551298,32.7231088 96.9512056,33.0392896 96.8241362,33.3152145 C96.6970669,33.5911395 96.4585987,33.8013021 96.167183,33.894189 L96.167183,33.894189 C96.0299712,33.894189 95.9019069,34.0301282 95.7646952,34.0301282 L95.7646952,34.0301282 C95.2880938,33.9894929 94.8764143,33.6835971 94.7035909,33.2416813 L94.7035909,33.2416813 Z M3.75963768,34.0391908 C3.46812089,33.9467616 3.22991928,33.7360617 3.10431424,33.4595283 C2.97870919,33.1829948 2.97751223,32.8666321 3.10102124,32.5891735 L3.10102124,32.5891735 C3.18979409,32.29693 3.40136466,32.0567535 3.68162089,31.9300726 C3.96187713,31.8033917 4.28363965,31.8024918 4.56461332,31.9276031 L4.56461332,31.9276031 C4.85613011,32.0200323 5.09433172,32.2307321 5.21993677,32.5072656 C5.34554181,32.7837991 5.34673877,33.1001618 5.22322976,33.3776204 L5.22322976,33.3776204 C5.04183091,33.813025 4.63481873,34.1154529 4.1621255,34.1660673 L4.1621255,34.1660673 C4.05262422,34.0683957 3.9059745,34.0221672 3.75963768,34.0391908 L3.75963768,34.0391908 Z M91.2641495,25.8828436 C90.9650932,25.3305029 91.1394635,24.6434168 91.6666373,24.2968872 L91.6666373,24.2968872 C92.221952,24.0061792 92.9092119,24.1783572 93.2582937,24.6956419 L93.2582937,24.6956419 C93.5562749,25.2452581 93.381675,25.9293173 92.8558059,26.2725357 L92.8558059,26.2725357 C92.7018301,26.3809117 92.5129578,26.4293049 92.3252538,26.4084749 L92.3252538,26.4084749 C91.8911141,26.4387534 91.4733231,26.238694 91.2275597,25.8828436 L91.2641495,25.8828436 Z M7.21737398,26.2725357 C6.94253253,26.1257191 6.74307009,25.8707207 6.66815907,25.5704039 C6.59324805,25.2700871 6.64985816,24.9523933 6.82403361,24.6956419 L6.82403361,24.6956419 C6.97059389,24.4218391 7.22725623,24.2222648 7.53053281,24.1462855 C7.8338094,24.0703061 8.15537595,24.1250179 8.41569,24.2968872 L8.41569,24.2968872 C8.69047592,24.4459586 8.89008461,24.7017848 8.96647587,25.0027957 C9.04286713,25.3038066 8.98912288,25.6227421 8.81817782,25.8828436 L8.81817782,25.8828436 C8.60038632,26.2503898 8.18453814,26.4563854 7.75707356,26.4084749 L7.75707356,26.4084749 C7.55451935,26.4373834 7.34845569,26.3887757 7.18078418,26.2725357 L7.21737398,26.2725357 Z M86.4800329,19.1583885 C86.2723289,18.9385151 86.1678268,18.6420691 86.192205,18.3418936 C86.2165832,18.041718 86.3675817,17.7656389 86.6080972,17.5814947 L86.6080972,17.5814947 C86.8316091,17.3753092 87.1322663,17.2716293 87.4366946,17.2957577 C87.741123,17.3198861 88.0213186,17.4696032 88.208901,17.7083712 L88.208901,17.7083712 C88.413345,17.9322067 88.5146813,18.2301611 88.4886595,18.5309322 C88.4626378,18.8317034 88.3115996,19.1082264 88.0716893,19.2943276 L88.0716893,19.2943276 C87.8288213,19.4381417 87.5572518,19.5278253 87.2758611,19.5571432 L87.2758611,19.5571432 C86.9673244,19.5354069 86.6805545,19.391719 86.4800329,19.1583885 L86.4800329,19.1583885 Z M11.8734263,19.2943276 C11.6348324,19.1068796 11.485553,18.8296633 11.46127,18.528941 C11.436987,18.2282187 11.5398826,17.9310155 11.745362,17.7083712 L11.745362,17.7083712 C11.9328722,17.4724937 12.2111477,17.3247388 12.5132306,17.3006588 C12.8153136,17.2765787 13.1138541,17.3783535 13.3370184,17.5814947 L13.3370184,17.5814947 C13.5740597,17.7674946 13.7231568,18.0421326 13.749128,18.3406038 C13.7750991,18.639075 13.6756439,18.9349413 13.4742301,19.1583885 L13.4742301,19.1583885 C13.2403352,19.4140109 12.9077312,19.5589993 12.5594851,19.5571781 L12.5594851,19.5571781 C12.305618,19.5096317 12.0614366,19.4208269 11.8368365,19.2943276 L11.8734263,19.2943276 Z M80.5982222,13.3583193 C80.3611808,13.1723194 80.2120837,12.8976814 80.1861126,12.5992102 C80.1601414,12.300739 80.2595967,12.0048728 80.4610104,11.7814256 L80.4610104,11.7814256 C80.6502132,11.5450446 80.9300248,11.3971498 81.2335624,11.373092 C81.5371,11.3490342 81.8370856,11.4509755 82.0618143,11.654549 L82.0618143,11.654549 C82.2998999,11.8403201 82.4490381,12.1160146 82.4733436,12.4152957 C82.4976492,12.7145769 82.3949215,13.0103484 82.1898786,13.2314428 L82.1898786,13.2314428 C81.9573987,13.4890038 81.6238662,13.634397 81.2751335,13.6301976 L81.2751335,13.6301976 C81.0355997,13.578153 80.8067147,13.4862224 80.5982222,13.3583193 L80.5982222,13.3583193 Z M17.7003523,13.0955037 C17.4926483,12.8756304 17.3881463,12.5791844 17.4125244,12.2790088 C17.4369026,11.9788333 17.5879012,11.7027541 17.8284166,11.5186099 L17.8284166,11.5186099 C18.0518849,11.3107408 18.3540216,11.2068059 18.6594315,11.2327411 C18.9648414,11.2586763 19.2447177,11.4120353 19.4292204,11.654549 L19.4292204,11.654549 C19.6233674,11.8728555 19.7202431,12.1596192 19.6978506,12.4497272 C19.6754582,12.7398351 19.5356978,13.008671 19.3103036,13.1951924 L19.3103036,13.1951924 C19.0674356,13.3390065 18.7958661,13.4286901 18.5144754,13.458008 L18.5144754,13.458008 C18.2017753,13.4528359 17.9046212,13.3219923 17.6912048,13.0955037 L17.7003523,13.0955037 Z M73.8108139,8.66388841 C73.5322526,8.5207928 73.3288195,8.26643251 73.2518942,7.96504938 C73.1749689,7.66366625 73.2319062,7.34407583 73.4083261,7.08699462 L73.4083261,7.08699462 C73.5548863,6.81319182 73.8115487,6.61361747 74.1148253,6.53763814 C74.4181019,6.46165882 74.7396684,6.51637054 74.9999825,6.68823987 L74.9999825,6.68823987 C75.2790717,6.83323372 75.4825449,7.08921417 75.559387,7.39200149 C75.6362291,7.69478881 75.5791535,8.01567107 75.4024703,8.27419627 L75.4024703,8.27419627 C75.1846788,8.64174246 74.7688306,8.84773806 74.341366,8.79982753 L74.341366,8.79982753 C74.2041543,8.79982753 73.9388782,8.66388841 73.8108139,8.66388841 L73.8108139,8.66388841 Z M24.6066774,8.13825715 C24.3114609,7.59031437 24.4811603,6.90999284 25.0000178,6.56136336 L25.0000178,6.56136336 C25.555274,6.26332229 26.2482152,6.43200862 26.6008217,6.9510555 L26.6008217,6.9510555 C26.8909462,7.50446042 26.718146,8.18535944 26.1983338,8.5370119 L26.1983338,8.5370119 C26.0417925,8.63922407 25.8541496,8.68409708 25.6677817,8.66388841 L25.6677817,8.66388841 C25.4506399,8.7337333 25.2140734,8.71215701 25.0134524,8.60420962 C24.8128314,8.49626223 24.6657658,8.31141909 24.6066774,8.09294411 L24.6066774,8.13825715 Z M66.2275774,5.11134608 C65.934401,5.02088342 65.6939907,4.81099397 65.5665312,4.53422167 C65.4390716,4.25744938 65.4366285,3.93999442 65.5598135,3.6613288 L65.5598135,3.6613288 C65.6511231,3.37087161 65.8629775,3.13269116 66.1423408,3.0064138 C66.4217042,2.88013644 66.7421312,2.877716 67.0234056,2.99975842 L67.0234056,2.99975842 C67.316582,3.09022108 67.5569922,3.30011054 67.6844518,3.57688283 C67.8119113,3.85365513 67.8143544,4.17111009 67.6911695,4.4497757 L67.6911695,4.4497757 C67.5065752,4.88271604 67.1012653,5.18387899 66.6300652,5.23822259 L66.6300652,5.23822259 C66.4717077,5.23822259 66.3225919,5.16435619 66.2275774,5.03884522 L66.2275774,5.11134608 Z M32.1807665,4.4497757 C32.0605836,4.1708387 32.0645078,3.8546579 32.1915771,3.57873292 C32.3186465,3.30280794 32.5571147,3.09264534 32.8485304,2.99975842 L32.8485304,2.99975842 C33.1300787,2.88069025 33.4492196,2.88457802 33.7277277,3.01046879 C34.0062358,3.13635956 34.218366,3.37261597 34.3121225,3.6613288 L34.3121225,3.6613288 C34.4323053,3.9402658 34.4283812,4.25644661 34.3013118,4.53237158 C34.1742425,4.80829656 33.9357743,5.01845917 33.6443586,5.11134608 L33.6443586,5.11134608 C33.5162943,5.11134608 33.3790825,5.23822259 33.2510182,5.23822259 L33.2510182,5.23822259 C32.7665246,5.17674054 32.3553458,4.85641923 32.1807665,4.40446266 L32.1807665,4.4497757 Z M58.2510005,2.99975842 C57.9469731,2.95919713 57.6743343,2.79342319 57.5001699,2.54322713 C57.3260055,2.29303107 57.2664855,1.98164185 57.3362555,1.68568026 L57.3362555,1.68568026 C57.3771965,1.38447268 57.5445224,1.11436257 57.7970607,0.941813569 C58.0495991,0.769264564 58.3639035,0.710296621 58.6626358,0.779419464 L58.6626358,0.779419464 C58.9666632,0.819980753 59.2393021,0.985754697 59.4134664,1.23595075 C59.5876308,1.48614681 59.6471508,1.79753604 59.5773808,2.09349762 L59.5773808,2.09349762 C59.4568756,2.6462007 58.9489748,3.03031515 58.3790648,2.99975842 L58.2510005,2.99975842 L58.2510005,2.99975842 Z M40.4317669,2.09349762 C40.3619969,1.79753604 40.4215169,1.48614681 40.5956813,1.23595075 C40.7698457,0.985754697 41.0424845,0.819980753 41.3465119,0.779419464 L41.3465119,0.779419464 C41.6463046,0.710316617 41.9616087,0.769090242 42.2155527,0.941411229 C42.4694967,1.11373222 42.6387468,1.38376686 42.6820397,1.68568026 L42.6820397,1.68568026 C42.7488824,1.9813821 42.6881631,2.29130469 42.5145144,2.54075993 C42.3408657,2.79021518 42.0700368,2.95657862 41.7672947,2.99975842 L41.5020186,2.99975842 C41.2302296,3.01204819 40.9646681,2.91672841 40.7638956,2.73481896 C40.5631231,2.55290951 40.44363,2.29935146 40.4317669,2.03005937 L40.4317669,2.09349762 Z M48.8108316,1.18723682 C48.8083933,0.87320766 48.9326031,0.571209927 49.1558803,0.348302043 C49.3791575,0.125394158 49.6830217,2.58862347e-05 50.0000001,3.51774518e-05 L50.0000001,3.51774518e-05 C50.3185611,-0.00240204613 50.6247889,0.121894975 50.8500522,0.345068985 C51.0753155,0.568242996 51.2007762,0.871630522 51.1983162,1.18723682 L51.1983162,1.18723682 C51.1983255,1.50127528 51.0717836,1.80232119 50.8467889,2.02352749 C50.6217942,2.24473378 50.3169692,2.36779154 50.0000001,2.36537586 L50.0000001,2.36537586 C49.6715146,2.3659927 49.3574029,2.23196562 49.132162,1.99508144 C48.9069211,1.75819726 48.7906164,1.43955856 48.8108316,1.11473596 L48.8108316,1.18723682 Z" id="形状" fill="#FFFFFF"></path>
            </g>
            <g id="AO">
                <use fill="#000000" xlink:href="#path-1"></use>
                <use fill="#FFFFFF" xlink:href="#path-1"></use>
            </g>
            <g id="CHAIN">
                <use fill="#000000" xlink:href="#path-2"></use>
                <use fill="#FFFFFF" xlink:href="#path-2"></use>
            </g>
        </g>
    </g>
</svg>