<?xml version="1.0" encoding="UTF-8"?>
<svg width="369px" height="90px" viewBox="0 0 369 90" version="1.1" xmlns="http://www.w3.org/2000/svg" xmlns:xlink="http://www.w3.org/1999/xlink">
    <title>编组 2</title>
    <g id="页面-1" stroke="none" stroke-width="1" fill="none" fill-rule="evenodd">
        <g id="编组-2">
            <g id="ao-chain" fill-rule="nonzero">
                <path d="M44.561971,13.0048828 C53.2304106,12.8526548 61.5762073,16.2656126 67.6200996,22.4343505 C73.7634244,28.3373036 77.1588631,36.5082677 76.9942836,44.9928855 C76.9942836,50.0219349 75.9183588,54.1366117 73.7665092,57.3369158 C71.7499238,60.5089719 68.1773147,62.3677953 64.4014176,62.2095594 C61.5807931,62.3187891 58.8646443,61.1421805 57.0275444,59.0152708 C55.9075639,57.7876053 54.0122691,57.6524009 52.7268761,58.7084747 L52.7268761,58.7084747 C50.1617796,60.9900686 46.803943,62.1936109 43.3617845,62.0651848 C39.016624,62.1994319 34.8221035,60.4778287 31.8418125,57.3369158 C28.7686077,54.1336039 27.2320052,50.1723251 27.2320052,45.1462835 C27.0821385,40.680411 28.7425985,36.3413293 31.8418125,33.1000258 C34.7224913,29.9841386 38.7916867,28.2155154 43.0526455,28.2273823 C47.1480015,28.1611041 51.0493608,29.9557545 53.6452007,33.1000258 L53.7997701,33.2534239 L53.7997701,33.2534239 C53.917047,33.2375379 54.0257371,33.1836047 54.1089091,33.1000258 L54.1089091,33.1000258 L54.1089091,32.6488551 C54.1139024,30.9664911 55.4869023,29.6038966 57.1821139,29.5989412 L57.1821139,29.5989412 C58.8773255,29.6038966 60.2503255,30.9664911 60.2553187,32.6488551 L60.2553187,32.6488551 L60.2553187,51.237088 C60.2813648,52.6457335 60.706769,54.018601 61.4827822,55.1983667 C62.2465373,56.425551 63.4740007,56.8767217 65.119711,56.8767217 C69.1082096,56.8767217 71.1054897,52.915443 71.1115512,44.9928855 C71.235567,38.0541512 68.4534169,31.3753146 63.4285391,26.5490273 C58.4893075,21.6035186 51.7124197,18.9002482 44.6983558,19.0776405 C37.687198,18.9308003 30.9191849,21.6292207 25.9590802,26.5490273 C20.9445783,31.3808939 18.1698701,38.0576685 18.2942527,44.9928855 C18.1778996,51.9301777 20.9588389,58.6061076 25.9772648,63.4367437 C30.9202229,68.3812568 37.7006913,71.0813782 44.7165404,70.8991071 C47.4231616,70.8813491 50.1126249,70.4709552 52.6995992,69.6809462 C54.2242646,69.1531215 55.9004936,69.8863341 56.536559,71.3593012 L56.536559,71.3593012 C57.0972645,72.8753063 56.4402505,74.5690531 54.9999566,75.3205799 C54.9597454,75.3205019 54.9212951,75.3369451 54.8937357,75.366005 C54.8661763,75.3950649 54.8519662,75.4341494 54.8544795,75.473978 C51.6247196,76.5117815 48.247644,77.0266909 44.8529253,76.9989349 C35.6333108,76.9989349 27.8048215,73.949021 21.5038424,67.6957951 C15.2028632,61.4425692 12.1569354,54.0162995 12.0023659,44.9928855 C11.8965746,36.490624 15.3427223,28.3243624 21.522027,22.4343505 C27.6684367,16.0457734 35.3423565,13.0048828 44.561971,13.0048828 Z M36.8789589,53.1139581 C40.8673149,56.9217909 47.1746408,56.9217909 51.1629967,53.1139581 C53.1753105,51.0317563 54.2314852,48.2170437 54.0816321,45.3357752 C54.2300333,42.457416 53.173887,39.646044 51.1629967,37.5666157 C47.1746408,33.7587829 40.8673149,33.7587829 36.8789589,37.5666157 C34.871804,39.6483707 33.8162807,42.4580841 33.9603235,45.3357752 C33.7417675,48.2271129 34.8080399,51.0687361 36.8789589,53.1139581 L36.8789589,53.1139581 Z" id="形状" fill="#FFFFFF"></path>
                <circle id="椭圆形" fill="#E40B7B" cx="63" cy="68" r="4"></circle>
                <path d="M44.8786065,81.1864312 C44.8747036,80.7249271 45.2146731,80.3330117 45.6709417,80.2730306 L45.6709417,80.2730306 C46.1310965,80.2691163 46.5218661,80.6100827 46.5816718,81.0676892 L46.5816718,81.0676892 C46.5855747,81.5291933 46.2456051,81.9211087 45.7893366,81.9810898 L45.7893366,81.9810898 C45.5566628,82.0345317 45.3125355,81.9732037 45.1324519,81.8160715 C44.9523682,81.6589393 44.8580281,81.4249373 44.8786065,81.1864312 L44.8786065,81.1864312 Z M39.1865431,81.7162036 L39.1865431,81.7162036 C38.7302746,81.6562225 38.390305,81.2643071 38.3942079,80.802803 L38.3942079,80.802803 C38.4540136,80.3451965 38.8447832,80.0042302 39.304938,80.0081444 L39.304938,80.0081444 C39.7648249,80.0638833 40.1097265,80.4569661 40.1063805,80.9215451 L40.1063805,80.9215451 C40.1063805,81.4513174 39.8422688,81.7162036 39.1956504,81.7162036 L39.1865431,81.7162036 Z M51.2537174,80.6566589 C51.1786715,80.4269407 51.2082418,80.1757385 51.3345636,79.9698636 C51.4608855,79.7639886 51.6711533,79.624311 51.9094431,79.5879802 L51.9094431,79.5879802 C52.1397818,79.5160157 52.3899538,79.5482882 52.5946369,79.6763709 C52.7993199,79.8044536 52.9381939,80.015631 52.9749973,80.2547626 L52.9749973,80.2547626 C53.0468717,80.4846701 53.0145595,80.7346277 52.8866035,80.9385512 C52.7586475,81.1424748 52.5479313,81.2798317 52.3101644,81.3143073 L52.1644475,81.3143073 C51.6180094,81.3143073 51.2537174,81.0494211 51.2537174,80.6566589 Z M32.8478614,80.2547626 C32.4363455,80.0794926 32.2125345,79.630558 32.3196379,79.1952179 L32.3196379,79.1952179 C32.4943955,78.7824954 32.9420176,78.5580281 33.3760849,78.6654455 L33.3760849,78.6654455 C33.7876007,78.8407156 34.0114118,79.2896502 33.9043083,79.7249903 L33.9043083,79.7249903 C33.8278582,80.1055518 33.498933,80.3823558 33.1119731,80.3917727 L33.1119731,80.3917727 C33.1119731,80.2547626 32.9844709,80.2547626 32.8478614,80.2547626 L32.8478614,80.2547626 Z M57.346502,78.9303317 C57.1910771,78.4546657 57.4191111,77.9381132 57.8747255,77.7337769 L57.8747255,77.7337769 C58.3464879,77.5787962 58.8585414,77.8079207 59.0586746,78.2635493 L59.0586746,78.2635493 C59.2140995,78.7392153 58.9860655,79.2557678 58.5304512,79.4601041 L58.2663394,79.4601041 C57.8798317,79.4623256 57.5204166,79.2612948 57.3191801,78.9303317 L57.346502,78.9303317 Z M26.8916863,77.7337769 C26.5148593,77.4632894 26.3533451,76.9810076 26.490965,76.5372221 L26.490965,76.5372221 C26.7606617,76.1592901 27.2415335,75.9973024 27.6840215,76.1353258 L27.6840215,76.1353258 C28.0584777,76.4075665 28.2194174,76.8881328 28.0847428,77.3318806 L28.0847428,77.3318806 C27.9649952,77.6520859 27.6205361,77.8268059 27.2924076,77.7337769 L27.2924076,77.7337769 C27.155798,77.861653 27.0191885,77.7337769 26.8916863,77.7337769 L26.8916863,77.7337769 Z M63.1660676,76.1353258 C63.0436415,75.9428619 63.002682,75.7094223 63.0522423,75.4866042 C63.1018025,75.2637861 63.2378015,75.0699376 63.4301793,74.947905 L63.4301793,74.947905 C63.6228073,74.8221923 63.8577436,74.7794357 64.0821306,74.8292548 C64.3065176,74.8790739 64.5015095,75.0172845 64.6232358,75.2127912 L64.6232358,75.2127912 C64.8664868,75.6335283 64.7383574,76.1716436 64.3318021,76.436748 L64.3318021,76.436748 C64.2227815,76.5351891 64.0767754,76.5817818 63.9310809,76.5646241 L63.9310809,76.5646241 C63.6099032,76.6055985 63.2961798,76.4464685 63.1387457,76.1627279 L63.1660676,76.1353258 Z M21.3271252,74.1441125 L21.3271252,74.1441125 C21.1522561,74.0042621 21.0403954,73.8000969 21.0164476,73.5770722 C20.9924998,73.3540474 21.0584528,73.1306769 21.199623,72.9566917 L21.199623,72.9566917 C21.3378958,72.7772155 21.5426354,72.6614192 21.7673156,72.6356171 C21.9919957,72.6098149 22.2175345,72.6761982 22.3926794,72.8196816 L22.3926794,72.8196816 C22.5681289,72.9611715 22.6801929,73.1668961 22.7041168,73.3914111 C22.7280406,73.6159262 22.6618555,73.8407561 22.5201817,74.0162364 L22.5201817,74.0162364 C22.3949577,74.2669763 22.1347193,74.4207169 21.8553487,74.4089987 L21.8553487,74.4089987 C21.7278464,74.2811226 21.5912369,74.2811226 21.3271252,74.1441125 Z M68.3299074,72.4177853 C68.0626885,72.0673448 68.0626885,71.5808051 68.3299074,71.2303645 L68.3299074,71.2303645 C68.6832365,70.9639549 69.1696349,70.9639549 69.5229639,71.2303645 L69.5229639,71.2303645 C69.7901828,71.5808051 69.7901828,72.0673448 69.5229639,72.4177853 L69.5229639,72.4177853 C69.3774284,72.5573082 69.1933537,72.6496154 68.9947404,72.6826715 L68.9947404,72.6826715 C68.7389137,72.6853993 68.4915708,72.5907417 68.3025855,72.4177853 L68.3299074,72.4177853 Z M16.5640066,69.6775835 L16.5640066,69.6775835 C16.2983759,69.3232184 16.2983759,68.8353938 16.5640066,68.4810287 L16.5640066,68.4810287 C16.9173356,68.2146191 17.403734,68.2146191 17.757063,68.4810287 L17.757063,68.4810287 C18.0226938,68.8353938 18.0226938,69.3232184 17.757063,69.6775835 L17.757063,69.6775835 C17.6115275,69.8171064 17.4274529,69.9094136 17.2288396,69.9424697 L17.2288396,69.9424697 C16.9765123,69.9750597 16.7252484,69.8749498 16.5640066,69.6775835 L16.5640066,69.6775835 Z M72.8289143,67.8507823 C72.6534648,67.7092924 72.5414008,67.5035678 72.5174769,67.2790528 C72.4935531,67.0545377 72.5597382,66.8297078 72.7014121,66.6542275 L72.7014121,66.6542275 C72.839685,66.4747513 73.0444245,66.358955 73.2691047,66.3331528 C73.4937848,66.3073506 73.7193236,66.3737339 73.8944685,66.5172174 L73.8944685,66.5172174 C74.2154132,66.8048261 74.2702603,67.2881106 74.0219708,67.6407001 L74.0219708,67.6407001 C73.8990094,67.8903235 73.6438249,68.0467269 73.3662451,68.0425964 L73.3662451,68.0425964 C73.147389,68.046265 72.9390675,67.9485386 72.8015924,67.7777102 L72.8289143,67.8507823 Z M12.7207254,64.526004 C12.4893235,64.1183108 12.6034864,63.6010972 12.9848371,63.3294492 L12.9848371,63.3294492 C13.3913384,63.0973688 13.9070398,63.2118665 14.1778936,63.5943354 L14.1778936,63.5943354 C14.3032388,63.7875283 14.3458705,64.0231534 14.296197,64.2481984 C14.2465235,64.4732433 14.108717,64.668807 13.9137819,64.7908902 L13.9137819,64.7908902 C13.8119521,64.8957239 13.666918,64.9464655 13.5221679,64.9279003 L13.5221679,64.9279003 C13.1730095,64.9638767 12.8397641,64.7728924 12.6934035,64.452932 L12.7207254,64.526004 Z M76.4080837,62.6992028 C76.0312567,62.4287153 75.8697425,61.9464335 76.0073625,61.502648 L76.0073625,61.502648 C76.2770591,61.124716 76.7579309,60.9627283 77.2004189,61.1007517 L77.2004189,61.1007517 C77.577246,61.3712392 77.7387601,61.853521 77.6011402,62.2973065 L77.6011402,62.2973065 C77.4811472,62.62199 77.1306808,62.797737 76.7996977,62.6992028 L76.4080837,62.6992028 Z M9.6788868,58.7167761 L9.6788868,58.7167761 C9.5278901,58.2413419 9.7546436,57.7276899 10.2071102,57.5202213 L10.2071102,57.5202213 C10.6813855,57.3643407 11.1964279,57.5930434 11.4001667,58.0499937 L11.4001667,58.0499937 C11.5511634,58.5254279 11.3244098,59.0390799 10.8719432,59.2465485 L10.6078315,59.2465485 C10.1980643,59.2279051 9.8312262,58.9861332 9.6515649,58.6163021 L9.6788868,58.7167761 Z M79.0583084,56.8899749 C78.6432058,56.7179897 78.4150912,56.2681781 78.5209776,55.8304302 L78.5209776,55.8304302 C78.6962993,55.4135163 79.1495408,55.1881737 79.5865319,55.3006578 L79.5865319,55.3006578 C79.9980478,55.4759279 80.2218588,55.9248625 80.1147554,56.3602025 L80.1147554,56.3602025 C80.0294971,56.7354442 79.705686,57.0079445 79.3224201,57.026985 L79.3224201,57.026985 C79.2545893,56.9497646 79.1603432,56.9008737 79.0583084,56.8899749 L79.0583084,56.8899749 Z M7.8301046,52.505652 C7.754903,52.2770482 7.7845896,52.0267733 7.9111675,51.8222442 C8.0377454,51.6177152 8.2481961,51.4799678 8.4858303,51.4461072 L8.4858303,51.4461072 C8.716169,51.3741428 8.966341,51.4064152 9.171024,51.534498 C9.3757071,51.6625807 9.514581,51.873758 9.5513845,52.1128897 L9.5513845,52.1128897 C9.6232589,52.3427972 9.5909467,52.5927548 9.4629907,52.7966783 C9.3350347,53.0006019 9.1243185,53.1379588 8.8865515,53.1724344 L8.749942,53.1724344 C8.2729322,53.1949889 7.8595576,52.8441848 7.8027827,52.3686419 L7.8301046,52.505652 Z M80.6885153,50.6788507 C80.2322468,50.6188696 79.8922773,50.2269543 79.8961801,49.7654501 L79.8961801,49.7654501 C79.9559859,49.3078437 80.3467554,48.9668773 80.8069103,48.9707916 L80.8069103,48.9707916 C81.2631788,49.0307727 81.6031483,49.4226881 81.5992455,49.8841922 L81.5992455,49.8841922 C81.5992455,50.4139646 81.1985242,50.6788507 80.6885153,50.6788507 Z M7.0741986,46.0296416 L7.0741986,46.0296416 C7.0708527,45.5650626 7.4157542,45.1719798 7.8756411,45.116241 L7.8756411,45.116241 C8.3357959,45.1123267 8.7265655,45.4532931 8.7863712,45.9108995 L8.7863712,45.9108995 C8.7902741,46.3724037 8.4503046,46.764319 7.994036,46.8243001 L7.994036,46.8243001 C7.7305095,46.8485772 7.4694862,46.7566923 7.278896,46.5725578 C7.0883058,46.3884234 6.986999,46.1302513 7.0013402,45.8652295 L7.0741986,46.0296416 Z M80.2877941,43.3716458 C80.2844482,42.9070668 80.6293497,42.513984 81.0892366,42.4582452 L81.0892366,42.4582452 C81.5524573,42.4548895 81.9443909,42.8008023 81.9999667,43.2620377 L81.9999667,43.2620377 C82.0038696,43.7235419 81.6639001,44.1154573 81.2076315,44.1754384 L81.2076315,44.1754384 C80.9291247,44.2985478 80.6039901,44.2398297 80.3857951,44.0270179 C80.1676001,43.8142061 80.1000048,43.4898834 80.2149357,43.2072337 L80.2877941,43.3716458 Z M8.1397528,40.4487639 C7.6798659,40.393025 7.3349644,39.9999422 7.3383103,39.5353632 L7.3383103,39.5353632 C7.3938862,39.0741278 7.7858197,38.728215 8.2490404,38.7315707 L8.2490404,38.7315707 C8.705309,38.7915518 9.0452785,39.1834672 9.0413757,39.6449713 L9.0413757,39.6449713 C8.9815699,40.1025778 8.5908004,40.4435441 8.1306455,40.4396298 L8.1397528,40.4487639 Z M79.4954589,37.2609957 L79.4954589,37.2609957 C79.4235845,37.0310882 79.4558967,36.7811306 79.5838527,36.5772071 C79.7118087,36.3732835 79.9225249,36.2359266 80.1602919,36.201451 L80.1602919,36.201451 C80.3895272,36.1293659 80.638754,36.1617728 80.8420813,36.290104 C81.0454087,36.4184352 81.182364,36.6297693 81.2167388,36.8682334 L81.2167388,36.8682334 C81.2919404,37.0968372 81.2622538,37.3471121 81.1356759,37.5516412 C81.009098,37.7561702 80.7986473,37.8939176 80.5610131,37.9277782 L80.3970817,37.9277782 C79.8688582,37.9277782 79.4863516,37.662892 79.4863516,37.2609957 L79.4954589,37.2609957 Z M9.4603115,34.0823616 C9.0446165,33.9065258 8.8199327,33.4519553 8.932088,33.0136829 L8.932088,33.0136829 C9.1068457,32.6009603 9.5544677,32.376493 9.988535,32.4839105 L9.988535,32.4839105 C10.4000509,32.6591805 10.6238619,33.1081151 10.5167585,33.5434552 L10.5167585,33.5434552 C10.4403083,33.9240167 10.1113831,34.2008207 9.7244233,34.2102377 L9.7244233,34.2102377 C9.5240626,34.0458255 9.5240626,34.0458255 9.3601312,33.9179495 L9.4603115,34.0823616 Z M77.6466767,31.2873557 C77.49568,30.8119215 77.7224336,30.2982694 78.1749002,30.0908009 L78.1749002,30.0908009 C78.6513285,29.9406179 79.1643524,30.172352 79.3679566,30.6297072 L79.3679566,30.6297072 C79.5180129,31.1026122 79.2908641,31.6132316 78.8397332,31.817128 L78.5665141,31.817128 C78.108004,31.8715565 77.6814283,31.5732554 77.5738183,31.1229436 L77.6466767,31.2873557 Z M11.8464245,28.2365976 C11.4695974,27.9661101 11.3080833,27.4838284 11.4457032,27.0400428 L11.4457032,27.0400428 C11.7160662,26.6630566 12.198228,26.5043257 12.6387597,26.6472806 L12.6387597,26.6472806 C13.0131404,26.9153638 13.1715223,27.3955968 13.0303736,27.8347014 L13.0303736,27.8347014 C12.886683,28.1467407 12.5804983,28.3514624 12.2380384,28.3644737 L12.2380384,28.3644737 C12.0376778,28.2000616 11.9010683,28.0721855 11.7735661,28.0721855 L11.8464245,28.2365976 Z M74.8598425,25.7156119 L74.8598425,25.7156119 C74.630289,25.3056794 74.7485082,24.7879421 75.1330615,24.5190571 L75.1330615,24.5190571 C75.3249628,24.3962721 75.5577199,24.3551925 75.7798865,24.4048981 C76.0020532,24.4546037 76.1953349,24.5910014 76.3170107,24.7839433 L76.3170107,24.7839433 C76.4423559,24.9771362 76.4849875,25.2127613 76.4353141,25.4378063 C76.3856406,25.6628512 76.2478341,25.8584149 76.052899,25.9804981 L76.052899,25.9804981 C75.9479532,26.0796407 75.8043138,26.1265441 75.661285,26.1083742 L75.661285,26.1083742 C75.2741021,26.1580107 74.9066352,25.9238314 74.7869841,25.5511998 L74.8598425,25.7156119 Z M15.1523749,22.79273 C14.9725757,22.6542393 14.8571922,22.4479234 14.8331013,22.2218404 C14.8090104,21.9957574 14.8783154,21.7696459 15.0248726,21.5961752 L15.0248726,21.5961752 C15.1612755,21.4163882 15.3654402,21.300825 15.5894014,21.2766354 C15.8133626,21.2524458 16.0373792,21.3217619 16.2088218,21.4682991 L16.2088218,21.4682991 C16.3872126,21.605307 16.5024919,21.8090873 16.5282466,22.0329491 C16.5540013,22.256811 16.4880239,22.4815668 16.3454313,22.6557199 L16.3454313,22.6557199 C16.2176981,22.9052496 15.960253,23.060877 15.6805983,23.0576162 L15.6805983,23.0576162 C15.4802377,22.756194 15.216126,22.756194 15.0795165,22.6283179 L15.1523749,22.79273 Z M71.1531708,20.6645065 L71.1531708,20.6645065 C70.8875401,20.3101415 70.8875401,19.8223168 71.1531708,19.4679517 L71.1531708,19.4679517 C71.5064999,19.2015421 71.9928983,19.2015421 72.3462273,19.4679517 L72.3462273,19.4679517 C72.611858,19.8223168 72.611858,20.3101415 72.3462273,20.6645065 L72.3462273,20.6645065 C72.2043775,20.8091963 72.0185271,20.9023939 71.8180038,20.9293927 L71.8180038,20.9293927 C71.6956877,20.9896324 71.5536821,20.9952125 71.4270415,20.9447557 C71.3004009,20.8942989 71.2009255,20.7925066 71.1531708,20.6645065 L71.1531708,20.6645065 Z M19.38727,18.0156448 C19.1216393,17.6612797 19.1216393,17.173455 19.38727,16.81909 L19.38727,16.81909 C19.740599,16.5526804 20.2269974,16.5526804 20.5803265,16.81909 L20.5803265,16.81909 C20.8459572,17.173455 20.8459572,17.6612797 20.5803265,18.0156448 L20.5803265,18.0156448 C20.4347909,18.1551677 20.2507163,18.2474749 20.052103,18.2805309 L20.052103,18.2805309 C19.756979,18.2477626 19.4892289,18.0919459 19.3144116,17.8512327 L19.38727,18.0156448 Z M66.5266618,16.4171937 C66.3477103,16.2785153 66.2322525,16.0731754 66.2065258,15.8478365 C66.1807991,15.6224975 66.2469883,15.3962973 66.3900522,15.2206389 L66.3900522,15.2206389 C66.5311285,15.0446749 66.7362516,14.9322823 66.9601102,14.9082883 C67.1839688,14.8842944 67.4081414,14.9506735 67.5831087,15.0927628 L67.5831087,15.0927628 C67.8488459,15.3875142 67.875328,15.8276459 67.6468598,16.1523075 L67.6468598,16.1523075 C67.5230216,16.3999631 67.267261,16.5531569 66.9911341,16.5450698 L66.9911341,16.5450698 C66.7837977,16.5126352 66.5939899,16.4093868 66.4538033,16.2527816 L66.5266618,16.4171937 Z M24.4236076,14.0240841 C24.3011816,13.8316201 24.2602221,13.5981805 24.3097823,13.3753624 C24.3593426,13.1525443 24.4953415,12.9586959 24.6877194,12.8366633 L24.6877194,12.8366633 C25.0942207,12.6045829 25.6099221,12.7190805 25.8807758,13.1015495 L25.8807758,13.1015495 C26.1121777,13.5092427 25.9980148,14.0264563 25.6166641,14.2981043 L25.6166641,14.2981043 C25.5070548,14.3955107 25.3615217,14.4419525 25.2159428,14.4259804 L25.2159428,14.4259804 C24.8257598,14.4860685 24.4529926,14.2420754 24.3507492,13.859672 L24.4236076,14.0240841 Z M61.3628219,13.1106835 C60.9835711,12.8419997 60.8214627,12.3579436 60.9621006,11.9141287 L60.9621006,11.9141287 C61.2317973,11.5361967 61.7126691,11.3742089 62.1551571,11.5122324 L62.1551571,11.5122324 C62.5310411,11.7833881 62.689308,12.2669638 62.5467711,12.7087872 L62.5467711,12.7087872 C62.4306007,13.0321865 62.0830097,13.2084952 61.7544358,13.1106835 L61.2717489,13.1106835 L61.3628219,13.1106835 Z M29.9790615,10.98246 C29.8280648,10.5070258 30.0548183,9.9933738 30.5072849,9.7859052 L30.5072849,9.7859052 C30.9813291,9.6344658 31.4934794,9.8618843 31.7003414,10.3156776 L31.7003414,10.3156776 C31.8557663,10.7913436 31.6277323,11.3078962 31.1721179,11.5122324 L30.9080062,11.5122324 C30.4646831,11.4973958 30.0718442,11.2216023 29.906203,10.8089139 L29.9790615,10.98246 Z M55.6707585,10.5805638 C55.255656,10.4085786 55.0275414,9.958767 55.1334278,9.5210191 L55.1334278,9.5210191 C55.3087495,9.1041051 55.7619909,8.8787625 56.198982,8.9912467 L56.198982,8.9912467 C56.6104979,9.1665168 56.8343089,9.6154514 56.7272055,10.0507914 L56.7272055,10.0507914 C56.6447814,10.4277614 56.319341,10.7016328 55.9348703,10.7175739 L55.9348703,10.7175739 C55.7731768,10.6859994 55.64291,10.5659437 55.5979001,10.4070177 L55.6707585,10.5805638 Z M35.9989876,8.8451026 C35.923727,8.615125 35.9545627,8.3634733 36.0831052,8.158615 C36.2116477,7.9537567 36.4245256,7.8170019 36.6638206,7.7855579 L36.6638206,7.7855579 C36.8917561,7.7101358 37.1412993,7.7399094 37.3452303,7.8668585 C37.5491613,7.9938075 37.686506,8.2048754 37.7202676,8.4432063 L37.7202676,8.4432063 C37.7953422,8.6742882 37.764615,8.9268438 37.636339,9.1330397 C37.5080629,9.3392357 37.2953875,9.4779351 37.0554346,9.5118851 L36.9279324,9.5118851 C36.5090212,9.5084749 36.1373344,9.2416838 35.9989876,8.8451026 Z M49.5051155,9.1099888 C49.048847,9.0500077 48.7088775,8.6580923 48.7127803,8.1965882 L48.7127803,8.1965882 C48.7725861,7.7389817 49.1633556,7.3980153 49.6235105,7.4019296 L49.6235105,7.4019296 C50.0833974,7.4576684 50.4282989,7.8507512 50.424953,8.3153302 L50.424953,8.3153302 C50.3651472,8.7729367 49.9743777,9.1139031 49.5142228,9.1099888 L49.5051155,9.1099888 Z M42.355884,7.913434 C42.3519811,7.4519298 42.6919506,7.0600145 43.1482192,7.0000334 L43.1482192,7.0000334 C43.6083741,6.9961191 43.9991436,7.3370855 44.0589493,7.7946919 L44.0589493,7.7946919 C44.0628522,8.256196 43.7228827,8.6481114 43.2666141,8.7080925 L43.2666141,8.7080925 C42.8064593,8.7120068 42.4156897,8.3710404 42.355884,7.913434 Z" id="形状" fill="#FFFFFF"></path>
                <path d="M43.53526,86 L43.53526,86 C43.0015456,85.9385529 42.6057709,85.474629 42.6283002,84.9368693 L42.6283002,84.9368693 C42.6852012,84.4035494 43.1454768,84.0060168 43.6803735,84.0282106 L43.6803735,84.0282106 C44.1812736,84.0282106 44.5873333,84.435031 44.5873333,84.9368693 L44.5873333,84.9368693 C44.4512893,85.6001902 44.0612966,86 43.5261904,86 L43.53526,86 Z M49.6028208,84.8096571 C49.5398254,84.5605966 49.5920828,84.2963565 49.7451087,84.0901776 C49.8981345,83.8839987 50.1356698,83.7577875 50.3918758,83.7465264 L50.3918758,83.7465264 C50.641963,83.6831459 50.9072458,83.7366217 51.1134058,83.8919727 C51.3195657,84.0473237 51.4444302,84.2878416 51.4530187,84.5461461 L51.4530187,84.5461461 C51.5166816,84.7957608 51.4632101,85.0608371 51.3077903,85.2660924 C51.1523704,85.4713478 50.9119813,85.5943589 50.6548941,85.6001902 L50.5279198,85.6001902 C50.0696699,85.6040841 49.6805181,85.2648879 49.62096,84.8096571 L49.6028208,84.8096571 Z M36.4156258,85.0731681 L36.4156258,85.0731681 C35.9116521,84.9041194 35.5866184,84.413784 35.6265708,83.8828252 L35.6265708,83.8828252 C35.7953034,83.3779075 36.2847221,83.0522649 36.8146881,83.0922922 L36.8146881,83.0922922 C37.3229021,83.2557608 37.6504739,83.749925 37.6037431,84.2826351 L37.6037431,84.2826351 C37.4772413,84.6982611 37.1251457,85.0051582 36.6967834,85.0731681 L36.4246954,85.0731681 L36.4156258,85.0731681 Z M56.4594366,83.3558032 C56.3870125,83.1099456 56.4163831,82.8452321 56.5409303,82.6213109 C56.6654775,82.3973897 56.874723,82.2330996 57.1215173,82.1654603 L57.1215173,82.1654603 C57.3668899,82.0786618 57.6376549,82.1016359 57.8649627,82.2285409 C58.0922705,82.3554459 58.2542213,82.5740551 58.3096346,82.8287811 L58.3096346,82.8287811 C58.3820587,83.0746387 58.3526881,83.3393522 58.2281409,83.5632734 C58.1035936,83.7871946 57.8943482,83.9514847 57.6475539,84.019124 L57.3845356,84.019124 C56.9757802,84.0031609 56.6173059,83.7409844 56.4775758,83.3558032 L56.4594366,83.3558032 Z M29.5680796,82.9559934 C29.3209611,82.8949615 29.1151585,82.7242681 29.0091739,82.4924349 C28.9031893,82.2606017 28.9086132,81.9929822 29.0239037,81.7656505 L29.0239037,81.7656505 C29.2869221,81.2386284 29.8220283,80.9751174 30.212021,81.2386284 L30.212021,81.2386284 C30.4558633,81.3040179 30.6570518,81.4764857 30.7592447,81.7077328 C30.8614375,81.93898 30.853648,82.2041457 30.7380577,82.4289713 L30.7380577,82.4289713 C30.6047999,82.8189776 30.242468,83.0839753 29.8310979,83.0922922 L29.8310979,83.0922922 C29.728949,83.0832701 29.634457,83.0343033 29.5680796,82.9559934 Z M62.9169902,80.8479052 C62.7593961,80.628137 62.7077701,80.3494324 62.7761631,80.0876464 C62.8445562,79.8258604 63.025851,79.6082359 63.2707045,79.4940037 L63.2707045,79.4940037 C63.4936482,79.352382 63.7671163,79.3151039 64.0197228,79.3919005 C64.2723293,79.468697 64.4790038,79.6519465 64.5857961,79.8938135 L64.5857961,79.8938135 C64.7276971,80.1160008 64.7662242,80.3890007 64.691369,80.6418924 C64.6165137,80.8947841 64.4356647,81.1026057 64.1958034,81.2113687 L64.1958034,81.2113687 C64.0908277,81.3159417 63.9436138,81.3662222 63.7967411,81.3476675 L63.7967411,81.3476675 C63.4067484,81.2386284 63.0076861,81.1114162 62.8716422,80.8479052 L62.9169902,80.8479052 Z M23.2375004,79.7847745 C22.8317804,79.474228 22.719189,78.9102161 22.9744821,78.4672194 L22.9744821,78.4672194 C23.2844479,78.0607394 23.8474053,77.947937 24.2895738,78.2037084 L24.2895738,78.2037084 C24.6589985,78.5287503 24.7430382,79.0722043 24.4891049,79.4940037 L24.4891049,79.4940037 C24.3131345,79.7554006 24.0144901,79.9067221 23.7000499,79.8938135 L23.7000499,79.8938135 C23.4370316,79.8938135 23.3009876,79.7575147 23.1740133,79.7575147 L23.2375004,79.7847745 Z M68.8575766,77.1496643 C68.5711124,76.7573916 68.6015043,76.2169235 68.9301334,75.8593689 L68.9301334,75.8593689 C69.3428039,75.5642519 69.9101399,75.622649 70.2542947,75.9956677 L70.2542947,75.9956677 C70.5518611,76.4051025 70.4931727,76.9734861 70.1182507,77.3132228 L70.1182507,77.3132228 C69.9733177,77.4520214 69.7900051,77.5438494 69.592214,77.5767339 L69.592214,77.5767339 C69.2874068,77.5582735 69.0029212,77.4174022 68.803159,77.1860106 L68.8575766,77.1496643 Z M17.5690019,75.4322993 C17.200477,75.085608 17.1424937,74.5201802 17.4329579,74.1056576 L17.4329579,74.1056576 C17.7801612,73.7444174 18.3382768,73.6904295 18.7480496,73.9784454 L18.7480496,73.9784454 C19.1152226,74.3220798 19.1732787,74.8843398 18.8840936,75.2960005 L18.8840936,75.2960005 C18.7480496,75.5595115 18.4850313,75.5595115 18.2220129,75.5595115 L18.2220129,75.5595115 C17.9996029,75.6615155 17.737055,75.6103689 17.5690019,75.4322993 L17.5690019,75.4322993 Z M74.1270129,72.5245915 C73.765073,72.1737076 73.711249,71.6113492 74.0000385,71.1979498 L74.0000385,71.1979498 C74.3419681,70.8564594 74.8765722,70.8032787 75.2788518,71.0707376 L75.2788518,71.0707376 C75.6460247,71.414372 75.7040808,71.976632 75.4148957,72.3882927 L75.4148957,72.3882927 C75.2788518,72.6518037 75.0158334,72.6518037 74.7528151,72.6518037 L74.7528151,72.6518037 C74.5241337,72.684698 74.2910442,72.6399122 74.0907345,72.5245915 L74.1270129,72.5245915 Z M12.6895584,70.1439057 C12.3939673,69.7355423 12.44842,69.1705121 12.8165327,68.8263506 L12.8165327,68.8263506 C13.2281048,68.53304 13.7922564,68.587238 14.140694,68.9535628 L14.140694,68.9535628 C14.4352592,69.3670063 14.3769713,69.935405 14.00465,70.2802045 L14.00465,70.2802045 C13.859717,70.4190031 13.6764044,70.5108311 13.4786134,70.5437155 L13.4786134,70.5437155 C13.1434991,70.6048534 12.8070545,70.4436437 12.6442104,70.1439057 L12.6895584,70.1439057 Z M78.4804197,66.9726868 C78.0746997,66.6621404 77.9621082,66.0981284 78.2174014,65.6551317 L78.2174014,65.6551317 C78.5273672,65.2486517 79.0903246,65.1358493 79.5324931,65.3916207 L79.5324931,65.3916207 C79.9382131,65.7021671 80.0508045,66.2661791 79.7955114,66.7091758 L79.7955114,66.7091758 C79.619541,66.9705727 79.3208966,67.1218942 79.0064564,67.1089856 L79.0064564,67.1089856 C78.7434381,67.1089856 78.6073941,67.1089856 78.4804197,66.9726868 L78.4804197,66.9726868 Z M8.7352138,64.2467107 L8.7352138,64.2467107 C8.5933129,64.0245235 8.5547857,63.7515236 8.6296409,63.4986319 C8.7044962,63.2457402 8.8853452,63.0379185 9.1252065,62.9291556 L9.1252065,62.9291556 C9.3476115,62.7836678 9.6224958,62.7431696 9.8772904,62.8183524 C10.132085,62.8935352 10.3411774,63.0768415 10.4493677,63.3198789 L10.4493677,63.3198789 C10.5940527,63.5438807 10.6331595,63.820272 10.5563143,64.0757359 C10.4794692,64.3311997 10.2944389,64.5399163 10.0503055,64.6465206 L10.0503055,64.6465206 C9.9417361,64.7444505 9.7963345,64.7908014 9.6512432,64.7737328 L9.6512432,64.7737328 C9.2504945,64.7730914 8.8819599,64.5536463 8.6898658,64.2012778 L8.7352138,64.2467107 Z M81.7726837,60.8119808 C81.246647,60.5484698 80.9836287,60.0214478 81.246647,59.6216379 L81.246647,59.6216379 C81.3119142,59.377339 81.4840595,59.1757735 81.7148743,59.0733893 C81.9456891,58.971005 82.2103591,58.9788091 82.4347643,59.0946159 L82.4347643,59.0946159 C82.960801,59.3581269 83.2238193,59.885149 82.960801,60.2849588 L82.960801,60.2849588 C82.8223254,60.6697449 82.4619984,60.9296663 82.0538412,60.9391931 L82.0538412,60.9391931 C81.9244868,60.934298 81.8043606,60.8707793 81.7273357,60.7665479 L81.7726837,60.8119808 Z M5.9599169,57.640762 C5.8874928,57.3949044 5.9168634,57.1301909 6.0414106,56.9062697 C6.1659578,56.6823485 6.3752033,56.5180584 6.6219975,56.4504191 L6.6219975,56.4504191 C6.8673955,56.3778593 7.131614,56.4072849 7.3551165,56.5320654 C7.578619,56.6568459 7.742602,56.8664834 7.8101148,57.1137399 L7.8101148,57.1137399 C7.882539,57.3595975 7.8531684,57.624311 7.7286211,57.8482322 C7.6040739,58.0721534 7.3948285,58.2364435 7.1480342,58.3040828 L6.8850159,58.3040828 C6.438957,58.3143056 6.0413462,58.0239155 5.9145689,57.595329 L5.9599169,57.640762 Z M84.0128743,54.2060321 C83.5068014,54.0397368 83.1805195,53.5475184 83.2238193,53.0156892 L83.2238193,53.0156892 C83.3698606,52.5163782 83.8291366,52.1749867 84.3484494,52.1797232 L84.3484494,52.1797232 C84.8524231,52.3487719 85.1774569,52.8391073 85.1375044,53.3700661 L85.1375044,53.3700661 C85.0110026,53.7856922 84.658907,54.0925892 84.2305446,54.1605992 L83.9584567,54.1605992 L84.0128743,54.2060321 Z M4.38180692,50.64409 C4.31519337,50.394721 4.36600122,50.1285247 4.5197491,49.921373 C4.67349698,49.7142213 4.91331952,49.5888377 5.1708619,49.5809593 L5.1708619,49.5809593 C5.4185043,49.5174811 5.681519,49.5699404 5.8860143,49.7235992 C6.0905096,49.877258 6.2144205,50.1155365 6.2229352,50.3714924 L6.2229352,50.3714924 C6.2895488,50.6208613 6.2387409,50.8870576 6.0849931,51.0942093 C5.9312452,51.301361 5.6914226,51.4267447 5.4338802,51.4346231 L5.3069059,51.4346231 C4.73552123,51.3891901 4.33645893,51.1256791 4.33645893,50.5986571 L4.38180692,50.64409 Z M84.9379733,47.3365723 C84.4056505,47.2795648 84.0088612,46.8184269 84.0310135,46.2825282 L84.0310135,46.2825282 C84.0270809,46.0122189 84.143487,45.7541915 84.3486065,45.5785473 C84.553726,45.4029031 84.8262564,45.3278833 85.0921564,45.3738695 L85.0921564,45.3738695 C85.6244792,45.4308771 86.0212685,45.8920149 85.9991162,46.4279136 L85.9991162,46.4279136 C85.9422152,46.9612335 85.4819396,47.3587661 84.9470429,47.3365723 L84.9379733,47.3365723 Z M4.90784358,44.4288645 C4.37552085,44.3718569 3.9787315,43.9107191 4.00088382,43.3748204 L4.00088382,43.3748204 C4.06221607,42.8401063 4.52527252,42.4435901 5.0620267,42.4661617 L5.0620267,42.4661617 C5.5629268,42.4661617 5.9689865,42.872982 5.9689865,43.3748204 L5.9689865,43.3748204 C5.8420121,44.0381412 5.4429498,44.4288645 4.91691318,44.4288645 L4.90784358,44.4288645 Z M83.704508,39.5130209 L83.704508,39.5130209 C83.6408451,39.2634062 83.6943166,38.9983299 83.8497365,38.7930746 C84.0051563,38.5878192 84.2455454,38.4648081 84.5026326,38.4589768 L84.5026326,38.4589768 C84.7502749,38.3954986 85.0132896,38.4479579 85.2177849,38.6016167 C85.4222803,38.7552755 85.5461912,38.993554 85.5547059,39.2495099 L85.5547059,39.2495099 C85.6177013,39.4985704 85.5654439,39.7628105 85.412418,39.9689894 C85.2593922,40.1751683 85.0218569,40.3013795 84.7656509,40.3126406 L84.6296069,40.3126406 C84.1683039,40.3159789 83.7779929,39.9718618 83.7226472,39.5130209 L83.704508,39.5130209 Z M5.5245762,37.5321449 C5.0184027,37.3699962 4.68865346,36.8819542 4.72645163,36.3508886 L4.72645163,36.3508886 C4.8890778,35.8402529 5.3812361,35.5090235 5.9145689,35.551269 L5.9145689,35.551269 C6.4200843,35.7197224 6.7481819,36.2090553 6.7126935,36.7416119 L6.7126935,36.7416119 C6.5843194,37.156018 6.2331492,37.4621084 5.8057338,37.5321449 L5.5427154,37.5321449 L5.5245762,37.5321449 Z M82.126398,32.7798599 C82.0397618,32.5340277 82.062693,32.2627555 82.1893607,32.0350219 C82.3160284,31.8072883 82.5342289,31.6450341 82.7884786,31.5895171 L82.7884786,31.5895171 C83.0327255,31.5058144 83.3010007,31.5303515 83.5260821,31.6569801 C83.7511634,31.7836087 83.911722,32.0003293 83.9675263,32.2528379 L83.9675263,32.2528379 C84.0543133,32.4973891 84.0325749,32.7674501 83.9077939,32.9949074 C83.783013,33.2223647 83.5671013,33.3855046 83.3145153,33.4431808 L83.0514969,33.4431808 C82.6524346,33.570393 82.2533724,33.1796698 82.1445372,32.7798599 L82.126398,32.7798599 Z M7.3657045,30.798984 C6.9151111,30.5925925 6.6892963,30.0816071 6.8396679,29.6086411 L6.8396679,29.6086411 C6.9049351,29.3643421 7.0770804,29.1627766 7.3078952,29.0603924 C7.53871,28.9580082 7.8033799,28.9658122 8.0277852,29.081619 L8.0277852,29.081619 C8.5538218,29.3451301 8.8168402,29.8721521 8.5538218,30.2719619 L8.5538218,30.2719619 C8.4153462,30.6567481 8.0550193,30.9166695 7.6468621,30.9261962 L7.6468621,30.9261962 C7.6287229,30.7808108 7.5017485,30.7808108 7.3657045,30.7808108 L7.3657045,30.798984 Z M79.4871451,26.573721 L79.4871451,26.573721 C79.3424601,26.3497191 79.3033534,26.0733278 79.3801985,25.817864 C79.4570437,25.5624002 79.642074,25.3536836 79.8862074,25.2470793 L79.8862074,25.2470793 C80.1091511,25.1054576 80.3826192,25.0681795 80.6352257,25.1449761 C80.8878322,25.2217727 81.0945067,25.4050221 81.201299,25.6468892 L81.201299,25.6468892 C81.3432,25.8690764 81.3817271,26.1420763 81.3068719,26.394968 C81.2320166,26.6478597 81.0511676,26.8556813 80.8113063,26.9644443 L80.8113063,26.9644443 C80.7056118,27.0678513 80.558975,27.1179348 80.412244,27.1007431 L80.412244,27.1007431 C80.0311467,27.0893345 79.6822583,26.8837216 79.4871451,26.5555479 L79.4871451,26.573721 Z M10.4040198,24.4565463 C9.994618,24.1483118 9.8814222,23.5812724 10.1410014,23.1389911 L10.1410014,23.1389911 C10.4509672,22.7325111 11.0139246,22.6197087 11.4560931,22.8754801 L11.4560931,22.8754801 C11.8618131,23.1860266 11.9744046,23.7500385 11.7191114,24.1930352 L11.7191114,24.1930352 C11.543141,24.4544321 11.2444966,24.6057536 10.9300564,24.5928451 L10.9300564,24.5928451 C10.7434637,24.5935905 10.560687,24.5399176 10.4040198,24.4383731 L10.4040198,24.4565463 Z M75.7958188,20.7583053 C75.4982524,20.3488706 75.5569407,19.7804869 75.9318628,19.4407502 L75.9318628,19.4407502 C76.3394626,19.1446055 76.9034364,19.1991601 77.2469544,19.5679625 L77.2469544,19.5679625 C77.5415197,19.981406 77.4832317,20.5498047 77.1109105,20.8946042 L77.1109105,20.8946042 C76.9659775,21.0334027 76.7826649,21.1252307 76.5848738,21.1581152 L76.5848738,21.1581152 C76.2659089,21.1938618 75.9561097,21.0368882 75.7958188,20.7583053 L75.7958188,20.7583053 Z M14.4853387,18.7774294 C14.1247739,18.4295758 14.0708869,17.8704147 14.3583643,17.4598743 L14.3583643,17.4598743 C14.7013562,17.0920135 15.262565,17.0338487 15.673456,17.3235755 L15.673456,17.3235755 C16.0419809,17.6702668 16.0999642,18.2356946 15.8095,18.6502172 L15.8095,18.6502172 C15.673456,18.9137282 15.4104377,18.9137282 15.1474193,18.9137282 L15.1474193,18.9137282 C14.884401,19.0227672 14.748357,18.895555 14.5125475,18.7592562 L14.4853387,18.7774294 Z M71.0524193,15.8697215 C70.6852463,15.5260871 70.6271902,14.9638271 70.9163753,14.5521664 L70.9163753,14.5521664 C71.2624184,14.1829512 71.826789,14.1248593 72.2405365,14.4158676 L72.2405365,14.4158676 C72.6024764,14.7667515 72.6563004,15.3291099 72.3675109,15.7425093 L72.3675109,15.7425093 C72.2405365,16.0060203 71.9775182,16.0060203 71.7054303,16.0060203 L71.7054303,16.0060203 C71.4814068,16.0205005 71.257243,15.9799507 71.0524193,15.8878947 L71.0524193,15.8697215 Z M19.5008262,13.8888456 C19.2052352,13.4804822 19.2596878,12.915452 19.6278006,12.5712905 L19.6278006,12.5712905 C20.0393726,12.2779799 20.6035242,12.3321779 20.9519618,12.6985027 L20.9519618,12.6985027 C21.246527,13.1119462 21.1882391,13.6803449 20.8159179,14.0251444 L20.8159179,14.0251444 C20.6697303,14.1621467 20.4869907,14.2536877 20.2898812,14.2886554 L20.2898812,14.2886554 C19.9811828,14.2622508 19.6964152,14.111402 19.5008262,13.8706724 L19.5008262,13.8888456 Z M65.6469391,11.6444586 L65.6469391,11.6444586 C65.241219,11.3339121 65.1286276,10.7699002 65.3839207,10.3269035 L65.3839207,10.3269035 C65.6938865,9.9204235 66.2568439,9.8076211 66.6990124,10.0633925 L66.6990124,10.0633925 C67.1047324,10.3739389 67.2173239,10.9379508 66.9620307,11.3809476 L66.9620307,11.3809476 C66.7860603,11.6423445 66.4874159,11.7936659 66.1729757,11.7807574 L66.1729757,11.7807574 C66.0369318,11.8897964 65.7739134,11.7625842 65.6469391,11.6262854 L65.6469391,11.6444586 Z M25.2962991,9.9270936 C25.1549422,9.7037323 25.1177338,9.4297519 25.1943868,9.1766722 C25.2710398,8.9235926 25.4539466,8.7165309 25.6953614,8.6095385 L25.6953614,8.6095385 C26.1689297,8.3833535 26.7365223,8.5519894 27.0104531,9.0002618 L27.0104531,9.0002618 C27.1556689,9.2230834 27.1960914,9.4984826 27.1210491,9.7537545 C27.0460069,10.0090264 26.8630433,10.2185105 26.6204604,10.3269035 L26.6204604,10.3269035 C26.511891,10.4248335 26.3664894,10.4711843 26.2213981,10.4541157 L26.2213981,10.4541157 C25.8403008,10.4427072 25.4914123,10.2370942 25.2962991,9.9089205 L25.2962991,9.9270936 Z M59.5793782,8.6095385 L59.5793782,8.6095385 C59.0533416,8.3460275 58.7903232,7.8099189 59.0533416,7.4191956 L59.0533416,7.4191956 C59.3163599,6.8921736 59.8423966,6.6286626 60.2414589,6.8921736 L60.2414589,6.8921736 C60.4708322,6.9774842 60.6560724,7.1520225 60.7551248,7.3761634 C60.8541772,7.6003043 60.8586384,7.8550321 60.7674955,8.0825165 L60.7674955,8.0825165 C60.6269047,8.4656984 60.2678453,8.7247054 59.8605358,8.7367507 L59.8605358,8.7367507 C59.8605358,8.6186251 59.7154222,8.6186251 59.5793782,8.6186251 L59.5793782,8.6095385 Z M31.6268783,7.0193858 C31.5544541,6.7735282 31.5838247,6.5088147 31.708372,6.2848935 C31.8329192,6.0609723 32.0421646,5.8966822 32.2889589,5.8290429 L32.2889589,5.8290429 C32.5343568,5.7564831 32.7985753,5.7859087 33.0220779,5.9106893 C33.2455804,6.0354698 33.4095633,6.2451072 33.4770762,6.4923638 L33.4770762,6.4923638 C33.5495003,6.7382214 33.5201297,7.0029348 33.3955825,7.226856 C33.2710353,7.4507772 33.0617898,7.6150673 32.8149956,7.6827067 L32.5519772,7.6827067 C32.141493,7.6717729 31.7804931,7.4077493 31.6450175,7.0193858 L31.6268783,7.0193858 Z M53.1218247,6.6286626 L53.1218247,6.6286626 C52.6163093,6.4602091 52.2882117,5.9708763 52.3237001,5.4383197 L52.3237001,5.4383197 C52.4924327,4.93340193 52.9818514,4.6077593 53.5118174,4.6477866 L53.5118174,4.6477866 C54.0179909,4.80993535 54.3477402,5.2979774 54.309942,5.8290429 L54.309942,5.8290429 C54.1825945,6.2457862 53.8317618,6.5550974 53.4029822,6.6286626 L53.1399639,6.6286626 L53.1218247,6.6286626 Z M38.4834941,5.3020209 C38.4201346,5.0539146 38.4724958,4.79040725 38.6258673,4.58552885 C38.7792388,4.38065046 39.0170718,4.25650746 39.2725491,4.24797677 L39.2725491,4.24797677 C39.5211439,4.18486334 39.78489,4.23721867 39.9906833,4.39053117 C40.1964767,4.54384368 40.322452,4.78182396 40.333692,5.0385098 L40.333692,5.0385098 C40.3973549,5.2881246 40.3438834,5.5532008 40.1884635,5.7584562 C40.0330437,5.9637115 39.7926546,6.0867226 39.5355674,6.0925539 L39.408593,6.0925539 C38.8825564,6.0925539 38.5016333,5.8290429 38.5016333,5.3020209 L38.4834941,5.3020209 Z M46.2652089,5.8290429 C45.7643088,5.8290429 45.3582491,5.4222226 45.3582491,4.92038421 L45.3582491,4.92038421 C45.3547934,4.65195032 45.4699922,4.39572427 45.6729435,4.22043857 C45.8758947,4.04515287 46.1458238,3.96875019 46.4103224,4.01172551 L46.4103224,4.01172551 C46.9426452,4.06873307 47.3394345,4.52987092 47.3172822,5.0657696 L47.3172822,5.0657696 C47.2005997,5.5475632 46.7595371,5.8789799 46.2652089,5.8563027 L46.2652089,5.8290429 Z" id="形状" fill="#FFFFFF"></path>
                <path d="M46.9656007,89.0625359 C46.9781093,88.5112133 47.3448591,88.0308816 47.8734994,87.8734621 L47.8734994,87.8734621 C48.4249489,87.8859678 48.9053911,88.2526333 49.0628468,88.781152 L49.0628468,88.781152 C49.0475219,89.331483 48.6818891,89.8103518 48.154948,89.9702259 L48.0278422,89.9702259 C47.501261,90.1154562 47.1017855,89.7160727 46.9656007,89.0625359 Z M40.2380712,89.9702259 C39.952654,89.9496247 39.6897879,89.807607 39.5161533,89.580198 C39.3425188,89.3527891 39.2747991,89.0618389 39.3301725,88.781152 L39.3301725,88.781152 C39.3478603,88.4946009 39.4891755,88.2298616 39.7174335,88.0556589 C39.9456914,87.8814563 40.2383803,87.8149709 40.5195198,87.8734621 L40.5195198,87.8734621 C40.8061369,87.8911459 41.0709371,88.0324285 41.2451798,88.260634 C41.4194226,88.4888395 41.4859232,88.7814611 41.4274185,89.0625359 L41.4274185,89.0625359 C41.3429892,89.6376183 40.8151937,90.040423 40.2380712,89.9702259 Z M54.6282659,88.154846 C54.5229664,87.5799535 54.8612104,87.0163433 55.4181378,86.8386956 L55.4181378,86.8386956 C55.9931625,86.7334203 56.5569024,87.0715865 56.7345909,87.6283858 L56.7345909,87.6283858 C56.8398904,88.2032783 56.5016465,88.7668885 55.9447191,88.9445362 L55.6814284,88.9445362 C55.1979289,88.9325591 54.7751465,88.6155452 54.6282659,88.154846 L54.6282659,88.154846 Z M32.584485,88.4180761 C32.3113111,88.3471877 32.0819358,88.1620563 31.9550256,87.9100324 C31.8281154,87.6580085 31.8159785,87.363534 31.921719,87.1019257 L31.921719,87.1019257 C31.9948269,86.8282013 32.1817993,86.5989441 32.4352622,86.4722418 C32.688725,86.3455395 32.9843565,86.3335504 33.2472511,86.439312 L33.2472511,86.439312 C33.5187666,86.5122821 33.7458884,86.6982668 33.8709293,86.9500273 C33.9959702,87.2017879 34.0068984,87.4950992 33.9009382,87.7554624 L33.9009382,87.7554624 C33.7548609,88.2180824 33.3327481,88.5382323 32.8477756,88.5542296 L32.8477756,88.5542296 C32.7115908,88.5542296 32.584485,88.5542296 32.584485,88.4180761 L32.584485,88.4180761 Z M61.8823767,85.7766984 C61.6405207,85.2297285 61.8727059,84.5893651 62.4089579,84.3243945 L62.4089579,84.3243945 C62.9582862,84.0787552 63.6032879,84.3165448 63.8615959,84.8599315 L63.8615959,84.8599315 C64.1034518,85.4069014 63.8712667,86.0472649 63.3350146,86.3122354 L63.3350146,86.3122354 C63.2079088,86.3122354 63.071724,86.439312 62.9355392,86.439312 L62.9355392,86.439312 C62.4971792,86.4040544 62.10382,86.1565663 61.8823767,85.7766984 Z M25.1941894,85.6496218 L25.1941894,85.6496218 C24.6541474,85.388054 24.4206616,84.7441034 24.6676082,84.1973179 L24.6676082,84.1973179 C24.9292361,83.6574001 25.5733349,83.423968 26.1202461,83.6708577 L26.1202461,83.6708577 C26.6602882,83.9324255 26.893774,84.5763761 26.6468274,85.1231616 L26.6468274,85.1231616 C26.486588,85.4734732 26.1226385,85.6845154 25.7389287,85.6496218 L25.7389287,85.6496218 C25.4211641,85.7585446 25.3212953,85.7585446 25.1941894,85.631468 L25.1941894,85.6496218 Z M68.773328,82.2185539 C68.4914261,81.7364558 68.5861474,81.1228027 69.0003026,80.7480962 L69.0003026,80.7480962 C69.4852298,80.4775832 70.093825,80.5878657 70.4529406,81.0113262 L70.4529406,81.0113262 C70.7235158,81.4961419 70.6132079,82.1045972 70.18965,82.4636301 L70.18965,82.4636301 C70.0333955,82.5639506 69.8478923,82.6087169 69.6630687,82.5907067 L69.6630687,82.5907067 C69.3037569,82.6905044 68.9231806,82.5285141 68.746091,82.2004001 L68.773328,82.2185539 Z M18.4848179,81.5559402 C18.0241887,81.2192003 17.9084131,80.580585 18.2215273,80.1036363 L18.2215273,80.1036363 C18.5609255,79.6472527 19.1961434,79.5321459 19.6741652,79.8404062 L19.6741652,79.8404062 C20.1306539,80.1797264 20.2457871,80.8147983 19.9374559,81.2927101 L19.9374559,81.2927101 C19.738435,81.5264086 19.4538114,81.6703231 19.147584,81.6920937 L19.147584,81.6920937 C18.9088075,81.7993502 18.6278945,81.7365289 18.457581,81.5377864 L18.4848179,81.5559402 Z M74.8471704,77.5984121 C74.6542331,77.4059869 74.5458026,77.1447214 74.5458026,76.8722602 C74.5458026,76.5997989 74.6542331,76.3385334 74.8471704,76.1461082 L74.8471704,76.1461082 C75.2520265,75.7541503 75.8949522,75.7541503 76.2998083,76.1461082 L76.2998083,76.1461082 C76.6918565,76.5508712 76.6918565,77.1936491 76.2998083,77.5984121 L76.2998083,77.5984121 C76.0807775,77.7855149 75.7974486,77.8799361 75.5099364,77.8616422 L75.5099364,77.8616422 C75.2648622,77.8101588 75.0311072,77.7148333 74.8199334,77.5802583 L74.8471704,77.5984121 Z M12.5471603,76.4093383 C12.1551122,76.0045753 12.1551122,75.3617974 12.5471603,74.9570344 L12.5471603,74.9570344 C12.9520164,74.5650765 13.5949421,74.5650765 13.9997982,74.9570344 L13.9997982,74.9570344 C14.1927355,75.1494596 14.301166,75.4107251 14.301166,75.6831864 C14.301166,75.9556476 14.1927355,76.2169131 13.9997982,76.4093383 L13.9997982,76.4093383 C13.7696218,76.5757616 13.4939445,76.6676329 13.2099264,76.6725684 L13.2099264,76.6725684 C13.0830698,76.7415856 12.9319143,76.7499869 12.7981875,76.695453 C12.6644607,76.6409191 12.5623058,76.5292176 12.5199233,76.3911845 L12.5471603,76.4093383 Z M79.9949561,71.92535 C79.5384675,71.5860299 79.4233342,70.950958 79.7316655,70.4730462 L79.7316655,70.4730462 C80.0684828,70.0125229 80.7072451,69.8967739 81.1843034,70.2098161 L81.1843034,70.2098161 C81.6407921,70.5491362 81.7559253,71.1842081 81.4475941,71.66212 L81.4475941,71.66212 C81.2152034,71.9167268 80.8843944,72.058942 80.5396953,72.0524266 L80.5396953,72.0524266 C80.3559042,72.0584504 80.173919,72.0145331 80.0131141,71.92535 L79.9949561,71.92535 Z M7.5355594,70.3368927 L7.5355594,70.3368927 C7.2663077,69.854854 7.3767195,69.2496322 7.79885,68.8936657 L7.79885,68.8936657 C8.2837772,68.6231527 8.8923724,68.7334352 9.2514879,69.1568958 L9.2514879,69.1568958 C9.5147594,69.6429024 9.4053342,70.2464887 8.9881973,70.6091996 L8.9881973,70.6091996 C8.8319428,70.7095201 8.6464397,70.7542864 8.4616161,70.7362762 L8.4616161,70.7362762 C8.0621406,70.8724297 7.79885,70.6091996 7.5537173,70.3368927 L7.5355594,70.3368927 Z M84.0805004,65.3264443 C83.5404583,65.0648765 83.3069725,64.4209259 83.5539191,63.8741404 L83.5539191,63.8741404 C83.815547,63.3342226 84.4596458,63.1007904 85.006557,63.3476802 L85.006557,63.3476802 C85.5465991,63.609248 85.7800849,64.2531986 85.5331383,64.7999841 L85.5331383,64.7999841 C85.3728989,65.1502957 85.0089494,65.3613379 84.6252396,65.3264443 L84.6252396,65.3264443 C84.4345809,65.4444439 84.325633,65.4444439 84.0532634,65.3082905 L84.0805004,65.3264443 Z M3.70422677,63.5110644 L3.70422677,63.5110644 C3.45728022,62.9642789 3.69076602,62.3203283 4.23080803,62.0587605 L4.23080803,62.0587605 C4.7777193,61.8118707 5.4218181,62.0453028 5.683446,62.5852207 L5.683446,62.5852207 C5.9303925,63.1320062 5.6969067,63.7759568 5.1568647,64.0375246 L5.1568647,64.0375246 C5.0297589,64.0375246 4.89357409,64.1646011 4.75738929,64.1646011 L4.75738929,64.1646011 C4.30238318,64.1287633 3.89612997,63.865954 3.67698981,63.4656799 L3.70422677,63.5110644 Z M87.1219611,58.3644625 C86.8498539,58.2888357 86.6224976,58.1015588 86.496193,57.8490075 C86.3698883,57.5964563 86.3564461,57.3022469 86.459195,57.0392352 L86.459195,57.0392352 C86.5321819,56.7677821 86.7182094,56.5407125 86.9700278,56.4157004 C87.2218462,56.2906883 87.5152251,56.2797626 87.7756481,56.3856984 L87.7756481,56.3856984 C88.0415345,56.4631096 88.2622807,56.6493188 88.383353,56.8983244 C88.5044252,57.14733 88.5145323,57.4359097 88.4111772,57.6927719 L88.4111772,57.6927719 C88.2642967,58.1534711 87.8415142,58.470485 87.3580147,58.4824622 L87.3580147,58.4824622 C87.2879568,58.410428 87.1947169,58.365426 87.0947241,58.3553856 L87.1219611,58.3644625 Z M1.19842631,55.9863149 C1.09312683,55.4114224 1.43137076,54.8478122 1.98829819,54.6701645 L1.98829819,54.6701645 C2.56490394,54.5682152 3.12909484,54.9043339 3.31383032,55.4598547 L3.31383032,55.4598547 C3.4181937,56.037339 3.07544254,56.6019696 2.51487945,56.7760051 L2.25158882,56.7760051 C1.72894908,56.8212101 1.25903215,56.4579965 1.17118935,55.9409304 L1.19842631,55.9863149 Z M88.7017048,50.839713 C88.4150877,50.8220292 88.1502875,50.6807466 87.9760448,50.4525411 C87.8018021,50.2243356 87.7353015,49.931714 87.7938061,49.6506392 L87.7938061,49.6506392 C87.814412,49.3652876 87.9564624,49.1024819 88.1839236,48.9288873 C88.4113849,48.7552927 88.702402,48.6875885 88.9831534,48.7429492 L88.9831534,48.7429492 C89.2697705,48.760633 89.5345707,48.9019157 89.7088134,49.1301211 C89.8830562,49.3583266 89.9495568,49.6509482 89.8910522,49.932023 L89.8910522,49.932023 C89.8066228,50.5071055 89.2788273,50.9099101 88.7017048,50.839713 L88.7017048,50.839713 Z M0,48.2891043 C0.01250854,47.7377817 0.37925835,47.2574499 0.90789872,47.1000305 L0.90789872,47.1000305 C1.44334919,47.0778603 1.90410135,47.4749691 1.96106123,48.0077204 L1.96106123,48.0077204 C1.94855269,48.559043 1.58180288,49.0393748 1.05316251,49.1967942 L0.90789872,49.1967942 C0.42336748,49.1582042 0.0385989,48.7735241 0,48.2891043 Z M87.902754,42.0895821 L87.902754,42.0895821 C87.9123849,41.5372546 88.2802841,41.0554174 88.8106527,40.9005082 L88.8106527,40.9005082 C89.3621021,40.9130139 89.8425443,41.2796794 90,41.8081982 L90,41.8081982 C89.9903691,42.3605256 89.6224698,42.8423628 89.0921013,42.997272 L88.9740744,42.997272 C88.7037756,43.0524927 88.4230263,42.9818421 88.211086,42.8052658 C87.9991457,42.6286895 87.8790104,42.3653465 87.884596,42.0895821 L87.902754,42.0895821 Z M1.05316251,41.554045 C0.76728966,41.5389289 0.50230073,41.3996649 0.32775737,41.1728107 C0.153214,40.9459565 0.0865495,40.6541702 0.1452638,40.3740481 L0.1452638,40.3740481 C0.15991988,40.0862735 0.30047149,39.8195192 0.52956513,39.6446787 C0.75865876,39.4698383 1.0530905,39.4046206 1.33461112,39.4663582 L1.33461112,39.4663582 C1.62245192,39.4810109 1.88926759,39.6215302 2.06414823,39.8505711 C2.23902887,40.0796121 2.30426156,40.3739761 2.24250984,40.655432 L2.24250984,40.655432 C2.12637567,41.2112009 1.62000952,41.597651 1.05316251,41.5631219 L1.05316251,41.554045 Z M86.7134066,34.6919091 L86.7134066,34.6919091 C86.612278,34.1177813 86.9489887,33.5567259 87.5032785,33.3757587 L87.5032785,33.3757587 C88.0798843,33.2738095 88.6440752,33.6099281 88.8288107,34.165449 L88.8288107,34.165449 C88.9267513,34.7411768 88.5920128,35.3027926 88.0389388,35.4906763 L87.7665692,35.4906763 C87.257631,35.5377252 86.7952994,35.1930149 86.6952487,34.6919091 L86.7134066,34.6919091 Z M2.37869464,33.9022189 C2.10552076,33.8313305 1.87614538,33.6461991 1.74923521,33.3941752 C1.62232505,33.1421513 1.61018809,32.8476768 1.71592858,32.5860685 L1.71592858,32.5860685 C1.78903655,32.3123442 1.97600897,32.0830869 2.2294718,31.9563846 C2.48293464,31.8296823 2.77856609,31.8176932 3.04146071,31.9234548 L3.04146071,31.9234548 C3.31358975,31.9986061 3.5406581,32.1863808 3.66552607,32.439527 C3.79039405,32.6926733 3.80117201,32.9870872 3.69514779,33.2486821 L3.69514779,33.2486821 C3.54593877,33.7077217 3.12454315,34.0236957 2.64198527,34.0383724 L2.64198527,34.0383724 C2.48764249,34.0383724 2.36053667,34.0383724 2.36053667,33.9022189 L2.37869464,33.9022189 Z M84.343791,27.5483894 L84.343791,27.5483894 C84.0968444,27.0016039 84.3303302,26.3576532 84.8703722,26.0960855 L84.8703722,26.0960855 C85.4197005,25.8504462 86.0647022,26.0882358 86.3230102,26.6316225 L86.3230102,26.6316225 C86.568706,27.1808245 86.3308616,27.8256778 85.7873499,28.0839264 L85.7873499,28.0839264 C85.6602441,28.0839264 85.5240593,28.211003 85.3969535,28.211003 L85.3969535,28.211003 C84.935747,28.2604617 84.4979492,27.9971016 84.325633,27.5665432 L84.343791,27.5483894 Z M4.88449511,26.7586991 C4.3444531,26.4971314 4.1109673,25.8531807 4.35791385,25.3063952 L4.35791385,25.3063952 C4.61954177,24.7664774 5.2636405,24.5330453 5.8105518,24.7799351 L5.8105518,24.7799351 C6.3505938,25.0415028 6.5840796,25.6854535 6.3371331,26.232239 L6.3371331,26.232239 C6.2015172,26.6201884 5.8401435,26.8839305 5.4292343,26.8948526 L5.4292343,26.8948526 C5.2641959,26.7835812 5.0621824,26.7412332 4.86633713,26.7768529 L4.88449511,26.7586991 Z M80.6395642,21.0856371 C80.3748025,20.5981488 80.4885157,19.9918174 80.9119338,19.6333332 L80.9119338,19.6333332 C81.3946937,19.3678576 81.9975612,19.4777894 82.3554928,19.8965633 L82.3554928,19.8965633 C82.6298518,20.3807434 82.5190801,20.991757 82.0922022,21.3488672 L82.0922022,21.3488672 C81.9393788,21.457414 81.75192,21.5058836 81.5656209,21.4850206 L81.5656209,21.4850206 C81.2104768,21.5008582 80.8659512,21.3617549 80.6214062,21.1037909 L80.6395642,21.0856371 Z M8.7158277,20.0327168 C8.2509449,19.6986513 8.134501,19.0563497 8.4525371,18.5804129 L8.4525371,18.5804129 C8.7860544,18.1211032 9.4218639,18.0051646 9.896096,18.3171828 L9.896096,18.3171828 C10.3598196,18.6511556 10.4796768,19.2902471 10.1684657,19.7694867 L10.1684657,19.7694867 C9.9340332,20.0212103 9.6045775,20.1628437 9.2605669,20.1597933 L9.2605669,20.1597933 C9.0659175,20.1943634 8.8653605,20.1555548 8.6976697,20.0508706 L8.7158277,20.0327168 Z M75.9003329,15.2764215 C75.5093949,14.8747316 75.5093949,14.2348844 75.9003329,13.8331945 L75.9003329,13.8331945 C76.0928024,13.6403016 76.3541279,13.5318961 76.6266519,13.5318961 C76.8991758,13.5318961 77.1605014,13.6403016 77.3529708,13.8331945 L77.3529708,13.8331945 C77.5453609,14.0240663 77.6535693,14.2838303 77.6535693,14.554808 C77.6535693,14.8257858 77.5453609,15.0855498 77.3529708,15.2764215 L77.3529708,15.2764215 C77.13394,15.4635243 76.8506111,15.5579455 76.563099,15.5396516 L76.563099,15.5396516 C76.3204067,15.4994155 76.086783,15.4164367 75.8730959,15.2945753 L75.9003329,15.2764215 Z M13.6184808,14.1236553 C13.2264327,13.7188923 13.2264327,13.0761144 13.6184808,12.6713514 L13.6184808,12.6713514 C13.8109502,12.4784585 14.0722758,12.370053 14.3447998,12.370053 C14.6173237,12.370053 14.8786493,12.4784585 15.0711187,12.6713514 L15.0711187,12.6713514 C15.264056,12.8637766 15.3724865,13.1250421 15.3724865,13.3975034 C15.3724865,13.6699646 15.264056,13.9312301 15.0711187,14.1236553 L15.0711187,14.1236553 C14.851613,14.3099162 14.5686337,14.4042209 14.2812468,14.3868854 L14.2812468,14.3868854 C14.1087461,14.5048851 13.8454555,14.3778085 13.6184808,14.1236553 Z M70.3803087,10.2932038 L70.3803087,10.2932038 C69.9165851,9.959231 69.7967279,9.3201395 70.1079391,8.8408999 L70.1079391,8.8408999 C70.4473373,8.3845163 71.0825552,8.2694095 71.560577,8.5776698 L71.560577,8.5776698 C72.0254598,8.9117352 72.1419037,9.5540369 71.8238676,10.0299737 L71.8238676,10.0299737 C71.6248468,10.2636722 71.3402232,10.4075867 71.0339958,10.4293573 L71.0339958,10.4293573 C70.7956459,10.5501589 70.5053963,10.4898612 70.3349137,10.2841269 L70.3803087,10.2932038 Z M19.5379804,9.10413 C19.3778777,8.8774034 19.3155846,8.5958805 19.3650929,8.3227942 C19.4146012,8.0497079 19.5717604,7.8079515 19.8012711,7.6518261 L19.8012711,7.6518261 C20.2873895,7.3886152 20.8911146,7.4980152 21.253909,7.9150562 L21.253909,7.9150562 C21.5171805,8.4010628 21.4077553,9.0046491 20.9906184,9.3673601 L20.9906184,9.3673601 C20.8339529,9.4750115 20.6440272,9.5232866 20.4549581,9.5035136 L20.4549581,9.5035136 C20.2779607,9.5857784 20.0741624,9.5881485 19.8952988,9.5100222 C19.7164351,9.4318958 19.5797066,9.2807861 19.5198225,9.0950531 L19.5379804,9.10413 Z M63.8797539,6.4627523 L63.8797539,6.4627523 C63.3409159,6.2048483 63.1069922,5.5637223 63.3531726,5.0195253 L63.3531726,5.0195253 C63.6114806,4.47613861 64.2564823,4.23834895 64.8058106,4.48398825 L64.8058106,4.48398825 C65.3458526,4.74555601 65.5793384,5.3895066 65.3323918,5.9362921 L65.3323918,5.9362921 C65.1721524,6.2866038 64.8082029,6.4976459 64.4244931,6.4627523 L64.4244931,6.4627523 C64.1248865,6.5898289 63.9977807,6.4536754 63.8615959,6.4536754 L63.8797539,6.4627523 Z M26.1384041,5.2827554 C25.8862178,4.73618059 26.1210558,4.08850068 26.6649854,3.8304515 L26.6649854,3.8304515 C27.2118966,3.58356174 27.8559954,3.81699385 28.1176233,4.35691166 L28.1176233,4.35691166 C28.3633191,4.90611363 28.1254748,5.5509669 27.5819631,5.8092156 L27.5819631,5.8092156 C27.4548573,5.8092156 27.3186725,5.9362921 27.1915666,5.9362921 L27.1915666,5.9362921 C26.7263932,5.9799481 26.2888375,5.7093191 26.1202461,5.2736785 L26.1384041,5.2827554 Z M56.8889337,3.8304515 C56.6168266,3.75482471 56.3894703,3.56754778 56.2631656,3.31499654 C56.136861,3.06244531 56.1234187,2.76823593 56.2261677,2.50522421 L56.2261677,2.50522421 C56.2991545,2.23377115 56.485182,2.00670154 56.7370005,1.88168941 C56.9888189,1.75667728 57.2821977,1.74575162 57.5426208,1.85168746 L57.5426208,1.85168746 C57.8157947,1.92257585 58.0451701,2.10770725 58.1720802,2.35973112 C58.2989904,2.61175499 58.3111274,2.90622955 58.2053869,3.16783786 L58.2053869,3.16783786 C58.0585063,3.62853703 57.6357238,3.94555095 57.1522244,3.95752809 L57.1522244,3.95752809 C56.9978816,3.8213746 56.9978816,3.8213746 56.8707757,3.8213746 L56.8889337,3.8304515 Z M33.3925149,2.6413777 C33.2945742,2.06564985 33.6293127,1.50403404 34.1823868,1.3161504 L34.1823868,1.3161504 C34.7607793,1.2192638 35.3234807,1.55834831 35.5079189,2.11491754 L35.5079189,2.11491754 C35.6122823,2.69240184 35.2695311,3.25703241 34.708968,3.43106794 L34.4456774,3.43106794 C33.9190961,3.43106794 33.3925149,3.03168437 33.3925149,2.6413777 L33.3925149,2.6413777 Z M49.4986382,2.37814762 C49.212021,2.36046387 48.9472209,2.2191812 48.7729781,1.99097572 C48.5987354,1.76277025 48.5322348,1.47014868 48.5907394,1.18907381 L48.5907394,1.18907381 C48.6084272,0.90252262 48.7497424,0.63778333 48.9780004,0.46358068 C49.2062583,0.28937803 49.4989472,0.2228927 49.7800868,0.28138388 L49.7800868,0.28138388 C50.0679276,0.29603659 50.3347432,0.43655588 50.5096239,0.66559683 C50.6845045,0.89463778 50.7497372,1.18900181 50.6879855,1.47045769 L50.6879855,1.47045769 C50.6080294,2.04421238 50.0829123,2.44805574 49.5077171,2.37814762 L49.4986382,2.37814762 Z M40.9189953,1.18907381 C40.9315038,0.63775121 41.2982536,0.15741945 41.826894,0 L41.826894,0 C42.3793485,0.0096287 42.8612965,0.37744333 43.0162413,0.90768993 L43.0162413,0.90768993 C43.0037328,1.45901253 42.6369829,1.93934429 42.1083426,2.09676374 L41.9721578,2.09676374 C41.7073853,2.13969324 41.4371768,2.06337202 41.2340154,1.8882732 C41.0308541,1.71317438 40.915536,1.45722151 40.9189953,1.18907381 L40.9189953,1.18907381 Z" id="形状" fill="#FFFFFF"></path>
            </g>
            <g id="编组" transform="translate(119.724000, 19.280000)">
                <rect id="矩形备份-2" fill="#E40B7B" x="55.148" y="1.101" width="14" height="5"></rect>
                <path d="M18.164,9.468 C23.332,9.468 28.88,11.596 31.54,16.08 L31.54,16.08 L31.54,10.228 L36.632,10.228 L36.632,45.72 L31.54,45.72 L31.54,39.64 C28.88,44.124 23.332,46.48 18.164,46.48 C8.056,46.48 0,39.108 0,27.86 C0,16.612 8.056,9.468 18.164,9.468 Z M18.164,14.56 C10.792,14.56 5.092,19.728 5.092,27.86 C5.092,35.764 10.792,41.388 18.164,41.388 C25.46,41.388 31.54,36.676 31.54,27.86 C31.54,19.044 24.548,14.56 18.164,14.56 Z" id="形状结合" fill="#FFFFFF" fill-rule="nonzero"></path>
                <path d="M61.7801379,9.468 C71.8881379,9.468 80.3241379,16.612 80.3241379,27.86 C80.3241379,39.108 71.8881379,46.48 61.7801379,46.48 C51.6721379,46.48 43.2361379,39.108 43.2361379,27.86 C43.2361379,16.612 51.6721379,9.468 61.7801379,9.468 Z M61.7801379,14.484 C54.4081379,14.484 48.2521379,19.652 48.2521379,27.86 C48.2521379,36.068 54.4081379,41.464 61.7801379,41.464 C69.1521379,41.464 75.3081379,36.068 75.3081379,27.86 C75.3081379,19.652 69.1521379,14.484 61.7801379,14.484 Z" id="形状结合" fill="#FFFFFF" fill-rule="nonzero"></path>
                <path d="M103.040276,46.48 C107.980276,46.48 112.540276,44.732 115.884276,41.616 L112.236276,38.044 C109.728276,40.324 106.612276,41.464 103.040276,41.464 C95.6682759,41.464 89.5122759,36.068 89.5122759,27.86 C89.5122759,19.652 95.6682759,14.484 103.040276,14.484 C106.612276,14.484 109.804276,15.7 112.236276,17.828 L115.808276,14.256 C112.464276,11.216 107.980276,9.468 103.040276,9.468 C92.9322759,9.468 84.4962759,16.612 84.4962759,27.86 C84.4962759,39.108 92.9322759,46.48 103.040276,46.48 Z" id="路径" fill="#FFFFFF" fill-rule="nonzero"></path>
                <path d="M127.048414,45.72 L127.048414,26.34 C127.048414,17.676 133.204414,14.484 138.828414,14.484 C144.300414,14.484 147.416414,18.436 147.416414,25.048 L147.416414,45.72 L152.508414,45.72 L152.508414,25.048 C152.584414,15.32 147.568414,9.468 138.828414,9.468 C134.724414,9.468 129.252414,11.444 127.048414,16.08 L127.048414,1.101 L121.956414,1.101 L121.956414,45.72 L127.048414,45.72 Z" id="路径" fill="#FFFFFF" fill-rule="nonzero"></path>
                <path d="M176.820552,9.468 C181.988552,9.468 187.536552,11.596 190.196552,16.08 L190.196552,16.08 L190.196552,10.228 L195.288552,10.228 L195.288552,45.72 L190.196552,45.72 L190.196552,39.64 C187.536552,44.124 181.988552,46.48 176.820552,46.48 C166.712552,46.48 158.656552,39.108 158.656552,27.86 C158.656552,16.612 166.712552,9.468 176.820552,9.468 Z M176.820552,14.56 C169.448552,14.56 163.748552,19.728 163.748552,27.86 C163.748552,35.764 169.448552,41.388 176.820552,41.388 C184.116552,41.388 190.196552,36.676 190.196552,27.86 C190.196552,19.044 183.204552,14.56 176.820552,14.56 Z" id="形状结合" fill="#FFFFFF" fill-rule="nonzero"></path>
                <polygon id="路径" fill="#FFFFFF" fill-rule="nonzero" points="209.34069 45.72 209.34069 10.228 204.32469 10.228 204.32469 45.72"></polygon>
                <path d="M209.83269,3.22 C209.83269,1.56314575 208.489544,0.22 206.83269,0.22 C205.175835,0.22 203.83269,1.56314575 203.83269,3.22 C203.83269,4.87685425 205.175835,6.22 206.83269,6.22 C208.489544,6.22 209.83269,4.87685425 209.83269,3.22 Z" id="路径备份" fill="#FFFFFF" fill-rule="nonzero"></path>
                <path d="M223.468828,45.72 L223.468828,26.34 C223.468828,17.676 229.624828,14.484 235.248828,14.484 C240.720828,14.484 243.836828,18.436 243.836828,25.048 L243.836828,45.72 L248.928828,45.72 L248.928828,25.048 C249.004828,15.32 243.988828,9.468 235.248828,9.468 C231.144828,9.468 225.672828,11.444 223.468828,16.08 L223.468828,10.228 L218.376828,10.228 L218.376828,45.72 L223.468828,45.72 Z" id="路径" fill="#FFFFFF" fill-rule="nonzero"></path>
            </g>
        </g>
    </g>
</svg>