<?xml version="1.0" encoding="UTF-8"?>
<svg width="160px" height="60px" viewBox="0 0 160 60" version="1.1" xmlns="http://www.w3.org/2000/svg" xmlns:xlink="http://www.w3.org/1999/xlink">
    <title>画板</title>
    <g id="画板" stroke="none" stroke-width="1" fill="none" fill-rule="evenodd">
        <g id="kusama-logo" transform="translate(11.000000, 14.000000)" fill="#FFFFFF" fill-rule="nonzero">
            <path d="M3.5,33 C1.57364341,33 0,31.4181818 0,29.4818182 L0,12.4909091 C0,10.5545455 1.57364341,9 3.5,9 C5.42635659,9 7,10.5818182 7,12.5181818 L7,29.5090909 C6.97286822,31.4181818 5.42635659,33 3.5,33 Z" id="路径"></path>
            <path d="M18.5228756,33 C17.4949341,33 16.4940436,32.5366475 15.8448173,31.7462227 L8.81153283,23.2695978 C7.72948906,21.9613084 7.72948906,20.0806424 8.81153283,18.772353 L15.8448173,10.2684721 C17.0891676,8.76939053 19.2803063,8.57859833 20.7410654,9.80511962 C22.2018245,11.0316409 22.4182332,13.2666353 21.200934,14.7384608 L21.200934,14.7384608 L16.034175,21.0073474 L21.200934,27.248978 C22.4182332,28.7480595 22.2288755,30.9557979 20.7410654,32.1823191 C20.1188902,32.7001837 19.3344085,33 18.5228756,33 Z" id="路径"></path>
            <path d="M41.4427861,33 L26.5298507,33 C24.5870647,33 23,31.4199773 23,29.4858116 L23,12.5141884 C23,10.5800227 24.5870647,9 26.5298507,9 C28.4726368,9 30.0597015,10.5800227 30.0597015,12.5141884 L30.0597015,25.9716232 L37.9402985,25.9716232 L37.9402985,12.5141884 C37.9402985,10.5800227 39.5273632,9 41.4701493,9 C43.4129353,9 45,10.5800227 45,12.5141884 L45,29.4858116 C44.9726368,31.4199773 43.3855721,33 41.4427861,33 C41.4427861,33 41.4427861,33 41.4427861,33 Z" id="路径"></path>
            <path d="M64.4657534,33 L49.5342466,33 C47.5890411,32.9454545 46.0547945,31.3363636 46.109589,29.4 C46.1643836,27.5454545 47.6712329,26.0454545 49.5342466,25.9909091 L60.9315068,25.9909091 L60.9315068,25.8 L48.5479452,22.2818182 C47.0410959,21.8454545 46,20.4818182 46,18.9 L46,12.4909091 C46,10.5545455 47.5890411,9 49.5342466,9 L64.4657534,9 C66.4109589,9 68,10.5818182 68,12.5181818 C68,14.4545455 66.4109589,16.0363636 64.4657534,16.0363636 L53.0684932,16.0363636 L53.0684932,16.2545455 L65.4520548,19.7727273 C66.9589041,20.2090909 68,21.5727273 68,23.1545455 L68,29.5090909 C68,31.4454545 66.4109589,33 64.4657534,33 L64.4657534,33 Z" id="路径"></path>
            <path d="M113.46546,33 C111.520286,33 109.958667,31.4199773 109.958667,29.4858116 L109.958667,20.1418842 L108.314857,21.5584563 C106.99981,22.6753689 105.054635,22.6753689 103.712191,21.5584563 L102.068381,20.1418842 L102.068381,29.4858116 C102.068381,31.4199773 100.479365,33 98.5341905,33 C96.5890159,33 95,31.4199773 95,29.4858116 C95,29.4858116 95,29.4858116 95,29.4858116 L95,12.5141884 C95,10.5800227 96.5890159,9 98.5341905,9 C99.3834921,9 100.178,9.29965948 100.835524,9.84449489 L106.013524,14.2576617 L111.164127,9.84449489 C112.643556,8.59137344 114.862699,8.75482406 116.150349,10.2258797 C116.698286,10.8524404 116.999651,11.6696935 116.999651,12.5141884 L116.999651,29.4858116 C117.027048,31.4199773 115.438032,33 113.46546,33 L113.46546,33 L113.46546,33 Z" id="路径"></path>
            <path d="M90.4818182,33 C88.5454545,33 86.9636364,31.4181818 86.9636364,29.4818182 L86.9636364,26.5090909 L78.2090909,16.0090909 L77.0090909,16.0090909 L77.0090909,25.9636364 L82.3,25.9636364 C84.2363636,26.0181818 85.7636364,27.6272727 85.7090909,29.5636364 C85.6545455,31.4181818 84.1545455,32.9181818 82.3,32.9727273 L73.4909091,32.9727273 C71.5545455,32.9727273 70,31.3909091 70,29.4545455 L70,12.4909091 C70,10.5545455 71.5818182,9 73.4909091,9 L79.8727273,9 C80.9090909,9 81.9181818,9.46363636 82.5727273,10.2545455 L93.1818182,22.9909091 C93.7,23.6181818 94,24.4090909 94,25.2272727 L94,29.4818182 C94,31.4181818 92.4454545,33 90.4818182,33 L90.4818182,33 Z" id="路径"></path>
            <path d="M138.485812,33 C136.551646,33 134.971623,31.4181818 134.971623,29.4818182 L134.971623,26.5090909 L126.227015,16.0090909 L125.001135,16.0090909 L125.001135,25.9636364 L130.286039,25.9636364 C132.220204,26.0181818 133.745743,27.6272727 133.69126,29.5636364 C133.636776,31.4181818 132.138479,32.9181818 130.286039,32.9727273 L121.514188,32.9727273 C119.580023,32.9727273 118,31.3909091 118,29.4545455 L118,12.4909091 C118,10.5545455 119.580023,9 121.514188,9 L127.888763,9 C128.92395,9 129.904654,9.46363636 130.585698,10.2545455 L141.182747,22.9909091 C141.700341,23.6181818 142,24.4090909 142,25.2272727 L142,29.4818182 C142,31.4454545 140.419977,33 138.485812,33 L138.485812,33 Z" id="路径"></path>
            <path d="M76.2654798,0.442043642 C76.0217948,0.224548495 75.7510337,0.0614271352 75.4261203,0.00705334846 C75.0199786,-0.0473204383 74.6138369,0.224548495 74.3430757,0.414856749 C74.0723146,0.605165003 73.5307923,1.09452908 73.3141834,1.28483734 C73.0975745,1.47514559 72.5560522,1.58389316 71.6625404,2.12763103 C70.7690286,2.6713689 67.303286,4.90069416 67.303286,4.90069416 L68.1967977,4.90069416 L64.1624567,6.99408495 L64.5685984,6.99408495 L64,7.42907524 C64.3249134,7.51063592 64.6498267,7.45626213 64.947664,7.29314077 L64.947664,7.42907524 C64.947664,7.42907524 69.7401363,5.5259927 70.6607242,6.01535678 L70.0921258,6.17847814 C70.146278,6.17847814 71.0397898,6.23285193 71.0397898,6.23285193 C71.093942,6.61346844 71.3105509,6.96689805 71.6354643,7.15720631 C72.1769866,7.51063592 72.2040627,7.72813107 72.2040627,7.72813107 C72.2040627,7.72813107 71.9333015,7.83687864 71.9333015,8 C72.4477477,7.83687864 72.98927,7.83687864 73.4766401,8 C73.4766401,8 73.4495639,7.83687864 73.0704983,7.72813107 C72.6914327,7.56500971 72.3665194,7.32032767 72.1228343,6.96689805 C71.9062254,6.66784222 71.8249971,6.28722572 71.9603776,5.9337961 C72.0957582,5.58036649 72.5560522,5.39005824 73.5037162,4.90069416 C74.6138369,4.32976939 74.884598,3.8947791 75.0199786,3.54134949 C75.1553592,3.18791987 75.4261203,2.53543443 75.5344248,2.20919171 C75.6427292,1.91013588 75.832262,1.66545384 76.075947,1.4479587 C76.3737843,1.28483734 76.6986977,1.14890287 76.9965349,1.0401553 C77.0506872,1.06734219 76.4550126,0.577978109 76.2654798,0.442043642 Z" id="路径"></path>
        </g>
    </g>
</svg>