<?xml version="1.0" encoding="UTF-8"?>
<svg width="160px" height="60px" viewBox="0 0 160 60" version="1.1" xmlns="http://www.w3.org/2000/svg" xmlns:xlink="http://www.w3.org/1999/xlink">
    <title>画板</title>
    <g id="画板" stroke="none" stroke-width="1" fill="none" fill-rule="evenodd">
        <g id="Substrate-logo" transform="translate(16.151515, 9.000000)" fill="#FFFFFF">
            <path d="M18.0083507,41.3759224 L17.4676409,41.6922066 L17.565762,41.7495199 L18.0083507,41.4905489 L18.0083507,42 L35.9979123,31.4395027 L35.9979123,30.2974831 L18.0083507,40.8579804 L18.0083507,41.3759224 Z M18.0083507,37.9052866 L14.5135699,39.9579501 L14.6826722,40.0577176 L18.0083507,38.1069443 L18.0083507,38.5357323 L35.9979123,27.9731123 L35.9979123,26.9138785 L18.0083507,37.4743758 L18.0083507,37.9052866 Z M18.0083507,34.4367735 L11.5574113,38.2236935 L11.8016701,38.3659153 L18.0083507,34.7233397 L18.0083507,35.0650965 L35.9979123,24.5045992 L35.9979123,23.5302739 L18.0083507,34.0907713 L18.0083507,34.4367735 Z M35.9979123,10.3057718 L35.7327766,10.1508137 L21.3277662,18.6077024 L19.4572025,17.5102598 L23.8350731,14.9396543 L23.8350731,14.2964723 L33.3152401,8.73071869 L32.8517745,8.45901142 L23.8350731,13.750935 L23.8350731,13.1990296 L17.9749478,16.6399474 L15.954071,15.4533509 L30.3590814,6.99646214 L29.9686848,6.76720914 L15.5636743,15.2240978 L13.5970772,14.069342 L16.7912317,12.1949864 L16.1941545,11.8447387 L27.4070981,5.2622056 L27.0897704,5.07540685 L15.8768267,11.65794 L15.308977,11.324674 L12.1064718,13.1990296 L12.1064718,13.8719296 L9.10438413,15.6337815 L8.88517745,15.5064187 L0,20.7198019 L0,21.6070959 L9.64091858,15.947943 L9.41962422,15.8184575 L12.1043841,14.2434044 L12.1043841,14.9354089 L14.0793319,16.0944102 L11.9874739,17.3213383 L11.8413361,17.2364298 L0,24.1904377 L0,24.9928232 L12.5281837,17.6376226 L12.3799582,17.5505913 L14.4697286,16.3236632 L16.4906054,17.5102598 L12.1064718,20.0851107 L12.1064718,20.5521076 L0,27.6589508 L0,28.3743051 L12.1064718,21.2674618 L12.1064718,21.8151218 L13.9853862,22.9168099 L0.00208768267,31.1253412 L0.00208768267,31.4352573 L0.275574113,31.5965834 L14.5240084,23.2330941 L16.4676409,24.372991 L12.1085595,26.9075104 L12.1085595,27.4891337 L2.69519833,33.0166785 L3.15866388,33.2883857 L12.1085595,28.034671 L12.1085595,28.7054483 L17.9770355,25.2602851 L19.7494781,26.3004144 L18.0104384,27.3214394 L18.0104384,27.4933792 L5.64926931,34.7488123 L6.03966597,34.9780653 L18.0104384,27.9518852 L18.0104384,28.1238249 L20.434238,26.7016072 L22.3569937,27.8308905 L19.2192067,29.6734054 L19.4947808,29.8347316 L18.0104384,30.705044 L18.0104384,30.964015 L8.60334029,36.4873143 L8.92066806,36.674113 L18.0083507,31.3397352 L18.0083507,31.5965834 L20.2484342,30.2805014 L20.6993737,30.5458405 L23.8371608,28.707571 L23.8371608,28.17477 L36,21.0360861 L36,20.1487921 L23.8371608,27.287476 L23.8371608,26.9627009 L21.914405,25.8334176 L35.9979123,17.5654503 L35.9979123,16.7630648 L21.2296451,25.4322248 L19.4572025,24.3920954 L23.8350731,21.8214899 L23.8350731,21.2356211 L35.9979123,14.0969372 L35.9979123,13.3815829 L23.8350731,20.5202669 L23.8350731,20.0808653 L21.8643006,18.9239867 L35.9979123,10.6263014 L35.9979123,10.3057718 Z M13.5970772,20.9511776 L17.9749478,18.3805721 L19.8434238,19.4780148 L17.7578288,20.7028202 L15.4655532,22.0486202 L13.5970772,20.9511776 L13.5970772,20.9511776 Z M22.3528184,20.9511776 L17.9561587,23.5090468 L16.006263,22.3649045 L18.0187891,21.1825533 L20.3841336,19.794299 L22.3528184,20.9511776 L22.3528184,20.9511776 Z M6.46137787,14.0884464 L24.4509395,3.52794905 L24.2066806,3.38360457 L6.217119,13.9441019 L5.92484342,13.7742848 L1.77635684e-15,17.2512888 L1.77635684e-15,18.2256141 L6.75574113,14.2603861 L6.46137787,14.0884464 Z M3.50313152,12.3563125 L21.4968685,1.79369251 L21.3256785,1.69180228 L3.33194154,12.256545 L2.96450939,12.042151 L1.77635684e-15,13.7827757 L1.77635684e-15,14.8420095 L3.87056367,12.5707066 L3.50313152,12.3563125 Z M0.542797495,10.6241787 L18.5407098,0.0573132518 L18.4425887,0 L0.444676409,10.5668655 L0.00626304802,10.3100172 L3.55271368e-15,10.3121399 L3.55271368e-15,11.4584049 L0.983298539,10.881027 L0.542797495,10.6241787 Z" id="形状" fill-rule="nonzero"></path>
            <text id="Substrate" font-family="Abel-Regular, Abel" font-size="20" font-weight="normal" letter-spacing="1">
                <tspan x="43" y="28">Substrate</tspan>
            </text>
        </g>
    </g>
</svg>