<?xml version="1.0" encoding="UTF-8"?>
<svg width="160px" height="60px" viewBox="0 0 160 60" version="1.1" xmlns="http://www.w3.org/2000/svg" xmlns:xlink="http://www.w3.org/1999/xlink">
    <title>画板</title>
    <g id="画板" stroke="none" stroke-width="1" fill="none" fill-rule="evenodd">
        <g id="logo-polkadot" transform="translate(10.000000, 14.000000)" fill-rule="nonzero">
            <path d="M33.5193312,14.3580294 C30.8175976,14.3227055 28.267257,15.6796337 26.6767643,17.9986694 C24.8504812,20.3899118 23.8764548,23.3880695 23.9258674,26.4662252 C23.833979,28.4460066 24.4505582,30.3894602 25.6519203,31.906732 C26.8036445,33.2961828 28.4876384,34.0547014 30.2290428,33.9683978 C32.8030961,33.9661529 35.2307389,32.6970504 36.8019139,30.5322882 C38.7506901,28.0499767 39.8024881,24.9115607 39.7685674,21.6802154 C39.8464491,19.7858968 39.33464,17.9170608 38.3122102,16.3624267 C37.2873663,15.0452513 35.6691917,14.3580294 33.5193312,14.3580294 Z M33.6272095,28.8878643 C32.7600407,29.8281573 31.576344,30.3638252 30.3369211,30.3768452 C29.5027812,30.4253758 28.6983472,30.0410367 28.179355,29.3460123 C27.614522,28.5199442 27.3417141,27.5090772 27.4087956,26.4907688 C27.3332223,24.3132627 27.9194755,22.1677124 29.0809094,20.3712212 C30.0037238,18.823216 31.6167256,17.8941584 33.3421025,17.9168572 C35.2736379,17.9168572 36.2419741,19.174037 36.2471112,21.6883966 C36.2800456,24.3569632 35.3415155,26.9360359 33.6272095,28.8878643 L33.6272095,28.8878643 Z M137.930121,23.3982702 C137.111987,23.0981804 136.21498,23.5242426 135.880433,24.3718346 C134.377843,28.3806291 132.543911,30.3768452 130.278467,30.3768452 C129.091805,30.3768452 128.498475,29.2887438 128.498475,27.2352592 C128.645635,24.9051356 128.965117,22.5909027 129.453968,20.3139527 L129.939421,17.908676 L134.562777,17.908676 C135.358032,17.9164592 136.040731,17.3095376 136.173246,16.4769637 C136.272013,15.9609582 136.148904,15.4250692 135.837459,15.0152933 C135.526014,14.6055174 135.05868,14.3645462 134.562777,14.3580294 L130.70998,14.3580294 L131.480539,10.3574161 C131.588765,9.81740508 131.464038,9.25429846 131.140468,8.8221011 C130.816899,8.38990374 130.328346,8.13384136 129.808426,8.12394485 C128.998928,8.11102014 128.29591,8.71296468 128.136312,9.55565719 L127.14229,14.3007609 L116.35446,14.3007609 C113.637815,14.2747077 111.079264,15.6543108 109.496482,17.9986694 C107.670198,20.3899118 106.696172,23.3880695 106.745585,26.4662252 C106.74536,27.2926932 106.83587,28.1163723 107.015281,28.9205892 C106.31155,29.7953465 105.293414,30.3150481 104.210445,30.3523015 C103.659285,30.4086424 103.117377,30.1729908 102.761793,29.7223481 C102.429434,29.0983931 102.279237,28.3836381 102.33028,27.6688635 C102.402339,25.6048573 102.660369,23.5529179 103.100839,21.5411347 L105.897969,7.69852176 C106.110754,6.72029696 105.536343,5.74414637 104.614988,5.5182284 C103.693633,5.29231043 102.774232,5.90217562 102.561448,6.88040042 L100.943273,15.3315938 C99.802839,14.6072604 98.4963946,14.2307663 97.1675322,14.2434924 C94.4626539,14.2012916 91.8860283,15.4652954 90.1631479,17.679602 C88.2715024,20.1243104 87.2778461,23.2137127 87.3660175,26.3762318 C87.347259,27.3808851 87.4746153,28.3825965 87.7435916,29.3460123 C87.0834009,29.9540619 86.2440187,30.2983861 85.3702688,30.3195767 C84.7923824,30.3744318 84.2231899,30.1417666 83.8291501,29.6896232 C83.4501857,29.0845532 83.2787797,28.3594983 83.3436978,27.6361387 C83.4013042,26.2575661 83.5819098,24.8878996 83.8830893,23.545532 C83.9788127,23.0294055 83.8666789,22.4943009 83.5738746,22.0699534 C83.2810704,21.6456058 82.8343321,21.3707632 82.3419706,21.3120608 C81.476878,21.1943334 80.666878,21.7864621 80.4618058,22.6865046 C80.010733,24.6463471 79.2046328,26.4942178 78.0884831,28.1270115 C77.2972922,29.4217162 75.9786637,30.2459701 74.528499,30.3523015 C73.7728224,30.3364856 73.0800382,29.901986 72.7022733,29.2069316 C72.2040465,28.2881354 71.9584458,27.2394258 71.9933587,26.1798827 C71.8937645,24.0361173 72.4803837,21.9196562 73.6577669,20.1748721 C74.6593721,18.6369005 76.3199802,17.7338454 78.0807775,17.7695954 C78.9709932,17.7767175 79.8510236,17.9713737 80.6698569,18.3422803 C81.1657969,18.5999709 81.7536857,18.5562786 82.2109755,18.2277433 C82.7512893,17.8852836 83.0634998,17.2485743 83.0178554,16.5822255 C82.972211,15.9158768 82.5765166,15.3338293 81.9952189,15.0779762 C81.5634958,14.8790342 81.1144168,14.725582 80.6544457,14.6198282 C79.8284105,14.3746807 78.9767746,14.2400123 78.1193055,14.2189488 C75.4403057,14.2072081 72.8966136,15.4675343 71.1842714,17.6550584 C70.1623892,18.8745867 69.4071871,20.3189734 68.9727662,21.8847457 L68.9727662,21.8847457 C67.3006524,27.5216017 65.1507919,30.2704894 62.5617125,30.2704894 C61.8100784,30.3337742 61.0793318,29.9889515 60.619903,29.3541935 C60.192119,28.7043462 59.9830933,27.9203943 60.0265723,27.1289035 C60.0131428,26.8792959 60.031284,26.6289033 60.0805114,26.384413 C61.6407976,25.7387774 63.0032322,24.6489264 64.0180696,23.2346459 C65.0037717,21.8947355 65.5454856,20.2469287 65.5591883,18.5468107 C65.5591883,15.683386 64.1105368,14.2516736 61.1438833,14.2516736 C59.083277,14.2412229 57.1045764,15.1074854 55.6497953,16.6569504 L57.4837265,7.65761569 C57.5882515,7.12402606 57.4604995,6.56884582 57.1360139,6.14653818 C56.8115283,5.72423054 56.3249342,5.47985897 55.8116127,5.48141294 C55.0021152,5.46848823 54.299097,6.07043277 54.139499,6.91312528 L49.1308633,31.7431078 C49.0235996,32.2757128 49.1492557,32.8312412 49.4726252,33.2540447 C49.7959948,33.6768482 50.282294,33.9214475 50.7952714,33.9193105 L50.7952714,33.9193105 C51.5930225,33.8926611 52.2629645,33.2736989 52.3980349,32.4385109 L53.9391535,24.8299825 C54.2043003,23.8200142 54.5657645,22.8413873 55.0179366,21.9092893 C55.5851987,20.8382767 56.3568067,19.9047949 57.283381,19.1685829 C58.2226659,18.302055 59.4296298,17.8331562 60.6738421,17.8514075 C61.0307301,17.7955551 61.3914643,17.9222758 61.6465489,18.1931052 C61.9016335,18.4639347 62.0209872,18.8469349 61.9683818,19.2258514 C61.8803798,20.4403373 61.2871825,21.5500057 60.3502072,22.2529003 C59.3699565,23.1908145 58.1549446,23.8074039 56.8518678,24.0282236 C56.7439895,25.116325 56.6900504,25.9180839 56.6900504,26.3762318 C56.6071544,28.34467 57.1350303,30.2875929 58.1926411,31.906732 C59.2303607,33.2913312 60.8457163,34.0416707 62.5077733,33.9111293 C64.8076579,33.8888753 66.9712355,32.7493579 68.3794355,30.8186307 L69.0267053,30.0005093 C69.2705776,30.6673117 69.6168878,31.2865721 70.0515492,31.8331011 C71.1013244,33.2023443 72.6974515,33.9662994 74.3589759,33.8947669 C76.6706539,33.8947669 78.620169,32.749397 80.2383436,30.3441203 C80.931847,32.749397 82.5500216,33.8947669 85.2469793,33.8947669 C86.7617768,33.8745813 88.2235068,33.2994625 89.3848829,32.2667054 C90.4259409,33.3029326 91.8113298,33.8589331 93.2376796,33.8129548 C95.5493576,33.8129548 97.4911671,32.6675849 99.1093417,30.2623082 C99.8105507,32.6675849 101.42102,33.8129548 104.117977,33.8129548 C105.82956,33.8312206 107.483186,33.155278 108.741333,31.9230945 C109.87524,33.1838274 111.461743,33.8712885 113.102699,33.8129548 C115.677301,33.8132064 118.105925,32.5435908 119.67557,30.3768452 C121.615729,27.9052848 122.666979,24.7830006 122.642224,21.5656784 C122.665673,20.2566385 122.445719,18.9555413 121.994954,17.7368705 L126.471904,17.7368705 L126.040391,19.7985363 C125.489894,22.1838452 125.129032,24.6140229 124.961607,27.0634537 C124.961607,31.522215 126.68766,33.8129548 130.078121,33.8129548 C133.930918,33.8129548 136.81281,31.0640671 138.862498,25.6317414 C139.043964,25.2067529 139.045897,24.7197233 138.867811,24.2931261 C138.689725,23.8665289 138.348565,23.5409526 137.930121,23.3982702 Z M99.7257892,21.2220674 C99.1324585,24.3718346 98.1846705,26.6625743 97.0827707,28.1515551 C95.9808708,29.640536 94.7171535,30.3768452 93.4226139,30.3768452 C92.6650249,30.3606627 91.9700875,29.926644 91.5886826,29.2314753 C91.1028553,28.3285547 90.8602732,27.3011641 90.8874736,26.2616948 C90.7870403,24.1165815 91.3766941,21.9989762 92.5595874,20.2566842 C93.3581946,18.9539168 94.6550716,18.0889019 96.1071223,17.8904838 C97.559173,17.6920657 99.020084,18.1802377 100.103363,19.2258514 L99.7257892,21.2220674 Z M118.481203,25.5172044 C117.959395,26.6991799 117.307586,27.8113884 116.539394,28.8305958 C115.684282,29.7965851 114.497528,30.3542922 113.249106,30.3768452 C112.417134,30.4254553 111.614991,30.040837 111.099245,29.3460123 C110.534412,28.5199442 110.261604,27.5090772 110.328686,26.4907688 C110.254131,24.3145987 110.83737,22.1701952 111.993094,20.3712212 C112.925217,18.8338275 114.532213,17.9082291 116.254287,17.9167974 C118.196096,17.9167974 119.167001,19.174037 119.167001,21.6883966 C119.129751,22.9987922 118.884884,24.2931671 118.442675,25.5172044 L118.481203,25.5172044 Z M48.1214306,5.48938996 C47.311933,5.47666945 46.6089149,6.07861398 46.4493168,6.92130649 L41.4406811,31.751289 C41.3334174,32.283894 41.4590736,32.8394224 41.7824431,33.2622259 C42.1058126,33.6850295 42.5921119,33.9296287 43.1050893,33.9276959 C43.9145868,33.9404165 44.617605,33.3384719 44.777203,32.4957794 L49.7935443,7.6657969 C49.8892934,7.13349893 49.7582379,6.58350248 49.4355917,6.16358876 C49.1129455,5.74367504 48.6317978,5.49690854 48.1214306,5.48938996 Z M12.2827159,0 C5.50968803,0.026916388 0.025351671,5.84976789 0,13.0408541 C0,14.4812297 0.218404179,15.9122123 0.647269926,17.2787226 C0.966957862,18.207221 1.91340764,18.7096552 2.80483606,18.4240925 C3.66990061,18.0750663 4.12922038,17.0710381 3.85279676,16.1333527 C3.48797336,15.0706691 3.32558265,13.9416348 3.37504997,12.8117801 C3.51710507,7.7279551 7.43878037,3.68434998 12.2291604,3.68238428 C17.0195404,3.68041859 20.9441584,7.72080403 21.0899147,12.8045109 C21.235671,17.8882178 17.5497911,22.1745738 12.7681683,22.4819743 C12.7681683,22.4819743 11.0498209,22.5965113 10.1867945,22.7110482 C9.87033052,22.7584667 9.55651196,22.824012 9.2467121,22.9073974 C9.20069581,22.9440398 9.13630465,22.9391812 9.0956316,22.8959977 C9.05495856,22.8528141 9.05038242,22.7844485 9.08489464,22.7355919 L9.35459041,21.1893426 L10.972765,13.4090087 C11.1663985,12.444339 10.5868134,11.4956598 9.67822532,11.2900745 C8.7696373,11.0844891 7.87611019,11.6998486 7.68247665,12.6645183 C7.68247665,12.6645183 3.82967998,31.6612956 3.82967998,31.8331011 C3.7224558,32.2963366 3.79966139,32.7860104 4.04313248,33.1869162 C4.28660357,33.587822 4.6748448,33.8645649 5.11651407,33.9520354 C5.55377451,34.0632615 6.0148668,33.9791572 6.39209287,33.7193669 C6.76931894,33.4595767 7.02964372,33.0468512 7.11226275,32.5775915 C7.1662019,32.3485176 7.65165428,29.8287039 7.65165428,29.8287039 C8.01790585,27.9290213 9.46019282,26.4728068 11.2655776,26.1798827 C11.635446,26.1226142 13.1996815,26.0080772 13.1996815,26.0080772 C19.6903387,25.3711492 24.5802267,19.4590171 24.3363961,12.5432028 C24.0925656,5.62738847 18.8000581,0.119942288 12.2827159,0 Z" id="形状" fill="#FFFFFF"></path>
            <path d="M141.404378,30.0396729 C140.882577,29.9344754 140.340134,30.0404568 139.897138,30.3341545 C139.454142,30.6278522 139.147137,31.0850378 139.044089,31.6044971 C138.93192,32.1240171 139.035853,32.6665678 139.332238,33.1086868 C139.628623,33.5508057 140.092249,33.8548867 140.617615,33.9517333 C141.139717,34.0698385 141.687683,33.969041 142.132758,33.6730253 C142.577833,33.3770097 142.880779,32.911873 142.970411,32.3869092 C143.153687,31.3159798 142.467827,30.287984 141.404378,30.0396729 L141.404378,30.0396729 Z" id="路径" fill="#E6007A"></path>
        </g>
    </g>
</svg>