<svg width="249" height="42" viewBox="0 0 249 42" fill="none" xmlns="http://www.w3.org/2000/svg">
<path d="M36.9942 7.60791V16.0856H28.5719V8.69811C28.5719 8.09576 28.0805 7.60791 27.4737 7.60791H24.6304V27.8091C24.6304 28.4114 25.1218 28.8993 25.7286 28.8993H28.5719V19.5031H36.9942V27.8066C36.9942 28.4089 37.4856 28.8968 38.0924 28.8968H40.9357V8.69811C40.9357 8.09576 40.4443 7.60791 39.8375 7.60791H36.9942V7.60791Z" fill="white"/>
<path d="M53.5259 12.6274V22.7156C53.5259 23.6315 53.0545 24.5002 52.2546 24.9607C50.0231 26.2401 47.7138 24.6421 47.7138 22.5339V13.7176C47.7138 13.1153 47.2224 12.6274 46.6156 12.6274H43.7622V22.8923C43.7622 26.1953 46.4852 28.8984 49.8125 28.8984H51.4297C54.757 28.8984 57.48 26.1953 57.48 22.8923V13.7176C57.48 13.1153 56.9885 12.6274 56.3818 12.6274H53.5259Z" fill="white"/>
<path d="M97.1388 28.8988H99.9821V14.6117C99.9821 14.0093 99.4907 13.5215 98.8839 13.5215H96.0405V27.8086C96.0405 28.411 96.532 28.8988 97.1388 28.8988Z" fill="white"/>
<path d="M98.0105 11.9732C99.2249 11.9732 100.209 10.9959 100.209 9.79032C100.209 8.58474 99.2249 7.60742 98.0105 7.60742C96.796 7.60742 95.8115 8.58474 95.8115 9.79032C95.8115 10.9959 96.796 11.9732 98.0105 11.9732Z" fill="white"/>
<path d="M67.792 12.6182C63.6573 12.6182 60.2749 15.5528 60.2749 19.6572V21.8774C60.2749 25.9819 63.6573 28.899 67.792 28.899C71.9266 28.899 75.3091 25.9819 75.3091 21.8774V19.6572C75.3091 15.5528 71.9266 12.6182 67.792 12.6182ZM71.3474 22.1438C71.3474 24.0852 69.7477 25.377 67.792 25.377C65.8362 25.377 64.2365 24.0852 64.2365 22.1438V19.3734C64.2365 17.432 65.8362 16.1402 67.792 16.1402C69.7477 16.1402 71.3474 17.432 71.3474 19.3734V22.1438Z" fill="white"/>
<path d="M85.6826 12.6182C84.3913 12.6182 83.1727 12.9045 82.1071 13.4247V8.68054C82.1071 8.07819 81.6157 7.59033 81.0089 7.59033H78.1655V21.8775C78.1655 25.9819 81.548 28.8991 85.6826 28.8991C89.8172 28.8991 93.1997 25.9819 93.1997 21.8775V19.6573C93.1997 15.5528 89.8172 12.6182 85.6826 12.6182ZM89.238 22.1438C89.238 24.0853 87.6383 25.3771 85.6826 25.3771C83.7269 25.3771 82.1272 24.0853 82.1272 22.1438V19.3735C82.1272 17.432 83.7269 16.1402 85.6826 16.1402C87.6383 16.1402 89.238 17.432 89.238 19.3735V22.1438Z" fill="white"/>
<path d="M12.7377 9.08679C12.7377 4.84793 10.6566 1.20147 9.07444 0.0141954C9.06692 0.0117064 8.95409 -0.053009 8.96412 0.116247C8.96412 0.118736 8.96161 0.118736 8.96161 0.121225C8.83123 8.30771 4.61886 10.5255 2.30206 13.5148C-3.04364 20.412 1.92846 27.9737 6.99082 29.3701C9.82414 30.1516 6.3364 27.9861 5.88758 23.4113C5.34349 17.8831 12.7377 13.6642 12.7377 9.08679Z" fill="white"/>
<path d="M15.1672 11.8741C15.1346 11.8516 15.0895 11.8367 15.0569 11.889C14.9692 12.9195 13.9085 15.1248 12.5646 17.1484C8.00622 24.0132 10.6038 27.3236 12.0656 29.1008C12.9131 30.1337 12.0656 29.1008 14.1844 28.0454C14.3498 27.9633 18.3215 25.753 18.7503 20.7176C19.169 15.8416 16.2178 12.7676 15.1672 11.8741Z" fill="white"/>
<path d="M122.087 25.1228H111.847V19.7092H119.768C119.853 19.7092 120.364 19.7191 120.984 19.739L121.147 19.744V17.367C121.147 17.011 121.011 16.68 120.763 16.4311C120.515 16.1822 120.201 16.0328 119.838 16.0552H111.847V11.4107H123.085V8.9465C123.085 8.22218 122.511 7.63477 121.806 7.63477H108.036V7.79655C108.036 7.79655 108.028 23.164 108.016 27.5845C108.016 27.9355 108.146 28.264 108.387 28.5129C108.627 28.7618 108.951 28.8987 109.294 28.8987H123.366V26.4346C123.366 25.7103 122.792 25.1228 122.087 25.1228Z" fill="white"/>
<path d="M142.839 13.1626C141.513 11.4451 138.857 10.895 137.035 10.895C133.269 10.895 130.458 13.5932 130.458 17.6678C130.458 22.6011 133.206 25.0851 137.188 25.0851C139.286 25.0851 141.633 24.2588 142.776 23.0615H142.932V25.9638C142.932 27.1934 140.582 28.7316 136.633 28.7316C131.014 28.7316 126.198 24.5624 126.198 18.2801C126.198 11.8135 130.551 7.24609 137.004 7.24609C140.462 7.24609 142.995 8.46822 142.995 9.42401V13.1601H142.839V13.1626Z" fill="white"/>
<path d="M155.256 7.63721C149.868 7.63721 145.804 11.5375 145.804 16.7123V19.8161C145.804 24.9759 149.868 28.8663 155.256 28.8663C160.645 28.8663 164.709 24.9759 164.709 19.8161V16.7123C164.709 11.5375 160.645 7.63721 155.256 7.63721ZM160.83 20.1895C160.83 23.2037 158.433 25.073 155.254 25.073C152.075 25.073 149.678 23.2037 149.678 20.1895V16.3165C149.678 13.3023 152.075 11.3932 155.254 11.3932C158.433 11.3932 160.83 13.3023 160.83 16.3165V20.1895Z" fill="white"/>
<path d="M219.153 13.7606C217.967 12.8197 216.23 12.3418 213.993 12.3418C213.161 12.3418 212.288 12.4015 211.395 12.521C210.681 12.6156 209.665 12.7525 208.963 12.9118C208.677 12.9765 208.627 13.198 208.627 13.4644V15.5875C208.627 15.9659 208.632 16.3093 209.033 16.2123C209.786 16.0306 211.245 15.7095 211.641 15.6448C212.268 15.5427 212.952 15.4904 213.67 15.4904C214.79 15.4904 215.643 15.6896 216.21 16.0804C216.739 16.4487 217.009 17.1506 217.009 18.1662V18.2881C216.811 18.2707 216.591 18.2533 216.352 18.2359C215.906 18.206 215.334 18.1911 214.635 18.1911C213.682 18.1911 212.759 18.2981 211.892 18.5097C211.012 18.7237 210.219 19.0573 209.54 19.5003C208.848 19.9508 208.291 20.5233 207.89 21.2003C207.484 21.8848 207.278 22.6838 207.278 23.5774C207.278 24.4859 207.454 25.2749 207.802 25.927C208.153 26.5841 208.657 27.1317 209.299 27.5524C209.931 27.9705 210.708 28.2742 211.606 28.4609C212.479 28.6401 213.466 28.7322 214.542 28.7322C215.324 28.7322 220.969 28.6526 220.969 25.9868C220.969 22.8979 220.969 18.2807 220.969 18.2807C220.966 16.2372 220.357 14.7164 219.153 13.7606ZM217.009 21.3273V25.4317C216.701 25.4915 216.36 25.5387 215.989 25.5711C215.084 25.6557 214.269 25.6707 213.326 25.586C212.957 25.5537 212.616 25.4591 212.313 25.3098C212.02 25.1654 211.782 24.9588 211.581 24.68C211.39 24.4162 211.295 24.0254 211.295 23.5201C211.295 22.7311 211.578 22.1686 212.16 21.7952C212.779 21.397 213.72 21.1954 214.953 21.1954C215.287 21.1954 215.691 21.2153 216.169 21.2526C216.488 21.2775 216.766 21.3024 217.009 21.3273Z" fill="white"/>
<path d="M238.255 12.4138C236.698 12.4138 234.97 12.7847 234.685 13.5787V13.2028C234.685 12.6328 234.221 12.1724 233.647 12.1724H230.505V27.704C230.505 28.274 230.969 28.7345 231.543 28.7345H234.655V19.866C234.655 16.9887 236.332 16.0179 237.616 16.0179C239.416 16.0179 240.88 17.0783 240.88 19.7441V27.7016C240.88 28.2715 241.344 28.732 241.918 28.732H245V19.5624C245 14.9277 242.498 12.4138 238.255 12.4138Z" fill="white"/>
<path d="M224.875 28.5429H227.718V14.2557C227.718 13.6534 227.227 13.1655 226.62 13.1655H223.776V27.4527C223.776 28.055 224.268 28.5429 224.875 28.5429Z" fill="white"/>
<path d="M225.749 11.6143C226.963 11.6143 227.948 10.637 227.948 9.43143C227.948 8.22585 226.963 7.24854 225.749 7.24854C224.534 7.24854 223.55 8.22585 223.55 9.43143C223.55 10.637 224.534 11.6143 225.749 11.6143Z" fill="white"/>
<path d="M187.133 13.1626C185.806 11.4451 183.151 10.895 181.328 10.895C177.562 10.895 174.751 13.5932 174.751 17.6678C174.751 22.6011 177.499 25.0851 181.481 25.0851C183.58 25.0851 185.927 24.2588 187.07 23.0615H187.225V25.9638C187.225 27.1934 184.876 28.7316 180.927 28.7316C175.308 28.7316 170.491 24.5624 170.491 18.2801C170.491 11.8135 174.844 7.24609 181.298 7.24609C184.756 7.24609 187.288 8.46822 187.288 9.42401V13.1601H187.133V13.1626Z" fill="white"/>
<path d="M197.773 12.6978C196.231 12.6978 194.521 13.0637 194.237 13.8528V8.35694C194.237 7.79441 193.776 7.33643 193.209 7.33643H190.098V27.7143C190.098 28.2768 190.559 28.7348 191.126 28.7348H194.207V20.0779C194.207 17.2279 195.87 16.2671 197.138 16.2671C198.921 16.2671 200.373 17.3175 200.373 19.9584V27.7118C200.373 28.2743 200.834 28.7323 201.401 28.7323H204.452V19.7792C204.452 15.1894 201.973 12.6978 197.773 12.6978Z" fill="white"/>
</svg>
