<?xml version="1.0" encoding="UTF-8"?>
<svg width="160px" height="60px" viewBox="0 0 160 60" version="1.1" xmlns="http://www.w3.org/2000/svg" xmlns:xlink="http://www.w3.org/1999/xlink">
    <title>画板</title>
    <g id="画板" stroke="none" stroke-width="1" fill="none" fill-rule="evenodd">
        <g id="123" transform="translate(32.000000, 9.000000)" fill="#FFFFFF" fill-rule="nonzero">
            <path d="M21,13.6101266 L21,10.5053165 C21,9.37822785 20.3184584,8.37873418 19.2748479,7.9321519 L0,0 L0,1.72253165 L17.1876268,8.80405063 C17.7839757,9.03797468 17.7839757,9.88860759 17.1876268,10.1225316 L0,17.2040506 L0,24.115443 L10.3509128,19.8410127 L17.1663286,22.6481013 C17.7626775,22.8820253 17.7626775,23.7326582 17.1663286,23.9665823 L0,31.0481013 L0,42 L19.2748479,34.0678481 C20.3184584,33.6425316 21,32.6217722 21,31.4946835 L21,24.3706329 C21,23.2435443 20.3184584,22.2440506 19.2748479,21.7974684 L12.4381339,18.9903797 L19.2748479,16.1832911 C20.3184584,15.7579747 21,14.7372152 21,13.6101266 Z" id="路径"></path>
            <g id="编组" transform="translate(35.000000, 7.000000)">
                <polygon id="路径" points="1.42790543 2.9004329 2.96237096 8.98268398 4.68864469 2.9004329 6.32967033 2.9004329 7.94938395 8.98268398 9.54778555 2.9004329 10.7625708 2.9004329 8.6953047 10.2380952 7.16083916 10.2380952 5.45587746 3.91774892 3.68697969 10.2380952 2.13120213 10.2380952 0.127872128 2.9004329"></polygon>
                <path d="M12.6167166,6.92640693 C12.6593407,7.53246753 12.7232767,7.83549784 12.9150849,8.22510823 C13.2773893,8.91774892 14.0872461,9.37229437 14.8971029,9.37229437 C15.8774559,9.37229437 16.5168165,8.8961039 16.7938728,7.96536797 L18.1365301,7.96536797 C17.7955378,9.54545455 16.6233766,10.4329004 14.8757909,10.4329004 C12.7019647,10.4329004 11.3166833,8.91774892 11.3166833,6.53679654 C11.3166833,4.22077922 12.7019647,2.66233766 14.7692308,2.66233766 C16.964369,2.66233766 18.1578422,4.17748918 18.1578422,6.9047619 L12.6167166,6.9047619 L12.6167166,6.92640693 Z M16.4955045,4.67532468 C16.1545122,4.09090909 15.4725275,3.74458874 14.7692308,3.74458874 C13.5544456,3.74458874 12.7872128,4.52380952 12.6380286,5.93073593 L16.8364968,5.93073593 C16.7725608,5.28138528 16.6873127,4.97835498 16.4955045,4.67532468 Z" id="形状"></path>
                <path d="M19.3726274,0.108225108 L20.6087246,0.108225108 L20.6087246,4.004329 C21.1202131,3.13852814 21.8235098,2.72727273 22.8464868,2.72727273 C24.6366966,2.72727273 25.9154179,4.30735931 25.9154179,6.58008658 C25.9154179,8.85281385 24.7006327,10.3896104 22.8677989,10.3896104 C21.8661339,10.3896104 21.2054612,9.97835498 20.5661006,9.02597403 L20.5661006,10.2380952 L19.3726274,10.2380952 L19.3726274,0.108225108 L19.3726274,0.108225108 Z M20.6300366,6.53679654 C20.6300366,8.13852814 21.5251415,9.32900433 22.6973027,9.32900433 C23.8268398,9.32900433 24.5727606,8.24675325 24.5727606,6.58008658 C24.5727606,4.82683983 23.8268398,3.74458874 22.6546787,3.74458874 C21.4825175,3.74458874 20.6300366,4.89177489 20.6300366,6.53679654 Z" id="形状"></path>
                <path d="M28.1531802,7.14285714 C28.1318681,8.44155844 28.9417249,9.28571429 30.2204462,9.28571429 C31.3712954,9.28571429 32.2024642,8.54978355 32.2024642,7.53246753 C32.2024642,6.49350649 31.4139194,5.86580087 30.1351981,5.86580087 C30.007326,5.86580087 29.9007659,5.86580087 29.7089577,5.88744589 L29.7089577,4.76190476 C29.8581419,4.76190476 29.9433899,4.76190476 30.028638,4.76190476 C31.3499833,4.76190476 32.1172161,4.17748918 32.1172161,3.13852814 C32.1172161,2.16450216 31.3712954,1.53679654 30.2417582,1.53679654 C29.026973,1.53679654 28.3236763,2.27272727 28.2810523,3.57142857 L26.959707,3.57142857 C27.044955,1.55844156 28.2597403,0.38961039 30.2630703,0.38961039 C32.1172161,0.38961039 33.4172494,1.47186147 33.4172494,3.03030303 C33.4172494,4.06926407 32.6926407,5.02164502 31.7122877,5.28138528 C32.9057609,5.58441558 33.5451215,6.40692641 33.5451215,7.61904762 C33.5451215,9.26406926 32.1598402,10.4329004 30.1991342,10.4329004 C28.1531802,10.4329004 26.7678988,9.09090909 26.7892108,7.14285714 L28.1531802,7.14285714 Z" id="路径"></path>
                <path d="M1.49184149,18.030303 L0.191808192,18.030303 L0.191808192,17.012987 L1.49184149,17.012987 C1.51315351,15.8008658 1.53446553,15.5411255 1.7049617,15.1082251 C1.96070596,14.4155844 2.62137862,14.047619 3.6017316,14.047619 C3.79353979,14.047619 3.96403596,14.0692641 4.28371628,14.0909091 L4.28371628,15.2164502 C3.98534799,15.1298701 3.85747586,15.1298701 3.66566767,15.1298701 C3.23942724,15.1298701 2.91974692,15.3463203 2.81318681,15.7359307 C2.72793873,15.995671 2.72793873,16.1904762 2.72793873,16.991342 L4.28371628,16.991342 L4.28371628,18.008658 L2.72793873,18.008658 L2.72793873,24.3290043 L1.49184149,24.3290043 L1.49184149,18.030303 Z" id="路径"></path>
                <path d="M11.5511156,20.6709957 C11.5511156,23.030303 10.1658342,24.5670996 8.03463203,24.5670996 C5.94605395,24.5670996 4.56077256,22.987013 4.56077256,20.6493506 C4.56077256,18.3333333 5.96736597,16.7965368 8.07725608,16.7965368 C10.1445221,16.8181818 11.5511156,18.3766234 11.5511156,20.6709957 Z M5.9034299,20.6060606 C5.9034299,22.4025974 6.69197469,23.5064935 8.01332001,23.5064935 C9.33466533,23.5064935 10.2084582,22.4025974 10.2084582,20.6926407 C10.2084582,18.961039 9.35597736,17.8571429 8.03463203,17.8571429 C6.71328671,17.8571429 5.9034299,18.9177489 5.9034299,20.6060606 Z" id="形状"></path>
                <path d="M17.5611056,23.4848485 C17.1988012,24.1341991 16.3676324,24.5238095 15.3872794,24.5238095 C14.3856144,24.5238095 13.5970696,24.1125541 13.1708292,23.3982684 C12.8937729,22.9220779 12.8085248,22.4242424 12.8085248,21.1904762 L12.8085248,17.012987 L14.044622,17.012987 L14.044622,21.4285714 C14.044622,22.8138528 14.5561106,23.4632035 15.6003996,23.4632035 C16.2823843,23.4632035 16.8791209,23.1385281 17.2201132,22.5974026 C17.4332334,22.2510823 17.4758575,21.8398268 17.4758575,20.5411255 L17.4758575,17.034632 L18.7119547,17.034632 L18.7119547,24.3722944 L17.5184815,24.3722944 L17.5184815,23.4848485 L17.5611056,23.4848485 Z" id="路径"></path>
                <path d="M21.4185814,17.9004329 C21.972694,17.1645022 22.6333666,16.8614719 23.6137196,16.8614719 C24.6153846,16.8614719 25.4039294,17.2727273 25.8301698,17.987013 C26.1072261,18.4632035 26.1924742,18.961039 26.1924742,20.1948052 L26.1924742,24.3722944 L24.9350649,24.3722944 L24.9350649,19.95671 C24.9350649,18.5497835 24.4235764,17.9220779 23.3792874,17.9220779 C22.6759907,17.9220779 22.1005661,18.2467532 21.7595738,18.8095238 C21.5464535,19.1558442 21.5038295,19.5454545 21.5038295,20.8658009 L21.5038295,24.3722944 L20.2464202,24.3722944 L20.2464202,17.034632 L21.4185814,17.034632 L21.4185814,17.9004329 Z" id="路径"></path>
                <path d="M32.7778888,24.3506494 L32.7778888,23.1385281 C32.1385281,24.1125541 31.4565435,24.5021645 30.4761905,24.5021645 C28.6646687,24.5021645 27.4285714,22.965368 27.4285714,20.7142857 C27.4285714,18.4199134 28.6859807,16.8398268 30.4975025,16.8398268 C31.5204795,16.8398268 32.2237762,17.2510823 32.7352647,18.1168831 L32.7352647,14.2207792 L33.971362,14.2207792 L33.971362,24.3290043 L32.7778888,24.3290043 L32.7778888,24.3506494 Z M28.7712288,20.7142857 C28.7712288,22.3809524 29.4958375,23.4632035 30.6466866,23.4632035 C31.8188478,23.4632035 32.7139527,22.2727273 32.7139527,20.6709957 C32.7139527,19.025974 31.8827839,17.8787879 30.7106227,17.8787879 C29.5384615,17.8787879 28.7712288,18.961039 28.7712288,20.7142857 Z" id="形状"></path>
                <path d="M40.2370962,24.3506494 C40.1731602,23.961039 40.1518482,23.8311688 40.1092241,23.4415584 C39.4911755,24.1991342 38.7878788,24.5238095 37.7862138,24.5238095 C36.2304362,24.5238095 35.1861472,23.6147186 35.1861472,22.2943723 C35.1861472,21.3203463 35.7189477,20.6493506 36.7845488,20.3246753 C37.1255411,20.2164502 37.6796537,20.1082251 38.3190143,20.021645 C38.7239427,19.95671 39.1928072,19.8917749 40.002664,19.8268398 C39.981352,18.8744589 39.9387279,18.5930736 39.6829837,18.3116883 C39.4272394,18.030303 38.979687,17.8571429 38.4255744,17.8571429 C37.3599734,17.8571429 36.8271728,18.3333333 36.7632368,19.3290043 L35.4632035,19.3290043 C35.5910756,18.4199134 35.7615718,17.965368 36.2304362,17.5541126 C36.7419247,17.0779221 37.5517816,16.7965368 38.4255744,16.7965368 C39.5124875,16.7965368 40.3649684,17.1645022 40.8338328,17.8787879 C41.2174492,18.4199134 41.2813853,18.961039 41.2600733,21.2987013 C41.2387612,22.7705628 41.3026973,23.5497835 41.4945055,24.3506494 L40.2370962,24.3506494 Z M36.5288045,22.3376623 C36.5288045,23.0735931 37.0829171,23.5064935 37.978022,23.5064935 C38.7452547,23.5064935 39.3419913,23.2251082 39.7042957,22.6623377 C39.9174159,22.3376623 40.002664,21.9047619 40.002664,21.0822511 L40.002664,20.8225108 C37.4239094,20.995671 36.5288045,21.3852814 36.5288045,22.3376623 Z" id="形状"></path>
                <path d="M44.5208125,17.034632 L46.1405261,17.034632 L46.1405261,18.0519481 L44.5208125,18.0519481 L44.5208125,21.969697 C44.5208125,22.7922078 44.5421245,22.9437229 44.6699967,23.1168831 C44.7978688,23.2900433 45.0962371,23.3982684 45.4372294,23.3982684 C45.6929737,23.3982684 45.9274059,23.3549784 46.1405261,23.2900433 L46.1405261,24.3722944 C45.5651016,24.4805195 45.3519814,24.5021645 45.0536131,24.5021645 C44.3929404,24.5021645 43.8175158,24.1991342 43.5191475,23.7012987 C43.3486513,23.3766234 43.2847153,23.0735931 43.2847153,22.3593074 L43.2847153,21.8831169 L43.2847153,18.030303 L41.96337,18.030303 L41.96337,17.012987 L43.2847153,17.012987 L43.2847153,15.2380952 L44.5208125,15.2380952 L44.5208125,17.034632 Z" id="路径"></path>
                <path d="M47.2487512,14.2424242 L48.4848485,14.2424242 L48.4848485,15.7142857 L47.2487512,15.7142857 L47.2487512,14.2424242 Z M48.5061605,17.034632 L48.5061605,24.3722944 L47.2700633,24.3722944 L47.2700633,17.034632 L48.5061605,17.034632 L48.5061605,17.034632 Z" id="形状"></path>
                <path d="M56.7326007,20.6709957 C56.7326007,23.030303 55.3473193,24.5670996 53.2161172,24.5670996 C51.1275391,24.5670996 49.7422577,22.987013 49.7422577,20.6493506 C49.7422577,18.3333333 51.1488511,16.7965368 53.2587413,16.7965368 C55.3260073,16.8181818 56.7326007,18.3766234 56.7326007,20.6709957 Z M51.0849151,20.6060606 C51.0849151,22.4025974 51.8734599,23.5064935 53.1948052,23.5064935 C54.5161505,23.5064935 55.3899434,22.4025974 55.3899434,20.6926407 C55.3899434,18.961039 54.5374625,17.8571429 53.2161172,17.8571429 C51.8947719,17.8571429 51.0849151,18.9177489 51.0849151,20.6060606 Z" id="形状"></path>
                <path d="M59.1621712,17.9004329 C59.7162837,17.1645022 60.3769564,16.8614719 61.3573094,16.8614719 C62.3589744,16.8614719 63.1475191,17.2727273 63.5737596,17.987013 C63.8508159,18.4632035 63.9360639,18.961039 63.9360639,20.1948052 L63.9360639,24.3722944 L62.6999667,24.3722944 L62.6999667,19.95671 C62.6999667,18.5497835 62.1884782,17.9220779 61.1441891,17.9220779 C60.4408924,17.9220779 59.8654679,18.2467532 59.5244755,18.8095238 C59.3113553,19.1558442 59.2687313,19.5454545 59.2687313,20.8658009 L59.2687313,24.3722944 L58.032634,24.3722944 L58.032634,17.034632 L59.2047952,17.034632 L59.2047952,17.9004329 L59.1621712,17.9004329 Z" id="路径"></path>
            </g>
        </g>
    </g>
</svg>